<svg xmlns="http://www.w3.org/2000/svg" width="400" height="280"><path d="M194.83 121.5c9.078-5.3 17.97-5.6 26.97-5.6 4.59.3 9.1.5 13.9.3 4.801-.3 9.8-1 15.1-2.7 16.956-5.7 28.2-13.4 41.6-27.3-.011 13-4.8 23-19.1 34.1-15.108 11.5-31.6 17.2-50.7 18.4-6.733.5-11-.2-15.1-.7-4.063-.5-8.4-.7-14.8 0-11.03 1.4-17 4.1-25.6 9.8 7.639-12.7 14.1-18.7 27.7-26.3m-117.264-70.2c10.284 5.5 18.164 9.1 25.564 12.9 7.434 3.8 14.4 7.9 23 13.9 9.072 6.7 16 17.7 12.9 32.3-2.158 9.6-6.7 18.3-13.2 27.1 3.149-12.9 3.1-21.3-4-34.2-5.525-9.9-18-15.6-31.6-21.6-6.928-2.9-14.3-6.2-21.3-9.8-6.914-3.9-13.6-8.2-19.3-13.9-10.566-10.1-16.1-19.4-18.7-33.8-1.673-9.6 1-18.7 3.8-24.2 5.049 22.8 20.6 39.5 42.8 51.3m19.923 84.5c10.522.8 14.777 5.3 15.577 12.7.438 2.7.2 4.6-.8 7.2-3.066-3.8-7.1-5-11.7-5.2-2.363-.3-4.8-.3-7.4-.3-2.376 0-5-.2-7.4-.7-12.91-2.4-21.5-4.3-37.3-21.1-3.114-3.3-5.3-6.7-6.7-9.6-.475-.7-1-1.4-1.2-2.1 11.247 8.6 30.9 17.2 56.9 19.1m-22.863-42c5.742 2.2 11.463 4.4 16.763 6.5 5.004 2.2 10 4.3 14.1 6.5 8.6 4.8 14.1 10 15.1 17.7.669 4.1.4 15.3-4.8 22.5.446-2.6.7-5.2 0-8.8-1.701-9.4-8.2-14.6-15.8-18-3.84-1.7-7.9-2.9-12-4.1-4.037-.9-8.1-1.9-11.7-2.8-27.01-7.7-50-20.2-54.3-41.3-1.404-7.1-1.6-13.4-1.6-17.4-.047-1.7 0-2.9.2-3.9 8.604 23.7 32 34.5 54 43.1m137.859-5.4c-1.914.2-3.859.2-5.759.2-4.049 0-8.1-.5-11.7-1.2-4.303-.9-5.7-1.2-10-1.2-16.07 0-31.8 12-37.4 28.8-12.148 38.1-47.8 65.6-89.9 65.6-21.489 0-42.8-7.2-57.4-19.4-.2 1.9-.2 3.1-.2 4.6 0 5 0 9.8 2.2 15.5 3.066 8 10 15.1 20 15.1 18.934 0 30.4-8.6 50.3-11.9 5.698-1 10.2-1.7 19.1-1.7h14.815c30.132 0 55.485-19.4 64.785-46.5 6.486-20.4 23-37.4 47.1-45.8.2 0-.9-2.8-5.9-2.1zm-126.663 99.3c-2.39 1.2-4.496 2.2-7.396 4.1-4.083 2.6-8.9 7.4-13.4 12.4-4.794 4.8-9.6 10.1-13.2 13.4-3.791 3.6-8.8 5.8-14.3 5.8-4.787 0-9.1-1.7-12.7-4.3-5.484-4.3-10.5-9.6-14.6-15.3 7.679 4.7 14.6 6.4 23.9 5 6.022-.7 11.5-3.9 16.8-7.2 2.857-1.7 5.5-3.4 8.1-5 2.641-1.7 5.3-3.4 7.9-4.6 6.944-3.3 11.7-4.1 18.9-4.3m-21.482 39.8c3.109-2.7 5.482-6 7.382-9.4 2.188-3.6 3.9-7.2 5.5-10.8 3.149-7.1 6.5-13.6 12.2-17.2 2.184-1.2 4.8-1.9 7.4-2.2 2.197-.2 4.3-.2 6.5-.2-.713.5-1.2.7-1.7 1.2-1.165.7-2.4 1.7-3.6 2.9-3.064 3.3-5 9.1-6.4 15.1l-1.925 8.6c-.714 2.9-1.475 5.5-2.375 7.6-3.843 8.4-11.5 13.5-20.3 13.5-7.943 0-14.6-1.5-21.3-4.4 7.383.5 13.8-.2 18.6-4.7m115.476-73c8.127-2.4 15.024-1.2 21.724.2 3.623 1 7.2 1.7 10.8 2.2 3.825.4 7.9.7 12.2.2 13.149-1.7 23.2-4.8 31.8-8.4 7.897-3.3 14.8-7.4 22.2-11.7-6.182 9.1-15.7 19.9-31.5 28.5-11.983 6.5-24.4 10.8-43.8 9.3-4.295-.2-7.4-.9-10.3-1.9-2.846-.9-5.2-2.1-7.6-3.3-5.049-2.2-10.5-4.4-20.6-3.9-3.097 0-5 .3-7.6.7 7.369-5.9 12.9-9.1 22.7-11.9" fill="#FDBB30"/><path d="M142.9 228h-19.4v-35.2h9.2v27.7h11.9l-1.7 7.5m5.9 0h9.3v-35.2h-9.3v35.2zm29.5 0h-14.3v-35.2h15.6c5.1 0 9.2 2.1 9.2 8.6 0 3.2-1.3 6.5-5.2 7.8 3.5.9 6.5 3.7 6.5 7.9 0 6.4-3.8 10.9-11.8 10.9zm-1.8-27.8h-3.4v6.1h3.5c2.2 0 3-1.5 3-3.3 0-1.8-1-2.8-3.1-2.8zm-.1 13.3h-3.3v7h3.4c2.2 0 3.2-1.5 3.2-3.7 0-1.7-.5-3.3-3.3-3.3zm18 14.5v-35.2h20.4l-.6 7.4h-10.8v5.9h8.8v7.2h-8.8v7.2h12.1v7.5h-21.1m42.2 0l-3.7-9.9c-1.4-3.6-2.2-4.1-4.1-4.1v14h-9.1v-35.2h12.1c10.4 0 13.7 4.2 13.7 10 0 6.1-3.2 9.2-7.3 9.9 1.2.3 2.7 1.9 3.5 3.8 1.2 2.3 4.2 8.9 5.3 11.5h-10.4zm-5.3-27.8h-2.5v7.2h2.5c3.1 0 4.2-1.5 4.2-3.9 0-2.5-1.4-3.3-4.2-3.3zm40.3 27.8l-1.8-6.8h-8.3l-1.9 6.8h-9.5l11.3-35.2h9.4l10.6 35.2h-9.8zm-5.1-20.2c-.4-1.5-.6-3.6-.7-4.9-.1 1.3-.3 3.2-.9 5.6l-1.4 5.7h4.5l-1.5-6.4zm38.4 20.2h-19.4v-35.2h9.2v27.7h11.9l-1.7 7.5m-158.8 46.5c-2.3 2.6-5.1 4.2-9.8 4.2h-12.8v-35.2h12.4c2.5 0 5.6.2 8.4 2.2 4 2.7 5.8 7.6 5.8 14.8 0 5.4-.9 10.2-4 14zm-10.8-23.6h-2.8v20.3h3.1c2.5 0 4.5-1.3 4.5-11 0-8.2-2.1-9.3-4.8-9.3zm18.6 27.8v-35.2h20.4l-.6 7.4h-10.8v5.9h8.8v7.2h-8.8v7.2h12.1v7.5h-21.1m54.5 0l-.8-14.2c-.2-2.2-.3-4-.3-7.1-.4 3-.7 4.8-1.3 6.7l-4.2 14.6h-7.7l-3.7-14.2c-.5-2-.9-4-1.2-7.1h-.1c0 3.1 0 5-.1 7.3l-.7 14h-9.1l3.4-35.2h11.1l3.4 13.9c.5 2 .9 3.9 1.2 6.7.3-2.7.6-4.4 1.4-7.2l3.6-13.4h10.7l3.2 35.2h-8.8m27.2 1.2c-10.2 0-15.9-6.7-15.9-17.3 0-12.5 6.9-19.1 16.2-19.1 11.9 0 15.4 9.1 15.4 16.9 0 10.1-3.2 19.5-15.7 19.5zm0-29.3c-4.1 0-5.8 4.3-5.8 11 0 9 2.2 11.2 5.9 11.2 3.8 0 5.5-2.3 5.5-11.3 0-8.8-1.7-10.9-5.6-10.9zm35.1 29.3c-4.3 0-8.3-1.3-11.5-4.8-2.8-3.1-4-7.7-4-12.7 0-4.4.7-7.7 2.4-10.9 3-5.5 8.1-8 14.2-8 3.6 0 7.4 1 9 2.6l-3.8 6.6c-1.6-1.2-3.4-1.8-5.3-1.8-1.6 0-3 .4-3.9 1.3-1.7 1.8-2.3 3.6-2.3 7.8 0 5.8.2 8.6 1.7 10.3 1.2 1.3 2.6 2.2 4.5 2.2 2.3 0 4.1-.6 6.1-2.3l3.8 6.1c-2.2 2.1-5.8 3.6-10.9 3.6m31.7-1.2l-3.7-9.8c-1.4-3.7-2.2-4.1-4.1-4.1v13.9h-9.1v-35.2h12.1c10.4 0 13.7 4.2 13.7 10 0 6.1-3.2 9.2-7.3 9.9 1.2.4 2.7 2 3.5 3.8 1.2 2.4 4.2 8.9 5.3 11.5h-10.4zm-5.3-27.8h-2.5v7.2h2.5c3.1 0 4.2-1.5 4.2-3.8 0-2.6-1.4-3.4-4.2-3.4zm40.4 27.8l-1.9-6.8h-8.3l-1.9 6.8h-9.5l11.3-35.2h9.4l10.6 35.2h-9.7zm-5.2-20.1c-.3-1.6-.6-3.7-.6-5-.1 1.3-.4 3.2-1 5.6l-1.4 5.8h4.5l-1.5-6.4zm39.5-7.6h-8.2v27.7h-9.1v-27.7h-8.2v-7.5h26.5l-1 7.5m12.8 28.9c-5.3 0-9.4-1.3-13-3.2l3.2-7c2.5 1.4 6.3 2.8 9.9 2.8 3.5 0 4.9-1.3 4.9-3.2 0-1.6-1.1-2.3-3.5-2.9l-4.1-1.1c-5.1-1.3-8.6-4.1-8.6-10.2 0-7 5.7-11.6 13.6-11.6 4.9 0 9.4 1.2 12.6 3.4l-4.4 6.4c-2.3-1.5-5.5-2.4-7.9-2.4-2.3 0-3.6 1.1-3.6 2.5 0 1.2.8 2.3 3.5 3l3.5.9c3.8.9 9.3 2.7 9.3 9.7 0 8.5-6.3 12.9-15.4 12.9" fill="#222"/></svg>