<svg xmlns="http://www.w3.org/2000/svg" width="400" height="60"><path fill="#0090C5" d="M36.089 56v-.1h-.025l.025.1zm-3.585 2.6h-.145.058.087zm24.264 1.1h-.002c-.688 0-1.966-.1-1.666-.1-1.462.1-2 0-2.6 0 1.091 0 2.2-.1 3.4-.1.237.1.5.1.9.2h-.032zm-4.321.4h-2.966.024.066.001c.676-.1 1.729-.2 2.229-.1h.624l.022.1zm-3.753-.4h-.009l-.035-.1h1.151c-.136.1-.3.1-.5.1h-.607zm-1.58.2c-.08 0-.313-.1-.613-.2.476 0 1 0 1.7-.1h-.037l.046.1h.091c.166.1-.4.2-1.2.2h.013zm-7.683-.6c.112.1-.231.1-.631.1h-.4c-.14.1-.6.1.4.3-1.026-.1-1.2-.1-1.9-.1.346 0 .7.1 1.1.1-.841-.1-1.8 0-3-.3-.478-.2-1-.4-1.5-.7.085-.1.2-.1.3-.1h-.006c.243.1.506.3.806.4l.146.1h.044l-.103-.1c-.304-.2-.587-.3-.787-.5h.111l.102-.1h.042l.121.1h.067c.305.2.557.2.857.3.466.1.9.1 1.3.2.432 0 .9 0 1.3.1.544.1 2.3.1 1.6.2h.031zm-6.193-.8h-.023c-.193-.2-.315-.4-.515-.5l.136-.1-.222-.1h-.012l-.021-.1.089.1-.089-.1.126.1h.038l.022.1h.097-.008-.006-.014l.048.1c.099 0 .216.1.316.3l.26.1-.222.1zm-1.026.3l-.064-.1-.228.1h-.207l.024-.1c.035 0 .364-.1.664-.1-.156-.1.3-.2.1-.2-.146 0-.5.1-1.2.2.379-.2 1-.4 1.4-.6l.132.1c.111.2.268.3.368.4-.364.1-.7.2-1 .3h.012zm-1.601-1.7c-.618.2.189 0-.411.1l.265.1c-.639.1-1.165.2-1.565.2h-.218c-.04 0 1.418-.4 2.718-.9l-.136.1-.653.4zm-2.804.3h-.306c.164-.1.8-.1 1.4-.2.437-.1 2.3-.6 2.9-.9l-.3.3c-1.043.2-2.8.8-3.7.8h.006zm.563 1.2c-.375.1-.77.1-1.17.1l-.015-.1c.096 0 .015-.1 1.115-.1l.073.1h-.003zm4.044-2.4c.029.1.086.2.086.3l.108.3h-.074c-.082-.2-.133-.4-.233-.5l.114-.1zm.795 1.5l.048.1.118.1c.138.1.325.2.525.3l-.129.1-.161-.1-.058-.1-.177-.2-.232-.1h-.018l.084-.1zm.087-7.6c.127-.3.205-.5.305-.5-.129.2-.2.5-.3.8l-.028-.1.023-.2zm.718-1.1c.025-.1.086-.3.186-.5.065-.1.2-.2.3-.4l.161-.2h.035l.106.1h-.005l-.038.1h.002c-.212.1-.36.2-.36.3h-.007.002.019l-.414.7.014-.1zm.809-.5h-.007.007zm.006 0l.121-.1-.121.2v-.1zm.04-.3h.085l.057.1h.021-.005-.001-.032l-.18.2h-.029c-.068 0-.183.1-.283.2l.067-.2h.034-.013l.312-.3h-.031zm.309.2h-.042l-.067-.1h.038l.071.1zm-.182-.3h.03l.096.1h.003l-.099-.1h.069l.027-.1.277-.2h.128l.097-.1h.013l.661.9c.35.4.7.9.9 1.1l-.073.1-.126.1.01-.1h.078l.013-.1h.002c-.175-.2-.605-.7-1.305-1.7h-.058l-.126.1h-.064.006c-.023 0-.157.1-.257.2l-.053-.1.253-.2h.008l.062-.1-.058.1h.022v-.1l-.046.1c-.097 0-.188.1-.288.2l-.027-.1h.04-.001l-.007.1h-.085.003l-.016.1h-.023l-.091-.1.003-.1zm2.374 1.9h-.018c-.07.1-.151.2-.251.4-.002-.1 0-.1-.1-.1h-.034l.062-.2.151-.3.051.1-.05-.1h.038l.183.2h-.03zm-.55.6h.093l-.034.1-.06-.1zm.18.2l.005.1h-.04.003c-.055.1-.169.2-.269.4l.134-.3.062-.2h.02-.002l.009-.1.077.1zm-.502-1l-.136-.2.075-.2.093-.1h.006l-.185-.3c-.126-.1-.252-.3-.252-.3h-.195l-.035.1h-.122l-.184-.2.164-.1h.028l.146-.1h.041c.465.6.757.9.857 1h-.095l.07.1h.007-.019-.041c-.072.1-.123.2-.223.3h-.001zm.175 3.3c-.047.3-.074.5-.174.7-.005-.1 0-.3.1-.8.026-.3.1-.4.1-.4v.5h-.026zm-.086 1l.012-.1.006.2-.019-.1zm-.324-4.2l.021-.1.106.2h-.026l-.101-.1zm.246 4.1c-.103.5-.21 1.1-.31 1.7-.202-1.1-.3-.5-.3-1.3.063-.2.1-.3.1-.4l.057.1c.05-.3.143-.6.143-.9.099.5.2.5.3.8h.01zm-.292 2.1l-.042-.1h.015-.026c-.151-.1-.365-.2-.665-.4h.024l.054-.1c.116.1.222.1.222.2l.3.2-.04-.3.086.2h-.02.025.026l-.01-.1c.34-.7.233-1.1.433-1.6l.008.2c.002.4-.008.9-.408 1.8h.018zm-.755-7.4h.002l.186.2-.188-.2zm.162.3h-.027l-.198-.3h.021l.204.3zm.097 7.8c-.226-.2-.323-.3-.423-.4h.053l.039-.1c.188.1.308.2.308.2h-.017.017.026l.044-.1h.21c-.067.1-.18.2-.28.4h.023zm19.972 1.4c.128 0 .306.1.506.1h-.008l.03.1h-1.122l.6-.2h-.006zm11.959 1c-.037 0-6.554.1-12.154.2h-.083c.317 0 .683 0 .683-.1h-2.2c.745.1-.6.1-.8.2h.5-.1-1.7c-.342 0-.7-.1-1.3-.1-.282 0-.4.1-.5.1-1.65.1-2.7.1-2.7.1l-.9-.1-.247.1-.25-.1.231.1h-.16c-.364 0-.674-.1-.874-.2l-.619.2c-.435 0-1.281.1-1.881.1-.396 0-.7 0-.8-.1 1.964-.2 2.6-.3 3.4-.4h.018c.236.1.482.2.682.3l-.6-.3h.09c.01-.1 6.31-.1 6.61-.1h18.619-.019c.011-.1-3.8.1-1.3-.5h-11.8c-.121-.1-.6-.1-1-.2l-.308-.1-.33-.1c.29-.1.638-.1.938-.1.436 0 .3.1.5-.2l-1.833-.2c-1.462 0 1.633.2-.367.2.866 0-7.9-.2-8-.2 2.181.2 3.5.5 4.4.6h-3.6c-.692 0-3.3-.4-3.3-.4-1.776.2-3.8 0-5.5-.1.552 0 1.3.1 2 .1h.188c-1.773-.2-4.788 0-5.588-.7h.063c1.275.3 2.337.2 3.337.3h3.8c1.5.2-1.9.2-2 .3h1.7c-.276-.1 3.2-.1 2.4-.4h-3.5l-2.1-.1c-1.214-.1-2.6-.1-3.4-.4h.002-.006-.006c.066-.1.11-.2.21-.3-.138 0-.2.1-.3.2l.013-.1-.096.1h-.076l.259-.5h.114l-.09.2c.281-.4.876-.9.776-.9-.181 0-.2 0-.3.1.302-.8.3-1 .4-1.3.06-.3.1-.4.2-.5.133-.2.2-.6.5-1.8v.4c.131-.5.3-1 .5-1.4-.125.1-.2.2-.3.4.05-.3.2-.6.3-.9l.071-.2-.271.3c-.175.2-.3.5-.4.8-.084.3-.2.6-.3.7l.3-.9h-.036l.009-.1.007-.2h-.065l-.034.1h-.032.012.001l-.017.1c-.079.2-.147.5-.247.7-.045.1-.1.2-.2.3-.085.3-.1.6-.2.8.043-.9.3-1.2.6-1.8h-.025l.026-.1h.023-.035l-.117.1h-.098l-.03.1h-.023l.162-.2.159-.1h-.002.015l.039-.2-.156.2h-.087l-.115-.1h.057l-.038-.1-.104-.1h-.001.001.008.032l.101.1-.084-.1.089.1-.094-.1h-.011l-.012-.1.32-.3c.054-.1.1-.2.2-.2h.076c-.116-.1-.177-.3-.377-.4-.744-1-1.5-2-1.7-2.2h.028-.004-.031l-.062-.1h-.009l-.06.1-.017.1h-.014c-.126.1-.23.2-.33.3h-.07l-.061.1h-.016l-.121-.2h.053-.021l-.037-.1.034.1h-.038c-.12-.2-.222-.2-.222-.2h.067-.007-.005-.026-.059l-.089-.1h-.026l-.135.1-.318.3c-.315.6-.4.8-.4.8.06 0 .2-.1.3-.3.132-.2.3-.4.5-.6l.227-.2.154.2-.036.1c-.146.1-.345.3-.445.6-.244.3-.4.7-.6 1.1.053-.3.1-.4 0-.4-.126 0-.7 1.1-1 2.2l.139.4c-.288 1-.539 1.6-.539 2.9l-.023.1.002.1-.059.1-.018-.1h-.303l.037.2c-.178 0 .063.8.063 1.1-.197.1-2.7.8-2.9.8-.459.1-.9.2-1.3.3-.446 0-5.6.4-5.6.4-1.253.1-2.7-.1-3.9 0 .391-.1.1 1-1.4-.1-.048-.1-.2-.1-.6-.1-.424.1-3.5.2-3.1.2.502 0 3.2.4 1.8.6-.775.1-2.7.2-3 .2-1.431.1-2.4 0-3-.1h.015-.148-.001c-.109-.1-.267-.1-.467-.1h-.007c.004 0 .307.1.507.1h.102c.405.2-.302.4.998.6 1.413.1 3.6 0 4.7 0h1.2c.579 0 1.9-.2 2-.2.275 0 4.1-.3 4.3-.4.979-.1 1.5-.1 1.8 0 .096 0 .2 0 .2.1.074 0 .2.1 0 .2h-.198c-.945.2-3.402.2-3.402.2-.601.2-2.1.2 1 .2.253.2-4.1.1-4.3.1h-.4c.271.1.8.1.7.2-.363-.1-.7-.1-1.1-.1h-2.532l-.368-.1h.025c.324.2-.925.5-1.525.6h.018l2.446-.1 8.915-.3h.062c.221 0 .959 0 2.959-.1.062.1.3-.1.6-.1h1.5c-.157.1-.5.1-.6.1h-.6c-.02.1-.8.3-.6.3 2.082.1 2.7-.5 4.4-.7-.591.2.6.1-.4.3-.066.1-.1.1 0 .1 1.019-.2 1.8-.3 2.6-.5l.128-.1c.32.3.672.5.972.6.683.3 1.3.5 1.8.6-.408 0-1.1-.1-1.6-.3-.218-.1-.4-.1-.4-.1-.058 0 .1.1.6.3.509.1 1.8.3 2.3.3.298 0 .3-.1-.6-.2.967.1 3 0 3.4 0 2.603.3 1.4.6 5.1.2.314-.1.6-.1.9-.1h.044-.744l-1.8.1c-1.151 0-.2-.1-.9-.2 1.133-.1.6-.1 1.8-.2h2.1c.495.2.8.3.8.4h1.831-.003c-.073 0-.127 0-.327.1h-1.166.666.039.414.036l3.997-.1h-1.423.026.008 1.388c.218.1.415.1.515.1 1.182 0 3.3-.1 4.3-.2.322.1.9.1 1.4.1 1.031.1 1.9.3 2.2.3l1.071-.2c-.213 0-.571 0-.971-.1h-.039.739l-.82-.1h2.92l.647-.1s.353-.2.553-.2h-2.6c-.408.1-.7.1-1.3.1-.291 0-.6.1-1 .1h-.6c-.142 0-.3-.1-.5-.1.197 0 .6 0-.3-.1h-1c-.334 0-.9-.1-1.4-.2h.006c5.503-.1 10.894-.2 11.194-.3h-.046zm-30.561-8.4h-.042.022.02zm-1.584-2.8h-.065.065zm1.029 1.3l.104.1-.104-.1zm.568.4l.022.1-.022-.1zm-2.504-1.2h-.003.003zm1.89 7.7h.001-.045-.096-.052c-.038.1-.099.2-.099.3l-.043.1c.154-.2.343-.3.343-.4h-.009zm.614-6.5zm-3.428-3.1l.576.7-.266.3.315-.2-.618-.8-.034-.1.031.1h-.005zm.701.8l.003.1-.18-.3.2.2h-.023zm-15.201 10.1c.538 0 1.724.1 1.724 0l1.375-.1h.002c-.331 0-.577-.1-5.477 0-.055 0-.1.1 0 .1h2.4-.024zm12.637-2.7l.008.1.23-.1h.044c-.084-.5-.095-1-.195-1.5l.403-1-.327.3c-.045.7-.176 1.5-.176 2.1l.013.1zm-2.706 4.7c-.025 0-.107 0-.207.1h-.5l-.3.1c.28 0 .6 0 .9-.1h.065l.042-.1zm6.314-12.1c-.119-.1-.121-.2-.121-.2-.046 0 0 .1.1.2h.021zm-1.254-.2l-.047-.1.047.1zm3.187 3.9h-.028.028zm-1.844-3.6c-.085-.2-.21-.3-.21-.3.042 0 .1.1.2.3h.01zm-.512.4c-.089-.1-.098-.2-.098-.2-.031 0 0 .1.1.2h-.002zm344.327.5v-5.2c3.453 1.5 6.375 2.3 8.875 2.3 1.292 0 2.3-.3 3.1-.9.793-.5 1.2-1.2 1.2-2.1-.023-.7-.3-1.3-.9-1.8-.574-.5-1.5-1-2.7-1.5l-2.317-.9c-2.443-1-4.283-2.1-5.383-3.3-1.194-1.2-1.8-2.7-1.8-4.6.022-2.2.9-4.1 2.7-5.6 1.714-1.5 4.4-2.2 8-2.2 2.136 0 4.7.3 7.6.9l-.033 5c-2.813-1-5.167-1.5-6.967-1.5-1.488 0-2.6.2-3.3.7-.742.5-1.1 1.2-1.1 2-.003.6.2 1.1.7 1.6.468.5 1.3.9 2.5 1.4l2.052.8c3.365 1.3 5.548 2.5 6.648 3.7.989 1.2 1.5 2.7 1.5 4.4.007 2.2-.9 4.1-2.8 5.8-1.898 1.6-4.6 2.5-8.2 2.5-3.088 0-6.2-.5-9.4-1.5h.025zm-19.054-14.8h9.152c0-2.3-.422-4.1-1.222-5.1-.734-1-1.7-1.5-3-1.5-1.325 0-2.4.5-3.3 1.7-.866 1.1-1.4 2.8-1.6 4.9h-.03zm16.027 14.8c-3.301 1-6.398 1.5-9.398 1.5-2.79 0-5.2-.6-7.3-1.6-2.144-1.1-3.8-2.7-4.9-5-1.131-2.2-1.7-4.6-1.7-7.3.003-2.4.5-4.7 1.4-6.7 1.01-2.1 2.4-3.7 4.2-4.9 1.88-1.2 4.1-1.8 6.8-1.8 3.339 0 6 1.1 7.9 3.2 2.009 2.1 3 6 3 11.8h-15.925c.158 1.8.525 3.2 1.225 4.2.587 1 1.4 1.8 2.5 2.4 1.089.6 2.5.9 4.3.9 2.364 0 5-.6 7.9-1.7l-.002 5zm-39.899.9l-9.903-26.1h7.375l7.249 18.8 7.196-18.8h5.046l-9.977 26.1h-6.986zm-19.313 0v-26.1h6.968v26.1h-6.968zm0-30.5v-5.8h6.968v5.8h-6.968zm-3.006 30.3c-1.668.5-2.979.8-3.979.8-2.237 0-4-.4-5.3-1-1.218-.7-2.2-1.6-2.8-2.7-.62-1.1-.9-2.7-.9-4.9l-.032-13.7h-2.918v-4.4h2.918v-4.4l6.974-.8v5.2h5.54v4.4h-5.54v12.8c0 1.9.358 3.1.958 3.8.691.6 1.7 1 2.9 1 .629 0 1.3-.1 2.2-.3l-.021 4.2zm-26.022-6.4v-5.3h-1.663c-2.289 0-3.994.4-5.094 1.2-1.143.8-1.7 1.8-1.7 3-.005 1.1.3 1.9 1 2.5.694.7 1.5 1 2.4 1 .823 0 1.7-.2 2.5-.6.853-.4 1.7-1 2.6-1.8h-.043zm-.012 3.7c-1.004 1-1.845 1.7-2.645 2.2-.714.4-1.5.7-2.3.9-.793.2-1.6.4-2.5.4-2.348 0-4.2-.8-5.6-2.2-1.389-1.5-2.1-3.2-2.1-5.3.015-2.6 1.1-4.8 3.1-6.5 2.133-1.7 5.5-2.6 10.2-2.6h1.857v-2.3c0-1.6-.457-2.7-1.357-3.2-.85-.6-2-.9-3.3-.9-2.698 0-5.4.8-8.2 2.3l-.005-4.8c3.154-1.2 6.305-1.8 9.405-1.8 1.941 0 3.6.3 5.2.8 1.463.5 2.7 1.3 3.6 2.4.882 1.1 1.3 2.8 1.3 4.9l.031 11.6c0 1.4.269 2.2.669 2.6.443.3.9.4 1.3.4.281 0 .6 0 1-.1l.1 4c-1.482.4-2.8.7-3.9.7-1.341 0-2.4-.3-3.4-.7-.925-.4-1.6-1.4-2.1-2.8h-.355zm-31.863 2.9l-9.901-26.1h7.37l7.246 18.8 7.194-18.8h5.048l-9.97 26.1h-6.987zm-28.346 0v-26.1h6.977v4.9c.828-1.7 1.986-3 3.386-4 1.475-1 3.1-1.5 4.9-1.5.383 0 .8 0 1.3.1l-.04 6.3c-.974-.3-1.86-.5-2.76-.5-1.38 0-2.6.3-3.8 1-1.105.7-2.1 1.8-3 3.2l.014 16.6h-6.977zm-19.698-15.7h9.15c0-2.3-.388-4.1-1.188-5.1-.766-1-1.8-1.5-3-1.5-1.362 0-2.5.5-3.3 1.7-.906 1.1-1.4 2.8-1.7 4.9h.038zm16.028 14.8c-3.304 1-6.467 1.5-9.367 1.5-2.815 0-5.3-.6-7.4-1.6-2.083-1.1-3.7-2.7-4.8-5-1.163-2.2-1.7-4.6-1.7-7.3-.032-2.4.4-4.7 1.4-6.7.974-2.1 2.4-3.7 4.2-4.9 1.846-1.2 4.1-1.8 6.8-1.8 3.302 0 5.9 1.1 7.9 3.2 1.977 2.1 3 6 3 11.8h-15.962c.153 1.8.562 3.2 1.162 4.2.655 1 1.5 1.8 2.6 2.4 1.052.6 2.5.9 4.3.9 2.333 0 4.9-.6 7.9-1.7l-.033 5zm-46.209 0v-5.2c3.459 1.5 6.443 2.3 8.843 2.3 1.328 0 2.4-.3 3.1-.9.823-.5 1.2-1.2 1.2-2.1.01-.7-.3-1.3-.9-1.8-.544-.5-1.4-1-2.6-1.5l-2.39-.9c-2.439-1-4.21-2.1-5.41-3.3-1.163-1.2-1.7-2.7-1.7-4.6-.046-2.2.8-4.1 2.6-5.6 1.758-1.5 4.4-2.2 8.1-2.2 2.072 0 4.6.3 7.5.9l.005 5c-2.816-1-5.105-1.5-7.005-1.5-1.456 0-2.6.2-3.3.7-.701.5-1.1 1.2-1.1 2 .031.6.3 1.1.7 1.6.497.5 1.3.9 2.6 1.4l1.987.8c3.364 1.3 5.613 2.5 6.613 3.7 1.022 1.2 1.5 2.7 1.5 4.4.032 2.2-.9 4.1-2.8 5.8-1.87 1.6-4.6 2.5-8.2 2.5-3.048 0-6.2-.5-9.3-1.5h-.043zm-26.917.9v-26.1h6.971v4.9c1.262-2 2.689-3.4 4.189-4.3 1.519-.8 3.1-1.2 4.6-1.2 2.094 0 3.9.7 5.3 2 1.501 1.3 2.2 3.4 2.2 6.2l.036 18.5h-6.979v-16.7c0-1.5-.157-2.4-.357-2.9-.294-.5-.6-.9-1.1-1.2-.446-.2-.9-.4-1.5-.4-.963 0-2 .3-3 1-1.04.6-2.2 1.9-3.4 3.8l.011 16.4h-6.971zm-16.549-3.8c1.984 0 3.509-.9 4.509-2.7.966-1.7 1.5-3.9 1.5-6.6-.039-2.6-.5-4.8-1.5-6.6-1.036-1.7-2.5-2.6-4.5-2.6-1.971 0-3.5.9-4.5 2.6-.956 1.8-1.5 4-1.5 6.6.046 2.7.5 4.9 1.5 6.6 1.041 1.8 2.5 2.7 4.5 2.7h-.009zm0 4.4c-2.795 0-5.191-.6-7.191-1.7-2.014-1.1-3.5-2.7-4.6-4.9-1.052-2.1-1.6-4.5-1.6-7.1.023-2.6.5-4.9 1.6-7.1 1.013-2.1 2.5-3.7 4.5-4.8 2.064-1.1 4.5-1.7 7.3-1.7 2.817 0 5.2.6 7.2 1.7 2.048 1.1 3.6 2.7 4.6 4.8 1.06 2.2 1.6 4.5 1.6 7.1-.015 2.6-.5 5-1.6 7.1-1.047 2.2-2.6 3.8-4.6 4.9-1.989 1.1-4.4 1.7-7.2 1.7h-.009zm-15.188-2c-1.524.6-2.903 1.1-4.003 1.3-1.12.3-2.4.5-3.8.7-1.482.1-2.9.2-4.3.2-6.108 0-10.7-1.7-13.7-5.2-2.968-3.4-4.5-7.8-4.5-13.2.031-5.4 1.5-9.8 4.5-13.2 3.024-3.5 7.7-5.2 14.1-5.2 3.838 0 7.6.5 11.4 1.3l-.025 5.8c-1.815-.7-3.275-1.1-4.475-1.4-1.11-.3-2.2-.5-3.2-.7-1.062-.1-2.1-.2-3.1-.2-4.027 0-6.9 1.3-8.7 3.9-1.848 2.6-2.8 5.8-2.8 9.6.048 4 1.1 7.2 3.1 9.7 2.077 2.5 5.1 3.7 9.2 3.7 3.377 0 6.8-.8 10.3-2.5l.003 5.4z"/><path fill="#5EB345" d="M45.256 39.6h-.006.006zm20.392-18.5h-.056.057zm.001 0h-.001.001zm-20.345-11.5l-.104-.2c-.001 0 .1.1.1.2h.004zm-18.087 14.1c-.101 0-.217.1-.517.3l.517-.3zm22.112 3.4l.14-.2-.169.2h.029zm-4.476 3.2c-.058 0-.153 0-.253.1l.3-.1h-.047zm20.8-9.2h-.004.004zm-60.374 14.9h-.014c.074.1.135.2.235.3h.048c-.066-.1-.148-.2-.248-.4l-.021.1zm4.187-4.8l-.151.1.153-.1h-.002zm22.107-9.6l2.927-2.4c-.997.5-2.5 1.9-2.9 2.4h-.027zm40.846 17.7l.93-.9c-.349.3-.749.6-.949.9h.019zm-64.047-6.4l.772-.7c-.364.3-.544.5-.744.7h-.028zm31.133 17.5l.034.1h.006l.05-.1h-.09zm-33.942-14.1h-.015l.352.5-.08-.1h.005l.008-.1h.009c-.07-.1-.143-.2-.243-.4l-.037.1zm.07-.1c.405-.6.967-1.2 2.967-3l-.5.2c-.143 0-.1-.1.3-.5l-1.714 1.7-.807.8-.402.4-.126.1.249.3h.033zm69.939 1.2h-.047.047zm-64.481 1.5c.043 0 .109 0 .209-.1l.125-.2-.396.2.062.1zm54.552-10l-.243-.2.2.2h.043zm-9.896 22.1c.037 0 .153-.1.353-.3l-.134-.1h-.194c-.039.3-.072.4-.072.4h.047zm14.166-8.9l-.079.1.079-.1zm2.973-2.6h-.018c.231.2-2.168 1.8-1.868 1.8.074 0 .1 0 .2-.1.626-.5 2.1-1.7 1.7-1.7h-.014zm-9.749-11l1.56-1.4-1.303 1-.258.4zm-41.422-21.8c-.223.1-.315.2-.615.4.024 0 .5-.3.6-.4l.3-.2c.21-.1.4-.2.3-.2h.004c-.095.1-.404.2-.604.4h.015zm-4.639 3.2c.283-.2.523-.4.723-.4.267-.3 1.5-1.2 1.5-1.2l-1.6 1.1c-.575.5-1 .8-1.4 1.2.226-.3.5-.5.8-.7h-.023zm19.073-1.8l.35-.2.07-.2-.47.4h.05zm42.106 31.2l-.022.1h-.032l-.136.2-.272.3.093-.3c.131-.1.214-.2.414-.3h-.044zm-.919.5l.094-.2.221-.3.129-.2.066-.1h.002l.076.1-.02.1-.148.3c-.142.1-.257.2-.457.3h.036zm.273-.8l.019-.1h.012l.101.1h-.139.007zm.376.2h.01v-.1h.002l.022.1.142.1h.031l-.267.1.059-.2zm-2.486 2.4l.112-.1-.312.3c.133-.2.2-.4.3-.5.241-.2.5-.4.7-.5-.281.2-.5.5-.8.8zm-.976 1l-.624.6c.055-.3.5-.8 1.1-1.4-.175.3-.3.6-.5.8h.024zm-.941 1.9c-1.338 2.1-2.182 3.6-2.682 4.6-.231.6-.1.8-.2 1.3h.005c-.753-.7-1.305-1.2-1.805-1.6l.187-.1c.65-.3 1.213-.7 1.413-.7l-.042.1c1.421-1.7 1.642-1.7 1.442-2.2.516-.9 1.3-1.7 1.4-1.7.138 0 .1.2-.3.7.339-.4.6-.9 1-1.3-.144.2-.3.5-.4.9h-.018zm1.191-7.3l.092-.1.018-.1h.006l.311.2h-.008l-.017.1-.046.1-.21.3c-.298.6-.719 1.2-1.219 2h-.118l-.117-.1.335-.3-.339.3c-.021-.2.339-.8.739-1.4l.366-.6.207-.4zm.488.1h.018-.001l.133.1h-.009l-.047.1-.292.7.339-.5.091-.1.04-.1h.01c.304.2.657.5 1.157.8l-.229.3-.871.9c-.663.6-1.3 1.2-2 1.7-1.254.9-2.4 1.7-2.8 2.2l1.604-1.2c-1.121 1.1-2.304 2.1-3.504 3h-.018c-.148 0-.882.5-1.682 1-.738.5-1.5.9-1.8.9h-.03c1.346-.8 2.63-1.6 3.63-2.3-.329.1-3.7 2.2-5.1 2.9l1.829-.9c-1.549 1-3.429 2.1-5.229 3.1l-1.596.8.09-.2c.187-.3.306-.6.406-.6l.057.1c.289-.7.343-.9.443-1.3 1.066-.5 2.1-1.1 3-1.7l-.181.2c.023 0 .081 0 .281-.1 3.206-1.7 4.1-3 6.7-4.3l-.196.3c.198-.1 1.496-1.2 1.096-1.2h.027c-1.964 1.4-2.327 1.7-4.227 2.8.698-.6 2.3-1.7 3.4-2.5l-.027-.4c1.157-1.2 2.727-1.8 3.727-3.1-.073.2-.2.4-.3.6-.112.3-.2.6-.4.9l-.784.7.672-.5-1.188 2.2c.49-.6 1.6-2.1 2.6-3.5l.706-1 .288-.5.133-.2.034-.1zm-16.679 13.6l-.351.2c.025-.2.068-.4.068-.6.045-.4.1-.6 0-.6l-.153.1c.075-.2.153-.3.153-.4.427-.2.8-.4 1.2-.6-.187.4-.4.7-.5 1-.201.3-.3.6-.4.9h-.018zm-.381.5l.007-.1.007-.1.19.2-.034.1h-.014.061s-.118 0-.218-.1h.001zm-.193-.2c-.309-.2-.809-.5-1.309-.9h.165c.372.2.835.5 1.235.9h-.091zm-.075.1l-.075-.1.076.1h-.001zm-.155.1l-1.285.7-.159.1h-.044l-.72-.5c-.475-.4-.97-.7-1.07-.8h-.008.002l.008-.1.069-.4.005-.1h.016l.018.1c.063 0 .289-.6.489-1.2l.235.2c-.17.6-.335 1.1-.335 1.1l.018-.1.038.1c.087 0 .244-.5.344-1 .218.1.4.2.6.4-.069.3-.1.5 0 .7.165-.1.4-.2.6-.3.626.5 1 .8 1.3 1l-.122.1zm-3.491-3l-.03.1h-.055l.041-.1h.045-.044c.06-.2.157-.4.157-.6l-.1.6h-.013zm.221.3h.028l.081-.1.129.1-.09.1h-.021l-.129-.1h.002zm.606.4l.036-.1.243.2-.037.1-.245-.2h.003zm.363.2c.163.1.322.2.522.3l-.011.2c-.185-.2-.389-.3-.589-.4l.078-.1zm.712-1.7c-.093-.4 1.01-2.6.91-2.6-.083 0-.2.2-.5.6.685-1 2-3.4 3.2-4.5l.203-.1c-.139.1-.203.2-.203.2.078 0 .2-.1.4-.2l-.05.1c-.488.4-1.25 1.4-1.15 1.4h.025l.086.1c-1.034 1.4-1.911 3.3-2.511 4.9-.167.1-.3.2-.5.2l.09-.1zm8.013-16.2c-.467.4-2.002 1.2-2.302 1.2h-.006c1.579-.9 1.906-1.3 2.406-1.7.227-.2.5-.4.9-.6.147-.2.4-.3.7-.5l.201-.2.125-.1h.012c.317.3 1.563 1.3 2.863 2.3.696.6 1.4 1.1 1.9 1.5h.011l-.006.1h-.027l-.046.1h-.019l-.418.8c.18-.4.306-.7.306-.8.065-.2.1-.2.1-.2l-.127.1c-.051.1-.073.2-.173.3l-.3.4-.062-.1c-.016.2-.138.4-.238.6l-.211-.1h-.001.001c.17-.3.311-.5.411-.8l.204-.3.071-.1.037-.1h.018l.014-.1c-2.396-1.9-3.544-2.8-4.044-3.2h.044l-.398.3c-.295.3-.546.5-.846.7h.025l-.172-.1h-.019.019l-.065-.1h-.014l-.076-.1-.01.1h.08v.1l-.039.1c-.031.1-.028.2-.128.4l-.117.1c-.846.8-1.783 1.7-3.483 2.7-.414.2-.7.3-.8.3-.486 0 4-2.7 3.7-3h.002zm5.488 3h-.001l-.249-.2.36-1 .095-.3h.011v-.1c-.383-.3-1.207-.9-2.907-2.3h-.062l-.047.1-.083.1-.366.3-.337.2c-.201-.1-.305-.2-.405-.3.157-.1.3-.2.4-.3l.539-.4h.073c.237.2 1.188.9 2.188 1.7.476.4 1 .8 1.4 1.1h-.03l-.02.1-.077.2-.161.3c-.112.3-.212.5-.312.8h-.01zm-3.689-3.2h-.008l-.04.1h-.038l-.029.1c-.13-.2-.286-.2-.386-.3l.229-.2c.055.1.171.2.271.2h.003l-.002.1zm-.918-.1l.036-.1.028-.2h.005l.157.1-.226.2zm.781.3l-1.026.6c.053-.2.062-.3.162-.5.156-.1.3-.3.5-.4h.022c.102.1.178.2.378.3h-.036zm-1.766 1c.174-.2.402-.4.602-.6-.104.2-.2.3-.3.4l-.302.2zm-3.069 13.1l.272-.3c-.11.1-.2.2-.2.3h-.072zm-.008 0h.05c-.127.2-.17.4-.27.5l-.165.1c.124-.2.265-.4.365-.6h.02zm-1.222 1h-.097l.165-.2-.068.2zm.261-.5h.064l.277-.2c.18-.1.4-.1.4-.1h-.007c-.077.1-.193.2-.193.3l-.159.2c-.174.1-.341.2-.541.3h-.074c.08-.2.174-.3.274-.5h-.041zm1.98-.8h.069l-1.014.7c.048-.2.306-.7 1.006-1.7-.447.4-.8.9-1.2 1.4h-.075l-.657.3h-.035c.505-.9.866-1.1 1.466-2.1h.039c.047 0 .161-.1.261-.2.695-.9.8-1.1.8-1.1l-.196.1-.17.1c-.082 0-.034-.2.666-1.2.863-.9 1.2-1.1 1.3-1.1l.172.1.109.2c.043 0 .119 0 .219-.1-3.032 4.1.3.3-2.8 4.6h.039zm12.476-8.5h.072l.106.1h-.044l-.134-.1zm2.317 1.7h.022-.022zm-22.815-1.7c-.58.2-1.218.5-2.018.9-.339.3-.8.6-1.3.9.469-.5.9-.9 1.4-1.1l-.26.2 2.683-2.4.043.6c1.779-1.4 3.534-3.6 3.334-3.6l-.162.1c.874-.8 1.162-1 1.262-1l-.027.1.064.2h.057c-.941 1.2-2.893 3.7-3.893 4 .178-.1.6-.5.6-.6-.782.7-1.4 1.3-1.8 1.7h.018zm-2.163 5.5l-4.007 2.8c2.227-1 2.253-1.7 4.953-2.9.004.4.3.5-2.4 2.2-.802.3-1.1.5-1.2.5l.1-.2c.144-.1.2-.2.1-.2-.031 0-.1 0-.3.1-1.727 1.3-2.6.8-4.4 2.2-1.324.6-1.7.7-2 .7h-.601.016c1.279-.6.784-.5.484-.5l.6-.5.6-.3c-.174.1-.3.1-.4.2.054-.1.2-.2.3-.2-.273.1-.4.2-.6.3h-.098c-.175 0 .298-.5.998-1.3.402-.2.8-.4 1.3-.6.055 0 .2-.1.3-.2l-.143.1-.187.1-.156.1c.054 0 .187 0 .287-.1-.688.8-1.4 1.5-2.3 2.5 1.232-1.1 2.2-2 2.9-2.8l.189-.1h-.133l.344-.3c.539-.3 1.2-.6 1.7-.8l-.207.4c.463 0 2.607-1.1 5.007-2.3l-.854.6c-.561.5-1.246.9-2.046 1.4.434-.3 1-.5 1.9-.9h-.045zm-7.461-1.8c.46-.2.906-.4 1.206-.6l-.493.7.712-.6v.1c-.249.3-.519.6-.719.8l-.196.2c-.24.3-.504.5-.704.8l-1.5.7c.171-.2.3-.4.2-.4h-.043c-.004.1-.057.3-.157.4-.269.1-.5.2-.7.3.774-.8 1.7-1.7 2.4-2.4h-.006zm-6.274 2.9h-.127c.046.2-1.093.7-2.393 1.3-.923.5-1.9 1-2.5 1.3-.468.2-.7.2-.9.2-.573 0 2.9-1.7 2.8-1.7l-3.172 1.5h-.009c1.102-.7-.319-.3 1.581-1.4-2.022 1-2.4.9-4.2 1.9h-.036l.436-.4c.221-.2.4-.4.6-.6 1.032-.4 1.8-.6 1.9-.6h.029l.083-.1.03.1.099-.1c.38-.2 1.158-.6 1.858-.9h.01c.29 0 .69-.2 1.19-.5.211-.1.4-.1.5-.2l.394-.3c.965-.6 2.106-1.3 3.006-1.8l-.199.2c-.151.1-.301.1-.401.2.125.3-1.7 1.2-1.6 1.5l-2.525 1.1c-.219.2-.275.3-.175.3.422 0 3.4-1.7 4-1.8h.3c.276 0-.1.2-.6.4-.393.3-.9.5-.7.5h.168c1.898-1 1.932-1.3 2.832-1.9.832-.4 1.4-.7 1.6-.7l.126.1h-.054c-3.038 1.5-1.471 1.2-3.971 2.4h.02zm1.034.5h-.476c-1.188.9-1.577 1.1-2.077 1.4l-.353.2h-.042l-.005.1h-.007c-.139-.2-.293-.4-.393-.6 1.528-.7 3.1-1.6 4.8-2.5-.508.5-1 .9-1.4 1.4h-.047zm.392 3.4l.155-.3h.116l-.316.3h.045zm-1.225 1.1l-.134.1h.032-.002l-.05.1-.049-.1h.069l-.286-.5h-.105l-.07-.1h.068l.061.1.216-.2.154-.1c.48-.2.877-.4 1.477-.7-.561.6-1 1-1.4 1.4h.02zm-.407.4l-.073.1c-.477-.7-.539-.9-.539-.9l.051.1.065.1-.035-.1.182-.1.148-.1.068.1.002.1h-.019c-.117.2-.163.4-.063.6l.4-.2h-.007.015.001l.047.1-.244.2zm-1.204-2.4h-.01l-.283-.4h-.005.003.037.028.001c.086.1.221.2.221.4h.008zm-9.224.3l.394-.4c.581-.2 1.222-.4 1.722-.6-.22.1-.5.3-.4.4-.356.1-.9.3-1.5.5l-.216.1zm-.895.3c-.328.1-.589.2-.689.2h-.101.019c.47-.2.982-.5 1.582-.7-.285.2-.8.5-.8.5h-.011zm-2.885.3c.042 0 .396-.4.496-.5.061.1.1.1-.1.4.36-.3.7-.6.9-.9l.131.1c.149-.2.169-.4.369-.6l.075-.1.086.1c.058-.1.139-.2.239-.3h.127l.473-.1-.6 1.1c-.745.3-1.5.6-2.2.8h.004zm1.154 1.5h-.114c-.302.3-.344.6-.444.8l-.026.2h.058-.058l-.258-.3c.084-.2.184-.4.284-.6.256-.1.5-.2.8-.3-.104.2-.2.2-.2.2h-.042zm-.881 1.1l-.09-.1.026-.1.043-.1.206.2-.185.1zm-.257 0c-.28 0-.521.1-.721.1-.241 0-.2-.1.6-.5l.355.4h-.235zm-1.201-.6h.228l.074.1h.011l.041-.1h.029-.017l.149-.3h.01l.191.2h-.004.018l.255.2c-.26.1-.506.2-.706.3l-.28-.4zm.016.5l-.391-.4c.108 0 .255 0 .355-.1l.037.1.296.3-.334.1h.035zm-1.526-10.1c.33-.5 1.49-1 2.19-1.8-.664 0-1 .8-1.5 1.1.207-.3.3-.4.1-.4-.064 0-.2 0-.4.1l-.067.3c-.289.2-.833.6-.933.6h-.011.062c.082 0 .25 0 .45-.1-.455.6-1.4 1.5-2.4 2.5l-.5.1c.472-.5.8-.9 1.1-1.3h.051l.049.1.952-.8c-.448-.1-.252.2-.852.6l.188-.4c.667-.8 1.512-1.8 3.412-3.4.43-.2.8-.5 1.3-.7-.333.3-.6.6-.7.7l1.354-1.2c.527-.3 1.046-.6 1.546-1l-.334.6c-.313.1-.666.1-.966.6.261.2.3.3.5.3l-.286.4c-.121.1-.214.1-.314.1-.218 0-.4-.1-.4-.2l.066.4c-.157 0-.566.2-.666.2h-.048l-.099.3c.485-.1.847-.1 1.247-.5l-.384.8c-1.649 1.2-2.216.6-3.716 2h.01zm-.891 10.1h-.005.004c.083-.1.183-.2.283-.2l.1.1c-.115 0-.2.1-.4.1h.019zm-.165-1.7l.138-.2-.19-.2-.001-.1h.093l.068-.1h.189-.002l-.158.4c.066 0 .109.1.209.2l-.13.1-.116.1-.101-.2zm-.73.3h-.592l-.169-.2h.01l.243-.2c-.135.1-.215.1-.315.1l-.853-.8.241.1h.076c.142.1.336.1.436.1.123 0 .2 0 .4-.1l-.05.1-.092.2h-.031l-.131-.1h-.072l.421.4h.034c.121.1.222.3.422.4h.023zm-1.698-1.1l.858.8h-.162c-.106-.1-.32-.3-.82-.8h.124zm1.107 1.1h-.291l-.115-.1h.024c-.19-.1-.549-.5-1.149-1.1h.013l.088-.2.199-.4-.514.4c.308-.8.514-1.4.814-1.9.287.2.6.5.8.8.001.1 0 .2-.1.4-.08.1-.2.2-.3.4.061-.2.1-.3.2-.5-.075.2-.2.3-.2.5-.141.1-.3.2-.4.3-.155 0 0-.4.1-.6-.234.2-.4.5-.5.7l-.039.1h-.005l-.008.1h-.006l.943.9.094.1.092.1-.121-.1.121.1-.079-.1h.036l.125-.1.19.2h-.01zm-1.834-4.6h-.108l-.054-.1h.093l.111.1h-.042zm.443-.9h.041c-.07.1-.182.3-.282.4-.097.1-.2.1-.4.2.253-.2.5-.4.6-.6h.041zm-.705 1l.01-.1.051-.1.018.1-.08.1zm-.917 1.2c-.262.1-.519.3-.819.5l.531-.4c-1.309.7-2.831 1.7-4.031 2.6l-.3.1.081-.1.234-.2c.848-.5 1.686-1.1 1.586-1.1-.08 0-.3.1-.8.3 1.172-.6 2.5-1.6 3.7-2.4l-.181.7zm2.921-.8c-.174.2-.441.4-.441.5l.67-.3.02.1h-.101l-.013.1h.039l-.054.1c-.155.1-.261.2-.461.3l.153.2h-.013l-.101-.1.173.3.104-.1.095.1-.043.2c-.163-.2-.369-.3-.469-.5l-.097.1c-.058-.1-.103-.2-.203-.3l.03-.1-.162-.1c-.072-.1-.167-.2-.067-.3l.3.3c.162-.2.3-.4.5-.6l.116-.1h.002l.113.1h-.02l-.074.1h-.005l-.099-.1.108.1zm-8.72 3.6c-.182.3-.22.4-.12.4.054 0 .5-.3 1.1-1-.342.4-.6.7-.9 1.1l-.088.1-.162.1c-.276-.3-.649-.6-.949-.9l-.132.1c.394.4.732.7.932.9l-.309.2-.791-.8h.017l.053-.1.091-.2h.006c-.142-.1-.268-.2-.468-.4l.171-.1c.136.1.229.3.429.4l.021-.1c.22-.3.279-.4.379-.4l-.008.4c.593-.7 1.208-1.4 1.908-2.1h.068-.047c.974-1 2.079-2.1 3.279-3.2 1.746-1.1 3.5-2.2 5.2-3.3-1.017 1-2.1 1.9-1.7 1.9-2.8 2.1-4 3.1-6.7 5-.122.2-.1.3-.1.3.102 0 .7-.6 1.3-1.1-1.318 1.2-1.1 1.6-2.5 2.8h.02zm-5.342-2l-.004-.1.004.1zm-.027-1.5l-.045-.1.045.1zm2.81 2.2l.164-.1c.174.2.375.3.475.5l-.113.1c-.168-.2-.387-.3-.487-.5h-.039zm-1.305-.8c-.128.2-.256.4-.356.5l.122-.3.052-.1.092-.2.09.1zm.184-.5l.123.1-.111.1-.112-.1.101-.1zm-.141.1c-.153-.2-.299-.3-.499-.4l.158-.2c.129.1.242.3.342.4h.08l-.081.2zm.884 2.3l-.158.1h-.013l.021.1-1.133-1.1c-.294-.3-.6-.5-.8-.7l.035-.1h.031l.051-.1.422-.7c.16.2.361.3.561.5l-.244.4-.037.1-.079.1-.051.1h-.012l-.14-.1h-.042s.206.2.506.4c.249.3.5.5.5.5h-.003.017.042l.157-.2.449-.2.539.5-.3.3-.307.2.076-.1.237-.3-.324.3zm1.298 1.8l-.204.1-.049.1h-.02l.077.1c-.003 0-1.586-1.5-3.086-3-.701-.6-1.4-1.3-2-1.9h.059l.085-.1.342-.5.578-.8c.243.2.535.4.735.7l.191-.1c-.281-.3-.591-.6-.791-.8h-.013l.228-.6.421-.3 1.349-.8-1.613.7.047-.1 1.444-1-1.345.8.031-.1c.237-.2.45-.3.75-.5h-.005c.053 0 .205-.1.505-.3 2.229-1.5 4.6-3 6.4-4-.348.4-.7.8-.9 1.1-2.782 2-5.9 4.1-7 5.3.793-.3 2.4-2 3.5-2.2l.849-.9c.513-.4 1.351-1 2.151-1.6l-.473.6c.163-.1.373-.3.573-.5.025 0 .1-.1.1-.2.75-.5 1.4-.9 1.6-.9l.08.1c-1.664 1.2-2.58 2-3.38 2.6.356-.4.7-.7 1-1.1-1.298 1-1.3 1.3-2.1 2.1-.146.2-.3.3-.6.5.164-.1.2-.2.2-.3-.355.4-.8.7-1.1 1.1-.447.3-1 .6-1.4 1l-.509.3c.155.1.309.3.409.4l-.055.2c-.173-.2-.345-.4-.545-.5l-.203.1-.025.1h-.016l-.066-.1.103.1h.017l.591.6-.264.3-.195.3-.089.1-.021.1-.129-.2.121.2h-.087c-.003 0 .764.7 1.564 1.5.708.7 1.5 1.4 1.5 1.4-.028 0-.2-.1-.6-.5h.064l.858-.6c.649.6 1.179 1.1 1.379 1.3l-1.019.6zm-3.439-7.9c.492-.5.657-.6.757-.6.017 0 0 .1-.1.2l-.028.1c-.226.2-.472.3-.672.4l.043-.1zm2.069-1.4l.09-.2c.194-.1.298-.1.398-.1h.022c-.46.4-.922.7-1.322 1 .245-.2.5-.4.8-.7h.012zm7.351-4l-.128.1.157-.1.228-.1c-.861.6-1.92 1.4-3.02 2.1.356-.3.7-.7 1-1.1.633-.4 1.2-.7 1.8-.9h-.037zm8.609-.1c-.064 0 .028-.1.228-.3.303-.2.6-.3.8-.4-.671.6-1 .7-1 .7h-.028zm-1.538 1.2l-.107.2c-.276.2-.527.4-.827.6l.934-.8zm-1.461-5.2c.302-.2.727-.5 1.027-.8l-.4.5-.6.3h-.027zm-2.465 7.5h.035c.157 0 .657-.4 1.257-.7.499-.4 1-.8 1.1-.8l-.1.2c.479-.5.9-.9 1.3-1.2.246-.2.5-.3.7-.5l-1.487 1.6c-1.48 1-2.913 1.8-4.613 3 .538-.5 1.2-1 1.8-1.6h.008zm.8-5.4c.383-.3.792-.6 1.192-.9l-.3.4-.892.5zm.408-.1c-.225.2-.416.4-.616.6-.229 0-.5.1-.9.3.761-.4 1.2-.7 1.5-.9h.016zm1.137 5.3c-.039 0-.154.1-.254.2l-.3.1-.066-.1c.436-.3 1.066-.8 1.666-1.3.402-.2.8-.5 1.1-.7l-.222.3c.136-.1.322-.3.422-.4l.9-.6c-2.045 1.7-2.4 2-4 3.5.674-.8.8-1 .8-1h-.046zm6.804-5.6h-.34.017l.965-.6-.642.6zm.124 3.3c-.003-.1-.181-.1-.081-.3.423-.3.8-.7 1.3-.9-.228.3-.1.7-1.2 1.2h-.019zm-1.066 2l-.148.1h.127l.072-.1.124.1.31-.1c-.025.1 0 .2 0 .2l-.799.5-.235.1h-.209l-.02-.1.662-.5h.158l-.098-.1c-.093 0-.26 0-.36.1l-.1.1.22-.1c-.159.2-.32.3-.52.4.055-.2.5-.6.7-1l.277-.1-.038-.1.161-.3c.266-.2.6-.4.8-.4l.082.1c-.387.2-.482.4-.482.6-.209.2-.4.3-.5.5h-.215l.03.1zm-8.436-6.2c-.417.5-.58.9-.38.9.225 0 .8-.3 2-1.3 4.454-4.4 7.3-8.1 11-12.1.79-.4 1.4-.6 2-.8-.225.3-.4.5-.6.8-1.081.8-2.5 2.3-3.9 3.4l.116-.1c.088 0-.016.2-.116.4-.05.1-.1.3-.1.3.102 0 .5-.4 1.7-1.5-.263.2-.1.1-.3.4 2.167-1.6 2.7-2.6 4.4-4.1.15 0 .3 0 .4-.1-.119.2-.3.3-.4.5-.344.3-.7.6-.6.6l.2-.2c.365-.3.8-.6 1.2-1 .314-.1.6-.2 1-.4l-.555.4c.58-.2 1.455-.6 2.555-1.1-.815.9-1.7 2-3.7 3.5-2.481 1.3-5.6 2.9-7.5 4.3-.552.5-.7.8-.7 1l-1.266 1.2.654-.6.59-.6c.029.4.622.5.822.8.024 0 .1 0 .3-.1-1.188 1.1-3.1 2.4-4.9 4.1l-.306.2c.816-.9 1.906-2 1.706-2 .001 0-.1.1-.3.2l-.821.9c-.084.1-.179.1-.379.2-.342.4-2.6 2-2.3 2 .032 0 .3-.1 1-.5-1.121.8-2.6 1.9-3.9 2.7 1.413-1.2.4-.6.6-1.1-1.195 1-1 1.2-1.1 1.5-.339.1-.6.3-.9.4 1.103-1.2.5-1.1 2.8-3.1h-.02zm1.954-9.9c-.698.3-1.034.5-1.034.5-.125 0 .2-.3.5-.5l.6-.4c-.068 0-.2 0-.4.1l-.762.7c-.867.4-1.338.6-1.538.6l-.096-.1-.135.1c.232-.2.431-.5.731-.7.471-.4 1-.7 1.5-1.1 3.143-1.6 3.4-2.7 6.9-4.4-.052.1-.4.4-.2.4.078 0 .5-.1 1.4-.7.05 0 2-1 2.7-1.2h-.039s-1.061.7-1.161.8c-.132.1-1.7 1.2-1.7 1.2h.093l-2.084 1.6h-.164c-.118 0-.245 0-.445.1l-.315.4c-1.639.9-3.285 1.8-4.385 2.6h.034zm12.243-8l.09.3c1.586-1.2 5.033-2.8 7.033-3.8l-.133.1 1.533-.8c-1.525 1.3-3.7 3-5.7 4.5-2.733 1.4-5.3 2.8-7.1 4l.44-.3-2.069 1.4c-.375.2-.571.3-.671.3h-.106l-.134-.1c-.154 0-.46.1-1.26.6.515-.7 3.4-1.9 5.3-3.2-.669.2-1 .4-1.1.4-.18 0 .5-.5 1.1-.9.638-.4 1.3-.8 1.1-.8l-.5.2c-.332.4-1.2 1-2.3 1.7.053-.1.1-.2.3-.3h-.65l1.163-.9c.197-.1.386-.2.386-.3.072 0 .4-.3.8-.5.108-.1.3-.2.4-.4.614-.2 1-.3 2.1-1.2h-.023zm9.029-4.4c.159-.1.294-.2.394-.2-.225.2-.5.4-.8.6l.406-.4zm.926-.5c.594-.2.968-.4 1.368-.6.385-.1.7-.3 1.3-.5l-.106.1.19-.1h.016l.164.3h-.01l-.158.1-.277.2c-.348.2-.517.4-.717.4l-.162.1c-.106 0-.138-.1-.038-.2-.018-.2 0-.3-.1-.3-.216 0-.8.4-2.4 1.5.144-.2.5-.6.9-1h.032zm3.037-.6l.039.1h-.047l-.205.2.205-.1.074-.1.047.1.115.2h.007l.031.1-.093.1-.618.4c-.785.5-1.624.9-2.424 1.4l-1.4.6.115-.7c1.812-1.3 2.485-1.7 2.585-1.7.12 0-.3.4-.8.8-.429.4-.9.9-.8.9.1 0 .3-.1.8-.4.824-.7 1.4-1.2 1.8-1.6l.387-.3.117-.1.064.1zm.017-.7l.297-.1.158-.1h.096-.002l.14.3h-.032l-.085.1.098-.1h.029l2.547 4.9h-.079c-1.235-2.3-1.855-3.5-2.155-4.1l-.143-.3.002.1-.005-.1-.06-.1h.002l.202.4-.081.1-.332.2h-.095l-.043-.1-.026-.1-.064-.1-.445-.8.072-.1zm3.35 5.1c.092.2.165.4.265.5l-.016.1c-.14 0-.284.1-.484.2.099 0 .5 0 .2.3l.4-.3.059.1h.002l-.039-.1h.031c.065.1.146.3.146.4h.043-.018l-.586.4.057-.2-.092.2h-.009l-.067-.2.096-.1.277-.2.135-.2h.038-.015-.005-.016-.039l-.166.1-.303.2h-.057l.09-.1-.091.1-.326-.6.226-.2.138-.2h.064l-.052-.1.082-.1h.03zm1.776-.8c-.934.7-.511.8-1.411 1.3-.069-.2-.2-.4-.3-.6.72-.4 1.4-.7 1.7-.7h.011zm-.029 1.1c-.179.2-.481.5-.581.5l-.073-.1.265-.3c-.273.1-.492.4-.692.7-.019-.1-.1-.2-.1-.4.464-.3 1-.6 1.5-.9-.102.2-.2.4-.3.5h-.019zm1.127-.5c-.242.2-.508.3-.708.5.236-.2.5-.4.7-.5h.008zm-3.481 15.1l.133.1c.241-.3.54-.5.74-.6-.363.4-.6.8-.4.8h.044c-.268.2-.444.2-.444.2-.133 0 0-.2-.2-.3l.127-.2zm-1.733 10.9c.147-.2.306-.3.306-.3l-.306.3zm-4.117-.3h.018c-.195.2-.195.3-.095.3.266 0 1.3-.5 1.6-.6l.5-.4c-.043.1.1.2-.1.4-.832.7-1.7 1.1-2.6 1.5.211-.4.3-.8.7-1.2h-.023zm-3.204.5c-.378.5-1.073.5-1.473.8l-.038.2-.709.4.242-.5c-.103 0-.195.1-.295.2.523-.5 1-1 1.6-1.4 1.723-.9 3.4-1.8 5-2.6h.108l-.508.5c-.645.5-2.401 1.6-3.301 1.6h-.151c-.927.3-.349.5-.449.8h-.027zm-4.517 2.8l.079-.1c.286-.2.566-.4.866-.6l.155-.1.896-.4h.227l.035-.1.626-.3c-.095.1-.239.2-.239.4l-.104.1-.699.3-.034.1-.563.3c.011-.1.1-.2.2-.3-.67.5-.9.2-1.4.7h-.044zm-1.412-1c.289-.1.656-.3 1.056-.4-.145.1-.3.2-.4.3-.392.2-.5.2-.5.2h.145c-.324.2-.645.4-1.045.5.244-.2.5-.4.7-.6h.044zm-.035-6.4l-.448.3.051-.1c.206-.1.287-.2.387-.2h.01zm-.031-.8c.91-.7 1.622-1.2 2.422-1.8-.16.1-.4.4-.6.6h-.029c-.163.2-.271.3-.271.4l.85-.6c-.098 0 .05-.2.25-.4.388-.3.7-.5 1-.6-.188.3-.5.7-1 1.1.053-.1.3-.3.8-.6l-.6.6c-.628.5-1.2.9-1.8 1.4.219-.3.5-.6.8-.9-1.025.4-1.9 1.8-2.6 1.8h-.076c.296-.4.576-.7.876-1h-.022zm2.782-2l.163-.2h.038c.042 0-.061.1-.161.2h-.04zm2.318-9l.321-.3.004.2-.304.1h-.021zm-2.467 15.7h-.176l.155-.1.214-.1-.162.2h-.03zm.099 2.6l.389-.2-.472.3.083-.1zm.916-2.9c-.297.2-.527.2-.727.3.044-.2.1-.3.2-.4.704-.4 1.4-.7 2.1-1-.825.6-1.8 1.1-1.6 1.1h.027zm2.492-16.9c.155-.1.28-.1.38-.1h.08l-.446.2c.08 0 .066-.1-.034-.1h.02zm1.886-1.1l1.461-.9-.163.1c-.39.3-.803.6-1.303.8h.005zm-2.222 1.9c.376-.3.717-.7 1.017-.9h.296l-1.312.9zm6.164.8h.013c.023.3-1.16 1.1-2.06 1.8.113-.2.2-.4.1-.4l-.146.1-.382.6c-.38.3-.671.6-.871.8-.166.1-.5.3-.9.6l.189-.2-.188.2c-.776.5-1.801 1.1-2.201 1.2l.066-.2c.152-.1.334-.2.434-.3h.031c1.482-1 1.169-1.5 3.269-2.2.086-.2.1-.2-.1-.2-.067 0-.3 0-.5.2.111-.2.2-.4.3-.5.666-.4 1.3-.7 1.8-1 .542-.3 1-.5 1.1-.5h.048zm1.21 13.3l.242.1c-.094.2-.2.3-.4.4l-.172.1c-.737.4-1.128.6-1.428.8.254-.2.5-.5.7-.7.397-.3.7-.5 1.1-.7h-.042zm-1.595-.2l.102-.2-.965.5-.123-.2c.605-.3 1.223-.6 1.723-.9-.01.2-.1.5-.7.8h-.036zm1.349-6.1h-.001c-.318.2-.611.5-.911.7h-.027l-.203-.1-.064.1c.076-.2.194-.3.294-.4.216-.2.4-.3.6-.4h-.204l.239-.2c-.099.1-.235.1-.235.2h-.098c.427-.4.798-.7 1.198-1.1.001.1-.1.2-.2.3l-.295.3c.475-.2-.105.4-.105.6h.012zm2.361-15.4h-.003.003zm-.397 0l.286-.2h.079l.096.2h-.086.008.005l-.493.3s-.173.1-.273.2c-.075 0-.2 0-.3.1l-.174.1h-.081l.476-.2h-.115l.226-.1h-.021c.291-.1.588-.2.788-.3h-.002.005l-.28.2-.823.7-.039.1h-.079l-.783.6-.4.1.673-.6-.273.2c-.183.1-.4.3-.5.4l-.049.1c-.269.1-.651.2-1.251.6-.15 0-.3.1-.5.2.692-.5 1.3-1.1 1.9-1.5.614-.4 1.2-.7 1.4-.9l.147-.1h.143l.057-.1.229-.1zm.575 0l-.036-.1h.087l-.051.1zm.016.4h-.023l-.277.1-.163.1.072-.1.31-.2.008-.1h.058l.084.2h-.068zm-1.358 1l.281-.2c.126-.1.21-.2.41-.2l-.6.4h-.091zm.596 12.2h-.079c-.121 0-.326.1-.426.2l-.237.1c.408-.4.837-.7 1.237-1.1h-.017c.114 0 .117.1.017.3-.043 0-.1.1-.2.1l.04-.1-.335.5zm1.752-9.2c-.462.2-.957.4-1.457.6l.055-.1c.772-.4 1.545-.9 2.345-1.3-.317.3-.6.5-.9.8h-.043zm.262 6.9h.008l.198-.3.096.1-.037.1c-.113.1-.185.1-.285.1h.019zm.731-11.3l.075-.1.439-.3c-.146.2-.264.3-.564.4h.049zm.293 11.3c.053.1.057.2-.143.5-.145.2-.2.2-.3.2-.132.3-.4.6-.6.9l-.131-.2.107-.1c-.587-.1.424-.7 1.024-1.3h.043zm-2.602-12h.013-.001-.009l.296.5.028.1h-.1.007l-.093-.1h.016l.016-.1h.006-.021-.042l-.171-.3h.08-.004-.002-.013-.023-.012-.021-.003-.01l-.021-.1h.084-.002zm-.179.1h.076-.049-.022-.001-.004zm.042.1h-.015l-.209.1.106-.1h.03l.05-.1h.081l.17.3h-.003l-.069.1h-.036l-.398.2.295-.5h.029-.031zm-4.743 4.4h.008c-2.33 1.4-1.968 1.5-2.568 2h.005l-.325-.2c-.404.4-1.18.8-1.88 1.2l.539-.6c1.642-.8 3.761-2.4 4.261-2.4h-.04zm-3.862-5.9c.406-.3.802-.6 1.102-.8-.08.1-.2.3-.4.5l-.7.3h-.002zm.755 7.1l.017.1.199-.1-.986.7c-.154 0 .218-.3.818-.7h-.047zm-2.383-2.7c.05-.1.33-.4.63-.6-.108.2-.2.3-.4.5l-.23.1zm.328 4.2l.112-.1h-.081l.14-.1.661-.3-.518.4h-.202.172l-.68.4.398-.3h-.002zm-.43 1c.129-.1.233-.2.333-.3h.111l.289-.1h.2c.066 0 .1 0 0 .1.233-.1.4-.3.5-.4.209-.1.4-.2.5-.2h.131c-.521.4-.931.7-1.331 1.1-.222.2-.4.3-.6.5l.03-.1c-.275.3-.43.5-.63.6h-.071c-.244 0-.129-.2 1.171-1.2l.066.2.105-.2h-.023l.251-.2c-.094 0-.899.5-2.099 1.4.565-.5 1.3-1 1.1-1.2h-.033zm-6.598 12.7l-.034-.2-.096-.8c.188-.2.161-.3 1.661-1.2.44-.3.6-.4.5-.4-.006 0-.3.2-.7.4-.314.2-.7.4-.7.4-.057 0 0-.1.2-.3 2.431-1.4 1.7-1.7 4.2-3.1l-.697.6h.036l.261-.1c.168-.1.3-.1.4-.1.023 0 0 .1-.1.2.266 0 .7-.6.8-.8l.003.2c.207-.4.497-.5.697-.5h.172c-.204.2-.672.6-1.672 1.2l.789-.4c-.397.4-.789.8-1.189 1.1-.232.2-.6.4-1.1.7l-.3.4-.041-.1-.061.2c-.152.1-.299.3-.299.4-1.003.7-1.9 1.5-2.7 2.2h-.031zm.124 1.1l-.046-.4h.213c.099 0 .141 0 .241.1l-.407.3zm-.531-12.1l-.039.1c-.146.1-.323.1-.523.2-.167 0 0-.2.5-.6.166-.1.3-.1.3-.1.152 0 0 .2-.2.4h-.038zm.605 19.8l-.157.1-.276.2h-.106c.158-.2.372-.3.572-.3h-.033zm1.614.2h-.12c.506-.4.84-.6 1.14-.9.357 0 .6-.1.9-.1.117 0 .2 0 .3.1-.196.1-.4.1-.4.1-.126 0-.1 0 0-.1l-1.819.9zm4.38-1.9c-.462.2-.961.4-1.361.6-.617 0 .7-.8.7-.9l-1.097.7c.201-.3.097-.4.097-.5.211-.1.4-.2.7-.4h.045c.125 0 .355-.1.655-.2.214-.2.5-.3.6-.3h.049c.648.1-.549.4-.149.5.633-.4.6-.6.9-.8.137-.1.3-.2.4-.2.112 0 .2 0 .2.1-1.097.4-.4.6-1.3 1l-.023-.1c.054.1-.177.3-.377.5h-.039zm8.277-2.3l-.406.3h.049l-1.285 1.1c.18-.2.503-.6.803-1.1.564-.3 1.1-.6 1.6-.9h-.038l.179-.1-.45.3.261-.2-.713.6zm1.899-.9c-.133.2-.338.3-.438.3h-.007c.156-.1.307-.2.407-.3h.038zm.228-10l-.125.1c-.219.2-.442.2-.842.5l.299.3-1.001.3c.251.2-.398.5-.598.7h-.203l1.394-1.3.612-.5-.026-.1-.061-.2.372-.2.114.1.302-.2-.701.6c.061 0 .198 0 .498-.1h-.034zm2.096 5.8c-.115 0-.463.2-.763.4-.184.1-.4.2-.5.3.53-.5 1.1-1 1.5-1.1l-.088.1c.549-.3.688-.6.488-.7.227-.1.4-.2.5-.3.569-.5 1.1-1 1.5-1.5l.027.3c-.67.7-1.427 1.4-2.227 2.2-.135.1-.3.2-.4.3h-.037zm2.743-21.5c-.132.1-.206.2-.406.3.282-.2.4-.2.4-.2l.056.2c-.023 0-.056.1.044.1h.043l-.075.3c-.314.2-.768.5-1.168.7.621-.5-1.1 0 .4-.7h-.159c-.193 0-.34.2-.64.4l-.414.2c.124-.1.314-.3.414-.4.471-.3 1-.6 1.5-.9h.006zm-.159-1c.331-.2.653-.4.953-.6.094 0 .2-.1.5-.3.132 0 .1.2 0 .5-.187.1-.4.2-.5.3l-.067-.2-.134.1-.099.2c-.332.2-.6.4-.9.6.161-.2.2-.4.2-.6h.047zm1.619 17.9l.034-.1-.034.1zm-.359.3l.198-.2-.216.1c-.099 0-.189-.1-.189-.2h.566l-.16.1.225-.1c.049 0-.03.2-.43.5.062-.1.1-.1 0-.2h.006zm.898-1.6c-.229.4-.405.6-.405.7l-.3.1.7-.8h.005zm.543-19.2c-.141.2-.148.3-.048.3.031 0 .2-.1.3-.2.194-.1.4-.1.5-.1l.059.1c-.214.2-.559.4-.859.5-.205-.1-.4-.2-.5-.4.145 0 .3-.1.5-.2h.048zm1.137.5h.052l.02-.1c.044.1.142.2.242.3-.43.2-.8.4-1.1.6l-.078-.2c.327-.1.578-.3.778-.5l.086-.1zm.62.7l-.104.1c-.26.1-.502.2-.902.4.129-.1.2-.2.2-.2h-.399c-.198 0-.301-.1.899-.8.054.1.2.3.3.5h.005zm2.398 2.5c.072 0 .097.1.197.2l-.012.1c-.07-.1-.188-.2-.188-.3h.003zm.246-.2l.169-.1.198.3c.012 0 .884 1.2.984 1.3l-.045.1-.127.1-.152.1-.114-.1.094-.2.121-.1.038-.1h.012l-.828-1.1.043.1-.074-.2h-.004l-.01.1h-.113l-.196.2c-.068-.1-.145-.2-.245-.3l.249-.1zm.965 1.9l-.099-.2h.019l.107.1-.026.1zm-49.376 11.3l-2.138 1.5c.013.1-.001.2-.101.4-.173.1-.3.2-.5.3.174-.1.3-.2.5-.3-.154.3-.4.6-.7 1-.84.4-1.7.8-2.6 1.2.492-.3.5-.3.4-.3h-.4c-.15.1-.3.1-.4.1-.152 0 .1-.2 1.9-1h-.022c-.742 0-1.978 1-3.678 1.8l-.052-.1c1.008-.6 2.652-1.5 2.552-1.5h-.023c-.675.4-1.577.9-2.677 1.4-.136-.3-.3-.5-.5-.8h.027l4.138-1.9c1.53-.7 3.034-1.5 4.634-2.3-.236.2-.4.4-.4.5h.039zm-6.89 7.3l-.105.1h-.066c.086.2.122.2.122.2-.001 0-.2-.2-.4-.5-.129-.3-.3-.5-.3-.5h.022l.027-.1.248-.4h.054l.247.3c.006.2 0 .4.1.7h.061c.105 0 .039.1-.061.2h.049zm-.988-2.6h-.102.071.03zm-.657-1.4h-.124l-.28-.3h.046l.31-.1.615-.3c.78-.3 1.43-.6 1.73-.6-.895.4-1.4.7-1.8 1-.2.1-.4.2-.5.3h.004zm33.455-26c-1.073.3-2.159.6-3.759 1.1 1.247-.7 2.1-1.2 4.6-1.6-1.35.2-2.7.5-3.9.9.804-.4 2.9-1.1 4.7-1.3.474 0 .9-.1 1.3-.2h-.001.007c.451 1.4.794 2.2.894 2.8l.215.5h-.024l-.05.1h-.006l-.074-.2-.059-.2h-.005l-.296-1-.6-1.6h.021-.015l-.271.1-.979.2c-.613.1-1.156.2-1.656.4h-.041zm-30.026 18.6c.06-.2.167-.4.167-.6h.183c.179 0 .317.1-.383.6h.033zm56.582-4.5l.181.2h-.035l-.169.2-.179-.1.201-.3zm.32.3l.046.1-.193.1-.006.1-.055-.1.208-.2zm.055 0h-.019.019zm.131.2l.193.1h.014l-.161.2h-.017l-.198-.1.151-.2h.018zm.499.4h.117l-.023.1-.111.1h-.149l.166-.2zm2.242 1.9l.15-.1h.042l-.019.1-.11.1h-.132l.069-.1zm-.005-.4h.046c.416.3.696.5.796.6h.088-.018-.007l-.016.1h-.062l-.247-.2h-.002.002c.075 0 .062-.1-.338-.3h-.045l-.237-.1.04-.1zm.543.5h-.087.001l-.013-.1h-.018l-.208-.1h-.004.004l.076-.1c.055 0 .146.1.246.3h.002zm-.098.1h.092-.092zm-.094.1h-.162l.003-.1.19-.1h.062l-.093.2zm-.345-.2h.036-.036zm2.759 1.7l-.112-.1.112.1zm.366.6l.077-.1h.051l.206.1h-.01l-.02.1h-.079l-.168.2c-.436.5-.849.9-1.149 1l.614-.7.315-.4.161-.2zm1.889 1.2h-.029.029zm4.698 12.1h-.009l-.035.1-.02-.1h.065-.001zm-.044 0h.011-.012zm3.849 2.7c.129-.1.217-.2.317-.2-.113 0-.2.1-.4.2-1.72-1.3-2.9-2.2-3.7-2.7l-.903-.7-.422-.3h-.061l.479.3h-.007c-.291-.2-.386-.3-.386-.3-.036 0 .1.1.4.3h-.022l-.082.2-.166.2c-.191.3-.43.6-.73.9-1.047 1.2-2.2 2.3-3.4 3.5 1.043-.8 2.1-1.7 3.1-2.6.444-.4.8-.8 1.2-1.2l.524-.5.06-.1.263.2-.018.1h-.026c-1.579 1.4-2.603 2.6-4.603 3.9 1.503-1 3-2 4.1-3.2l.5-.4.201-.1.009-.1.017.1h.116l-.046.1c-.21.3-.697.9-1.297 1.5.34-.3.6-.5.8-.6-.168.2-.3.4-.4.7l-1.5 1 .219-.2c-.702.6-1.319 1.1-1.419 1.3-2.473 2-4.2 2.4-4.7 2.5-.264.1-.4.2-.5.2-.265 0 .7-.9.5-.9-2.013 1.2-1.7 1.5-3.8 2.7-.196.1-.3.2-.4.2l.05-.1c.468 0 1.65-1.4 3.45-3.5-.317.3-.5.4-.6.4-.061 0 0-.1 0-.3-.012-.2 0-.3-.1-.3-.154 0-.4.1-.9.6 2.736-3.6 2.1-3.5 5.4-7.9h.007l-.008.1.035-.1.246.2c-.074.2-.18.3-.18.5.077-.1.2-.3.3-.4h-.021l.18.1h.032l.016.1c-.682 1.3-2.708 4.2-4.408 5.8l.059.1c.283 0 1.941-1.9 3.041-3.2.531-.8 1.1-1.6 1.6-2.4l.001-.1h.005c.181.1.394.3.394.3l.545.4-.086-.1h-.024c-.048 0-.134-.1-.334-.3-.148-.1-.5-.3-.5-.3.251-.4.5-.9.7-1.3h-.006l.084-.2h.012l.238.2h-.005l-.154.3-.291.7c.148 0 .323-.4.523-.9l.351.2c.2.2.349.3.349.3l-.66-.5h.005l.035-.1c.644.5 1.12.8 1.12.8-.041 0-.4-.2-1.1-.8h-.014.004v-.1c-2.961-2.3-4.59-3.6-5.39-4.2l-.179-.2c-.114-.1-.221-.2-.321-.2l.3.2h.019-.012-.028l-.041.1-.114-.1.114.1h-.077l-.23.3-.423.3c.21-.1.493-.3.793-.5h.037l.035-.1h.029c.357.3 1.799 1.4 3.199 2.6.799.6 1.6 1.2 2.2 1.7h-.046l-.027.1-.237-.2h.014c-2.655-2.1-4.105-3.3-4.805-3.8l-.12-.1h-.003c-.098-.1-.177-.2-.277-.2l.27.2h.004-.014-.06l-.241.2-.474.3c-1.27.8-2.386 1.6-3.386 2.4-.897.6-1.3.7-1.4.7-.034 0 .2-.2.4-.4l.5-.4h-.057c-2.653 1.5-.943.9-1.743 1.5-1.412.9-2.4 1.5-3.2 1.9.914-1 2.8-3.1 3.8-4.3-1.643 2-2.7 2.7-4.3 3.9 1.248-1.1 1.2-1.5 2.4-2.4l-.292.4 1.168-1.4h.01c.157 0 .714-.5 1.214-1 .59-.5 1.1-1 1.2-1 .058 0-.1.2-.5.8 1.725-1.9.4-.9 1.9-2.6-1.035 1.1-2.1 2.1-3.2 3.1l-.181-.3c.994-1.3 1.481-1.4 2.681-2.7l-.374-.1 2.439-2.1h-.038l-.027-.1c.257-.2.5-.4.9-.6.495-.5 1-1.1 1.4-1.7l.28-.4.024-.1.296-.1.287-.2h.001l.117.1-.066.1-.158.2c-.853.9-1.681 1.8-2.181 2.4.343-.3.6-.4.7-.4.327 0 .2.4-.1 1.1.575-.8 1.3-1.6 2.2-2.5l.115-.2.081-.1h.039l.019-.1h.015l1.437 1.1s-.205-.1-.505-.4h.008s-.108 0-.208-.2l-1.292-.9.01-.1h-.079l-.118-.1h.004l-.206-.2h.05l.104-.2h.044c-.306-.2-1.517-1.2-2.717-2.1-.669-.5-1.3-1-1.8-1.4h-.029l-.038.1-.156.1-.556-.4-.273-.2-.177-.1.215-.2-.149.1-.049-.1-.006-.1c-.021 0-.082 0-.182.2l-.185-.2.221-.2.206-.3.106-.1h.052c-.341-.5-1.701-2.4-3.101-4.2-.713-1-1.4-2-2-2.8h-.088l-.602.4-.105.1c.14.2.396.4.596.8h.041c-.261-.3-.441-.6-.641-.8l-.262.1c-.128-.2-.238-.3-.338-.5h-.016c-.178-.2-.385-.4-.485-.6l-.4-.6h-.055c-.362-.5-.545-.7-.545-.7.044 0 .3.3.5.7l-.255.1-.592.4-1.198.7.645-.3c-.268.2-.6.5-.8.8l-.03-.2-1.014.7c.325 0 .544-.1.544.2-.51.2-.7.3-.8.3h-.203l-.086-.1.071-.1-.099.1h-.099c-.104 0-.283 0-.483.1l-1.524.9.091-.1c-.131.1-.167.1-.167.2l-.93.5c-.439-.8-.97-1.8-1.47-2.8-.47-.9-1-1.8-1.4-2.7l.088.2-.405-.8-.963-1.9c-.002 0 .18.4.48.9l.479 1h-.057c-.232.1-.422.2-.622.2l-.197.1h-.055.017l-.058-.1c-.197-.4-.308-.5-.308-.5.026 0 .1.2.4.6l-.049.1h-.046l-.205-.4.05.1-.193-.3.343.6c-6.321 2.6-12.301 5.6-18.101 8.8 1.3-1.1 2.8-2.3 4.4-3.4l.611-.2c1.442-1.2 4.189-3.3 6.589-5h-.062c-.095 0-.438.2-.738.4l-.7.4.2-.2c-1.097.7-2 1.4-1.7 1.4h.074c-1.148.8-1.374.6-2.374 1.2l4.343-3.4c.352-.2.457-.3.557-.3h-.012l.149-.5c.854-.6 1.264-.8 1.464-.8l-.029.1.444-.4.105-.1h.074l.135.4-.085.1-.184.1-.307.3c-.31.2-.453.4-.253.4h.086l.619-.5.312-.2h.054l.006-.1.123.4s.001-.1-.099-.3l.03.1-.048-.2c-.166-.5-.581-1.6-1.281-3.8h-.039l-.113.1h-.232l-1.884.3c-1.264.3-2.532.6-3.832 1.1-2.466.8-4.6 2.1-6.2 3.1-1.899.7-4.2 2.6-6.9 4.3-.244.2-.7.5-.9.5-.039 0 0-.1.1-.2l.703-.6c-3.524 2.5-7.003 5.7-9.803 8.2l-1.685.9c-1.053.7-1.615 1.1-1.915 1.4l.071-.2c.595-1.6 1.329-3 1.529-3.1.503-1 .8-1.5.7-1.7-.487.7-1.2 2.1-1.3 2.1.001 0 0-.1.1-.4.866-2 1.6-2.7 2.6-4.1-.011.1-.4.8-.3.8l.1-.1c2.124-3.7 8.4-8.5 11.8-10.8-1.341.8-1.4 1-3.2 2-.031-.1.9-.7 1.2-1h-.017c-.457 0-1.683 1.3-3.483 2.3.881-.8 1.8-1.6 2.8-2.3-.657.3-1.3.5-1.9.9 2.115-1.8 4.4-3.4 6.9-4.8-6.417 2.8-8.4 5.6-12.7 9.2l.2-.3c-.086 0-.4.2-.5.3-1.164 1.4-2.6 3.1-3 4.1-.525.8-1 1.6-1.5 2.5-.057-.1 0-1.4 1.8-3.8-1.6 2.1-2.8 4.3-3.5 6.6-.439 1.1-.7 2.2-.9 3.4l-.145.8-.068.5-.031.2-.022.1.104.1-.05-.1c.173.1.513.4 1.113.8h.005l.021-.1h.044l.583-.4.111.1-.108-.1.791-.6c3.629-2.6 6.953-5.6 10.953-8.6h.085c.044 0-.085.1-.285.3-.165.1-.3.3-.3.3.008 0 .1-.1.2-.1.822-.8 2.2-2 2.5-2.3-.084.1-.2.3-.7.7 3.981-3.2 6.5-4.3 9.2-6 .274 0-1.9 1.2-1.7 1.2h.015c4.035-2.1 6.185-3.7 10.385-4.6-3.688 2.9-10 7.7-14.3 11.5.057-.2.1-.3 0-.3-.328 0-1.7 1.2-3.1 2.4-1.464 1.2-2.9 2.3-3.3 2.3h.004c-.875.8-2.104 1.9-2.504 2.5h-.032c-.108.1-.168.2-.168.3.134-.2.3-.3.5-.5l.113-.1c.57-.4 1.287-.9 1.387-.9h.022c-.142.1-.322.3-.422.4h-.047c-.251.3-.553.5-.753.7-.959.6-1.9 1-2.8 1.5.458-.1.8-.2 1-.2.123 0 .2.1.2.2-2.366 1.1-2.5 1.1-2.8 1.1-.18 0-.4 0-1.8.5l-4.629 2.2.345-.2c-.383.1-.515.2-.715.3l-.433.3h-.153c-.778-1.1-1.114-1.6-1.114-1.6l.2.4-.043-.1c-.004 0 .543.8 1.243 1.9h.044-.002-.002-.05-.006-.006l-.378-.6c-.01 0 .1.3.6 1l.057-.1h.034c.163.3.309.5.509.8h-.076c-.165-.2-.324-.4-.424-.6l-.091-.1h-.064c-.594-.9-.844-1.2-.844-1.2.003 0 .6.8 1.3 1.9l.006.1h-.165l.777 1.1-.441.4h-.039l-.021.1h-.009l.062.1-.038-.1c.169.3.468.8 1.168 1.8l.116-.1.234-.2.239-.1c.739 1.1 1.411 2 1.411 2-.018 0-.2-.2-.6-.9h-.023.018.034l.064-.1c.348.5.608.8.608.8h-.087l.012-.1h.041l-.465-.7.015-.1c.191.3.385.5.485.7h.051c-.151-.2-.351-.5-.551-.7l.146-.1.649-.6 1.329-1.3c.358-.3.676-.6 1.076-.9h.021c.911-.4 1.779-.9 2.679-1.4-.655.3-.9.3-1.2.3-.104.1-.6.5-1.1.7.463-.3.9-.7 1.2-1 .933-.5 1.9-1 2.9-1.5-.541.4-.9.8-1.2 1.1l-.612.4.612-.3-.137.2-.043-.1c-.06 0-.22.1-.42.3l-1.33 1.7 1.572-1.2c-.667.8-2.242 2.4-3.742 3.9l-1.144 1-.121.2h-.091l.157.3-.047-.1h.037l.047-.1.184-.2.741-.7 1.527-1.5 3.159-3c.884-.8 1.751-1.6 2.651-2.4 1.361-.9 2.9-1.9 4.5-2.6-.258.2-.1.1-.3.3 2.716-1.8 3-1.7 4.4-2.4-.635.6-1.2 1.2-1.6 1.7-2.934 3.6-5.7 7.1-8.7 10.8.437-.5.7-.8 1.2-1.2.521-.2.9-.5 1-.5.169 0 0 .3-.5 1-.703.3-1.3.6-1.9.9l.154-.2-.153.2c-1.839.9-3.401 1.6-5.401 2.9.861-1 2.5-2 2.9-2.5l.043.1c.126 0 .457-.2 1.257-.9.132-.2-.3-.1.9-1.1h.092c.31 0-.192.4-.692.9-.495.5-1 .9-.8.9.015 0 .1 0 .3-.1 3.022-2.6 1.7-2 2-2.6-.128.1-.3.2-.6.5-.089-.2 1.3-1.2 1-1.2-.501.4-1 .9-1.4 1.3.13-.1.2-.2.1-.2-.194 0-2 1.5-2.7 2-.941 1-2.8 2.3-4.8 4.4l-.4.6c-.176.1-.3.2-.5.2l-.361.2-.097.1h-.025c-1.125-1.1-1.617-1.5-1.617-1.5.033 0 .8.7 1.9 1.8l-.072.1c-.784-.7-1.128-1-1.128-1 .015 0 .5.4 1.1 1l-.158.3-.629 1-.157.2-.042.1-.054-.1h.003l-.504-.5.551.6h-.032l-.036.1h-.01c3.69 3.5 5.369 5.2 6.069 5.8l-.109-.1c-.27-.3-.591-.5-.591-.5.047 0 .2.1.6.5h-.002.022l.357-.3c.495-.3 1.023-.6 1.423-.9.237.2.4.3.4.3l-.154-.1h.015l.02-.1.103-.1.378-.4h.063c1.799-1.2 3.175-2.1 4.575-2.9l-.117.4-.085.2-.047.1h-.018l-.064-.1c-.004 0 1.23 1.2 2.33 2.4 1.243 1.2 2.4 2.3 2.4 2.3h-.03l-.772-.8h.013l.282-.1.547-.2.231-.1.587.6c.095 0 .142.1.242.2h.028l.098.1h.002l-.099-.1.099.1c.448.5.771.8.771.8l-.2-.2.19.2-.751-.8-.958-.9.319-.2.3.3h-.002l.048-.1h.091c.477-.2.863-.5.763-.5h.432l.106.1.284.3c-.751.3-.622.3-.422.3.147 0 .3 0 .3.1-.068.1-.2.1-.4.2l-.3.2-.292.1-.146.1h-.108.047.094l.184-.1.357-.1.638-.2c.392-.1.725-.2 1.025-.2.177-.1.3-.1.5-.1.125 0 .2 0 .1.1l.138-.1.118.2-.034-.1h.015-.022l-.072-.1.257-.1h.048l.026-.1c.152-.2.226-.4.326-.7.192-.2.3-.4.6-.7.198 0 .4-.1.7-.2 1.671-.5 3.3-1.1 3.9-1.1.259 0 .3.1 0 .4 1.146-.3 3.3-1.3 5.7-2.6l.6.9h.04-.006-.044-.025-.004-.008l-.228-.3h-.043.013l.586.8-.666.7c1.12 1.7 1.786 2.6 2.086 3.1h.002c.015 0 .098.1.198.3h.023l.862-.4.315.4h.005c-.095-.1-.205-.2-.205-.3l-.105-.1h.07c.11.1.235.2.335.4h-.027l.145-.2.555-.7h.031c.23-.1.496-.2.696-.3l-.74.6-.569.5-.096.1.305.5-.073-.1h.007l.041-.1.091-.1.2-.2c.247-.3.533-.7 1.033-1.3.891-.4 1.8-.8 2.7-1.1-.181 0-.4.1-.5.1l-.08-.1 4.224-1.5-.898.5 2.783-1c.343 0-.628.6-1.728 1.2-.373.2-.8.3-.9.3l.2-.1-.8.5c.135 0 .5-.2 1-.4l.9-.3c.088 0 0 .1-.3.3-.746.3-1.6.8-2.2 1 3.444-1.3 4.7-2.6 6.9-3.1.991-.7 2.6-1.8 4.5-2.8-.347.4-.6.9-.9 1.3l.38-.9c-.566 1-1.08 1.8-1.48 2.7l-.135.1c-.186 0 .435-1.3 1.135-2.4-.622.5-1.1 1.4-1.5 2.6l.343-.6c-.282.6-.643 1.9-.843 2.8h-.033.031l-.028.1-.349-.2.347.2c-.101.5-.168.8-.068.8.028 0 .1-.2.3-.6h.052c-.108.4-.252.7-.252 1.1l-.203.7-.092.3-.045.2-.284-.2.124.1-.018-.1.323.3-.058-.1.353.3.193.1h-.003c.506.4 1.31.9 2.41 1.7h-.021.014.032.061c.666-.3 1.214-.5 2.014-.9.178.1-.8.7-.5.7-.002 0 .1 0 .2-.1 1.466-.7 2.5-1.2 3.6-1.9-.313.2-.4.2-.5.2h-.043l-.062-.1c-.092 0-.295.1-.995.4.614-.5 2.5-1.5 2.3-1.5-.534.3-.9.6-2 1.1 1.913-1.2 4-2.3 6.1-3.3-.079.1-.3.2-.5.4 2.482-1.8 6.4-4.2 7.7-5.9l-.729.5c-.524.5-1.771 1.4-2.271 1.7.51-.4.6-.6.5-.6-.064 0-.2.1-.4.1-.114.1-.3.1-.3.1-.151 0-.1-.1.5-.5 1.316-1.1 2.6-2 3.6-2.9.557-.5 1.1-.9 1.4-1.4l.29-.4.118-.2h.009l.139.1-.062.1c-.385.5-.595.9-.495 1l.495-.8.126-.2h.017c.096 0 .161.1.261.2h.043-.001-.005l-.09-.1-.246-.2h-.047l-.058-.1-.193-.1h-.049l-.01-.1c-.119 0-.243-.1-.443-.2l-.176-.2h-.051l-.205-.2-.098-.1h-.106c-.107-.1-.563-.4-.863-.6h.005-.005l.026-.1h.019l.176.1h.023-.005l.016.1h.04l.141.1h.072l.088.1.173.1.081.1c.134.1.252.2.452.3h.047l.162.2h.085l.163.1c.405.3.842.6 1.142.9h-.056l-.202-.1h-.012l-.059.1c-.318.4-.571.9-.571 1.1l.453-.5.222-.3-.05.1-.313.6h-.019l-.16.2-.933.6c.243-.3.3-.5.3-.5l-.191.1c-.234.3-.409.6-.609.9-.563.5-1.1 1.1-1.5 1.6l.105-.3c-.769 1.1-2.105 2.8-2.605 3.3.028-.2-.1-.2.4-.8-1.768 2.2-1.9 2.3-1.9 2.6-.047.1 0 .3-.2.5-.123.2-.3.3-.5.5l-.325.2c-.19-.2-.375-.3-.475-.5l-.115-.1h-.058l-.123-.1.202-.2h-.37c-.174-.1-.336-.3-.336-.3l.5.5h.002-.04l-.035.1-.055-.1c-.005 0 .328.3.828.7l-.273.2h-.047l-.095.1c-.34-.3-.485-.4-.485-.4.002 0 .7.6 1.3 1.2.707.6 1.4 1.2 1.4 1.2h-.042.002l-.01-.1h.026-.031c-1.118-1-1.744-1.5-2.044-1.8l-.107-.1h.017c.01 0 .29-.2.39-.2h.012c.381.3.888.7 1.288 1.1l.6.6-.074.2.063-.2h.003c.855.7 1.608 1.4 1.608 1.4-.023 0-.2-.2-.8-.7h.013l.018-.1c-.288-.3-.531-.5-.831-.8l.098-.2.543.1c.066-.7.458-1.3.758-2.1-.143.6-.3 1.3-.4 1.9l-.14.8-.028.2-.001.1.215.2v-.1h.005l.305-.6c.168-.4.344-.9.644-1.5.487-1.1 1.1-2.2 1.6-2.8-.317.3-.5.4-.5.4l-.041-.1.018-.2c-.043 0-.277.3-1.077 1.5.195-.7.3-1.3.5-2 .625-.9 1.3-1.9 1.9-2.8-.055-.1.7-1.4.5-1.4.005 0-.1.1-.4.5-.125.2-.5.8-.8 1.3.004-.2.3-.8.7-1.5.327-.3.7-.7 1.1-1-.175.1-.3.2-.4.3.217-.3.5-.5.7-.8l.228-.2c-.048.1-.028.2-.028.2l.015-.1c.047 0 .185-.1.285-.3.225-.2.4-.3.6-.4-.125.2-.3.5-.5.9-.578.7-1.2 1.6-1.5 2.2.101-.2.2-.2.2-.2.057 0 0 .1 0 .3-.071.1-.1.3 0 .3h-.004c.318-.6.704-1.3 1.304-2.2h.099c.182 0-.599 1.2-1.299 2.2l.3-.3c.106 0 0 .2-.1.4-.099.3-.2.5-.1.5-.007 0 .1-.1.5-.6.578-1 1.2-1.9 1.8-2.8l.398-.7.047-.1h.031c-.169-.2-.376-.3-.476-.4h-.017zm-55.151 10.1l.028-.1.05-.2h.022c-.114 0-.233 0-.333.1l.219.2h.014zm-2.659-10.2c-.065.1-.074.2-.074.2l.074-.2zm-2.644 5.6l.27.3.11-.1-.31-.3-.07.1zm14.259 0h.041-.041zm37.819-12l.293.3c-.031 0-.2-.1-.3-.3h.007zm-34.268 11.8l-.239-.3c-.009 0 .1.1.2.3h.039zm30.853-14.7c-.168-.1-.292-.3-.292-.3l.3.3h-.008zm-18.763 14.5h.077c.801-.4 1.294-.8 2.094-1.3-.894.5-2 1-3.3 1.5.403-.1.9-.2 1.1-.2h.029zm-23.777-7.4l.071-.2c-.086.1-.123.2-.023.2h-.048zm40.576-10.8c.079 0 .372-.2.772-.6-.245.2-.5.4-.8.6h.028zm-24.718 24.7l-.041-.1.041.1zm-1.297-.2s-.112-.1-.412-.6c.075.1.1.2.2.3.109.1.2.3.2.3h.012zm-14.496-45.4c-.12.1-.316.2-.516.3.024 0 .2-.1.3-.1.084-.1.3-.2.2-.2h.016zm15.807 45.6h-.014.014zm-23.771-46.2l-.066.1 1.393-1c-1.393.8-4.179 2.8-4.779 3.6.575-.7 2.8-2.1 3.5-2.7h-.047zm27.105 2.6s.043.1.143.2l-.1-.2h-.043zm9.398 3.3c-.218 0-.455.2-.655.3l.655-.3zm-42.84-.1h.043c.307-.4.642-.7.842-1.1-.788.9-1 1.1-.9 1.1h.015zm29.467-4.1h-.001l.018.1-.017-.1zm.586 44.4l-.105-.1.105.1zm33.514-8.3h.088l.169-.2-.257.2zm-8.279 6.5h.043l.653-.6c-.392.4-.8.6-.7.6h.004zm-21.36.5l.772-.5-2.515 1.2 1.743-.7zm-1.673 0l.893-.5.171-.2-1.064.7zm-40.112-5.7l.179.2-.179-.2zm.48-19l.149.1h-.058l-.091-.1zm51.311 26h.097l-.247-.1.149.1zm-51.612-6.8c.082.1.162.2.362.3-.168-.1-.3-.2-.4-.3h.038zm37.467 6.4l.159.3-.126-.2-.034-.1zm-37.506-17.5h.032c-.103-.1-.132-.2-.132-.2l.099.2zm53.855-24c-.005 0 .445.7 1.145 1.6h-.01c-.805-1.1-1.09-1.6-1.09-1.6h-.045zm-47.419 41.4l.222.2-.222-.2zm23.265-48h.106-.106zm30.42 15.9l-.05-.1.05.1zm-27.93-16.4c1.101-.4 2.309-.6 3.409-.9h.076l.111.3h-.052l-.159.1h.234c.235.7.489 1.6.789 2.5.604 1.6 1.2 3.3 1.3 3.7h.002-.074l-.17.1c-.245.2-.558.4-.858.6-.674.5-1.4 1.1-1.6 1.3l.198.7c1.298-1 1.602-1.5 1.302-1.5-.144 0-.5.2-.9.4.92-.8 1.2-.9 1.4-.9.153 0 .2-.1.4-.2l.195-.2.153-.1.04-.1h.002l.039.1-.034-.1h-.001l.018.1-.018-.1c-.147-.4-.694-2.1-1.294-3.8-.127-.3-.2-.6-.3-.9l-.594-1.7-.07-.2-.042-.1.072-.1-.077.1c-.258-.8-.389-1.1-.389-1.1l.374 1.1h-.033c-1.89.1-3.74.5-5.54.9l-.294.5c.436-.3 2.394-.8 3.094-.9l-.709.4zm27.99 15.8l-.08-.1.08.1zm-53.523 32.9l.142.2c.038 0 0-.1-.1-.2h-.042zm54.42-31.6l-.978-.7c.147.1.5.4 1 .7h-.022zm4.541 3.5h-.074.074zm-41.208-18.3c.229-.1 1.189-.6 1.189-.6l-.072.1c.931-.4 1.972-.9 3.072-1.3-1.392.5-2.7 1-3.9 1.6l-.251.1c-.084.1-.249.2-.449.3-.574.2-1.1.6-1.7.9.142-.1.3-.2.4-.3-.222.2-.4.3-.4.3h.02s1.88-1 2.08-1.1h.011zm-2.054 46.1l-.006-.1.006.1zm38.001-32.2l-.237.2h-.035.036l.278-.2h-.043z"/></svg>