<svg class="c-project__logo" width="48" height="48" viewBox="0 0 960 960" aria-hidden="true" focusable="false">
  <path d="M796 745c0 39.6 0 84.2 11 101 9 14 24.6 15.5 51 12 12.3-1 17 2 19 8l3 17c1.2 6.2-2 9.3-8 12l-169 42c-7.7 3-12.3 0-17-9l-17-56c-35.6 40.3-102.2 68-152 68-58.6 0-80.3-4.6-133-54-45-38.3-71.2-84.5-71-158-.2-88 15.3-146.5 79-216 43.2-47.4 95.8-70.5 165-70 37.7-.5 70.2 5.7 92 15l-2-208c.3-109-72.5-149-196-149-129 0-220.3 87.7-220 223v134h102c7.7 0 9.2 7.6 8 12l-7 42c-1 4.4-4 6-13 6h-90c-1.8 120-1.8 303 0 334 1.3 24.4 13.7 33.6 32 34h41c10.4-.4 12 2.7 12 9v23c0 6-1.6 10.7-8 11-6-.3-47.8-3.4-158-3-72.6-.4-130 2.7-139 3-6.4-.3-9.5-3.4-9-11v-25c-.5-4.3 2.6-7.4 10-7h38c21.2-.4 30.5-12.7 31-37l-4-333H8c-6.5.4-8-2.7-8-10l5-40c-.4-6.5 2.7-8 12-8l60-3c.4-11-1-434 493-434 71 0 150 17 186 34 29 13.7 38.4 21.4 40 38 1.5 26.5 0 652.6 0 653zm-144 47l-3-204c0-19.8-1.7-38.3-9-52-17.5-31-54.7-51-86-51-21.5 0-41.7 7.7-59 32-27.7 35.8-37 74.3-37 128 0 131 59 222 129 222 29.3 0 41.7-10.8 54-22 8-8.8 11-28.8 11-53z"/>
</svg>
