<svg xmlns="http://www.w3.org/2000/svg" viewBox="0 0 1920 1080" aria-label="Offline" focusable="false">
  <path fill-opacity="0.5" d="M0 0h1920v1080H0z"/>
  <path fill="#C2BCC2" d="M1118 380l-50 50c-104.5-42.7-229.2-21-314 64l29 29c68.6-67.7 166.7-88.4 253-61l-34 34c-66-13.6-137.5 5.2-189 57l29 29c34-33 78.4-49.6 123-48l-51 50c-15.2 6.2-29.4 15.4-42 28l7 8-53 52 16 16 292-292-16-16zM930 670l30 30 29-30c-16-16.2-43-16.2-59 0zm14-52c26-4.8 54.5 3 75 23l29-29c-18-18-40.3-29.4-63-34l-41 40zm74-74c21.4 8 41.5 20.5 59 38l29-29c-17-17.5-36-31.3-57-41l-31 32zm93-93l-30 30c19.8 11.3 38.6 25 56 42l29-29c-17-17-35.4-31-55-43z"/>
</svg>
