<svg xmlns="http://www.w3.org/2000/svg" width="980" height="200" viewBox="0 0 3920 800">
  <path fill="#000" d="M2129.7 275.6c-5.4 11-14 17.2-29.6 17.2h-1.5c-31.6-.4-47.6-27-47.6-52.1a51.5 51.5 0 0 1 51.7-52.7h.4c17.5 0 39.5 8.8 39.5 26.6 0 5.5-4 12.2-12.6 12.2-6.3 0-11.3-3.8-11.7-10v-1c0-4.6 4-9 7-10a36 36 0 0 0-17.6-5h-.7c-19.6.4-33.6 16-33.6 39.3 0 21.1 8.9 38.7 29 38.7h1a21.7 21.7 0 0 0 20.6-17.4v-10.8h-17.8v-10h49.1v10h-13v39.6h-8l-4.6-14.6zm72.7 4V291H2159v-11.4h12.1v-49.4h-12.8v-9.6l29.4-1.7v13a21 21 0 0 1 19.3-13.3c6.7-.2 13.9 2.6 13.9 12.4 0 7.4-5.7 11.7-10.8 11.7-4.7 0-9.9-2.8-9.9-8.5 0-3.7.6-4.8 1.2-5.4-11.5 1-13.3 15-13.3 27.1v23.7h14.3zm56.8 13.3c-20.2-.1-35.3-14.5-35.3-37.4 0-21 14.9-37.8 33.9-37.8 18.5 0 33.2 12.4 33.6 37h-49.5l-.2 2.2c0 10.6 5.6 23.2 20.2 22.8 8.8-.3 15-7.2 17.8-13.9l9.8 4.4a29.5 29.5 0 0 1-30 22.7h-.3zm.2-65.1c-9.6 0-15.8 9.6-17 18.3h31.7c0-10.3-5.2-18.3-14.7-18.3zm102.6 65.1h-.5c-8.5-.1-16.2-3.3-19-13.2a27.9 27.9 0 0 1-24.1 13c-11.2 0-18.8-6-18.8-17.5 0-22.3 42.1-18 42.1-35 0-10.7-6-14-13.8-14-3.6 0-7.2.7-10.4 2.2 3 .4 6.2 5.3 6.2 9.2v.5c0 5.3-4.3 9.5-11 9.5-6.9 0-10.8-4.9-10.8-11.3v-.2c.1-11.3 14-18.4 27.5-18.4 14.1 0 29.3 5.3 29.3 24v28.2c0 4.5.6 11.7 6.7 11.7 5.7 0 6.4-6.2 6.4-11.4v-8.8h8.8v9.2c0 18-8.8 22.3-18.6 22.3zm-40.1-10.6c6.5 0 19.4-8 19.4-16.2v-12c-15.6 12.4-25.5 11.3-25.5 20.7 0 4.1 1.6 7.5 6 7.5zm70-52.2h-14.2v-4.7c17.8-6 24.3-26.7 26.2-33a3 3 0 0 1 3-2.3c1.4 0 2.6.8 2.6 2.3v27.3h24.2v10.5h-24.2v40.5c0 2.3 1 9.1 8.2 9.1 5.8 0 8.7-3.9 8.7-13.6v-8h9.6v7.2c0 18.1-5.7 27.4-23.2 27.4-8.6 0-20.8-6-20.8-20.3v-42.4zm132 60.9h-49.1v-12h16.1v-76.7h-16.1v-12.2h49c15.4 0 40.8 4.3 39 27.5-.9 9.9-7.4 16.4-18.4 19.5 14 3.7 23.8 11.6 23.8 25.7 0 26-26.8 28.2-44.4 28.2zm-13.2-12c19.8 0 36.4.8 36.4-17.1 0-14.1-12.2-17.7-25.7-17.7h-10.7V279zm0-47h10.7c10.7 0 20.3-2.2 20.3-13.9 0-16.6-14-15.6-31-15.8V232zm108.8 47.6V291h-43.4v-11.4h12.1v-49.4h-12.8v-9.6l29.4-1.7v13a21 21 0 0 1 19.3-13.3c6.7-.2 13.9 2.6 13.9 12.4 0 7.4-5.7 11.7-10.7 11.7-4.8 0-10-2.8-10-8.5 0-3.7.6-4.8 1.2-5.4-11.5 1-13.3 15-13.3 27.1v23.7h14.3zm51-59.9v59.9h11.5V291h-41.6v-11.4h13.1v-49.4h-13.3v-10.5h30.2zm-21.2-23.9c0-6.3 5.2-11.6 11.5-11.6 6.2 0 11.5 5.3 11.5 11.6s-5.3 11.4-11.5 11.4c-6.3 0-11.5-5.1-11.5-11.4zm43.9 34.3h-14.3v-4.7c17.8-6 24.3-26.7 26.2-33a3 3 0 0 1 3-2.3c1.4 0 2.6.8 2.6 2.3v27.3h24.2v10.5h-24.2v40.5c0 2.3 1 9.1 8.2 9.1 5.8 0 8.7-3.9 8.7-13.6v-8h9.6v7.2c0 18.1-5.7 27.4-23.2 27.4-8.6 0-20.8-6-20.8-20.3v-42.4zm115.6 62.8h-.5c-8.5-.1-16.2-3.3-19-13.2a27.9 27.9 0 0 1-24.1 13c-11.2 0-18.8-6-18.8-17.5 0-22.3 42.1-18 42.1-35 0-10.7-6-14-13.8-14-3.6 0-7.2.7-10.4 2.2 3 .4 6.2 5.3 6.2 9.2v.5c0 5.3-4.3 9.5-11 9.5-6.9 0-10.8-4.9-10.8-11.3v-.2c.1-11.3 14-18.4 27.5-18.4 14.1 0 29.3 5.3 29.3 24v28.2c0 4.5.6 11.7 6.7 11.7 5.7 0 6.4-6.2 6.4-11.4v-8.8h8.8v9.2c0 18-8.8 22.3-18.6 22.3zm-40.1-10.6c6.5 0 19.4-8 19.4-16.2v-12c-15.6 12.4-25.5 11.3-25.5 20.7 0 4.1 1.6 7.5 6 7.5zm92.2-62.6v59.9h11.6V291h-41.6v-11.4h13.2v-49.4h-13.4v-10.5h30.2zm-21-23.9c0-6.3 5.1-11.6 11.4-11.6 6.2 0 11.5 5.3 11.5 11.6s-5.3 11.4-11.5 11.4c-6.3 0-11.4-5.1-11.4-11.4zm112.5 47.9v35.9h12V291h-41.1v-11.4h12v-34.4c0-12-7.3-16-13.5-15.5-13.8 1-16.9 13.2-16.9 25.7v24.2h12.1V291h-41.7v-11.4h12.6v-49.4h-12.6v-9.6l29.2-1.5v13.3c4.5-10.6 14.6-14.6 24.5-14.6 7.6 0 23.4 3 23.4 25.9zm82.6 37.8c6.1 0 12.6-5.2 20.5-12.7l-15.9-23.6c-17.4 11.3-19.3 13.7-19.3 23 0 6.9 5.2 13.3 14.7 13.3zm18.3-83.2c-7.4 0-14 4.4-14 13.8a45 45 0 0 0 6 17.4c7.6-5.8 17-10.8 17-19.7 0-6.6-3.5-11.5-9-11.5zm33.4 94.5c-7.8 0-17-4.5-24.7-15-7.7 6.6-14.6 15-28.6 15-18.2 0-28.3-11.6-28.3-27 0-16.8 15.6-22.7 28.8-31.1a50.4 50.4 0 0 1-7.7-21.2c0-14.6 11.3-24.5 26-24.5 12.2 0 21.4 8 21.4 19.9 0 12.5-11 22-23.2 30.2l14.4 21 21.6-26.3h-13.3v-6.4h38.2v6.4h-11l-29.4 35c4.8 8.5 12.2 13.1 16.6 13.1 5.7 0 11-1.9 11-15.8v-9.5h8.6v5.6c0 19.4-4 30.6-20.4 30.6zm102.5-13.6h15.2V291h-51.1v-11.8h16.1v-76.9h-16.1v-12.2h51.1v12.2h-15.2v76.9zm64.9.4V291h-43.4v-11.4h12.1v-49.4H3210v-9.6l29.4-1.7v13a21 21 0 0 1 19.3-13.3c6.7-.2 13.9 2.6 13.9 12.4 0 7.4-5.7 11.7-10.8 11.7-4.7 0-9.9-2.8-9.9-8.5 0-3.7.5-4.8 1.2-5.4-11.5 1-13.3 15-13.3 27.1v23.7h14.3zm56.7 13.3c-20-.1-35.2-14.5-35.2-37.4 0-21 14.8-37.8 33.9-37.8 18.5 0 33.2 12.4 33.6 37h-49.5l-.2 2.2c0 10.6 5.6 23.2 20.2 22.8 8.8-.3 15-7.2 17.8-13.9l9.8 4.4a29.5 29.5 0 0 1-30 22.7h-.4zm.3-65.1c-9.6 0-15.8 9.6-17 18.3h31.7c0-10.3-5.2-18.3-14.7-18.3zm69.5-37.7v89.5h13.1V291h-43.8v-11.4h13.7V201h-13.4v-11h30.4zm82 102.8h-.6c-8.4-.1-16.2-3.3-18.9-13.2a27.9 27.9 0 0 1-24.2 13c-11.1 0-18.8-6-18.8-17.5 0-22.3 42.2-18 42.2-35 0-10.7-6-14-13.9-14-3.5 0-7.2.7-10.3 2.2 3 .4 6.1 5.3 6.1 9.2v.5c0 5.3-4.2 9.5-10.9 9.5-6.9 0-10.8-4.9-10.8-11.3v-.2c0-11.3 14-18.4 27.4-18.4 14.2 0 29.4 5.3 29.4 24v28.2c0 4.5.5 11.7 6.7 11.7 5.7 0 6.4-6.2 6.4-11.4v-8.8h8.8v9.2c0 18-8.8 22.3-18.6 22.3zm-40.2-10.6c6.6 0 19.5-8 19.5-16.2v-12c-15.6 12.4-25.6 11.3-25.6 20.7 0 4.1 1.7 7.5 6.1 7.5zm138.8-38.6v35.9h12.1V291h-41.2v-11.4h12.1v-34.4c0-12-7.3-16-13.6-15.5-13.7 1-16.9 13.2-16.9 25.7v24.2h12.1V291h-41.7v-11.4h12.6v-49.4h-12.6v-9.6l29.2-1.5v13.3c4.5-10.6 14.6-14.6 24.5-14.6 7.6 0 23.4 3 23.4 25.9zm45.5 49c-17.7 0-29.5-16.1-29.5-37.3 0-21.2 12.2-37.6 30.7-37.6 7.9 0 14.4 4 18.9 10.6V201h-14.1v-11h31.1v89.6h10.3V291h-27.3v-12.5c-5.3 10.6-13 14.3-20.1 14.3zm4-63.9c-12.9 0-15.6 15.6-15.6 27.4 0 11.4 4.2 24.6 15.7 24.6 11 0 16-10.6 16-28.6 0-11-3.8-23.4-16.2-23.4zM2109 399.1c0 4 0 5 4.4 5.1v1.8h-13.9v-1.8c4.3 0 4.3-1 4.3-5.1v-13.6c0-4.9-2-6.8-5.5-6.8-4.4 0-8.3 3.8-10.5 9.5V399c0 4 0 5 4.3 5.1v1.8h-14v-1.8c4.4 0 4.4-1 4.4-5.1v-28c0-2.1 0-4-1.6-4.9h-13.3v32c0 4.7 0 5.9 5.6 6v1.8h-17.7v-1.8c6.2-.1 6.2-1.3 6.2-6v-32h-5.2c-5.2 0-7.2 3.2-7.7 12.7h-2.1l.3-14.9h31.1l9.5-1.3.6.7-.4 8.2-.5 13.4c2.6-5.6 7.6-9.5 12.9-9.5 5.8 0 8.8 3.8 8.8 10V399zm32.6-2.5h1.9c-.1 4.8-3.7 10-12 10-8.9 0-14.6-6.2-14.6-15.5 0-9.6 6.3-15.6 13.8-15.6 8 0 12.7 5.5 12.7 14.8h-20.6v.8c0 7.8 2.5 13.4 9.8 13.4 6 0 8.9-3.7 9-7.9zm-11-19.2c-4.7 0-7.2 3.9-7.7 11h14.7c0-6.1-1.3-11-7-11zm59 5.9c6.3.2 15.7 1.2 15.7 11 0 8.5-7.2 11.7-18 11.7H2169v-1.8c5.8-.1 5.8-1.3 5.8-6v-26.4c0-4.7 0-5.9-5.8-6V364h18.7c5.5 0 15.5.6 15.5 9.6 0 7.6-7.5 9.2-13.4 9.5v.2zm-5.3-17.2c-3.3 0-3.7 1.1-3.7 4v12h4.5c7.4 0 11.7-1.8 11.7-8.4 0-6.3-4.5-7.6-10.3-7.6h-2.2zm2.8 37.8c5.8 0 11.5-1.5 11.5-9.6 0-8.2-4.5-10-13.5-10h-4.5V400c0 2.8.4 4 3.7 4h2.8zm54.3-6h1.4v3.7c0 1.5-.5 2.7-1.4 3.6-.8.7-2.2 1.2-4.2 1.2-1.8 0-3.4-.4-4.3-1.6-.8-1-1-2.2-1-3.7v-3.5c0-5-3.6-6.2-8-6.2h-3.5v8.7c0 3.3 0 4.3 4.9 4.4v1.5h-15.1v-1.5c4.8-.1 4.8-1.1 4.8-4.4v-20.5c0-3.4 0-4.3-4.8-4.4v-1.5h15.5c7.3 0 13.2 2 13.2 8.5 0 5.3-4.5 8-9.8 8.7v.2c5 .7 8.7 3.1 8.7 7.2v3c0 .9 0 1.6.4 2.1.3.5.7.7 1.4.7.6 0 1.2-.3 1.5-.8.2-.4.3-1.2.3-2v-3.5zm-21-8.3h5.1c5.6 0 7.5-2.4 7.5-7.4s-1.9-6.9-7.3-6.9h-2.3c-2.7 0-3 .9-3 3v11.3zm26.2 16.4v-1.5c4.7-.1 4.7-1 4.7-4.4v-20.5c0-3.4 0-4.3-4.7-4.4v-1.5h14.8v1.5c-4.7 0-4.7 1-4.7 4.4v20.5c0 3.3 0 4.3 4.7 4.4v1.5h-14.8zm34.8-1.2c5 0 8-3.2 8-7.3v-2c0-2.8 0-3.8-5.3-3.9v-1.4h14.7v1.4c-4.6.1-4.6 1.1-4.6 3.9v4l.1 7h-1.5l-1.6-6.5c-1 3.5-4.2 6.5-10 6.5-8.2 0-15.3-6.3-15.3-16.7 0-10.2 8.2-16.6 16.1-16.6 5.6 0 8.4 2.8 9.4 2.8.7 0 1-.6 1-2.8h1.5l.2 12.6h-1.8c-.3-4.6-2.2-11-10.2-11-7.8 0-10.3 6.5-10.3 15 0 8.7 2.5 15 9.6 15zm57.8-29.6c-4.8 0-4.8 1-4.8 4.4v20.5c0 3.3 0 4.3 4.8 4.4v1.5h-15v-1.5c4.7-.1 4.7-1 4.7-4.4V390h-16.3v10c0 3.4 0 4.4 4.9 4.5v1.5h-15.1v-1.5c4.8-.1 4.8-1 4.8-4.4v-20.5c0-3.4 0-4.3-4.8-4.4v-1.5h15v1.5c-4.8 0-4.8 1-4.8 4.4v8.5h16.3v-8.5c0-3.4 0-4.3-4.8-4.4v-1.5h15v1.5zm4.3-1.5h29.6l.2 11.8h-1.7c-.4-7.5-2.2-10.1-6.6-10.1h-4v24.7c0 3.3 0 4.3 5.2 4.4v1.5h-15.8v-1.5c5.2-.1 5.2-1 5.2-4.4v-24.7h-4c-4.3 0-6 2.6-6.5 10h-1.7l.1-11.7zm50 32.8a16 16 0 0 1-16-16.7 16 16 0 0 1 16-16.6 16 16 0 0 1 15.9 16.6 16 16 0 0 1-16 16.7zm0-1.7c7.4 0 10-6.2 10-15s-2.6-15-10-15c-7.3 0-10 6.2-10 15s2.7 15 10 15zm20.3 1.2v-1.5c4.9-.1 4.9-2 4.9-6v-18.7c0-2.3-.3-4.5-5-4.6v-1.5h9.5l14.6 20 2.9 4v-16.5c0-4 0-6-5-6v-1.5h11.9v1.5c-5 0-5 2-5 6v25h-2.1l-17-23.2-2.8-4.2h-.1v19.6c0 4.1 0 6 5 6.1v1.5H2414zm56.4-42h35.3l.2 14.9h-2c-.5-9.5-2.5-12.7-7.8-12.7h-5v32c0 4.7 0 5.9 6.1 6v1.8h-18.3v-1.8c6.2-.1 6.2-1.3 6.2-6v-32h-5.1c-5.3 0-7.3 3.2-7.8 12.7h-2l.2-14.9zm66.4 29.8h1.8l-.2 12.2h-28.5v-1.5c4.8-.1 4.8-1 4.8-4.4v-20.4c0-3.5 0-4.4-4.8-4.5v-1.5h28l.2 10.6h-2c-.4-6.7-2.3-8.9-6.9-8.9h-5.3c-3.8 0-3.8.8-3.8 4.2v8.5h3c5.6 0 6.3-1.4 6.6-6.3h1.6v14.4h-1.6c-.3-5-1-6.4-6.6-6.4h-3v10.3c0 3.3 0 4.2 3.8 4.2h4.3c6.7 0 8.1-3.3 8.6-10.5zm38.8 4h1.4v3.8c0 1.5-.4 2.7-1.4 3.6-.8.7-2.1 1.2-4.1 1.2-1.8 0-3.4-.4-4.3-1.6-.8-1-1.1-2.2-1.1-3.7v-3.5c0-5-3.6-6.2-7.9-6.2h-3.6v8.7c0 3.3 0 4.3 5 4.4v1.5h-15.2v-1.5c4.8-.1 4.8-1.1 4.8-4.4v-20.5c0-3.4 0-4.3-4.8-4.4v-1.5h15.6c7.3 0 13.2 2 13.2 8.5 0 5.3-4.5 8-9.9 8.7v.2c5 .7 8.7 3.1 8.7 7.2v3c0 .9.1 1.6.4 2.1.3.5.8.7 1.4.7.7 0 1.2-.3 1.5-.8.3-.4.3-1.2.3-2v-3.5zm-21-8.2h5.2c5.6 0 7.5-2.4 7.5-7.4s-2-6.9-7.3-6.9h-2.3c-2.7 0-3 .9-3 3v11.3zm45 16.6l-10-23.2-2-5h-.1V398c0 4.1 0 6.3 5 6.4v1.5h-11.7v-1.5c4.8-.1 4.8-2.3 4.8-6.4v-19c0-2.3-.3-3.8-4.8-4v-1.4h10.6l8.9 20.8 1.6 4.2 10.4-25h10.6v1.5c-4.8 0-4.8 1-4.8 5.4V400c0 3.4 0 4.4 4.8 4.5v1.5h-15.1v-1.5c5-.1 5-1 5-4.5v-22h-.2l-11.6 28.2h-1.5zm28.2-.2v-1.5c4.7-.1 4.7-1 4.7-4.4v-20.5c0-3.4 0-4.3-4.7-4.4v-1.5h14.8v1.5c-4.7 0-4.7 1-4.7 4.4v20.5c0 3.3 0 4.3 4.7 4.4v1.5h-14.8zm19.7 0v-1.5c5-.1 5-2 5-6v-18.7c0-2.3-.4-4.5-5-4.6v-1.5h9.4l14.7 20 2.8 4h.1v-16.5c0-4 0-6-5-6v-1.5h11.8v1.5c-4.9 0-4.9 2-4.9 6v25h-2.2l-17-23.2-2.8-4.2v19.6c0 4.1 0 6 5 6.1v1.5h-11.9zm54.3.5c-8.6 0-12.4-3.7-12.4-12.6v-14.3c0-3.4 0-4.3-4.7-4.4v-1.5h14.7v1.5c-4.6 0-4.6 1-4.6 4.4v14.5c0 5.9.9 10.2 8.6 10.2 5.7 0 8.7-3.3 8.7-10.4v-12.7c0-4 0-6-4.6-6v-1.5h11.3v1.5c-4.8 0-4.8 2-4.8 6V394c0 8.1-3.8 12.6-12.2 12.6zm21.4 0l-.2-12.6h1.8c.5 6.2 4.1 10.8 11.3 10.8 5 0 8.3-2.2 8.3-6 0-3.6-3.2-5-9.6-7.1-6-2-11.3-3.5-11.3-9.4 0-2.8 1.4-4.8 3-6 2.2-2 5.5-3 9-3 5.3 0 8.3 2.4 9.4 2.4.7 0 1-.6 1-2.4h1.5l.1 11.3h-1.8c-.4-5-3.2-9.6-10.2-9.6-5 0-7.8 2.2-7.8 5.1 0 3.4 4 4.5 9.3 6.3 6.8 2.1 11.7 4.1 11.7 10.2 0 2.8-1 5.2-3.3 7a15.2 15.2 0 0 1-9.4 3c-6 0-8.8-2.8-10.2-2.8-1 0-1 1-1 2.7h-1.6zm58.1-37c-2.4 0-3.9-1.7-3.9-3.8 0-2.2 1.5-3.8 4-3.8s3.9 1.5 3.9 3.8c0 2.1-1.4 3.8-4 3.8zm7 36.5h-14v-1.8c4.5 0 4.5-1 4.5-5.1v-16c0-2.8 0-5.4-5-5v-1.9l10-.7.7.7-.5 9.6v13.3c0 4 0 5 4.4 5.1v1.8zm16.3.6c-6 0-8.5-2.7-9.5-2.7-.5 0-.8.4-1 2.7h-1.4l.2-12.1h1.9c.1 7.7 4.8 10.2 9.8 10.2 3.9 0 7.1-2 7.1-5.5 0-3.8-3.7-4.9-9-6.2-4.3-1.1-9.8-3-9.6-8.9a7.9 7.9 0 0 1 4-6.9c2-1 4.3-1.6 6.6-1.6 5.4 0 7.7 2.5 8.5 2.5.6 0 .6-.5.7-2.5h1.5l.2 10.4h-1.9c-.2-5-3.2-8.6-9-8.6-3.7 0-6.9 1.7-6.9 5s3.2 4.4 7.4 5.5c6 1.4 11.5 3 11.5 9.5 0 3.6-1.8 6-4 7.3-1.6 1-4.1 1.9-7.1 1.9zm65.7-9.9h1.5v4c0 1.8-.2 3.4-1.3 4.4a6 6 0 0 1-4.3 1.4c-1.7 0-3.3-.4-4.3-1.8-.8-1-1-2.4-1-4.5v-1.3c-1 2.3-3.7 7.7-11.5 7.7-5.1 0-8.3-3-8.3-7.6 0-3 1.4-5 3.7-6.5 3.7-2.5 9-3.7 15.9-4.6V385c0-6.3-3.5-7.7-6.7-7.7-3 0-4.8.8-6 2a3 3 0 0 0-1 2.2c0 1.6 1.2 2.6 3.2 3.8-.4 1.6-1.9 2.7-3.8 2.7-2.7 0-4-2.3-4-4.7 0-5 5.1-7.9 11.8-7.9 6 0 11.7 2.5 11.7 10.2v14.8c0 1.1.1 2.1.4 2.7.4.6.9 1 1.7 1 .9 0 1.5-.4 1.8-1.1.3-.6.5-1.6.5-2.6v-3.8zm-18.7 7c5.7 0 9-6 9-11.3v-2.7c-5.1.6-9.2 1.7-11.7 3.9a6.2 6.2 0 0 0-2.2 5c0 3 1.9 5 4.9 5zm53.2-4.6c0 4 0 5 4.3 5.1v1.8h-13.9v-1.8c4.3 0 4.3-1 4.3-5.1v-13.6c0-4.9-2-6.8-5.5-6.8-4.4 0-8.3 3.8-10.5 9.5V399c0 4 0 5 4.3 5.1v1.8h-14v-1.8c4.4 0 4.4-1 4.4-5.1v-15.9c0-2.8 0-5.5-4.9-5.2v-1.8l9.4-.7.7.7-.3 8.6c2.6-5.5 7.5-9.3 12.8-9.3 5.8 0 8.9 3.8 8.9 10V399zm53.2-2.5h1.9c0 4.8-3.7 10-11.9 10-9 0-14.6-6.2-14.6-15.5 0-9.6 6.3-15.6 13.7-15.6 8 0 12.7 5.5 12.7 14.8h-20.5v.8c0 7.8 2.5 13.4 9.7 13.4 6 0 9-3.7 9-7.9zm-10.9-19.2c-4.7 0-7.3 3.9-7.7 11h14.6c0-6.1-1.3-11-6.9-11zm30.6 28.6h-14v-1.8c4.4 0 4.4-1 4.4-5.1v-30.5c0-2.8 0-5.4-5-5v-1.9l10-.7.8.7-.5 9.6v27.8c0 4 0 5 4.3 5.1v1.8zm28.5-9.4h1.8c0 4.8-3.6 10-11.8 10-9 0-14.7-6.2-14.7-15.5 0-9.6 6.3-15.6 13.8-15.6 8 0 12.7 5.5 12.7 14.8h-20.6v.8c0 7.8 2.5 13.4 9.8 13.4 6 0 8.8-3.7 9-7.9zm-11-19.2c-4.7 0-7.2 3.9-7.7 11h14.7c0-6.1-1.4-11-7-11zm40.8 4a3 3 0 0 0 1.2-2.2c0-1-.7-2-2-2-1.2 0-2.3.7-3.1 1.6a10 10 0 0 1 2.8 7.1c0 6.3-5 10.4-11.1 10.4h-2c-3.3 0-4.8 1.2-4.8 3s1.5 2.5 3.7 2.5h9.4c6 0 10 2.2 10 8 0 7-6.4 10.4-16.3 10.4-9.7 0-12.7-3.4-12.7-7 0-3.1 2.3-6.4 8.5-6.9-3.4-.6-5.3-2.8-5.3-5.3 0-2.9 2.2-5.6 6.6-5.6v-.1c-4.6-1-8.2-4.1-8.2-9.4 0-6.2 5-10.4 11-10.4 2.8 0 5.4.9 7.4 2.4a7 7 0 0 1 5.3-2.4c3.4 0 4.8 2.2 4.8 4.4 0 1.8-1 3.3-2.8 3.3-1 0-2-.5-2.4-1.7zm-12.2 13c3.8 0 5.7-3 5.7-8.5s-2-8.6-5.7-8.6-5.6 3.1-5.6 8.6 2 8.6 5.6 8.6zm7.3 12.8h-9.9c-3.5 0-7.1 1.4-7.1 5.5 0 4.3 4.2 5.6 9.7 5.6 7.5 0 13.4-2.2 13.4-7.2 0-3.6-3-3.9-6.2-3.9zm41.3-10.5h1.6v4c0 1.8-.3 3.4-1.3 4.4a6 6 0 0 1-4.3 1.4c-1.7 0-3.4-.4-4.4-1.8-.8-1-1-2.4-1-4.5v-1.3c-1 2.3-3.7 7.7-11.4 7.7-5.2 0-8.3-3-8.3-7.6 0-3 1.4-5 3.7-6.5 3.7-2.5 9-3.7 15.8-4.6V385c0-6.3-3.4-7.7-6.6-7.7-3 0-4.8.8-6 2a3 3 0 0 0-1 2.2c0 1.6 1.2 2.6 3.1 3.8-.3 1.6-1.8 2.7-3.7 2.7-2.8 0-4-2.3-4-4.7 0-5 5-7.9 11.8-7.9 6 0 11.6 2.5 11.6 10.2v14.8c0 1.1.2 2.1.5 2.7.3.6.9 1 1.7 1 .8 0 1.5-.4 1.8-1.1.3-.6.4-1.6.4-2.6v-3.8zm-18.6 7c5.7 0 9-6 9-11.3v-2.7c-5.1.6-9.2 1.7-11.7 3.9a6.2 6.2 0 0 0-2.2 5c0 3 1.9 5 4.9 5zm53.2-4.6c0 4 0 5 4.3 5.1v1.8h-14v-1.8c4.4 0 4.4-1 4.4-5.1v-13.6c0-4.9-2-6.8-5.5-6.8-4.5 0-8.4 3.8-10.5 9.5V399c0 4 0 5 4.3 5.1v1.8h-14v-1.8c4.4 0 4.4-1 4.4-5.1v-15.9c0-2.8 0-5.5-5-5.2v-1.8l9.5-.7.7.7-.3 8.6c2.5-5.5 7.5-9.3 12.7-9.3 5.8 0 9 3.8 9 10V399zm24.7-20.6l-8-.2v20.4c0 1.7.1 3.1.6 4 .5.8 1.3 1.4 2.6 1.4 1.2 0 2.2-.6 2.7-1.6.4-.9.6-2.4.6-3.9V394h1.5v5.3c0 2.4-.4 4.2-1.6 5.4-1 1.2-2.5 1.8-4.8 1.8-2.9 0-4.7-1-5.7-2.7a9.4 9.4 0 0 1-1.2-5.2v-20.3h-4.8v-2.2h2c4.7 0 5.9-3.5 6.5-10.9h1.6v11l8-.3v2.6zm37.3 28.1c-6 0-8.5-2.7-9.5-2.7-.5 0-.8.4-1 2.7h-1.4l.2-12.1h1.9c.1 7.7 4.8 10.2 9.8 10.2 3.9 0 7.1-2 7.1-5.5 0-3.8-3.7-4.9-9-6.2-4.3-1.1-9.8-3-9.6-8.9a7.9 7.9 0 0 1 4-6.9c2-1 4.3-1.6 6.6-1.6 5.4 0 7.7 2.5 8.5 2.5.6 0 .6-.5.7-2.5h1.5l.2 10.4h-1.9c-.2-5-3.2-8.6-9-8.6-3.7 0-6.9 1.7-6.9 5s3.2 4.4 7.4 5.5c6 1.4 11.5 3 11.5 9.5 0 3.6-1.8 6-4 7.3-1.6 1-4.1 1.9-7.1 1.9zm32.7-28l-8-.3v20.4c0 1.7.1 3.1.6 4 .5.8 1.3 1.4 2.6 1.4 1.2 0 2.2-.6 2.7-1.6.4-.9.6-2.4.6-3.9V394h1.5v5.3c0 2.4-.4 4.2-1.6 5.4-1 1.2-2.5 1.8-4.8 1.8-2.9 0-4.7-1-5.7-2.7a9.4 9.4 0 0 1-1.2-5.2v-20.3h-4.8v-2.2h2c4.7 0 5.9-3.5 6.5-10.9h1.6v11l8-.3v2.6zm23.7-3c4.3 0 6.5 3 6.5 6.3s-2.2 5.4-4.6 5.4c-1.4 0-2.5-1-3-2.3 1.6-1.3 2.6-3 2.4-4.4 0-1.5-1-2.3-2.6-2.3-3.5 0-7 4.2-8.8 12.1v8.7c0 4 0 5 4.8 5.1v1.8h-14.5v-1.8c4.4 0 4.4-1 4.4-5.1v-15.9c0-2.8 0-5.5-5-5.2v-1.8l9.5-.7.7.7-.3 9.4c2.1-6.6 6-10 10.5-10zm38.8 23.3c0 2.8 0 5.2 4.8 5.3v1.8h-8.8l-.7-.7V397c-2.5 5.5-7 9.5-12.5 9.5s-8.7-3.8-8.7-10.3V383c0-4 0-5-4.6-5V376h10.1l-.2 8.1v12c0 5.2 2 7.2 5.4 7.2 4.3 0 7.8-3.8 9.9-9.5V383c0-4 0-5-4.3-5V376h9.8l-.2 8.1V399zm22.9 7.7c-9 0-14.6-6.2-14.6-15.5 0-9.6 6.3-15.6 15-15.6 6.1 0 11.1 3.1 11.1 8.6 0 3-1.6 5.2-4.3 5.2-1.7 0-3-1.2-3.2-2.9 2-1.2 3.3-2.7 3.3-4.5 0-.7-.2-1.6-1-2.4-1.1-1.3-3-2.1-5.7-2.1-6.6 0-9.3 5-9.3 13.7 0 7.8 2.4 13.4 9.7 13.4 5.9 0 9-3.7 9-8.3h1.9c0 5.2-3.8 10.4-12 10.4zm33.2-28l-8-.3v20.4c0 1.7 0 3.1.5 4 .5.8 1.4 1.4 2.6 1.4 1.2 0 2.2-.6 2.7-1.6.4-.9.6-2.4.6-3.9V394h1.6v5.3c0 2.4-.5 4.2-1.6 5.4-1 1.2-2.6 1.8-4.8 1.8-3 0-4.8-1-5.7-2.7a9.4 9.4 0 0 1-1.2-5.2v-20.3h-4.8v-2.2h2c4.6 0 5.8-3.5 6.4-10.9h1.6v11l8-.3v2.6zm33.3 20.3c0 2.8 0 5.2 4.8 5.3v1.8h-8.8l-.7-.7V397c-2.5 5.5-7 9.5-12.5 9.5s-8.7-3.8-8.7-10.3V383c0-4 0-5-4.6-5V376h10.1l-.2 8.1v12c0 5.2 2 7.2 5.4 7.2 4.3 0 7.8-3.8 9.9-9.5V383c0-4 0-5-4.3-5V376h9.8l-.2 8.1V399zm27.9-23.4c4.3 0 6.5 3 6.5 6.4 0 3.3-2.2 5.4-4.6 5.4-1.4 0-2.5-1-3-2.3 1.6-1.3 2.5-3 2.4-4.4 0-1.5-1-2.3-2.6-2.3-3.5 0-7 4.2-8.8 12.1v8.7c0 4 0 5 4.8 5.1v1.8h-14.5v-1.8c4.4 0 4.4-1 4.4-5.1v-15.9c0-2.8 0-5.5-5-5.2v-1.8l9.5-.7.7.7-.3 9.4c2.1-6.6 6-10 10.5-10zm33.7 21.1h1.9c-.1 4.8-3.7 10-12 10-8.9 0-14.6-6.2-14.6-15.5 0-9.6 6.3-15.6 13.8-15.6 8 0 12.7 5.5 12.7 14.8h-20.6v.8c0 7.8 2.5 13.4 9.8 13.4 6 0 8.9-3.7 9-7.9zm-11-19.2c-4.7 0-7.2 3.9-7.7 11h14.7c0-6.1-1.3-11-7-11zm18.7 25.2c0-2.2 1.6-3.9 4-3.9 3.2 0 5.1 3 5.1 6.2 0 4.2-2.5 8.6-7.8 12.1l-1-1.3c4.6-3.3 6.5-7.7 4-8.9-1.6-.7-4.3-1.2-4.3-4.2zm64.4-3.5c0 4 0 5 4.3 5.1v1.8h-14.1v-1.8c4.5 0 4.5-1 4.5-5.1v-16.5c0-2.6 0-4.3-4.1-4.3h-10.2v20.8c0 4 0 5 4.6 5.1v1.8h-14.3v-1.8c4.4 0 4.4-1 4.4-5.1v-20.8h-4.9v-2.2h5v-2.5c0-7.6 5.4-13.1 14-13.1 7.2 0 10.8 3.1 10.8 7 0 2.6-1.8 4.7-4.3 4.7a3 3 0 0 1-3-2.6c1.6-1 2.5-2.2 2.5-3.6 0-1.8-2-3.7-6.2-3.7-6 0-8.6 4.3-8.6 10.6v3.2h12.5l6.8-.6.7.7-.4 9.6v13.3zm25-20.6l-8-.2v20.4c0 1.7 0 3.1.5 4 .5.8 1.3 1.4 2.6 1.4 1.2 0 2.2-.6 2.7-1.6.4-.9.6-2.4.6-3.9V394h1.6v5.3c0 2.4-.5 4.2-1.7 5.4-1 1.2-2.5 1.8-4.8 1.8-2.8 0-4.7-1-5.7-2.7a9.4 9.4 0 0 1-1.2-5.2v-20.3h-4.8v-2.2h2c4.7 0 5.9-3.5 6.5-10.9h1.6v11l8-.3v2.6zm21 0l-8.1-.2v20.4c0 1.7.1 3.1.6 4 .5.8 1.3 1.4 2.6 1.4 1.2 0 2.2-.6 2.7-1.6.4-.9.6-2.4.6-3.9V394h1.5v5.3c0 2.4-.4 4.2-1.6 5.4-1 1.2-2.5 1.8-4.8 1.8-2.9 0-4.7-1-5.7-2.7a9.4 9.4 0 0 1-1.2-5.2v-20.3h-4.8v-2.2h2c4.7 0 5.9-3.5 6.5-10.9h1.6v11l8-.3v2.6zm28.7 18.1h1.9c0 4.8-3.7 10-11.9 10-9 0-14.6-6.2-14.6-15.5 0-9.6 6.3-15.6 13.7-15.6 8 0 12.7 5.5 12.7 14.8h-20.6v.8c0 7.8 2.6 13.4 9.8 13.4 6 0 8.9-3.7 9-7.9zm-10.9-19.2c-4.7 0-7.3 3.9-7.7 11h14.6c0-6.1-1.3-11-6.9-11zm46 21.7c0 4 0 5 4.3 5.1v1.8h-8.3l-.7-.7v-7.7c-2.4 6-6.8 9-11.6 9-7.3 0-12.2-6.1-12.2-14.7 0-8.7 5-16.4 14.7-16.4 4 0 6.7 1.5 8.6 3.4l-.1-10.2c-.1-2.8 0-5.4-5-5.2v-1.8l10-.7.7.7-.5 8.2v29.2zm-15.2 5.1c4 0 7.6-3.3 9.9-9.4v-7c0-5.9-2.7-10.4-8.4-10.4-4.8 0-9 2.6-9 14.4 0 6.1 1 12.4 7.5 12.4zm73-5.3c0 2.8 0 5.2 4.8 5.3v1.8h-8.8l-.7-.7V397c-2.5 5.5-6.9 9.5-12.5 9.5-5.5 0-8.7-3.8-8.7-10.3V383c0-4 0-5-4.6-5V376h10.2l-.3 8.1v12c0 5.2 2 7.2 5.4 7.2 4.3 0 7.9-3.8 10-9.5V383c0-4 0-5-4.3-5V376h9.7l-.2 8.1V399zm28.3-23.4c7.4 0 12.2 6.1 12.2 14.7 0 8.7-5 16.4-14.7 16.4a12 12 0 0 1-8.5-3v9c0 4.1 0 5.1 5.1 5.2v1.8h-14.7v-1.8c4.3-.1 4.3-1 4.3-5.1v-29.5c0-2.8 0-5.5-4.8-5.2v-1.8l9.4-.7.7.7-.4 7.7c2.5-5.6 6.8-8.4 11.4-8.4zm-2.5 29.2c4.7 0 8.8-2.6 8.8-14.4 0-6-1-12.4-7.4-12.4-4 0-7.5 3.3-9.9 9.4v7c0 5.9 2.7 10.4 8.5 10.4zm46.8-35.2c-2.4 0-3.9-1.7-3.9-3.8 0-2.2 1.5-3.8 4-3.8s4 1.5 4 3.8c0 2.1-1.5 3.8-4 3.8zm7 36.5h-14v-1.8c4.5 0 4.5-1 4.5-5.1v-16c0-2.8 0-5.4-5-5v-1.9l10-.7.7.7-.5 9.6v13.3c0 4 0 5 4.4 5.1v1.8zm34.5-6.9c0 4 0 5 4.4 5.1v1.8h-14v-1.8c4.4 0 4.4-1 4.4-5.1v-13.6c0-4.9-2-6.8-5.6-6.8-4.4 0-8.3 3.8-10.5 9.5V399c0 4 0 5 4.4 5.1v1.8h-14v-1.8c4.4 0 4.4-1 4.4-5.1v-15.9c0-2.8 0-5.5-5-5.2v-1.8l9.5-.7.7.7-.4 8.6c2.6-5.5 7.6-9.3 12.8-9.3 5.8 0 9 3.8 9 10V399zm45.5-20.6l-8-.2v20.4c0 1.7 0 3.1.5 4 .5.8 1.4 1.4 2.6 1.4 1.2 0 2.2-.6 2.7-1.6.4-.9.6-2.4.6-3.9V394h1.6v5.3c0 2.4-.5 4.2-1.6 5.4-1 1.2-2.6 1.8-4.8 1.8-3 0-4.8-1-5.7-2.7a9.4 9.4 0 0 1-1.2-5.2v-20.3h-4.8v-2.2h2c4.6 0 5.8-3.5 6.4-10.9h1.6v11l8-.3v2.6zm34 20.6c0 4 0 5 4.4 5.1v1.8h-13.9v-1.8c4.3 0 4.3-1 4.3-5.1v-13.6c0-4.9-2-6.8-5.6-6.8-4.3 0-8.4 3.8-10.5 9.7V399c0 4 0 5 4.4 5.1v1.8h-14v-1.8c4.4 0 4.4-1 4.4-5.1v-30.4c0-2.8 0-5.4-4.4-5.2v-1.8l9.4-.7.7.7-.5 8.2-.4 15c2.6-5.5 7.6-9.4 12.9-9.4 5.8 0 8.8 3.8 8.8 10V399zm32.6-2.5h1.9c-.1 4.8-3.7 10-12 10-8.9 0-14.6-6.2-14.6-15.5 0-9.6 6.3-15.6 13.8-15.6 8 0 12.7 5.5 12.7 14.8h-20.6v.8c0 7.8 2.5 13.4 9.8 13.4 6 0 8.9-3.7 9-7.9zm-11-19.2c-4.7 0-7.2 3.9-7.7 11h14.7c0-6.1-1.3-11-7-11zM2098.3 479c0 4 0 5 4.3 5.1v1.8h-13.9v-1.8c4.3 0 4.3-1 4.3-5.1v-13.6c0-4.9-2-6.8-5.4-6.8-4.1 0-7.8 3.8-10 9.5V479c0 4 0 5 4.3 5.1v1.8H2068v-1.8c4.3 0 4.3-1 4.3-5.1v-13.6c0-4.9-2-6.8-5.3-6.8-4.2 0-7.9 3.8-10 9.5V479c0 4 0 5 4.3 5.1v1.8h-14v-1.8c4.4 0 4.4-1 4.4-5.1v-15.9c0-2.8 0-5.5-4.9-5.2v-1.8l9.4-.7.7.7-.3 8.6c2.6-5.5 7.2-9.3 12.2-9.3 5.2 0 8.3 3.3 8.7 8.6 2.7-5.1 7.1-8.6 11.9-8.6 5.6 0 8.8 3.8 8.8 10V479zm22.3 7.5c-7.7 0-14.5-6-14.5-15.5s6.8-15.6 14.5-15.6c7.6 0 14.5 6 14.5 15.6 0 9.4-6.9 15.5-14.5 15.5zm0-1.9c5.8 0 8.6-5.2 8.6-13.6 0-8.4-2.8-13.7-8.6-13.7s-8.6 5.3-8.6 13.7c0 8.4 2.8 13.6 8.6 13.6zm31.6 1.9c-6.1 0-8.5-2.7-9.5-2.7-.5 0-.9.4-1 2.7h-1.5l.3-12.1h1.8c.2 7.7 4.8 10.2 9.9 10.2 3.9 0 7.1-2 7.1-5.5 0-3.8-3.8-4.9-9-6.2-4.4-1.1-9.8-3-9.7-8.9a7.9 7.9 0 0 1 4.1-6.9c1.9-1 4.2-1.6 6.6-1.6 5.4 0 7.7 2.5 8.4 2.5.6 0 .7-.5.7-2.5h1.5l.2 10.4h-1.8c-.2-5-3.2-8.6-9-8.6-3.8 0-7 1.7-7 5s3.3 4.4 7.5 5.5c6 1.4 11.5 3 11.5 9.5 0 3.6-1.8 6-4 7.3-1.7 1-4.1 1.9-7.1 1.9zm32.7-28l-8-.3v20.4c0 1.7 0 3.1.6 4 .4.8 1.3 1.4 2.5 1.4s2.3-.6 2.7-1.6c.5-.9.6-2.4.6-3.9V474h1.6v5.3c0 2.4-.5 4.2-1.6 5.4-1 1.2-2.5 1.8-4.8 1.8-2.9 0-4.8-1-5.7-2.7a9.4 9.4 0 0 1-1.2-5.2v-20.3h-4.8v-2.2h2c4.6 0 5.8-3.5 6.4-10.9h1.7v11l8-.3v2.6zm58 28c-9 0-14.5-6.2-14.5-15.5 0-9.6 6.3-15.6 15-15.6 6.1 0 11.1 3.1 11.1 8.6 0 3-1.6 5.2-4.3 5.2-1.7 0-3-1.2-3.2-2.9 2-1.2 3.3-2.7 3.3-4.5 0-.7-.2-1.6-1-2.4-1.1-1.3-3-2.1-5.7-2.1-6.6 0-9.3 5-9.3 13.7 0 7.8 2.4 13.4 9.7 13.4 5.9 0 9-3.7 9-8.3h1.9c0 5.2-3.8 10.4-12 10.4zm30.9 0c-7.7 0-14.5-6-14.5-15.5s6.8-15.6 14.5-15.6c7.6 0 14.4 6 14.4 15.6 0 9.4-6.8 15.5-14.4 15.5zm0-1.9c5.7 0 8.6-5.2 8.6-13.6 0-8.4-2.9-13.7-8.6-13.7-5.8 0-8.7 5.3-8.7 13.7 0 8.4 2.9 13.6 8.7 13.6zm49.8-5.6c0 4 0 5 4.3 5.1v1.8h-14v-1.8c4.4 0 4.4-1 4.4-5.1v-13.6c0-4.9-2-6.8-5.5-6.8-4.5 0-8.4 3.8-10.5 9.5V479c0 4 0 5 4.3 5.1v1.8h-14v-1.8c4.4 0 4.4-1 4.4-5.1v-15.9c0-2.8 0-5.5-5-5.2v-1.8l9.5-.7.7.7-.4 8.6c2.6-5.5 7.6-9.3 12.8-9.3 5.8 0 9 3.8 9 10V479zm21.4 7.5h-1.5l-9-21.9c-2.2-5.5-2.6-6.7-7.3-6.8v-1.8h15.8v1.8c-5.5 0-5 1.5-2.8 6.9l3.3 8.4 2.3 5.8h.1l5.7-14.4c1.9-5 2.5-6.6-3-6.7v-1.8h12.3v1.8c-4.5 0-5.2 1.7-7.2 6.7l-8.7 22zm41.2-10h1.9c0 4.8-3.7 10-11.9 10-9 0-14.6-6.2-14.6-15.5 0-9.6 6.3-15.6 13.7-15.6 8 0 12.7 5.5 12.7 14.8h-20.6v.8c0 7.8 2.6 13.4 9.8 13.4 6 0 8.9-3.7 9-7.9zm-10.9-19.2c-4.7 0-7.3 3.9-7.7 11h14.6c0-6.1-1.3-11-6.9-11zm48.2 21.7c0 4 0 5 4.3 5.1v1.8h-13.9v-1.8c4.3 0 4.3-1 4.3-5.1v-13.6c0-4.9-2-6.8-5.5-6.8-4.4 0-8.3 3.8-10.5 9.5V479c0 4 0 5 4.3 5.1v1.8h-14v-1.8c4.4 0 4.4-1 4.4-5.1v-15.9c0-2.8 0-5.5-4.9-5.2v-1.8l9.4-.7.8.7-.4 8.6c2.6-5.5 7.6-9.3 12.8-9.3 5.8 0 9 3.8 9 10V479zm14.8-29.6c-2.5 0-4-1.7-4-3.8 0-2.2 1.5-3.8 4-3.8s4 1.5 4 3.8c0 2.1-1.5 3.8-4 3.8zm7 36.5h-14v-1.8c4.4 0 4.4-1 4.4-5.1v-16c0-2.8 0-5.4-5-5v-1.9l10-.7.7.7-.5 9.6v13.3c0 4 0 5 4.4 5.1v1.8zm28.4-9.4h1.9c-.1 4.8-3.7 10-12 10-8.9 0-14.6-6.2-14.6-15.5 0-9.6 6.3-15.6 13.8-15.6 8 0 12.7 5.5 12.7 14.8h-20.6v.8c0 7.8 2.5 13.4 9.8 13.4 6 0 8.9-3.7 9-7.9zm-11-19.2c-4.7 0-7.2 3.9-7.7 11h14.7c0-6.1-1.3-11-7-11zM2511 479c0 4 0 5 4.3 5.1v1.8h-13.9v-1.8c4.3 0 4.3-1 4.3-5.1v-13.6c0-4.9-2-6.8-5.5-6.8-4.4 0-8.3 3.8-10.5 9.5V479c0 4 0 5 4.3 5.1v1.8h-14v-1.8c4.4 0 4.4-1 4.4-5.1v-15.9c0-2.8 0-5.5-4.9-5.2v-1.8l9.4-.7.7.7-.3 8.6c2.6-5.5 7.5-9.3 12.8-9.3 5.8 0 8.9 3.8 8.9 10V479zm24.8-20.6l-8-.2v20.4c0 1.7 0 3.1.5 4 .5.8 1.3 1.4 2.6 1.4 1.2 0 2.2-.6 2.7-1.6.4-.9.6-2.4.6-3.9V474h1.6v5.3c0 2.4-.5 4.2-1.7 5.4-1 1.2-2.5 1.8-4.8 1.8-2.8 0-4.7-1-5.7-2.7a9.4 9.4 0 0 1-1.2-5.2v-20.3h-4.8v-2.2h2c4.7 0 5.9-3.5 6.5-10.9h1.6v11l8-.3v2.6zm94 20.6c0 4 0 5 4.4 5.1v1.8h-13.9v-1.8c4.3 0 4.3-1 4.3-5.1v-13.6c0-4.9-2-6.8-5.3-6.8-4.2 0-7.9 3.8-10 9.5V479c0 4 0 5 4.3 5.1v1.8h-13.8v-1.8c4.2 0 4.2-1 4.2-5.1v-13.6c0-4.9-2-6.8-5.3-6.8-4.2 0-7.9 3.8-10 9.5V479c0 4 0 5 4.3 5.1v1.8h-14v-1.8c4.4 0 4.4-1 4.4-5.1v-15.9c0-2.8 0-5.5-4.9-5.2v-1.8l9.4-.7.8.7-.4 8.6c2.6-5.5 7.3-9.3 12.2-9.3 5.3 0 8.3 3.3 8.7 8.6 2.7-5.1 7.1-8.6 12-8.6 5.6 0 8.7 3.8 8.7 10V479zm37-2.4h1.6v4c0 1.8-.2 3.4-1.3 4.4a6 6 0 0 1-4.2 1.4c-1.8 0-3.4-.4-4.4-1.8-.8-1-1-2.4-1-4.5v-1.3c-1 2.3-3.7 7.7-11.4 7.7-5.2 0-8.4-3-8.4-7.6 0-3 1.4-5 3.7-6.5 3.7-2.5 9-3.7 15.9-4.6V465c0-6.3-3.4-7.7-6.7-7.7-3 0-4.8.8-6 2a3 3 0 0 0-1 2.2c0 1.6 1.2 2.6 3.2 3.8-.4 1.6-1.9 2.7-3.7 2.7-2.8 0-4.1-2.3-4.1-4.7 0-5 5.1-7.9 11.8-7.9 6 0 11.7 2.5 11.7 10.2v14.8c0 1.1.1 2.1.4 2.7.4.6 1 1 1.8 1s1.5-.4 1.8-1.1c.3-.6.4-1.6.4-2.6v-3.8zm-18.6 7c5.7 0 9-6 9-11.3v-2.7c-5 .6-9.2 1.7-11.7 3.9a6.2 6.2 0 0 0-2.1 5c0 3 1.8 5 4.8 5zm53.2-4.6c0 4 0 5 4.3 5.1v1.8h-13.9v-1.8c4.3 0 4.3-1 4.3-5.1v-13.6c0-4.9-2-6.8-5.5-6.8-4.4 0-8.3 3.8-10.5 9.5V479c0 4 0 5 4.3 5.1v1.8h-14v-1.8c4.4 0 4.4-1 4.4-5.1v-15.9c0-2.8 0-5.5-4.9-5.2v-1.8l9.4-.7.8.7-.4 8.6c2.6-5.5 7.6-9.3 12.8-9.3 5.8 0 9 3.8 9 10V479zm38.6 0c0 4 0 5 4.4 5.1v1.8h-14v-1.8c4.4 0 4.4-1 4.4-5.1v-13.6c0-4.9-2-6.8-5.6-6.8-4.4 0-8.3 3.8-10.5 9.5V479c0 4 0 5 4.4 5.1v1.8h-14v-1.8c4.4 0 4.4-1 4.4-5.1v-15.9c0-2.8 0-5.5-5-5.2v-1.8l9.5-.7.7.7-.4 8.6c2.6-5.5 7.6-9.3 12.8-9.3 5.8 0 9 3.8 9 10V479zm32.6-2.5h1.9c0 4.8-3.7 10-12 10-8.9 0-14.6-6.2-14.6-15.5 0-9.6 6.3-15.6 13.8-15.6 8 0 12.7 5.5 12.7 14.8h-20.6v.8c0 7.8 2.5 13.4 9.8 13.4 6 0 8.9-3.7 9-7.9zm-11-19.2c-4.7 0-7.2 3.9-7.7 11h14.7c0-6.1-1.3-11-7-11zm37.1-1.9c4.3 0 6.5 3 6.5 6.4 0 3.3-2.1 5.4-4.5 5.4-1.5 0-2.6-1-3-2.3 1.5-1.3 2.5-3 2.4-4.4 0-1.5-1-2.3-2.7-2.3-3.5 0-7 4.2-8.8 12.1v8.7c0 4 0 5 4.8 5.1v1.8h-14.5v-1.8c4.4 0 4.4-1 4.4-5.1v-15.9c0-2.8 0-5.5-4.9-5.2v-1.8l9.4-.7.7.7-.3 9.4c2.1-6.6 6-10 10.5-10zm10.9 31.2c-2.6 0-4.2-1.7-4.2-4s1.6-3.9 4.2-3.9c2.7 0 4.1 1.6 4.1 4 0 2.2-1.4 4-4.1 4zm109-7.6c0 4 0 5 4.4 5.1v1.8H2909v-1.8c4.3 0 4.3-1 4.3-5.1v-13.6c0-4.9-2-6.8-5.5-6.8-4.4 0-8.3 3.8-10.5 9.5V479c0 4 0 5 4.3 5.1v1.8h-14v-1.8c4.4 0 4.4-1 4.4-5.1v-28c0-2.1 0-4-1.6-4.9h-13.3v32c0 4.7 0 5.9 5.6 6v1.8H2865v-1.8c6.2-.1 6.2-1.3 6.2-6v-32h-5.1c-5.3 0-7.3 3.2-7.8 12.7h-2l.2-14.9h31.2l9.4-1.3.6.7-.4 8.2-.5 13.4c2.6-5.6 7.6-9.5 12.9-9.5 5.8 0 8.9 3.8 8.9 10V479zm32.6-2.5h1.9c0 4.8-3.7 10-12 10-8.8 0-14.5-6.2-14.5-15.5 0-9.6 6.3-15.6 13.7-15.6 8 0 12.7 5.5 12.7 14.8h-20.6v.8c0 7.8 2.6 13.4 9.8 13.4 6 0 8.9-3.7 9-7.9zm-11-19.2c-4.6 0-7.2 3.9-7.6 11h14.6c0-6.1-1.3-11-7-11zm37.2-1.9c4.2 0 6.4 3 6.4 6.4 0 3.3-2.1 5.4-4.5 5.4-1.5 0-2.5-1-3-2.3 1.5-1.3 2.5-3 2.4-4.4 0-1.5-1-2.3-2.7-2.3-3.4 0-7 4.2-8.8 12.1v8.7c0 4 0 5 4.8 5.1v1.8h-14.4v-1.8c4.3 0 4.3-1 4.3-5.1v-15.9c0-2.8 0-5.5-4.9-5.2v-1.8l9.4-.7.8.7-.3 9.4c2-6.6 6-10 10.5-10zm33.7 21.1h1.8c0 4.8-3.6 10-11.9 10-9 0-14.6-6.2-14.6-15.5 0-9.6 6.3-15.6 13.7-15.6 8 0 12.8 5.5 12.8 14.8h-20.6v.8c0 7.8 2.5 13.4 9.8 13.4 5.9 0 8.8-3.7 9-7.9zm-11-19.2c-4.7 0-7.2 3.9-7.7 11h14.6c0-6.1-1.3-11-6.9-11zm63.8-8c-2.5 0-3.9-1.6-3.9-3.7 0-2.2 1.4-3.8 3.9-3.8 2.6 0 4 1.5 4 3.8 0 2.1-1.4 3.8-4 3.8zm7 36.6h-14v-1.8c4.4 0 4.4-1 4.4-5.1v-16c0-2.8 0-5.4-4.9-5v-1.9l9.9-.7.7.7-.5 9.6v13.3c0 4 0 5 4.4 5.1v1.8zm16.3.6c-6.1 0-8.5-2.7-9.5-2.7-.5 0-.9.4-1 2.7h-1.5l.3-12.1h1.8c.2 7.7 4.8 10.2 9.9 10.2 3.9 0 7.1-2 7.1-5.5 0-3.8-3.8-4.9-9-6.2-4.4-1.1-9.8-3-9.7-8.9a7.9 7.9 0 0 1 4.1-6.9c1.9-1 4.2-1.6 6.6-1.6 5.4 0 7.7 2.5 8.4 2.5.6 0 .7-.5.7-2.5h1.5l.2 10.4h-1.8c-.2-5-3.2-8.6-9-8.6-3.8 0-7 1.7-7 5s3.3 4.4 7.5 5.5c6 1.4 11.5 3 11.5 9.5 0 3.6-1.8 6-4 7.3-1.7 1-4.1 1.9-7.1 1.9zm84.4-9.9h1.5v4c0 1.8-.2 3.4-1.3 4.4a6 6 0 0 1-4.3 1.4c-1.7 0-3.3-.4-4.3-1.8-.8-1-1-2.4-1-4.5v-1.3c-1 2.3-3.7 7.7-11.5 7.7-5.1 0-8.3-3-8.3-7.6 0-3 1.4-5 3.7-6.5 3.7-2.5 9-3.7 15.9-4.6V465c0-6.3-3.5-7.7-6.7-7.7-3 0-4.8.8-6 2a3 3 0 0 0-1 2.2c0 1.6 1.2 2.6 3.2 3.8-.4 1.6-1.9 2.7-3.8 2.7-2.7 0-4-2.3-4-4.7 0-5 5.1-7.9 11.8-7.9 6 0 11.7 2.5 11.7 10.2v14.8c0 1.1.1 2.1.4 2.7.4.6.9 1 1.7 1 .9 0 1.5-.4 1.8-1.1.3-.6.5-1.6.5-2.6v-3.8zm-18.7 7c5.7 0 9-6 9-11.3v-2.7c-5.1.6-9.2 1.7-11.7 3.9a6.2 6.2 0 0 0-2.2 5c0 3 1.9 5 4.9 5zm81.8-28.2c7.4 0 12.2 6.1 12.2 14.7 0 8.7-5 16.4-14.7 16.4a12 12 0 0 1-8.5-3v9c0 4.1 0 5.1 5.1 5.2v1.8H3214v-1.8c4.4-.1 4.4-1 4.4-5.1v-29.5c0-2.8 0-5.5-4.9-5.2v-1.8l9.4-.7.7.7-.4 7.7c2.5-5.6 6.8-8.4 11.4-8.4zm-2.5 29.2c4.7 0 8.8-2.6 8.8-14.4 0-6-.9-12.4-7.4-12.4-4 0-7.5 3.3-9.9 9.4v7c0 5.9 2.7 10.4 8.5 10.4zm33.8 1.9c-7.7 0-14.5-6-14.5-15.5s6.8-15.6 14.5-15.6c7.6 0 14.5 6 14.5 15.6 0 9.4-6.9 15.5-14.5 15.5zm0-1.9c5.8 0 8.6-5.2 8.6-13.6 0-8.4-2.8-13.7-8.6-13.7s-8.6 5.3-8.6 13.7c0 8.4 2.8 13.6 8.6 13.6zm38.6-29.2c4.3 0 6.5 3 6.5 6.4 0 3.3-2.1 5.4-4.5 5.4-1.5 0-2.6-1-3-2.3 1.5-1.3 2.5-3 2.4-4.4 0-1.5-1-2.3-2.7-2.3-3.5 0-7 4.2-8.8 12.1v8.7c0 4 0 5 4.8 5.1v1.8h-14.5v-1.8c4.4 0 4.4-1 4.4-5.1v-15.9c0-2.8 0-5.5-4.9-5.2v-1.8l9.4-.7.7.7-.3 9.4c2.1-6.6 6-10 10.5-10zm26.5 3l-8-.2v20.4c0 1.7 0 3.1.5 4 .5.8 1.4 1.4 2.6 1.4 1.2 0 2.2-.6 2.7-1.6.4-.9.6-2.4.6-3.9V474h1.6v5.3c0 2.4-.5 4.2-1.6 5.4-1 1.2-2.6 1.8-4.8 1.8-3 0-4.8-1-5.7-2.7a9.4 9.4 0 0 1-1.2-5.2v-20.3h-4.8v-2.2h2c4.6 0 5.8-3.5 6.4-10.9h1.6v11l8-.3v2.6zm11-9c-2.5 0-4-1.7-4-3.8 0-2.2 1.5-3.8 4-3.8s4 1.5 4 3.8c0 2.1-1.5 3.8-4 3.8zm7 36.5h-14v-1.8c4.4 0 4.4-1 4.4-5.1v-16c0-2.8 0-5.4-5-5v-1.9l10-.7.7.7-.5 9.6v13.3c0 4 0 5 4.4 5.1v1.8zm18.2.6c-9 0-14.5-6.2-14.5-15.5 0-9.6 6.3-15.6 15-15.6 6 0 11.1 3.1 11.1 8.6 0 3-1.7 5.2-4.3 5.2-1.7 0-3-1.2-3.2-2.9 2-1.2 3.3-2.7 3.3-4.5 0-.7-.2-1.6-1-2.4-1.1-1.3-3-2.1-5.7-2.1-6.7 0-9.3 5-9.3 13.7 0 7.8 2.3 13.4 9.7 13.4 5.8 0 9-3.7 9-8.3h1.9c0 5.2-3.9 10.4-12 10.4zm30.9 0c-7.7 0-14.6-6-14.6-15.5s6.9-15.6 14.6-15.6c7.6 0 14.4 6 14.4 15.6 0 9.4-6.8 15.5-14.4 15.5zm0-1.9c5.7 0 8.5-5.2 8.5-13.6 0-8.4-2.8-13.7-8.5-13.7-5.9 0-8.7 5.3-8.7 13.7 0 8.4 2.8 13.6 8.7 13.6zm65.3-35.2c-2.5 0-4-1.7-4-3.8 0-2.2 1.5-3.8 4-3.8 2.6 0 4 1.5 4 3.8 0 2.1-1.4 3.8-4 3.8zm7 36.5h-14v-1.8c4.4 0 4.4-1 4.4-5.1v-16c0-2.8 0-5.4-5-5v-1.9l10-.7.7.7-.5 9.6v13.3c0 4 0 5 4.4 5.1v1.8zm34.5-6.9c0 4 0 5 4.3 5.1v1.8h-14v-1.8c4.4 0 4.4-1 4.4-5.1v-13.6c0-4.9-2-6.8-5.5-6.8-4.4 0-8.3 3.8-10.5 9.5V479c0 4 0 5 4.3 5.1v1.8h-14v-1.8c4.4 0 4.4-1 4.4-5.1v-15.9c0-2.8 0-5.5-5-5.2v-1.8l9.5-.7.7.7-.3 8.6c2.6-5.5 7.5-9.3 12.8-9.3 5.8 0 8.9 3.8 8.9 10V479zm64.2-20.6l-8-.2v20.4c0 1.7 0 3.1.5 4 .5.8 1.4 1.4 2.6 1.4 1.2 0 2.2-.6 2.7-1.6.4-.9.6-2.4.6-3.9V474h1.6v5.3c0 2.4-.5 4.2-1.6 5.4-1 1.2-2.6 1.8-4.8 1.8-3 0-4.8-1-5.7-2.7a9.4 9.4 0 0 1-1.2-5.2v-20.3h-4.8v-2.2h2c4.6 0 5.8-3.5 6.4-10.9h1.6v11l8-.3v2.6zm34 20.6c0 4 0 5 4.4 5.1v1.8h-13.9v-1.8c4.3 0 4.3-1 4.3-5.1v-13.6c0-4.9-2-6.8-5.6-6.8-4.3 0-8.4 3.8-10.5 9.7V479c0 4 0 5 4.4 5.1v1.8h-14v-1.8c4.4 0 4.4-1 4.4-5.1v-30.4c0-2.8 0-5.4-4.4-5.2v-1.8l9.4-.7.7.7-.5 8.2-.4 15c2.6-5.5 7.6-9.4 12.9-9.4 5.8 0 8.8 3.8 8.8 10V479zm32.6-2.5h1.9c-.1 4.8-3.7 10-12 10-8.9 0-14.6-6.2-14.6-15.5 0-9.6 6.3-15.6 13.8-15.6 8 0 12.7 5.5 12.7 14.8h-20.6v.8c0 7.8 2.5 13.4 9.8 13.4 6 0 8.9-3.7 9-7.9zm-11-19.2c-4.7 0-7.2 3.9-7.7 11h14.7c0-6.1-1.3-11-7-11zm94.1 18.3h1.6v5c0 1.9-.5 3.4-1.6 4.5-1 .8-2.5 1.3-4.7 1.3-2 0-3.7-.4-4.9-1.9-.9-1-1.2-2.6-1.2-4.5v-4.7c0-6.7-4.8-8.4-10-8.4h-4.6v11.2c0 4.7 0 5.9 6 6v1.8h-17.7v-1.8c5.8-.1 5.8-1.3 5.8-6v-26.4c0-4.7 0-5.9-5.8-6V444h18.4c8.7 0 15.8 2.6 15.8 11 0 7-5.4 10.5-11.8 11.4v.2c5.9 1.2 10.4 4.4 10.4 9.3v4.4c0 1.1 0 2.1.4 2.7.3.6.9 1 1.7 1 .9 0 1.5-.4 1.8-1.1.3-.6.4-1.6.4-2.7v-4.5zm-25.4-11h6.7c7.1 0 9.4-3.4 9.4-9.7 0-6.1-2.3-8.9-9.4-8.9h-3c-3.2 0-3.7 1.1-3.7 4v14.6zm45.1 21.9c-7.7 0-14.5-6-14.5-15.5s6.8-15.6 14.5-15.6c7.6 0 14.5 6 14.5 15.6 0 9.4-6.9 15.5-14.5 15.5zm0-1.9c5.8 0 8.6-5.2 8.6-13.6 0-8.4-2.8-13.7-8.6-13.7s-8.6 5.3-8.6 13.7c0 8.4 2.8 13.6 8.6 13.6zm69.6-5.6c0 4 0 5 4.4 5.1v1.8h-13.9v-1.8c4.3 0 4.3-1 4.3-5.1v-13.6c0-4.9-2-6.8-5.4-6.8-4.1 0-7.8 3.8-10 9.5V479c0 4 0 5 4.3 5.1v1.8H3778v-1.8c4.3 0 4.3-1 4.3-5.1v-13.6c0-4.9-2-6.8-5.4-6.8-4.1 0-7.8 3.8-10 9.5V479c0 4 0 5 4.3 5.1v1.8h-13.9v-1.8c4.4 0 4.4-1 4.4-5.1v-15.9c0-2.8 0-5.5-5-5.2v-1.8l9.5-.7.7.7-.3 8.6c2.5-5.5 7.2-9.3 12.2-9.3 5.2 0 8.3 3.3 8.7 8.6 2.6-5.1 7-8.6 11.9-8.6 5.6 0 8.7 3.8 8.7 10V479zm37-2.4h1.6v4c0 1.8-.2 3.4-1.3 4.4a6 6 0 0 1-4.3 1.4c-1.7 0-3.3-.4-4.4-1.8-.7-1-1-2.4-1-4.5v-1.3c-1 2.3-3.6 7.7-11.4 7.7-5.1 0-8.3-3-8.3-7.6 0-3 1.4-5 3.7-6.5 3.7-2.5 9-3.7 15.8-4.6V465c0-6.3-3.4-7.7-6.6-7.7-3 0-4.8.8-6 2a3 3 0 0 0-1 2.2c0 1.6 1.2 2.6 3.1 3.8-.3 1.6-1.8 2.7-3.7 2.7-2.7 0-4-2.3-4-4.7 0-5 5.1-7.9 11.8-7.9 6 0 11.7 2.5 11.7 10.2v14.8c0 1.1 0 2.1.4 2.7.3.6.9 1 1.7 1 .9 0 1.5-.4 1.8-1.1.3-.6.4-1.6.4-2.6v-3.8zm-18.6 7c5.7 0 9-6 9-11.3v-2.7c-5.1.6-9.2 1.7-11.7 3.9a6.2 6.2 0 0 0-2.2 5c0 3 1.9 5 4.9 5zm53.2-4.6c0 4 0 5 4.3 5.1v1.8h-14v-1.8c4.4 0 4.4-1 4.4-5.1v-13.6c0-4.9-2-6.8-5.5-6.8-4.5 0-8.4 3.8-10.5 9.5V479c0 4 0 5 4.3 5.1v1.8h-14v-1.8c4.4 0 4.4-1 4.4-5.1v-15.9c0-2.8 0-5.5-5-5.2v-1.8l9.5-.7.7.7-.3 8.6c2.5-5.5 7.5-9.3 12.7-9.3 5.9 0 9 3.8 9 10V479zm-1803 77.6h1.5v4c0 1.8-.2 3.4-1.3 4.4a6 6 0 0 1-4.2 1.4c-1.8 0-3.4-.4-4.4-1.8-.8-1-1-2.4-1-4.5v-1.3c-1 2.3-3.7 7.7-11.4 7.7-5.2 0-8.4-3-8.4-7.6 0-3 1.4-5 3.7-6.5 3.7-2.5 9-3.7 15.9-4.6V545c0-6.3-3.4-7.7-6.7-7.7-3 0-4.8.8-6 2a3 3 0 0 0-1 2.2c0 1.6 1.2 2.6 3.2 3.8-.4 1.6-1.9 2.7-3.7 2.7-2.8 0-4.1-2.3-4.1-4.7 0-5 5.1-7.9 11.8-7.9 6 0 11.7 2.5 11.7 10.2v14.8c0 1.1.1 2.1.4 2.7.4.6 1 1 1.8 1s1.5-.4 1.8-1.1c.3-.6.4-1.6.4-2.6v-3.8zm-18.7 7c5.7 0 9-6 9-11.3v-2.7c-5 .6-9.2 1.7-11.7 3.9a6.2 6.2 0 0 0-2.1 5c0 3 1.8 5 4.8 5zm42-28.2c4.3 0 6.5 3 6.5 6.4 0 3.3-2.1 5.4-4.5 5.4-1.5 0-2.5-1-3-2.3 1.5-1.3 2.5-3 2.4-4.4 0-1.5-1-2.3-2.7-2.3-3.4 0-7 4.2-8.8 12.1v8.7c0 4 0 5 4.8 5.1v1.8h-14.4v-1.8c4.3 0 4.3-1 4.3-5.1v-15.9c0-2.8 0-5.5-4.9-5.2v-1.8l9.4-.7.8.7-.3 9.4c2-6.6 6-10 10.5-10zm23.6 31.1c-9 0-14.5-6.2-14.5-15.5 0-9.6 6.2-15.6 14.9-15.6 6.2 0 11.2 3.1 11.2 8.6 0 3-1.7 5.2-4.3 5.2-1.8 0-3-1.2-3.2-2.9 2-1.2 3.3-2.7 3.3-4.5 0-.7-.2-1.6-1-2.4-1.2-1.3-3-2.1-5.7-2.1-6.7 0-9.3 5-9.3 13.7 0 7.8 2.3 13.4 9.6 13.4 6 0 9-3.7 9.1-8.3h1.9c-.1 5.2-3.9 10.4-12 10.4zm46.3-7.5c0 4 0 5 4.3 5.1v1.8h-13.8v-1.8c4.3 0 4.3-1 4.3-5.1v-13.6c0-4.9-2.1-6.8-5.6-6.8-4.4 0-8.4 3.8-10.5 9.7V559c0 4 0 5 4.3 5.1v1.8H2139v-1.8c4.3 0 4.3-1 4.3-5.1v-30.4c0-2.8 0-5.4-4.3-5.2v-1.8l9.4-.7.7.7-.5 8.2-.4 15c2.6-5.5 7.6-9.4 12.8-9.4 5.9 0 9 3.8 9 10V559zm14.8-29.6c-2.5 0-4-1.7-4-3.8 0-2.2 1.5-3.8 4-3.8s4 1.5 4 3.8c0 2.1-1.5 3.8-4 3.8zm7 36.5h-14v-1.8c4.4 0 4.4-1 4.4-5.1v-16c0-2.8 0-5.4-5-5v-1.9l10-.7.7.7-.5 9.6v13.3c0 4 0 5 4.4 5.1v1.8zm20.6-27.5l-8-.2v20.4c0 1.7 0 3.1.6 4 .4.8 1.3 1.4 2.5 1.4s2.3-.6 2.7-1.6c.5-.9.6-2.4.6-3.9V554h1.6v5.3c0 2.4-.5 4.2-1.6 5.4-1 1.2-2.5 1.8-4.8 1.8-2.9 0-4.8-1-5.7-2.7a9.4 9.4 0 0 1-1.2-5.2v-20.3h-4.8v-2.2h2c4.6 0 5.8-3.5 6.4-10.9h1.7v11l8-.3v2.6zm28.8 18.1h1.8c0 4.8-3.6 10-11.8 10-9 0-14.7-6.2-14.7-15.5 0-9.6 6.3-15.6 13.8-15.6 8 0 12.7 5.5 12.7 14.8h-20.6v.8c0 7.8 2.5 13.4 9.8 13.4 6 0 8.9-3.7 9-7.9zm-11-19.2c-4.7 0-7.2 3.9-7.7 11h14.7c0-6.1-1.4-11-7-11zm32 29.2c-9 0-14.4-6.2-14.4-15.5 0-9.6 6.2-15.6 14.8-15.6 6.2 0 11.3 3.1 11.3 8.6 0 3-1.7 5.2-4.4 5.2-1.7 0-3-1.2-3.1-2.9 2-1.2 3.3-2.7 3.3-4.5 0-.7-.3-1.6-1-2.4-1.2-1.3-3-2.1-5.8-2.1-6.6 0-9.3 5-9.3 13.7 0 7.8 2.4 13.4 9.7 13.4 5.9 0 9-3.7 9-8.3h2c-.1 5.2-4 10.4-12 10.4zm33.3-28l-8-.3v20.4c0 1.7 0 3.1.6 4 .4.8 1.3 1.4 2.5 1.4s2.3-.6 2.7-1.6c.5-.9.6-2.4.6-3.9V554h1.6v5.3c0 2.4-.5 4.2-1.6 5.4-1 1.2-2.5 1.8-4.8 1.8-2.9 0-4.8-1-5.7-2.7a9.4 9.4 0 0 1-1.2-5.2v-20.3h-4.8v-2.2h2c4.6 0 5.8-3.5 6.4-10.9h1.7v11l8-.3v2.6zm33.3 20.3c0 2.8 0 5.2 4.8 5.3v1.8h-8.8l-.7-.7V557c-2.5 5.5-6.9 9.5-12.5 9.5-5.5 0-8.7-3.8-8.7-10.3V543c0-4 0-5-4.6-5V536h10.1l-.2 8.1v12c0 5.2 2 7.2 5.4 7.2 4.3 0 7.9-3.8 9.9-9.5V543c0-4 0-5-4.3-5V536h9.8l-.2 8.1V559zm28-23.4c4.2 0 6.4 3 6.4 6.4 0 3.3-2.2 5.4-4.6 5.4-1.4 0-2.5-1-3-2.3 1.6-1.3 2.6-3 2.4-4.4 0-1.5-1-2.3-2.6-2.3-3.5 0-7 4.2-8.8 12.1v8.7c0 4 0 5 4.8 5.1v1.8h-14.5v-1.8c4.4 0 4.4-1 4.4-5.1v-15.9c0-2.8 0-5.5-5-5.2v-1.8l9.5-.7.7.7-.3 9.4c2.1-6.6 6-10 10.5-10zm38 21.2h1.6v4c0 1.8-.3 3.4-1.4 4.4a6 6 0 0 1-4.2 1.4c-1.8 0-3.4-.4-4.4-1.8-.8-1-1-2.4-1-4.5v-1.3c-1 2.3-3.7 7.7-11.4 7.7-5.2 0-8.4-3-8.4-7.6 0-3 1.4-5 3.8-6.5 3.6-2.5 8.9-3.7 15.8-4.6V545c0-6.3-3.4-7.7-6.7-7.7-3 0-4.8.8-6 2a3 3 0 0 0-1 2.2c0 1.6 1.2 2.6 3.2 3.8-.4 1.6-1.9 2.7-3.7 2.7-2.8 0-4.1-2.3-4.1-4.7 0-5 5.2-7.9 11.8-7.9 6 0 11.7 2.5 11.7 10.2v14.8c0 1.1.1 2.1.4 2.7.4.6 1 1 1.8 1s1.5-.4 1.8-1.1c.3-.6.4-1.6.4-2.6v-3.8zm-18.7 7c5.7 0 9.1-6 9.1-11.3v-2.7c-5.2.6-9.2 1.7-11.8 3.9a6.2 6.2 0 0 0-2.1 5c0 3 1.8 5 4.8 5zm35.6 2.3h-14v-1.8c4.4 0 4.4-1 4.4-5.1v-30.5c0-2.8 0-5.4-5-5v-1.9l10-.7.8.7-.5 9.6v27.8c0 4 0 5 4.3 5.1v1.8zm37.7.6c-6 0-8.5-2.7-9.5-2.7-.5 0-.8.4-1 2.7h-1.4l.2-12.1h1.9c.1 7.7 4.8 10.2 9.8 10.2 4 0 7.1-2 7.1-5.5 0-3.8-3.7-4.9-9-6.2-4.3-1.1-9.8-3-9.6-8.9a7.9 7.9 0 0 1 4-6.9c2-1 4.3-1.6 6.6-1.6 5.4 0 7.7 2.5 8.5 2.5.6 0 .6-.5.7-2.5h1.5l.2 10.4h-1.9c-.2-5-3.2-8.6-9-8.6-3.7 0-6.9 1.7-6.9 5s3.2 4.4 7.4 5.5c6 1.4 11.5 3 11.5 9.5 0 3.6-1.8 6-4 7.3-1.6 1-4 1.9-7 1.9zm32.7-28l-8-.3v20.4c0 1.7.1 3.1.6 4 .5.8 1.3 1.4 2.6 1.4 1.2 0 2.2-.6 2.7-1.6.4-.9.6-2.4.6-3.9V554h1.5v5.3c0 2.4-.4 4.2-1.6 5.4-1 1.2-2.5 1.8-4.8 1.8-2.9 0-4.7-1-5.7-2.7a9.4 9.4 0 0 1-1.2-5.2v-20.3h-4.8v-2.2h2c4.7 0 5.9-3.5 6.5-10.9h1.6v11l8-.3v2.6zm22.9-2.5h12.2v1.8c-4.5 0-5.3 1.8-7.2 6.7l-11.6 28.7c-2 4.8-4.7 6.9-8 6.9-3.4 0-6.1-2.4-6.1-5.8 0-2.9 1.8-5.1 4.4-5.1 1.7 0 2.8 1.3 3 2.8-2.4 1.2-3.6 2.3-3.6 4 0 1.4 1.2 2.2 2.7 2.2 1.8 0 3.9-1.1 5.5-5.2l3.1-7.6-8.6-20.8c-2.2-5.5-2.6-6.7-7.4-6.8v-1.8h15.8v1.8c-5.4 0-4.9 1.5-2.8 6.9l3.3 8.3 2.3 6h.1l5.7-14.5c2-5 2.6-6.6-2.8-6.7v-1.8zm26.7 29.9h-14v-1.8c4.4 0 4.4-1 4.4-5.1v-30.5c0-2.8 0-5.4-5-5v-1.9l10-.7.7.7-.5 9.6v27.8c0 4 0 5 4.4 5.1v1.8zm28.4-9.4h2c-.2 4.8-3.8 10-12 10-9 0-14.6-6.2-14.6-15.5 0-9.6 6.3-15.6 13.7-15.6 8 0 12.7 5.5 12.7 14.8h-20.5v.8c0 7.8 2.5 13.4 9.7 13.4 6 0 9-3.7 9-7.9zm-10.9-19.2c-4.7 0-7.2 3.9-7.7 11h14.6c0-6.1-1.3-11-6.9-11zm18.7 25.2c0-2.2 1.6-3.9 4-3.9 3.2 0 5 3 5 6.2 0 4.2-2.4 8.6-7.7 12.1l-1-1.3c4.6-3.3 6.4-7.7 3.9-8.9-1.6-.7-4.2-1.2-4.2-4.2zm69.1-26.5h11.7v1.8c-4.1 0-4.8 1.7-6.6 6.7l-8 22h-1.5l-6.6-18-1.9-5.5h-.1l-8.1 23.5h-1.4l-8.3-21.9c-2-5.5-2.4-6.7-6.9-6.8v-1.8h15.2v1.8c-5.3 0-4.8 1.5-2.9 6.9l3.2 8.4 1.8 5.5 7.8-22.6h2.1l6.3 17 2 5.6 5.2-14c1.8-5 2.4-6.7-3-6.8v-1.8zm43.2 23c0 4 0 5 4.3 5.1v1.8h-13.8v-1.8c4.3 0 4.3-1 4.3-5.1v-13.6c0-4.9-2.1-6.8-5.6-6.8-4.4 0-8.4 3.8-10.5 9.7V559c0 4 0 5 4.3 5.1v1.8h-14v-1.8c4.4 0 4.4-1 4.4-5.1v-30.4c0-2.8 0-5.4-4.3-5.2v-1.8l9.4-.7.7.7-.5 8.2-.4 15c2.6-5.5 7.6-9.4 12.8-9.4 5.8 0 8.9 3.8 8.9 10V559zm14.7-29.6c-2.4 0-3.9-1.7-3.9-3.8 0-2.2 1.5-3.8 4-3.8s3.9 1.5 3.9 3.8c0 2.1-1.4 3.8-4 3.8zm7 36.5h-14v-1.8c4.5 0 4.5-1 4.5-5.1v-16c0-2.8 0-5.4-5-5v-1.9l10-.7.7.7-.5 9.6v13.3c0 4 0 5 4.4 5.1v1.8zm18.3.6c-9 0-14.5-6.2-14.5-15.5 0-9.6 6.3-15.6 14.9-15.6 6.2 0 11.2 3.1 11.2 8.6 0 3-1.7 5.2-4.3 5.2-1.7 0-3-1.2-3.2-2.9 2-1.2 3.3-2.7 3.3-4.5 0-.7-.2-1.6-1-2.4-1.1-1.3-3-2.1-5.7-2.1-6.7 0-9.3 5-9.3 13.7 0 7.8 2.3 13.4 9.7 13.4 5.8 0 8.9-3.7 9-8.3h1.9c0 5.2-3.9 10.4-12 10.4zm46.3-7.5c0 4 0 5 4.4 5.1v1.8h-14v-1.8c4.4 0 4.4-1 4.4-5.1v-13.6c0-4.9-2-6.8-5.6-6.8-4.3 0-8.4 3.8-10.5 9.7V559c0 4 0 5 4.4 5.1v1.8h-14v-1.8c4.4 0 4.4-1 4.4-5.1v-30.4c0-2.8 0-5.4-4.4-5.2v-1.8l9.4-.7.7.7-.5 8.2-.4 15c2.6-5.5 7.6-9.4 12.9-9.4 5.8 0 8.8 3.8 8.8 10V559zm49.3-23.6c7.3 0 12.1 6.1 12.1 14.7 0 8.7-5 16.4-14.7 16.4a12 12 0 0 1-8.4-3v9c0 4.1 0 5.1 5 5.2v1.8h-14.6v-1.8c4.3-.1 4.3-1 4.3-5.1v-29.5c0-2.8 0-5.5-4.9-5.2v-1.8l9.5-.7.7.7-.4 7.7c2.5-5.6 6.7-8.4 11.4-8.4zm-2.6 29.2c4.8 0 8.9-2.6 8.9-14.4 0-6-1-12.4-7.4-12.4-4.1 0-7.6 3.3-10 9.4v7c0 5.9 2.8 10.4 8.5 10.4zm39-29.2c4.2 0 6.4 3 6.4 6.4 0 3.3-2.1 5.4-4.5 5.4-1.5 0-2.5-1-3-2.3 1.5-1.3 2.5-3 2.4-4.4 0-1.5-1-2.3-2.7-2.3-3.4 0-7 4.2-8.8 12.1v8.7c0 4 0 5 4.8 5.1v1.8h-14.4v-1.8c4.3 0 4.3-1 4.3-5.1v-15.9c0-2.8 0-5.5-4.9-5.2v-1.8l9.4-.7.8.7-.3 9.4c2-6.6 6-10 10.5-10zm23.5 31.1c-7.7 0-14.6-6-14.6-15.5s6.9-15.6 14.6-15.6c7.6 0 14.4 6 14.4 15.6 0 9.4-6.8 15.5-14.4 15.5zm0-1.9c5.7 0 8.5-5.2 8.5-13.6 0-8.4-2.8-13.7-8.5-13.7-5.9 0-8.7 5.3-8.7 13.7 0 8.4 2.8 13.6 8.7 13.6zm26-35.2c-2.4 0-3.9-1.7-3.9-3.8 0-2.2 1.5-3.8 4-3.8s3.8 1.5 3.8 3.8c0 2.1-1.3 3.8-3.9 3.8zm-7.8 50.7c-4.1 0-7.2-2.5-7.2-6.3 0-2.6 1.6-4.7 4-4.7 1.4 0 2.5 1 2.8 2.4-1.8 1.1-2.6 2.4-2.6 3.8 0 1.7 1 2.9 3.3 2.9 4 0 4.9-3.7 4.9-8.4v-26.8c0-2.8 0-5.4-5.6-5v-1.9l10.6-.7.7.7-.4 9.6v22.5c0 6.6-4 11.9-10.5 11.9zm42.3-23.6h1.8c0 4.8-3.6 10-11.9 10-8.9 0-14.6-6.2-14.6-15.5 0-9.6 6.3-15.6 13.7-15.6 8 0 12.8 5.5 12.8 14.8h-20.6v.8c0 7.8 2.5 13.4 9.8 13.4 5.9 0 8.8-3.7 9-7.9zm-11-19.2c-4.7 0-7.2 3.9-7.7 11h14.6c0-6.1-1.3-11-6.9-11zm32 29.2c-9 0-14.5-6.2-14.5-15.5 0-9.6 6.3-15.6 15-15.6 6.1 0 11.1 3.1 11.1 8.6 0 3-1.6 5.2-4.3 5.2-1.7 0-3-1.2-3.2-2.9 2-1.2 3.3-2.7 3.3-4.5 0-.7-.2-1.6-1-2.4-1.1-1.3-3-2.1-5.7-2.1-6.6 0-9.3 5-9.3 13.7 0 7.8 2.4 13.4 9.7 13.4 5.9 0 9-3.7 9-8.3h1.9c0 5.2-3.8 10.4-12 10.4zm33.3-28l-8-.3v20.4c0 1.7 0 3.1.5 4 .5.8 1.4 1.4 2.6 1.4 1.2 0 2.2-.6 2.7-1.6.4-.9.6-2.4.6-3.9V554h1.6v5.3c0 2.4-.5 4.2-1.6 5.4-1 1.2-2.6 1.8-4.8 1.8-3 0-4.8-1-5.7-2.7a9.4 9.4 0 0 1-1.2-5.2v-20.3h-4.8v-2.2h2c4.6 0 5.8-3.5 6.4-10.9h1.6v11l8-.3v2.6zm16.6 28c-6 0-8.5-2.7-9.5-2.7-.5 0-.8.4-1 2.7h-1.5l.3-12.1h1.8c.2 7.7 4.8 10.2 9.9 10.2 3.9 0 7.1-2 7.1-5.5 0-3.8-3.8-4.9-9-6.2-4.4-1.1-9.8-3-9.6-8.9a7.9 7.9 0 0 1 4-6.9c1.9-1 4.2-1.6 6.6-1.6 5.4 0 7.7 2.5 8.4 2.5.6 0 .7-.5.8-2.5h1.5l.1 10.4h-1.8c-.2-5-3.2-8.6-9-8.6-3.7 0-7 1.7-7 5s3.3 4.4 7.5 5.5c6 1.4 11.5 3 11.5 9.5 0 3.6-1.8 6-4 7.3-1.7 1-4.1 1.9-7.1 1.9zm51.7 0c-7.7 0-14.5-6-14.5-15.5s6.8-15.6 14.5-15.6c7.6 0 14.5 6 14.5 15.6 0 9.4-6.9 15.5-14.5 15.5zm0-1.9c5.8 0 8.6-5.2 8.6-13.6 0-8.4-2.8-13.7-8.6-13.7s-8.6 5.3-8.6 13.7c0 8.4 2.8 13.6 8.6 13.6zm49.8-5.6c0 4 0 5 4.3 5.1v1.8H3099v-1.8c4.3 0 4.3-1 4.3-5.1v-13.6c0-4.9-2-6.8-5.5-6.8-4.4 0-8.3 3.8-10.5 9.5V559c0 4 0 5 4.3 5.1v1.8h-14v-1.8c4.4 0 4.4-1 4.4-5.1v-15.9c0-2.8 0-5.5-4.9-5.2v-1.8l9.4-.7.7.7-.3 8.6c2.6-5.5 7.5-9.3 12.8-9.3 5.8 0 9 3.8 9 10V559zm49.2-23.6c7.4 0 12.2 6.1 12.2 14.7 0 8.7-5 16.4-14.7 16.4a12 12 0 0 1-8.4-3v9c0 4.1 0 5.1 5 5.2v1.8h-14.6v-1.8c4.3-.1 4.3-1 4.3-5.1v-29.5c0-2.8 0-5.5-4.9-5.2v-1.8l9.4-.7.8.7-.5 7.7c2.6-5.6 6.8-8.4 11.4-8.4zm-2.5 29.2c4.8 0 8.8-2.6 8.8-14.4 0-6-.9-12.4-7.3-12.4-4.1 0-7.6 3.3-10 9.4v7c0 5.9 2.8 10.4 8.5 10.4zm26.2-35.2c-2.4 0-3.9-1.7-3.9-3.8 0-2.2 1.5-3.8 4-3.8s3.9 1.5 3.9 3.8c0 2.1-1.4 3.8-4 3.8zm7 36.5h-14v-1.8c4.4 0 4.4-1 4.4-5.1v-16c0-2.8 0-5.4-4.9-5v-1.9l10-.7.6.7-.4 9.6v13.3c0 4 0 5 4.3 5.1v1.8zm16.9 0h-14v-1.8c4.4 0 4.4-1 4.4-5.1v-30.5c0-2.8 0-5.4-5-5v-1.9l10-.7.7.7-.4 9.6v27.8c0 4 0 5 4.3 5.1v1.8zm16.9 0h-14v-1.8c4.4 0 4.4-1 4.4-5.1v-30.5c0-2.8 0-5.4-5-5v-1.9l10-.7.7.7-.4 9.6v27.8c0 4 0 5 4.3 5.1v1.8zm32.9-9.3h1.6v4c0 1.8-.3 3.4-1.4 4.4a6 6 0 0 1-4.2 1.4c-1.8 0-3.4-.4-4.4-1.8-.8-1-1-2.4-1-4.5v-1.3c-1 2.3-3.7 7.7-11.4 7.7-5.2 0-8.4-3-8.4-7.6 0-3 1.4-5 3.8-6.5 3.6-2.5 8.9-3.7 15.8-4.6V545c0-6.3-3.4-7.7-6.7-7.7-3 0-4.8.8-6 2a3 3 0 0 0-1 2.2c0 1.6 1.2 2.6 3.2 3.8-.4 1.6-1.9 2.7-3.7 2.7-2.8 0-4.1-2.3-4.1-4.7 0-5 5.2-7.9 11.8-7.9 6 0 11.7 2.5 11.7 10.2v14.8c0 1.1.1 2.1.4 2.7.4.6 1 1 1.8 1s1.5-.4 1.8-1.1c.3-.6.4-1.6.4-2.6v-3.8zm-18.7 7c5.7 0 9-6 9-11.3v-2.7c-5 .6-9.1 1.7-11.7 3.9a6.2 6.2 0 0 0-2.1 5c0 3 1.8 5 4.8 5zm42-28.2c4.3 0 6.6 3 6.6 6.4 0 3.3-2.2 5.4-4.6 5.4-1.4 0-2.5-1-3-2.3 1.6-1.3 2.5-3 2.4-4.4 0-1.5-1-2.3-2.6-2.3-3.5 0-7 4.2-8.9 12.1v8.7c0 4 0 5 4.8 5.1v1.8h-14.4v-1.8c4.4 0 4.4-1 4.4-5.1v-15.9c0-2.8 0-5.5-5-5.2v-1.8l9.5-.7.7.7-.3 9.4c2-6.6 6-10 10.5-10zm21.7 31.1c-6 0-8.4-2.7-9.5-2.7-.4 0-.8.4-1 2.7h-1.4l.2-12.1h1.9c.2 7.7 4.8 10.2 9.8 10.2 4 0 7.2-2 7.2-5.5 0-3.8-3.8-4.9-9-6.2-4.4-1.1-9.9-3-9.7-8.9a7.9 7.9 0 0 1 4-6.9c2-1 4.3-1.6 6.6-1.6 5.4 0 7.8 2.5 8.5 2.5.6 0 .6-.5.7-2.5h1.5l.2 10.4h-1.9c-.2-5-3.2-8.6-9-8.6-3.7 0-6.9 1.7-6.9 5s3.3 4.4 7.5 5.5c5.9 1.4 11.4 3 11.4 9.5 0 3.6-1.8 6-4 7.3-1.6 1-4 1.9-7 1.9zm44.1-37.1c-2.4 0-3.9-1.7-3.9-3.8 0-2.2 1.5-3.8 4-3.8s3.9 1.5 3.9 3.8c0 2.1-1.4 3.8-4 3.8zm7 36.5h-14v-1.8c4.5 0 4.5-1 4.5-5.1v-16c0-2.8 0-5.4-5-5v-1.9l10-.7.7.7-.5 9.6v13.3c0 4 0 5 4.4 5.1v1.8zm34.5-6.9c0 4 0 5 4.4 5.1v1.8h-14v-1.8c4.4 0 4.4-1 4.4-5.1v-13.6c0-4.9-2-6.8-5.6-6.8-4.4 0-8.3 3.8-10.5 9.5V559c0 4 0 5 4.4 5.1v1.8h-14v-1.8c4.4 0 4.4-1 4.4-5.1v-15.9c0-2.8 0-5.5-5-5.2v-1.8l9.5-.7.7.7-.4 8.6c2.6-5.5 7.6-9.3 12.8-9.3 5.8 0 9 3.8 9 10V559zm24.8-20.6l-8-.2v20.4c0 1.7 0 3.1.6 4 .4.8 1.3 1.4 2.5 1.4s2.3-.6 2.7-1.6c.5-.9.6-2.4.6-3.9V554h1.6v5.3c0 2.4-.5 4.2-1.6 5.4-1 1.2-2.5 1.8-4.8 1.8-2.9 0-4.8-1-5.7-2.7a9.4 9.4 0 0 1-1.2-5.2v-20.3h-4.8v-2.2h2c4.6 0 5.8-3.5 6.4-10.9h1.7v11l8-.3v2.6zm18.6 28.1c-7.7 0-14.5-6-14.5-15.5s6.8-15.6 14.5-15.6c7.6 0 14.4 6 14.4 15.6 0 9.4-6.8 15.5-14.4 15.5zm0-1.9c5.7 0 8.6-5.2 8.6-13.6 0-8.4-2.9-13.7-8.6-13.7-5.8 0-8.7 5.3-8.7 13.7 0 8.4 2.9 13.6 8.7 13.6zm57.3-26.2l-8-.2v20.4c0 1.7 0 3.1.6 4 .4.8 1.3 1.4 2.5 1.4s2.3-.6 2.7-1.6c.5-.9.6-2.4.6-3.9V554h1.6v5.3c0 2.4-.5 4.2-1.6 5.4-1 1.2-2.5 1.8-4.8 1.8-2.9 0-4.8-1-5.7-2.7a9.4 9.4 0 0 1-1.2-5.2v-20.3h-4.8v-2.2h2c4.6 0 5.8-3.5 6.4-10.9h1.7v11l8-.3v2.6zm34 20.6c0 4 0 5 4.4 5.1v1.8h-13.9v-1.8c4.3 0 4.3-1 4.3-5.1v-13.6c0-4.9-2-6.8-5.5-6.8-4.4 0-8.4 3.8-10.5 9.7V559c0 4 0 5 4.3 5.1v1.8h-14v-1.8c4.4 0 4.4-1 4.4-5.1v-30.4c0-2.8 0-5.4-4.3-5.2v-1.8l9.3-.7.7.7-.4 8.2-.5 15c2.6-5.5 7.7-9.4 12.9-9.4 5.8 0 8.9 3.8 8.9 10V559zm32.6-2.5h1.9c0 4.8-3.7 10-11.9 10-9 0-14.6-6.2-14.6-15.5 0-9.6 6.3-15.6 13.7-15.6 8 0 12.7 5.5 12.7 14.8h-20.6v.8c0 7.8 2.6 13.4 9.8 13.4 6 0 9-3.7 9-7.9zm-10.9-19.2c-4.7 0-7.3 3.9-7.7 11h14.6c0-6.1-1.3-11-6.9-11zm51.4 29.2c-6 0-8.5-2.7-9.5-2.7-.5 0-.8.4-1 2.7h-1.4l.2-12.1h1.9c.1 7.7 4.8 10.2 9.8 10.2 3.9 0 7.1-2 7.1-5.5 0-3.8-3.7-4.9-9-6.2-4.3-1.1-9.8-3-9.6-8.9a7.9 7.9 0 0 1 4-6.9c2-1 4.3-1.6 6.6-1.6 5.4 0 7.7 2.5 8.5 2.5.6 0 .6-.5.7-2.5h1.5l.2 10.4h-2c0-5-3-8.6-9-8.6-3.6 0-6.8 1.7-6.8 5s3.2 4.4 7.4 5.5c6 1.4 11.5 3 11.5 9.5 0 3.6-1.8 6-4 7.3-1.6 1-4.1 1.9-7.1 1.9zm32.7-28l-8-.3v20.4c0 1.7.1 3.1.6 4 .5.8 1.3 1.4 2.6 1.4 1.2 0 2.2-.6 2.7-1.6.4-.9.6-2.4.6-3.9V554h1.5v5.3c0 2.4-.4 4.2-1.6 5.4-1 1.2-2.5 1.8-4.8 1.8-2.9 0-4.7-1-5.7-2.7a9.4 9.4 0 0 1-1.2-5.2v-20.3h-4.8v-2.2h2c4.7 0 5.9-3.5 6.5-10.9h1.6v11l8-.3v2.6zm23.7-3c4.3 0 6.5 3 6.5 6.3s-2.2 5.4-4.6 5.4c-1.4 0-2.5-1-3-2.3 1.6-1.3 2.6-3 2.4-4.4 0-1.5-1-2.3-2.6-2.3-3.5 0-7 4.2-8.8 12.1v8.7c0 4 0 5 4.8 5.1v1.8H3630v-1.8c4.4 0 4.4-1 4.4-5.1v-15.9c0-2.8 0-5.5-5-5.2v-1.8l9.5-.7.7.7-.3 9.4c2.1-6.6 6-10 10.5-10zm33.7 21h1.9c0 4.8-3.7 10-12 10-8.8 0-14.5-6.2-14.5-15.5 0-9.6 6.3-15.6 13.7-15.6 8 0 12.7 5.5 12.7 14.8h-20.6v.8c0 7.8 2.6 13.4 9.8 13.4 6 0 8.9-3.7 9-7.9zm-11-19.2c-4.6 0-7.2 3.9-7.6 11h14.6c0-6.1-1.3-11-7-11zm42.3 19.2h1.8c0 4.8-3.6 10-11.9 10-9 0-14.6-6.2-14.6-15.5 0-9.6 6.3-15.6 13.7-15.6 8 0 12.8 5.5 12.8 14.8H3696v.8c0 7.8 2.5 13.4 9.8 13.4 5.9 0 8.8-3.7 9-7.9zm-11-19.2c-4.7 0-7.2 3.9-7.7 11h14.6c0-6.1-1.3-11-6.9-11zm34.4 1.1l-8-.2v20.4c0 1.7 0 3.1.6 4 .4.8 1.3 1.4 2.5 1.4s2.3-.6 2.7-1.6c.5-.9.6-2.4.6-3.9V554h1.6v5.3c0 2.4-.5 4.2-1.6 5.4-1 1.2-2.5 1.8-4.8 1.8-3 0-4.8-1-5.7-2.7a9.4 9.4 0 0 1-1.2-5.2v-20.3h-4.8v-2.2h2c4.6 0 5.8-3.5 6.4-10.9h1.7v11l8-.3v2.6zm5.3 24c0-2 1.6-3.8 4-3.8 3.2 0 5 3 5 6.2 0 4.2-2.4 8.6-7.7 12.1l-1.1-1.3c4.7-3.3 6.5-7.7 4-8.9-1.6-.7-4.2-1.2-4.2-4.2zm65-5.8h1.6v4c0 1.8-.2 3.4-1.3 4.4a6 6 0 0 1-4.2 1.4c-1.8 0-3.4-.4-4.4-1.8-.8-1-1-2.4-1-4.5v-1.3c-1 2.3-3.7 7.7-11.4 7.7-5.2 0-8.4-3-8.4-7.6 0-3 1.4-5 3.7-6.5 3.7-2.5 9-3.7 15.9-4.6V545c0-6.3-3.4-7.7-6.7-7.7-3 0-4.8.8-6 2a3 3 0 0 0-1 2.2c0 1.6 1.2 2.6 3.2 3.8-.4 1.6-1.9 2.7-3.7 2.7-2.8 0-4.1-2.3-4.1-4.7 0-5 5.1-7.9 11.8-7.9 6 0 11.7 2.5 11.7 10.2v14.8c0 1.1.1 2.1.4 2.7.4.6 1 1 1.8 1s1.5-.4 1.8-1.1c.3-.6.4-1.6.4-2.6v-3.8zm-18.6 7c5.7 0 9-6 9-11.3v-2.7c-5 .6-9.2 1.7-11.7 3.9a6.2 6.2 0 0 0-2.1 5c0 3 1.8 5 4.8 5zm53.2-4.6c0 4 0 5 4.3 5.1v1.8h-13.9v-1.8c4.3 0 4.3-1 4.3-5.1v-13.6c0-4.9-2-6.8-5.5-6.8-4.4 0-8.3 3.8-10.5 9.5V559c0 4 0 5 4.3 5.1v1.8h-14v-1.8c4.4 0 4.4-1 4.4-5.1v-15.9c0-2.8 0-5.5-4.9-5.2v-1.8l9.4-.7.8.7-.4 8.6c2.6-5.5 7.6-9.3 12.8-9.3 5.8 0 9 3.8 9 10V559zm36.4 0c0 4 0 5 4.3 5.1v1.8h-8.2l-.8-.7v-7.7c-2.4 6-6.8 9-11.5 9-7.4 0-12.3-6.1-12.3-14.7 0-8.7 5-16.4 14.7-16.4 4 0 6.7 1.5 8.7 3.4l-.2-10.2c0-2.8 0-5.4-5-5.2v-1.8l10-.7.7.7-.4 8.2v29.2zm-15.2 5.1c4 0 7.6-3.3 9.9-9.4v-7c0-5.9-2.7-10.4-8.4-10.4-4.8 0-8.9 2.6-8.9 14.4 0 6.1.9 12.4 7.4 12.4zm-1810 45.3c-2.4 0-3.9-1.7-3.9-3.8 0-2.2 1.5-3.8 4-3.8s3.9 1.5 3.9 3.8c0 2.1-1.4 3.8-4 3.8zm7 36.5h-14v-1.8c4.4 0 4.4-1 4.4-5.1v-16c0-2.8 0-5.4-4.9-5v-1.9l10-.7.6.7-.4 9.6v13.3c0 4 0 5 4.3 5.1v1.8zm16.3.6c-6 0-8.5-2.7-9.5-2.7-.5 0-.8.4-1 2.7h-1.5l.3-12.1h1.8c.2 7.7 4.8 10.2 9.9 10.2 3.9 0 7.1-2 7.1-5.5 0-3.8-3.8-4.9-9-6.2-4.4-1.1-9.8-3-9.6-8.9a7.9 7.9 0 0 1 4-6.9c1.9-1 4.2-1.6 6.6-1.6 5.4 0 7.7 2.5 8.4 2.5.6 0 .7-.5.8-2.5h1.5l.1 10.4h-1.8c-.2-5-3.2-8.6-9-8.6-3.7 0-7 1.7-7 5s3.3 4.4 7.5 5.5c6 1.4 11.5 3 11.5 9.5 0 3.6-1.8 6-4 7.3-1.7 1-4.1 1.9-7.1 1.9zm43 0c-6 0-8.4-2.7-9.4-2.7-.5 0-.8.4-1 2.7h-1.5l.3-12.1h1.8c.2 7.7 4.8 10.2 9.9 10.2 3.9 0 7.1-2 7.1-5.5 0-3.8-3.8-4.9-9-6.2-4.4-1.1-9.8-3-9.6-8.9a7.9 7.9 0 0 1 4-6.9c1.9-1 4.2-1.6 6.6-1.6 5.4 0 7.7 2.5 8.4 2.5.6 0 .7-.5.8-2.5h1.5l.1 10.4h-1.8c-.2-5-3.2-8.6-9-8.6-3.7 0-7 1.7-7 5s3.3 4.4 7.5 5.5c6 1.4 11.5 3 11.5 9.5 0 3.6-1.8 6-4 7.3-1.7 1-4.1 1.9-7.1 1.9zm45.1-7.7c0 2.8 0 5.2 4.8 5.3v1.8h-8.7l-.8-.7V637c-2.5 5.5-6.9 9.5-12.4 9.5-5.6 0-8.7-3.8-8.7-10.3V623c0-4 0-5-4.7-5V616h10.2l-.3 8.1v12c0 5.2 2 7.2 5.4 7.2 4.4 0 7.9-3.8 10-9.5V623c0-4 0-5-4.3-5V616h9.8l-.3 8.1V639zm28-23.4c4.2 0 6.4 3 6.4 6.4 0 3.3-2.1 5.4-4.5 5.4-1.5 0-2.5-1-3-2.3 1.5-1.3 2.5-3 2.4-4.4 0-1.5-1-2.3-2.7-2.3-3.4 0-7 4.2-8.8 12.1v8.7c0 4 0 5 4.8 5.1v1.8H2174v-1.8c4.3 0 4.3-1 4.3-5.1v-15.9c0-2.8 0-5.5-4.9-5.2v-1.8l9.4-.7.8.7-.3 9.4c2-6.6 6-10 10.5-10zm60.1 23.6c0 4 0 5 4.3 5.1v1.8h-13.8v-1.8c4.2 0 4.2-1 4.2-5.1v-13.6c0-4.9-2-6.8-5.3-6.8-4.1 0-7.9 3.8-10 9.5V639c0 4 0 5 4.3 5.1v1.8h-13.8v-1.8c4.3 0 4.3-1 4.3-5.1v-13.6c0-4.9-2-6.8-5.4-6.8-4.1 0-7.8 3.8-10 9.5V639c0 4 0 5 4.3 5.1v1.8h-13.9v-1.8c4.4 0 4.4-1 4.4-5.1v-15.9c0-2.8 0-5.5-5-5.2v-1.8l9.5-.7.7.7-.4 8.6c2.6-5.5 7.3-9.3 12.3-9.3 5.2 0 8.3 3.3 8.7 8.6 2.6-5.1 7-8.6 11.9-8.6 5.6 0 8.7 3.8 8.7 10V639zm22.4 7.5c-7.7 0-14.5-6-14.5-15.5s6.8-15.6 14.5-15.6c7.6 0 14.4 6 14.4 15.6 0 9.4-6.8 15.5-14.4 15.5zm0-1.9c5.7 0 8.6-5.2 8.6-13.6 0-8.4-2.9-13.7-8.6-13.7-5.8 0-8.7 5.3-8.7 13.7 0 8.4 2.9 13.6 8.7 13.6zm48.2-5.8c0 2.8 0 5.2 4.8 5.3v1.8h-8.8l-.7-.7V637c-2.5 5.5-6.9 9.5-12.5 9.5-5.5 0-8.7-3.8-8.7-10.3V623c0-4 0-5-4.6-5V616h10.2l-.3 8.1v12c0 5.2 2 7.2 5.4 7.2 4.3 0 7.9-3.8 10-9.5V623c0-4 0-5-4.3-5V616h9.7l-.2 8.1V639zm39.1.2c0 4 0 5 4.3 5.1v1.8H2354v-1.8c4.3 0 4.3-1 4.3-5.1v-13.6c0-4.9-2-6.8-5.5-6.8-4.4 0-8.3 3.8-10.5 9.5V639c0 4 0 5 4.3 5.1v1.8h-14v-1.8c4.4 0 4.4-1 4.4-5.1v-15.9c0-2.8 0-5.5-4.9-5.2v-1.8l9.4-.7.7.7-.3 8.6c2.6-5.5 7.5-9.3 12.8-9.3 5.8 0 8.9 3.8 8.9 10V639zm24.8-20.6l-8-.2v20.4c0 1.7 0 3.1.5 4 .5.8 1.3 1.4 2.6 1.4 1.2 0 2.2-.6 2.7-1.6.4-.9.6-2.4.6-3.9V634h1.6v5.3c0 2.4-.5 4.2-1.7 5.4-1 1.2-2.5 1.8-4.8 1.8-2.8 0-4.7-1-5.7-2.7a9.4 9.4 0 0 1-1.2-5.2v-20.3h-4.8v-2.2h2c4.7 0 5.9-3.5 6.5-10.9h1.6v11l8-.3v2.6zm28.7 18.1h1.9c0 4.8-3.7 10-11.9 10-9 0-14.6-6.2-14.6-15.5 0-9.6 6.3-15.6 13.7-15.6 8 0 12.7 5.5 12.7 14.8h-20.5v.8c0 7.8 2.5 13.4 9.7 13.4 6 0 9-3.7 9-7.9zm-10.9-19.2c-4.7 0-7.2 3.9-7.7 11h14.6c0-6.1-1.3-11-6.9-11zm46 21.7c0 4 0 5 4.3 5.1v1.8h-8.2l-.8-.7v-7.7c-2.4 6-6.8 9-11.5 9-7.4 0-12.3-6.1-12.3-14.7 0-8.7 5-16.4 14.7-16.4 4 0 6.7 1.5 8.7 3.4l-.2-10.2c0-2.8 0-5.4-5-5.2v-1.8l10-.7.7.7-.4 8.2v29.2zm-15.2 5.1c4 0 7.6-3.3 9.9-9.4v-7c0-5.9-2.7-10.4-8.4-10.4-4.8 0-8.9 2.6-8.9 14.4 0 6.1.9 12.4 7.4 12.4zm56.6-28.7c7.4 0 12.2 6.1 12.2 14.7 0 8.7-5 16.4-14.7 16.4-5.7 0-9.1-2.9-10.7-5.8l-1.5 5.7h-1.8l.2-9.5v-28.3c0-2.8 0-5.4-4.3-5.2v-1.8l9.4-.7.7.7-.5 8.2-.4 14c2.4-5.6 6.8-8.4 11.4-8.4zm-2.5 29.2c4.7 0 8.8-2.6 8.8-14.4 0-6-1-12.4-7.4-12.4-4 0-7.6 3.3-9.9 9.4v7c0 5.9 2.7 10.4 8.5 10.4zm36.8-28.6h12.2v1.8c-4.5 0-5.2 1.8-7.2 6.7l-11.6 28.7c-1.9 4.8-4.6 6.9-8 6.9-3.4 0-6-2.4-6-5.8 0-2.9 1.7-5.1 4.3-5.1 1.8 0 2.8 1.3 3 2.8-2.4 1.2-3.6 2.3-3.5 4 0 1.4 1.2 2.2 2.6 2.2 1.9 0 4-1.1 5.5-5.2l3.2-7.6-8.6-20.8c-2.2-5.5-2.7-6.7-7.5-6.8v-1.8h15.8v1.8c-5.4 0-4.8 1.5-2.7 6.9l3.3 8.3 2.2 6h.2l5.7-14.5c2-5 2.6-6.6-2.9-6.7v-1.8zm56 20.6h1.6v4c0 1.8-.2 3.4-1.3 4.4a6 6 0 0 1-4.3 1.4c-1.7 0-3.3-.4-4.4-1.8-.7-1-1-2.4-1-4.5v-1.3c-1 2.3-3.6 7.7-11.4 7.7-5.1 0-8.3-3-8.3-7.6 0-3 1.4-5 3.7-6.5 3.7-2.5 9-3.7 15.8-4.6V625c0-6.3-3.4-7.7-6.6-7.7-3 0-4.8.8-6 2a3 3 0 0 0-1 2.2c0 1.6 1.2 2.6 3.1 3.8-.3 1.6-1.8 2.7-3.7 2.7-2.7 0-4-2.3-4-4.7 0-5 5.1-7.9 11.8-7.9 6 0 11.7 2.5 11.7 10.2v14.8c0 1.1 0 2.1.4 2.7.3.6.9 1 1.7 1 .9 0 1.5-.4 1.8-1.1.3-.6.4-1.6.4-2.6v-3.8zm-18.6 7c5.7 0 9-6 9-11.3v-2.7c-5.1.6-9.2 1.7-11.7 3.9a6.2 6.2 0 0 0-2.2 5c0 3 1.9 5 4.9 5zm53.2-4.6c0 4 0 5 4.3 5.1v1.8h-14v-1.8c4.4 0 4.4-1 4.4-5.1v-13.6c0-4.9-2-6.8-5.5-6.8-4.5 0-8.4 3.8-10.5 9.5V639c0 4 0 5 4.3 5.1v1.8h-14v-1.8c4.4 0 4.4-1 4.4-5.1v-15.9c0-2.8 0-5.5-5-5.2v-1.8l9.5-.7.7.7-.3 8.6c2.5-5.5 7.5-9.3 12.7-9.3 5.9 0 9 3.8 9 10V639zm29.5-29.6c-2.5 0-4-1.7-4-3.8 0-2.2 1.5-3.8 4-3.8s4 1.5 4 3.8c0 2.1-1.5 3.8-4 3.8zm7 36.5h-14v-1.8c4.4 0 4.4-1 4.4-5.1v-16c0-2.8 0-5.4-5-5v-1.9l10-.7.7.7-.5 9.6v13.3c0 4 0 5 4.4 5.1v1.8zm16.8 0h-14v-1.8c4.4 0 4.4-1 4.4-5.1v-30.5c0-2.8 0-5.4-4.9-5v-1.9l10-.7.7.7-.5 9.6v27.8c0 4 0 5 4.3 5.1v1.8zm17 0h-14v-1.8c4.3 0 4.3-1 4.3-5.1v-30.5c0-2.8 0-5.4-4.9-5v-1.9l10-.7.7.7-.5 9.6v27.8c0 4 0 5 4.3 5.1v1.8zm32.9-7c0 2.7 0 5.1 4.8 5.2v1.8h-8.8l-.7-.7V637c-2.5 5.5-6.9 9.5-12.5 9.5-5.5 0-8.7-3.8-8.7-10.3V623c0-4 0-5-4.6-5V616h10.2l-.3 8.1v12c0 5.2 2 7.2 5.4 7.2 4.3 0 7.9-3.8 10-9.5V623c0-4 0-5-4.3-5V616h9.7l-.2 8.1V639zm59 .1c0 4 0 5 4.3 5.1v1.8H2771v-1.8c4.3 0 4.3-1 4.3-5.1v-13.6c0-4.9-2-6.8-5.4-6.8-4.1 0-7.8 3.8-10 9.5V639c0 4 0 5 4.3 5.1v1.8h-13.8v-1.8c4.3 0 4.3-1 4.3-5.1v-13.6c0-4.9-2-6.8-5.3-6.8-4.2 0-7.9 3.8-10 9.5V639c0 4 0 5 4.3 5.1v1.8h-14v-1.8c4.4 0 4.4-1 4.4-5.1v-15.9c0-2.8 0-5.5-4.9-5.2v-1.8l9.4-.7.7.7-.3 8.6c2.6-5.5 7.2-9.3 12.2-9.3 5.2 0 8.3 3.3 8.7 8.6 2.7-5.1 7.1-8.6 11.9-8.6 5.6 0 8.8 3.8 8.8 10V639zm14.7-29.6c-2.5 0-3.9-1.7-3.9-3.8 0-2.2 1.4-3.8 3.9-3.8 2.6 0 4 1.5 4 3.8 0 2.1-1.4 3.8-4 3.8zm7 36.5h-14v-1.8c4.4 0 4.4-1 4.4-5.1v-16c0-2.8 0-5.4-4.9-5v-1.9l9.9-.7.7.7-.5 9.6v13.3c0 4 0 5 4.4 5.1v1.8zm34.5-6.9c0 4 0 5 4.3 5.1v1.8h-13.9v-1.8c4.3 0 4.3-1 4.3-5.1v-13.6c0-4.9-2-6.8-5.5-6.8-4.4 0-8.3 3.8-10.5 9.5V639c0 4 0 5 4.3 5.1v1.8h-14v-1.8c4.4 0 4.4-1 4.4-5.1v-15.9c0-2.8 0-5.5-4.9-5.2v-1.8l9.4-.7.7.7-.3 8.6c2.6-5.5 7.5-9.3 12.8-9.3 5.8 0 8.9 3.8 8.9 10V639zm37-2.4h1.6v4c0 1.8-.3 3.4-1.4 4.4a6 6 0 0 1-4.2 1.4c-1.8 0-3.4-.4-4.4-1.8-.8-1-1-2.4-1-4.5v-1.3c-1 2.3-3.7 7.7-11.4 7.7-5.2 0-8.4-3-8.4-7.6 0-3 1.4-5 3.8-6.5 3.6-2.5 8.9-3.7 15.8-4.6V625c0-6.3-3.4-7.7-6.7-7.7-3 0-4.8.8-6 2a3 3 0 0 0-1 2.2c0 1.6 1.2 2.6 3.2 3.8-.4 1.6-1.9 2.7-3.7 2.7-2.8 0-4.1-2.3-4.1-4.7 0-5 5.2-7.9 11.8-7.9 6 0 11.7 2.5 11.7 10.2v14.8c0 1.1.1 2.1.4 2.7.4.6 1 1 1.8 1s1.5-.4 1.8-1.1c.3-.6.4-1.6.4-2.6v-3.8zm-18.7 7c5.7 0 9.1-6 9.1-11.3v-2.7c-5.2.6-9.2 1.7-11.8 3.9a6.2 6.2 0 0 0-2.1 5c0 3 1.8 5 4.8 5zm39.4-25.2l-8-.2v20.4c0 1.7 0 3.1.5 4 .5.8 1.4 1.4 2.6 1.4 1.2 0 2.2-.6 2.7-1.6.4-.9.6-2.4.6-3.9V634h1.6v5.3c0 2.4-.5 4.2-1.6 5.4-1 1.2-2.6 1.8-4.8 1.8-3 0-4.8-1-5.7-2.7a9.4 9.4 0 0 1-1.2-5.2v-20.3h-4.8v-2.2h2c4.6 0 5.8-3.5 6.4-10.9h1.6v11l8-.3v2.6zm28.8 18.1h1.8c0 4.8-3.6 10-11.9 10-8.9 0-14.6-6.2-14.6-15.5 0-9.6 6.3-15.6 13.7-15.6 8 0 12.8 5.5 12.8 14.8h-20.6v.8c0 7.8 2.5 13.4 9.8 13.4 5.9 0 8.8-3.7 9-7.9zm-11-19.2c-4.7 0-7.2 3.9-7.7 11h14.6c0-6.1-1.3-11-6.9-11zm46 21.7c0 4 0 5 4.4 5.1v1.8h-8.3l-.7-.7v-7.7c-2.5 6-6.9 9-11.6 9-7.4 0-12.3-6.1-12.3-14.7 0-8.7 5-16.4 14.7-16.4 4 0 6.7 1.5 8.7 3.4l-.2-10.2c0-2.8 0-5.4-5-5.2v-1.8l10-.7.8.7-.5 8.2v29.2zm-15.2 5.1c4 0 7.6-3.3 9.9-9.4v-7c0-5.9-2.7-10.4-8.4-10.4-4.7 0-8.9 2.6-8.9 14.4 0 6.1 1 12.4 7.4 12.4zm52.5 2.4c-9 0-14.6-6.2-14.6-15.5 0-9.6 6.3-15.6 15-15.6 6.1 0 11.1 3.1 11.1 8.6 0 3-1.6 5.2-4.3 5.2-1.7 0-3-1.2-3.2-2.9 2-1.2 3.3-2.7 3.3-4.5 0-.7-.2-1.6-1-2.4-1.1-1.3-3-2.1-5.7-2.1-6.6 0-9.3 5-9.3 13.7 0 7.8 2.4 13.4 9.7 13.4 5.9 0 9-3.7 9-8.3h1.9c0 5.2-3.8 10.4-12 10.4zm29.4-.6h-14v-1.8c4.4 0 4.4-1 4.4-5.1v-30.5c0-2.8 0-5.4-5-5v-1.9l10-.7.8.7-.5 9.6v27.8c0 4 0 5 4.3 5.1v1.8zm18.3.6c-7.7 0-14.5-6-14.5-15.5s6.8-15.6 14.5-15.6c7.6 0 14.4 6 14.4 15.6 0 9.4-6.8 15.5-14.4 15.5zm0-1.9c5.7 0 8.6-5.2 8.6-13.6 0-8.4-2.9-13.7-8.6-13.7-5.8 0-8.7 5.3-8.7 13.7 0 8.4 2.9 13.6 8.7 13.6zm33.6 1.9c-9 0-14.6-6.2-14.6-15.5 0-9.6 6.3-15.6 15-15.6 6.1 0 11.1 3.1 11.1 8.6 0 3-1.6 5.2-4.3 5.2-1.7 0-3-1.2-3.2-2.9 2-1.2 3.3-2.7 3.3-4.5 0-.7-.2-1.6-1-2.4-1.1-1.3-3-2.1-5.7-2.1-6.6 0-9.3 5-9.3 13.7 0 7.8 2.4 13.4 9.7 13.4 5.9 0 9-3.7 9-8.3h1.9c0 5.2-3.8 10.4-12 10.4zm42.9-7.3c2 3.2 3.2 4.8 7.1 4.9v1.8h-15v-1.8c5 0 4-1.4 2-5l-6-9.6a46 46 0 0 1-6 4.1v5.4c0 4 0 5 4.2 5.1v1.8h-13.8v-1.8c4.3 0 4.3-1 4.3-5.1v-30.4c0-2.8 0-5.4-4.3-5.2v-1.8l9.3-.7.7.7-.4 8.2-.5 21.7c5.9-3 13.6-10.1 13.6-12.2 0-1.4-2.1-1.4-4.7-1.5v-1.8h14.3v1.8c-1.5 0-3.2.3-4.4 1-1.7.8-3.1 2.3-5.3 4.5l-3 3 7.9 12.9zm14.3 7.4c-2.6 0-4.1-1.7-4.1-4s1.5-3.9 4.1-3.9c2.7 0 4.2 1.6 4.2 4 0 2.2-1.5 4-4.2 4zM2052.7 61.4h10v58.4h13v9.2h-23V61.4zM2105 115c-.1 2.8-.7 5.3-1.7 7.4-.8 1.8-2.1 3.6-4 5a11.8 11.8 0 0 1-7.6 2.2 12 12 0 0 1-7.7-2.3c-1.8-1.3-3-3-3.9-5-1-2-1.5-4.5-1.6-7.3V75.3c0-2.7.6-5.2 1.6-7.3.9-1.8 2-3.7 3.9-5 1.8-1.4 4.4-2.4 7.7-2.4s5.8 1 7.7 2.3a13 13 0 0 1 4 5.1c1 2.1 1.5 4.6 1.6 7.3V115zm-10-39.8c0-1.9-.3-3.2-1.3-4.3-.4-.4-1.1-.7-2-.7-1.7 0-2.6 1.3-3 2.5a7 7 0 0 0-.3 2.5V115c0 2 .5 3.2 1.4 4.2.5.5 1.1.8 2 .8 1.7 0 2.5-1.1 2.9-2.5.2-.7.3-1.5.3-2.5V75.3zm26.6 18.5l-.9-3.2h-.5V129h-9.1V61.4h8.8l9.7 35.2.8 3.1h.6V61.4h9V129h-8.8l-9.6-35.2zm25.2 35.2V61.4h7.8c9.2 0 14.2 1.8 16.9 7 2.6 5.1 3 13.6 3 26.8 0 13.3-.4 21.7-3 26.8-2.7 5.2-7.7 7-16.9 7h-7.8zm10-10c3.4 0 5.3-.3 6.3-3.6.5-1.6.8-4 1-7.2v-13V82a31 31 0 0 0-1-7.2c-1-3.2-3-3.6-6.3-3.6v47.8zm49.5-3.9c0 2.8-.6 5.3-1.7 7.4-.8 1.8-2 3.6-4 5a11.8 11.8 0 0 1-7.5 2.2 12 12 0 0 1-7.8-2.3c-1.8-1.3-3-3-3.8-5-1-2-1.6-4.5-1.7-7.3V75.3c.1-2.7.7-5.2 1.7-7.3.8-1.8 2-3.7 3.8-5 1.9-1.4 4.4-2.4 7.8-2.4 3.3 0 5.8 1 7.6 2.3a13 13 0 0 1 4 5.1c1 2.1 1.5 4.6 1.6 7.3V115zm-10-39.8c0-1.9-.3-3.2-1.2-4.3-.5-.4-1.2-.7-2-.7-1.8 0-2.6 1.3-3 2.5a7 7 0 0 0-.4 2.5V115c0 2 .5 3.2 1.4 4.2.5.5 1.1.8 2 .8 1.7 0 2.5-1.1 2.9-2.5.3-.7.4-1.5.4-2.5V75.3zm26.6 18.5l-.8-3.2h-.6V129h-9V61.4h8.8l9.6 35.2.8 3.1h.6V61.4h9.1V129h-8.8l-9.7-35.2zm33.3 35.2l-5.1 12h-4.6l3.2-12h-3.2v-10.2h9.7V129zm44.7-23.2v9.3c-.1 2.8-.7 5.3-1.7 7.4-.8 1.8-2.1 3.6-4 5a11.8 11.8 0 0 1-7.6 2.2 12 12 0 0 1-7.7-2.3c-1.8-1.3-3-3-3.9-5-1-2-1.5-4.5-1.6-7.3V75.3c0-2.7.6-5.2 1.6-7.3.9-1.8 2-3.7 3.9-5 1.8-1.4 4.4-2.4 7.7-2.4s5.8 1 7.7 2.3a13 13 0 0 1 4 5.1c1 2.1 1.5 4.6 1.6 7.3v9.3h-9.3v-9.3c0-1.9-.5-3.2-1.5-4.3-.5-.4-1.3-.7-2.3-.7-1.7 0-2.6 1.3-3 2.5a10 10 0 0 0-.5 2.5V115c.1 2 .7 3.2 1.6 4.2.4.5 1 .8 2 .8 2 0 2.9-1.1 3.3-2.5.3-.7.4-1.5.4-2.5v-9.3h9.3zm23-6.2h-7.7V129h-10V61.4h10v28h7.7v-28h10V129h-10V99.6zm14 29.4l10.2-67.6h12.1l10.2 67.6h-9.6l-1.9-13.8h-9.5l-1.9 13.8h-9.6zm16.8-45.6l-.3-1.8h-.5l-.3 1.8-2.9 21.3h6.8l-2.8-21.3zm14.2-11.8V61.4h28.7v10.2h-9.4V129h-10V71.6h-9.3zm49.6 28h-7.7V129h-10V61.4h10v28h7.7v-28h10V129h-10V99.6zm14 29.4l10.2-67.6h12.1l10.2 67.6h-9.6l-1.9-13.8h-9.5l-1.9 13.8h-9.6zm16.8-45.6l-.3-1.8h-.5l-.3 1.8-2.9 21.3h6.9l-2.9-21.3zm36.2 45.6l-6.3-42.5-.4-2.9h-.6V129h-9.2V61.4h12.2l5.9 30.9.4 3.6h.2l.5-3.6 5.9-31h12.1V129h-9.2V83.6h-.5l-.4 2.9-6.4 42.5h-4.2zm35.5 0l-5 12h-4.7l3.2-12h-3.2v-10.2h9.7V129zm16 0l10.3-67.6h12.1l10.2 67.6h-9.6l-1.9-13.8h-9.5l-1.9 13.8h-9.6zm16.9-45.6l-.3-1.8h-.5l-.3 1.8-2.9 21.3h6.9l-2.9-21.3zm30.2 10.4l-.8-3.2h-.6V129h-9V61.4h8.8l9.6 35.2.9 3.1h.5V61.4h9.1V129h-8.8l-9.7-35.2zm25.3 35.2V61.4h7.8c9.2 0 14.2 1.8 16.8 7 2.6 5.1 3 13.6 3 26.8 0 13.3-.4 21.7-3 26.8-2.6 5.2-7.6 7-16.8 7h-7.8zm10-10c3.3 0 5.2-.3 6.3-3.6.4-1.6.8-4 .9-7.2v-13V82a31 31 0 0 0-1-7.2c-1-3.2-2.9-3.6-6.3-3.6v47.8zm37.2 10V61.4h7.8c9.2 0 14.2 1.8 16.8 7 2.6 5.1 3 13.6 3 26.8 0 13.3-.4 21.7-3 26.8-2.6 5.2-7.6 7-16.8 7h-7.8zm9.9-10c3.4 0 5.3-.3 6.3-3.6.5-1.6.9-4 1-7.2v-13V82a31 31 0 0 0-1-7.2c-1-3.2-2.9-3.6-6.3-3.6v47.8zm49.5-3.9c0 2.8-.6 5.3-1.6 7.4-.8 1.8-2.1 3.6-4 5a11.8 11.8 0 0 1-7.6 2.2 12 12 0 0 1-7.7-2.3c-1.9-1.3-3-3-3.9-5-1-2-1.6-4.5-1.7-7.3V75.3c.1-2.7.7-5.2 1.7-7.3.8-1.8 2-3.7 3.9-5 1.8-1.4 4.4-2.4 7.7-2.4s5.8 1 7.6 2.3a13 13 0 0 1 4 5.1c1 2.1 1.5 4.6 1.6 7.3V115zm-9.9-39.8c0-1.9-.4-3.2-1.3-4.3-.4-.4-1.2-.7-2-.7-1.8 0-2.6 1.3-3 2.5a7 7 0 0 0-.3 2.5V115c0 2 .4 3.2 1.4 4.2.4.5 1 .8 1.9.8 1.7 0 2.6-1.1 3-2.5.2-.7.3-1.5.3-2.5V75.3zm34-14h9.7l-10.3 67.7h-9.9l-10.3-67.6h9.7l5 37.1.3 2.9h.6l.3-2.9 5-37.1zm13.7 0h22.7v10.3h-12.8v17.7h9.2v10.9h-9.2v18.6h12.8V129h-22.7V61.4zm45.4 67.7l-5.2-28.5h-2.7V129h-9.9V61.4h10c11.8 0 16.9 6.7 16.9 19.5 0 6.7-1.8 12.8-5.6 15.3l6.4 32.8h-10zm-7.9-37.7c1.4 0 3.3-.2 4.7-1.5 1.5-1.3 2.7-3.8 2.7-8.5 0-4.8-1.2-7.4-2.7-8.7-1.4-1.3-3.3-1.4-4.7-1.4v20zm54 37.7l-5.1-28.5h-2.7V129h-10V61.4h10c11.9 0 17 6.7 17 19.5 0 6.7-1.8 12.8-5.6 15.3l6.4 32.8h-10zm-7.8-37.7c1.4 0 3.2-.2 4.7-1.5s2.7-3.8 2.7-8.5c0-4.8-1.2-7.4-2.7-8.7-1.5-1.3-3.3-1.4-4.7-1.4v20zm20 37.7l10.1-67.6h12.2L2890 129h-9.7l-1.8-13.8h-9.6l-1.8 13.8h-9.7zm16.8-45.6l-.3-1.8h-.6l-.2 1.8-2.9 21.3h6.8l-2.8-21.3zm19.7-22h10V129h-10V61.4zm16.7 0h10v58.4h13v9.2h-23V61.4zm40.8 67.6h-7.7l-9.1-67.6h9.2l4 35.1.1 2.2h.7l.3-2.2 4.2-35.1h7.2l4.3 35.1.2 2.2h.8l.1-2.2 4-35.1h9.2L2970 129h-7.7l-4.6-32-.6-4h-.4l-.5 4-4.6 32zm29 0l10.1-67.6h12.2L3013 129h-9.7l-1.8-13.8h-9.6l-1.8 13.8h-9.7zm16.8-45.6l-.3-1.8h-.6l-.2 1.8-2.9 21.3h6.8l-2.8-21.3zm29-.4l.4.6h.1l.3-.6 5-21.6h9.7l-10 38.8V129h-10v-28.8l-10.1-38.8h9.7l5 21.6z"/>
  <g transform="translate(40 40)">
    <circle cx="1760" cy="560" r="160" fill="#861c1c"/>
    <circle cx="1760" cy="160" r="160" fill="#ff8633"/>
    <circle cx="360" cy="360" r="360" fill="#e8e5e3"/>
    <circle cx="1160" cy="360" r="360" fill="#30241d"/>
    <circle cx="1160" cy="360.4" r="231.4" fill="#604939"/>
    <circle cx="360.4" cy="360.4" r="231.4" fill="#f9f7f5"/>
  </g>
</svg>
