<svg width="200" height="216" viewBox="0 0 200 216" xmlns="http://www.w3.org/2000/svg"><path d="M17.195 128.883l-6.283.823-.068-.778c1.636-.325 3.644-1.178 4.354-2.024.605-.71.925-1.447.839-2.512-.049-.725-.361-1.065-1.09-.993l-13.258 1.039c-.632.042-.763.502-.714 1.065l.128 1.692-.842.076-.609-7.803.846-.076.147 1.911c.041.457.395.786.771.755l13.472-1.058c1.41-.11.748-2.47-.267-3.35-1.263-1.054-3.068-1.341-4.757-1.424l-.075-.854 6.347-.121 1.06 13.631zm1.805 7.429l-.82.23-.38-1.401c-.165-.612-.493-.891-1.03-.744l-5.588 1.545 2.034 7.429 5.629-1.549c.504-.136.62-.612.485-1.069l-.387-1.416.823-.223 1.891 6.908-.82.227-.399-1.458c-.094-.366-.41-.823-1.072-.635l-12.991 3.58c-.56.162-.511.899-.361 1.424l.293 1.065-.823.234-1.888-6.9.82-.23.293 1.065c.222.85.56 1.178 1.151 1.008l6.294-1.737-2.034-7.433-6.362 1.756c-.564.162-.602.729-.459 1.254l.35 1.299-.808.223-1.895-6.923.808-.223.368 1.314c.143.529.53.861 1.072.721l13.036-3.603c.515-.147.545-.672.421-1.129l-.353-1.311.805-.23 1.895 6.93zm9.092 22.393l-5.042 2.938-.342-.676c3.158-2.107 3.418-4.287 2.621-5.873l-1.485-2.976c-.158-.321-.677-.506-1.098-.295l-5.366 2.704.666 1.299c1.263 2.281 3.685 1.133 4.196.876l.342.71-6.945 3.49-.342-.695c.748-.336 1.748-1.148 2.109-1.96.32-.721.105-1.567-.147-2.175l-.59-1.178-5.96 2.999c-.244.117-.587.502-.199 1.284l1.218 2.421c.846 1.484 1.775 2.395 3.692 2.512 1.26.083 2.414-.234 3.474-.604l.361.718-5.87 2.606-6.242-12.494.763-.374.515 1.031c.519.982 1.015.876 1.365.691l11.871-5.983c.545-.276.598-.755.331-1.288l-.613-1.239.752-.381 5.964 11.912zm13.691 17.317l-4.226 4.026-.515-.601c.741-.937 1.861-2.293 1.959-3.769.075-1.137-.447-2.058-1.222-2.942l-1.812-2.085c-.316-.351-.839-.272-1.064-.076l-4.55 4.019.929 1.054c.647.672 1.241 1.024 2.279.895.493-.057 1.38-.472 1.982-1.027l.545.619-5.783 5.103-.549-.635c.959-.835 1.448-1.635 1.575-2.379.094-.589-.102-1.39-.587-1.938l-1.011-1.152-4.813 4.249c-.62.533-.478 1.008.015 1.586l1.169 1.333-.643.563-5.306-6.077.647-.563 1.034 1.19c.32.374.846.684 1.226.363l10.171-8.97c.47-.415.402-.831-.12-1.424l-1.019-1.156.643-.567 9.047 10.36zm1.673 4.453c-1.677.525-3.034 1.65-4.779 3.852-2.053 2.576-2.688 4.136-2.749 5.843-.056 1.435.617 2.636 1.587 3.407 1.662 1.341 3.606 1.424 5.757-.034 1.339-.918 2.218-1.938 3.11-3.059 1.602-2.021 2.47-3.72 2.651-5.378.169-1.424-.384-2.863-1.677-3.894-1.121-.899-2.508-1.159-3.899-.736zm7.182 4.982c.188 1.503.049 4.185-2.057 6.813-2.23 2.814-4.929 3.46-6.054 3.58-1.895.212-4.065-.355-5.584-1.575-.854-.68-1.899-1.968-2.346-3.607-.553-1.994-.331-3.112-.124-4.238.196-1.125 1.015-2.678 2.038-3.962.951-1.201 2.346-2.274 3.369-2.723 1.707-.744 2.764-.854 4.456-.718 1.105.117 2.493.631 3.591 1.522 1.218.974 2.478 2.78 2.711 4.906zm6.08 4.532c-1.545.835-2.662 2.194-3.956 4.691-1.538 2.927-1.876 4.566-1.613 6.254.214 1.428 1.098 2.478 2.207 3.067 1.88.99 3.809.706 5.651-1.137 1.136-1.156 1.801-2.334 2.463-3.618 1.196-2.274 1.73-4.094 1.594-5.786-.109-1.416-.914-2.708-2.384-3.482-1.263-.672-2.662-.672-3.963.011zm7.99 3.524c.474 1.447.846 4.105-.722 7.093-1.658 3.18-4.208 4.328-5.275 4.664-1.82.563-4.065.423-5.794-.487-.955-.51-2.23-1.586-2.974-3.093-.917-1.847-.91-2.991-.917-4.136-.023-1.148.489-2.825 1.256-4.287.707-1.36 1.876-2.674 2.798-3.312 1.53-1.058 2.546-1.375 4.23-1.552 1.117-.087 2.561.151 3.813.816 1.384.729 2.97 2.247 3.587 4.294zm16.684 3.845l-1.564 6.164-.733-.23c.312-1.632.252-3.833-.267-4.808-.429-.831-.993-1.405-2.012-1.726-.688-.215-1.109-.038-1.327.661l-3.952 12.751c-.18.612.196.903.737 1.073l1.621.517-.252.801-7.437-2.311.241-.816 1.816.567c.432.128.869-.076.981-.442l4.008-12.97c.41-1.348-2.019-1.605-3.196-.986-1.451.782-2.388 2.379-3.087 3.909l-.808-.249 2.245-5.956 12.987 4.053m4.971 9.37l-.763 6.432c-.079.642.282.956 1.105 1.061h.026l2.102.257c2.846.34 4.08-.82 4.365-3.214.274-2.274-.996-3.837-3.275-4.105l-3.561-.431zm1.827-7.569c-.579-.064-.959.31-1.019.763l-.714 5.964 3.279.393c1.008.121 2.042-.234 2.463-.619.613-.544 1.011-1.481 1.162-2.685.301-2.542-1.102-3.278-2.888-3.543l-2.282-.272zm3.001-.495c.801.098 2.087.419 2.948.956 1.151.706 2.042 1.979 1.839 3.694-.237 1.93-1.812 3.074-4.264 3.463l-.008.042c1.09.374 2.139.793 2.967 1.586.895.838 1.38 1.949 1.226 3.282-.173 1.409-1.177 2.5-2.267 3.037-1.256.635-2.895.846-4.689.627l-8.558-1.027.098-.842 1.433.159c.872.144 1.237-.317 1.267-.506l1.602-13.438c.079-.653-.38-.986-.989-1.061l-1.519-.181.102-.857 8.814 1.069zm8.757 10.885l5.926-.245-3.226-7.395-2.7 7.641zm3.644-10.926l6.659 15.126c.233.533.861.91 1.519.88l.526-.015.03.857-6.678.268-.038-.846.519-.019c1.557-.068 1.982-.472 1.647-1.212l-1.53-3.512-6.607.287-.79 2.209c-.429 1.605.436 2.515 1.903 2.44l.56-.011.03.85-6.065.257-.045-.846.192-.008c.974-.045 1.857-.82 2.324-2.168l5.095-14.503.748-.034zm14.367-1.59l.177.835-1.812.397c-.722.147-.752.642-.658 1.11l2.809 13.004c.154.748.594.748 1.643.54l2.181-.476c1.324-.34 2.139-.899 2.805-1.938.696-1.065.771-3.335.722-4.589l.778-.17 1.008 6.417-13.694 2.976-.188-.838 1.297-.272c1.072-.238 1.196-.699 1.045-1.394l-2.771-12.849c-.132-.585-.564-.744-1.102-.627l-1.658.351-.18-.823 7.599-1.654zm12.957-4.079l.312.797-1.73.691c-.684.261-.643.755-.462 1.19l4.896 12.38c.278.691.703.635 1.692.264l2.087-.838c1.245-.548 1.959-1.235 2.452-2.368.504-1.178.214-3.433-.045-4.649l.748-.298 2.03 6.16-13.017 5.197-.316-.789 1.233-.487c1.019-.412 1.06-.884.797-1.552l-4.824-12.207c-.222-.551-.681-.646-1.192-.446l-1.575.627-.305-.789 7.219-2.882zm17.992-10.141l.504.699-1.508 1.095c-.59.427-.432.891-.15 1.277l7.776 10.779c.436.612.839.449 1.722-.174l1.805-1.303c1.072-.846 1.591-1.692 1.79-2.923.203-1.254-.628-3.358-1.173-4.491l.647-.472 3.482 5.476-11.34 8.256-.504-.695 1.068-.767c.895-.661.816-1.129.399-1.696l-7.678-10.651c-.35-.483-.823-.461-1.263-.14l-1.369.997-.496-.687 6.291-4.581zm14.115-12.845l4.365 3.879-.534.533c-2.997-2.334-5.133-1.896-6.381-.646l-2.339 2.361c-.252.245-.271.797.071 1.137l4.245 4.264 1.027-1.039c1.752-1.919-.098-3.879-.508-4.283l.556-.551 5.501 5.518-.556.548c-.545-.623-1.628-1.303-2.512-1.382-.782-.087-1.515.374-2.012.812l-.933.952 4.719 4.717c.199.204.669.408 1.278-.227l1.918-1.919c1.132-1.273 1.692-2.44 1.192-4.317-.323-1.22-.981-2.225-1.662-3.105l.56-.567 4.309 4.755-9.833 9.899-.59-.601.82-.82c.763-.808.489-1.243.207-1.526l-9.397-9.416c-.432-.446-.899-.344-1.305.072l-.996.986-.59-.593 9.378-9.442zm11.145 2.41l3.41-4.876-7.81-1.915 4.399 6.791zm-6.419-9.548l16.011 3.89c.56.128 1.241-.136 1.624-.687l.29-.415.703.483-3.839 5.495-.696-.483.286-.423c.899-1.284.854-1.858.06-2.051l-3.711-.91-3.801 5.442 1.278 1.964c1.015 1.314 2.249 1.19 3.095-.004l.316-.483.703.495-3.489 4.993-.699-.487.109-.159c.549-.789.481-1.968-.301-3.15l-8.37-12.89.432-.619zm24.749-8.804c-.876-.076-2.245-.385-2.963-.461 1.512 2.153 1.222 4.105.579 5.454-.936 2.009-2.794 3.512-4.719 4.06-2.045.597-4.215.427-6.49-.642-2.677-1.277-4.136-3.176-4.851-5.295-.654-1.926-.511-4.003.124-5.374.76-1.598 1.959-2.553 3.35-3.165l-1.109-1.582.316-.684 6.238 2.485-.316.661c-1.459-.17-2.918-.404-4.636.045-1.696.461-2.534 1.465-2.967 2.398-.511 1.08-.493 2.421-.139 3.429.79 2.202 3.373 3.641 5.373 4.585 2.512 1.19 7.028 2.87 9.005-1.318.444-.929.587-2.183.391-2.821-.305-1.122-.966-1.817-2.267-2.564l-1.444-.687c-.523-.215-.985.321-1.226.835l-.602 1.284-.718-.351 2.989-6.364.729.34-.399.865c-.301.638-.305 1.159.282 1.439l5.791 2.746-.323.684zm-12.747-16.025l.82.223-.402 1.556c-.128.472-.165 1.092.545 1.284l9.122 2.413c1.215.276 2.241.48 3.452-.087.801-.344 1.801-1.394 2.23-2.984.399-1.53.143-2.901-.335-3.75-.549-.993-1.737-1.73-2.67-1.979l-7.441-1.972c-1.064-.287-2.828-.82-3.433 1.499l-.075.272-.812-.227 1.613-6.149.816.215-.117.438c-.391 1.484.384 2.293 1.624 2.625l7.971 2.1c2.158.589 3.309 1.771 3.892 3.32.455 1.254.429 3.021.102 4.253-.436 1.673-1.688 3.883-3.106 4.713-.887.514-2.264.548-3.677.2l-9.81-2.598c-.541-.151-.917.332-1.045.801l-.406 1.567-.812-.215 1.955-7.52zm3.286-23.707l5.821.004-.049.759c-3.786.238-5.091 1.979-5.215 3.747l-.196 3.331c-.026.355.331.782.801.804l5.99.374.086-1.454c.038-2.602-2.621-2.852-3.196-2.882l.049-.786 7.753.495-.045.77c-.82-.098-2.087.11-2.801.635-.639.453-.88 1.292-.974 1.949l-.079 1.337 6.652.404c.286.011.763-.144.823-1.024l.177-2.7c0-1.711-.35-2.969-1.951-4.041-1.045-.699-2.211-1.005-3.313-1.224l.064-.801 6.362.71-.857 13.94-.85-.049.075-1.156c.045-1.11-.44-1.265-.842-1.288l-13.247-.823c-.613-.042-.895.344-.936.937l-.083 1.39-.842-.057.823-13.302z" fill="#004990"/><path d="M147.325 42.374l1.921-.049-4.275-10.7s-6.08-3.059-9.321-3.441l-1.41-6.946s19.24-9.121 3.189-17.294c0 0-5.324-1.877-30.731 5.393 0 0-6.129-.778-2.365-2.938 0 0 .707-.499 3.606.612 0 0 10.367-1.881 10.201-7.41 0 0-11.461 1.073-14.491.2 0 0-11.262 7.565 3.143 12.66 0 0 17.206-6.058 27.498-5.529 0 0 10.889 3.637 0 8.177 0-.113-.508-1.069-1.707-.903l-33.574 1.975s.162-2.043-1.053-2.969l.936-.627s.034-2.772-3.305-6.394l-.365.011s2.391-3.928-.308-6.368l-3.888 2.277s-4.621-2.145-8.494.268l-.342.245-4.005-1.556s-1.203 3.886 1.489 5.847c0 0-3.061 1.771-3.038 6.228l1.102 1.05s-3.715 4.804-1.647 4.736c.117 0-2.03.068-2.03.068l-4.798-16.097-8.502.261-3.576 4.317 1.94.789-.545 2.058 2.651.397-.395 2.663 2.504-.317-.297 2.172 2.391-.072s.267 16.471.38 16.346c.117-.125 6.479.4 6.479.4l-2.88 3.58-10.182.185s-4.102 3.139-3.974 3.131c.113-.008-.056 10.349-.056 10.349s6.573-4.528 6.58-4.415c.004.125.169 1.564.169 1.564l3.884-2.039 1.342 2.512s10.528-6.13 20.094-6.304l6.065-9.442 18.898-.582s1.873 2.232 1.414 3.207l-9.87-1.745s-3.662 4.797-2.865 7.421c0 0 2.023-.393 7.678.635l2.211-1.36s15.45 5.125 15.567 5.008c.124-.121-.493-9.642-.493-9.642s2.324 5.495 2.196 5.374c-.124-.11 9.239.567 9.994 1.741 0 0 .564 2.874.094 3.127 0 0-2.173-.302-2.03.174 0 0-1.512 1.499-.602 4.121 0 0 6.155 2.795 12.077 8.63l.214-6.368 2-1.016-2.493-7.387" fill="#ED1C2E"/><ellipse fill="#FFF" cx="99" cy="115" rx="76" ry="75.837"/><path d="M99.463 162.892c26.769 0 48.45-21.707 48.45-48.442 0-26.762-21.681-48.45-48.45-48.45-26.75 0-48.435 21.688-48.435 48.45 0 26.735 21.684 48.442 48.435 48.442z" fill="#004990"/><path d="M58.722 82.091c-1.395 1.745-2.688 3.588-3.854 5.507l2.944-32.817c1.275-.884 2.576-1.749 3.918-2.557l-3.008 29.867zm-10.84 41.236c-.44-2.738-.662-5.541-.662-8.403 0-6.16 1.053-12.071 2.989-17.555l-14.894-17.358c-3.373 6.236-5.877 13.023-7.325 20.195l19.891 23.122zm25.091 36.79c-1.967-1.163-3.858-2.459-5.648-3.864l-30.077-3.105c.854 1.413 1.771 2.795 2.73 4.143l32.995 2.825zm35.27 6.436c-2.888.502-5.843.755-8.878.755-6.001 0-11.777-1.027-17.15-2.901l-17.251 15.028c6.227 3.365 13.01 5.847 20.162 7.274l23.117-20.157zm32.472-19.696c1.361-1.771 2.617-3.641 3.738-5.571l-2.978 33.399c-1.327.937-2.685 1.839-4.08 2.693l3.32-30.521zm7.806-14.363c1.944-5.495 3.004-11.402 3.004-17.57 0-2.75-.211-5.45-.617-8.082l19.85 23.008c-1.481 7.127-3.986 13.891-7.359 20.085l-14.879-17.441zm-16.661-58.552c-1.715-1.371-3.508-2.636-5.396-3.784l32.728 2.886c.933 1.352 1.827 2.731 2.681 4.143l-30.013-3.244zm-14.698-8.275c-5.554-2.021-11.54-3.131-17.797-3.131-2.662 0-5.29.2-7.844.593l22.741-19.896c7.058 1.462 13.751 3.962 19.898 7.32l-16.999 15.115z" fill="#ED1C2E"/><path d="M53.292 90.347c-.707 1.352-1.357 2.723-1.948 4.136l-14.461-17.234c4.933-8.256 11.446-15.443 19.113-21.162l-2.704 34.26zm8.938 61.343c-6.362-6.47-11.051-14.613-13.378-23.707l-21.508-24.134c-.545 3.596-.835 7.304-.835 11.051 0 12.267 3.008 23.828 8.317 33.976l27.404 2.814zm17.627 11.814c-1.433-.563-2.816-1.197-4.177-1.907l-34.552-2.719c5.783 7.712 13.044 14.235 21.361 19.156l17.368-14.529zm56.458-11.621c-6.543 6.609-14.811 11.459-24.076 13.819l-24.05 21.547c3.655.567 7.396.854 11.205.854 12.269 0 23.832-3.044 33.976-8.419l2.944-27.801zm9.769-13.642c.59-1.197 1.139-2.406 1.647-3.656l14.57 17.298c-4.888 8.388-11.393 15.693-19.098 21.52l2.88-35.162zm3.911-35.978c-2.267-9.174-6.941-17.396-13.318-23.945l27.475 2.961c5.193 10.065 8.122 21.502 8.122 33.621 0 3.879-.293 7.671-.872 11.395l-21.406-24.032zm-26.054-33.557c-1.463-.789-2.974-1.511-4.531-2.16l17.259-14.563c8.227 4.933 15.409 11.444 21.121 19.118l-33.848-2.395zm-37.003-4.672c-9.081 2.236-17.218 6.851-23.734 13.143l.023-.128 2.568-27.114c10.055-5.265 21.478-8.241 33.604-8.241 3.854 0 7.625.302 11.329.88l-23.79 21.46z" fill="#004990"/><path d="M59.301 142.925l17.511 1.771 8.712-12.331-7.114-23.19-15.104-4.566-12.777 11.697-.019.034c.274 9.808 3.433 18.918 8.626 26.479l.165.106zm54.758 18.918l6.697-15.863-9.483-11.999-24.023-.03-8.49 12.369 7.246 15.825.32.11c4.151 1.144 8.52 1.764 13.04 1.764 5.114 0 10.017-.789 14.646-2.243l.049.068zm34.082-45.216l-13.055-11.72-15.3 5.518-6.746 22.019 9.28 11.961 17.909-2.527h.008c4.749-7.252 7.641-15.844 7.979-25.108l-.075-.144zm-32.145-48.011l-15.65 8.804.068 16.135 19.248 14.352 15.153-5.371 3.516-17.404-.019.11c-5.659-7.467-13.393-13.26-22.335-16.509l.019-.117zm-55.259 16.316l3.301 17.781 15.228 4.627 18.917-13.733.026-16.267-15.078-8.724.023-.019c-8.934 3.154-16.68 8.845-22.384 16.203l-.034.132zM82.707 8.832l2.786 1.216v1.779l-2.786-1.424v-1.571m8.817 0l-2.764 1.216v1.779l2.764-1.424v-1.571" fill="#fff"/></svg>