<svg width="221" height="261" viewBox="0 0 221 261" xmlns="http://www.w3.org/2000/svg" xmlns:xlink="http://www.w3.org/1999/xlink"><defs><g id="a"><path d="M6.25 11.139c-.362-.858-1.113-1.964-1.553-2.553-.418.22-1.185.319-2.461-.042-.674.482-2.397 2.028-1.383 4.468 1.178 2.809 3.866 2.958 4.54 2.943l.163-.433c.333-.915.858-1.561 1.248-1.794-.1-.837-.299-1.916-.554-2.589zm-1.36-3.398c.561-.454 1.525-1.191 2.44-1.752.943-.588 2.199-1.042 3-1.305-.284-.39-.468-1.291-.582-2.61v-.263c-.738-.582-3.319-2.369-5.788-.354-2.525 2.064-1.603 4.709-1.177 5.624l2.107.66zm9.759 5.363c-.929-.021-2.362-.007-3.482.241-1.305.284-2.929.979-3.716 1.34l-.688 1.418-.227.354c.404.518 2.17 2.447 5.156 2.057 3.418-.425 4.277-2.773 4.426-3.347l-.227-.263-1.242-1.8zm4.026-6.423l-.901.425c-.894.341-1.652.631-2.142.674-.199.525-.404 1.284-.468 2.135-.036.837.106 1.773.227 2.391.404.312.894.837 1.475 1.574l.149.213.34.553c1.007.042 3.255-.255 3.745-3.433.54-3.574-1.928-4.404-2.425-4.532zm-5.404-.845c.936.433 2.092.773 2.397.851l1.667-.631.943-.234c.085-.418.745-3.887-2.34-5.476-2.192-1.106-4 .036-4.894.837l.092.596c.127 1.078.099 2.092-.092 2.66.263.191 1.206.915 2.227 1.397z" fill="#EA1F29"/><path d="M6.808 13.723c-.397.241-.915.879-1.255 1.801l-.163.426c-.397 1.255-.397 2.213-.397 2.213s.958-.937 1.546-1.709l.227-.347.688-1.419-.044-.958-.602-.007zm-1.915-5.978l-2.113-.66-.22-.036c-1.631-.241-2.738.156-2.738.156s.383.759 2.369 1.326l.042.014c1.277.362 2.043.263 2.468.042l.383-.56-.191-.282zm6.147-6.562c-.248-1.164-.801-1.333-.801-1.333s-.546.333-.49 1.964v.255c.114 1.326.298 2.227.582 2.617l.383.199.326-.418.007-.028c.199-.561.213-1.582.092-2.667l-.099-.589zm7.238 4.64l-.943.234-1.667.631-.624.808.589.284c.489-.042 1.248-.333 2.142-.674l.901-.425c.78-.418 1.646-.943 1.589-1.021-.03-.057-.98-.029-1.987.163zm-1.261 8.268l-.149-.213c-.575-.73-1.071-1.262-1.475-1.567l-.454-.276-.433.042-.05.539.191.482 1.241 1.801.227.262.177.178c.809.745 1.539.78 1.539.78s.014-.603-.482-1.475l-.332-.553z" fill="#1C5329"/><path d="M12.685 8.564c.276 1.071-.603 2.22-1.965 2.574-1.362.354-2.695-.22-2.964-1.298-.277-1.064.588-2.22 1.964-2.575 1.355-.354 2.695.235 2.965 1.299" fill="#F2BB0E"/></g></defs><path d="M111.011 260.767c-35.313-9.519-64.527-25.335-83.173-46.562-17.802-20.186-26.873-45.398-26.838-73.861v-139.344h220v139.344c.043 28.463-9.021 53.676-26.83 73.861-18.647 21.227-47.824 37.043-83.159 46.562" fill="#fff"/><path d="M209.574 140.331c0 53.094-34.292 90.605-98.563 108.407-64.293-17.802-98.344-55.313-98.344-108.407v-127.692h196.907v127.692zm-202.368-133.011v133.025c0 27.179 8.525 50.683 25.299 69.769 17.582 20.029 43.98 34.888 78.484 44.186 34.526-9.298 60.938-24.156 78.527-44.186 16.773-19.086 25.277-42.59 25.277-69.769v-133.025h-207.587z" fill="#2B57AC"/><path d="M40.259 196.926l-.177.008c-1.943.255-2.482 1.688-2.78 2.453 0 0 1.206-1.014 2.894-.439l.191.078 1.192.213.737-1.391-.624-.694-1.433-.228zm-1.059-7.006l.142.105 1.099.504 1.057-1.191-.447-.801-.213-.156-1.298-.44c-1.943-.233-2.802 1.028-3.277 1.688.001 0 1.419-.695 2.937.291zm10.348-2.666l-.539-.865c-1.255-1.504-2.738-1.171-3.56-.986 0 0 1.645.475 2.007 2.383l.447 1.113 1.567-.156.241-.893-.163-.596zM65.552 167.153s.61 1.524-.617 2.965l-.042.063-.603 1.043 1.078 1.156.852-.355.56-.886.177-.575c.411-1.907-.76-2.886-1.405-3.411zm-6.473-4.805s.908 1.064.518 2.61l-.135.468-.227 1.191 1.411.709.681-.623.22-1.455-.021-.141c-.248-1.943-1.688-2.482-2.447-2.759zm-5.652 5.382l-.716-.419c-1.794-.759-2.979.206-3.631.71 0 0 1.61-.291 2.773 1.156l.078.099.908.794 1.34-.844-.185-.894-.567-.602zM145.103 211.24l-.568.036c-1.73.276-2.17 1.574-2.404 2.276 0 0 1.093-.986 2.688-.447l.085.021 1.05.164.617-1.291-.575-.596-.893-.163zm.417 5.108l-.724.199-.616.361c-1.398 1.064-1.178 2.404-1.043 3.149 0 0 .496-1.454 2.213-1.681h.007l1.021-.362-.063-1.419-.795-.247zm4.666 3.213l-.759.333-.511.964-.1.377c-.297 1.716.787 2.566 1.383 3.027 0 0-.56-1.297.362-2.596l.135-.155.497-.958-1.007-.992zM121.693 210.514l-.744.354-.426.66-.184.666c-.306 1.73.779 2.575 1.361 3.029 0 0-.504-1.178.27-2.419l.234-.333.51-.957-1.021-1zm-5.027-4.641l-.312.156c-1.525.865-1.496 2.234-1.482 2.972 0 0 .567-1.071 1.908-1.306l.553-.063 1.05-.206.128-1.418-.738-.361-1.107.226zm3.586-5.339l-.76-.489-.539-.178c-1.717-.369-2.603.682-3.092 1.241 0 0 1.262-.489 2.504.419l.233.205.929.532 1.036-.958-.311-.772z" fill="#EA1F29"/><path d="M174.168 182.576s2.908-4.093-7.276-8.199c-7.539-3.035-17.923-2.396-24.532-3.312-5.532-.772-6.149-2.021-5.838-3.404.66-3.057 5.83-1.042 9.058.688 3.497 1.88 9.724 2.497 14.263-1.71 1.617-1.518 3.895-2.049 3.895-2.049s-2.688-1.702-4.887-.185c-.908.617-1.632 1.255-3.477 1.404-3.24.241-3.844-.794-3.844-.794s1.652 1.113 5.717-.965c5.277-2.695 2.106-8.604 2.106-8.604s.348 2.113-1.88 3.568c-3.105 2.049-5.717.177-5.717.177s1.207.603 3.051-.093c2.312-.893 3.07-2.092 2.291-3.659-.341-.667-1.426-1.468-1.426-1.468s2.539 3.348-7.482 2.645c-5.064-.354-6.823 4.752-6.823 4.752s-2.319-.581-3.95-.035c.105-.779-.008-2.113-.412-2.915-.531 2.646-2.553 4.334-3.475 5.462-.93 1.127-2.937 4.07-.412 7.531 2.497 2.916 7.043 3.341 9.916 3.568 4.27.318 11.334.701 17.567 1.561 8.433 1.162 6.972 5.205 5.937 6.453-1.064 1.299-3.078 1.362-8.943-.681-5.852-2.057-11.973-5.71-24.214-5.228-16.88.652-28.887 13.001-35.064 12.334 0 0 .326 1.482.191 2.49-.546 4.276-4.44 6.588-4.44 6.588l-.546-.836c-.397.057-.028.936-1.411 1.964-1.326.993-2.007 2.093-2.489 4.078 0 0-.688-1.368-1.1-.149-.539 1.582-1.369 1.639-1.801 1.823l-.383-.787c-.546.028-.751 3.426-6.652 2.865l-.44.106c-4.326.744-5.078-3.511-6.617-4.993-1-.964-2.22.78-2.22.78s-.83-.894-.724-2.546c.113-1.737.433-2.319-.262-3.519-.532-.9-2.788-2.815-1.943-6.07-1.029-.021-3.085-.773-3.922-6.823l.724.085c-.149-.922-.958-1.262-1.121-2.326-.227-1.561-.426-4.582.425-5.646 1.305-1.632 4.908-2.185 3.192-5.369l-.561.887-.844.362-1.078-1.164.596-1.035.05-.07c-.646-.058-1.206.17-1.539.318.078-.695 1.241-4.354-1.858-5.185l-.213 1.454-.681.624-1.412-.709.227-1.191.128-.468c-2.993.368-2.383 4.262-2.341 4.865-.078-.88-1.894-3.348-3.646-2.234l-.177.142.575.596.17.901-1.333.836-.908-.787-.078-.1c-.624.816-.532 2.277 1.149 3.554 2.489 1.88 3.333 9.525 2.95 10.525-.525 1.362-1.858-.574-1.858-.574s-.227 1.759 1.029 3.546c2.22 3.178 2.886 4.574 1.227 4.043l-1.035-.66s.099 1.582 2.121 3.234c.801.652.688 1.021.106.957-.667-.092-1.17-.51-1.17-.51s.553 1.446 1.575 2.822c1.716 2.298 3.27 3.256 3.27 3.256s-1.929-.178-4.717-1.78c-4.156-2.419-2.404-4.114-3.652-6.986-1.177-2.745-1.95-3.191-3.185-3.354h-.113l.163.603-.241.894-1.567.156-.447-1.121c-1.17.596-1.135 1.845-1.028 2.426-.802-.879-2.319-2.1-3.369-2.276-.638-.12-1.404.057-2.113.419l-.106.027.22.156.433.809-1.05 1.185-1.092-.503-.149-.107c-.73 1.312-.503 3.788 3.788 5.186 0 0-2.071.312-2.724 1.822l1.433.227.617.695-.738 1.391-1.184-.213-.192-.078c.49 2.163 2.241 2.475 3.717 2.475 6.404-.084 11.383 3.001 11.383 3.001s-1.397.077-2.163 1.071c-.794 1.035-.61 1.631-.61 1.631s.561-.525 2.17-.802c1.695-.29 2.028.319 2.028.319s-2.468.908-1.511 3.482c0 0 .993-1.092 2.532-1.639 1.276-.426 2.752-.34 3.34.49.802 1.162-2.624 2.297-2.624 2.297 2.39 1.426 7.61.738 7.61.738s-3.653.652-3.625 3.035c0 0 2.27-1.737 6.724 0 6.745 2.61 15.008 3.865 25.816-.518 13.618-5.532 13.986-17.291 32.93-23.554.617.915 4.88 4.907 10.22 6.88 4.291 1.609 10.348 2.681 12.199 3.113 2.667.652 7.391 1.66 4.561 6.809-1.348 2.397-2.582 3.121-3.73 3.993-.22-.043-1.624-.44-3.646-1.163-1.185-.439-2.05-.178-2.426.639l.901.155.574.603-.61 1.291-1.057-.17-.085-.021c.142 1.447 1.354 1.604 1.354 1.604s-1.397.524-1.383 1.836l.73-.191.794.242.064 1.425-1.029.354.121.086c.83 1.042 3.241.262 3.241.262s-.56 1.248.198 2.135l.512-.957.758-.341 1.015.993-.503.965-.129.156.419.042c1.171-.17 2.837-1.241 3.617-3.772.958-2.901 1.901-3.533 1.901-3.533s2.453-2.312 1.518 1.809c2.426-.638 2.127-3.297 2.127-3.297l2.539.425c.816-.646.021-2.567.958-3.922 1.042-1.497 1.638.241 1.255 1.454 0 0 1.49-.461 1.561-2.391.078-1.241-.426-2.695.752-3.766.879-.745 1.1.333.844 1.348 0 0 1.156.049 1.355-1.973.113-1.219-.178-1.596.184-1.758l.752.992s1.028-2.312-1.092-3.702c-3.561-2.319-12.611-.73-18.016-9.248-1.964-3.128-.51-4.561-.51-4.561s9.631 4.539 14.816 3.794c6.283-.9 6.312-4.27 6.312-4.27s1.028.191.135 2.234c0 0 1.142-.248 1.617-1.822.901-3.021-1-4.895-1-4.895 1.522-.104 1.557 1.718 1.557 1.718zm-27.629 19.408c-10.979-2.092-13.256-3.475-17.717-7.773-.455.221-2.191 3.319 2.482 7.773 1.829 1.752 3.623 2.277 3.623 2.277s-3.219-.568-7.361-.171c-1.936-.539-3.348-3.007-5.937-4.007-.851-.326-1.574-.326-2.142-.043l.759.489.312.78-1.027.95-.937-.532-.234-.205c-.149.702.071 1.539.929 2.411-1.177-.042-2.333.582-2.623 1.943l1.105-.227.738.361-.128 1.419-1.05.198-.553.063.07.149c.816 2.433 4.532.638 4.532.638s-1.894 1.384-.858 3.051l.426-.667.752-.348 1.014 1-.51.95-.234.341c2.596 1 4.688-2.937 4.688-3.058-.092 2.852 2.156 3.504 2.156 3.504s-.312-1.234.852-2.028c1.318-.886 3.298-.652 3.468-.667-.361 1.44.178 2.1.972 2.348.199-3.035 5.865-3.135 5.865-3.135.326 1.178 1.61 1.582 1.61 1.582s-.057-1.646 1.142-2.553c1.227-.951 3.263-.994 5.412-2.192 2.539-1.401 2.013-4.131-1.596-4.621zm-80.277-19.844c.674 4.752 3.34 2.241 3.34 2.241-.461 3.305-3.447 1.496-3.447 1.496.873 5.064 2.993 3.398 2.993 3.398-.965 4.227.638 5.318 1.22 6.142.73 1.028 1.071 1.446.801 3.263-.248 1.631-.142 2.213-.142 2.213s1.27-1.291 2.191-.326c1.418 1.488 2.263 5.985 5.49 5.418 0 0-.39-1.965.312-1.965l.887 1.724c.872.106 3.326.468 4.674-1.263.809-1.042 1.014-2.51 1.858-2.446.639.057.709 1.27.709 1.27.574-.348.688-.667.95-2.078.319-1.745 1.199.106 1.199.106.227-1.248.887-2.418 2.1-3.206 1.524-.964 1.085-3.624 1.979-4.27.979-.716 1.213 2.12 1.213 2.12s3.312-2.553 2.156-6.957c-.518-1.972-1.078-3.639-.447-3.809.603-.143.482 1.759 1.794 2.525.915.545 2.341-.234 2.341-.234-1.688-1.865-1.426-5.057-1.199-6.993.475-3.958-2.27-3.674-2.27-3.674s1.078-.78 1.461-2.192c.638-2.439-.794-5.652-.794-5.652s-1.503 2.66-3.276.78c0 0 1-1.063.822-3.439-.191.674-5.709 4.858-7.276-2.632-3.121.688-2.844 3.73-4.773 3.49-1.028-.113-2.057-.937-1.277-2.895 0 0-2.823.143-3.234 3.078-.518 3.632-2.291-1.22-4.695-1.042-.028 0-1.787 1.915-1.681 5.972-2.177.085-3.156 1.795-3.369 4.511-.596 7.73-2.639 5.176-2.61 5.326zm19.057-.015c.539-1.631 2.05-1.581 2.05-1.581h.028l-.22.787c.064.688.681 1.206 1.383 1.171.709-.064 1.234-.682 1.17-1.391l-.185-.546h2.291l.156-.021-.057.156-.063.149c-.092.248-.979 2.205-2.951 2.41l-.121.021c-1.262.107-2.482-.752-2.482-.752s-.198-.07-.369 1.426c-.121 1.213-.865 1.242-.865 1.242s-.184-1.78.235-3.071zm-2.958 4.668c1.468.233 2.724-.419 2.724-.419s.326 1.021-.851 1.177c-.631.086-1.567.129-1.688.923-.369 2.631 3.433 2.057 4.575 1.886.915-.162 1.354-.283 1.354-.283-.773 1.106-2.156 1.305-3.553 2.504-1.539 1.312-1.27 3.312-1.596 4.695-.418 1.666-1.929 2.482-3.603 2.135-1.447-.234-2.816-1.1-2.929-2.625-.127-1.752 2.759-4.042.915-6.22-1.504-1.802-1.412-2.638-1.412-2.638s.39.566 1.376 1.078c.354.17 3.298 1.545 3.879-.717l-.659-1.17-.688-.497-.085-1.135s.809 1.064 2.241 1.306zm-6.44-9.192v-.155l.135.084 2.106.873-.39.433c-.312.638-.071 1.404.567 1.73l1.717-.554.099-.801h.014s1.433.539 1.298 2.255c-.106 1.348-.958 2.923-.958 2.923s-.695-.312-.333-1.476c.425-1.454.206-1.462.206-1.462s-1.447.327-2.567-.255l-.114-.071c-1.667-1.105-1.73-3.24-1.716-3.503l-.064.149v-.17z" fill="#2B57AC"/><path d="M79.394 198.468c3.263.845 3.312-2.545 3.355-3.191.22-3.453 2.596-3.737 3-4.113-1.106.213-3.348.143-4.064-1.163-.766.426-2.057.646-3.546-.007l.837 1.411c.305.851.036 1.865-.305 2.667-.32.773-2.249 3.631.723 4.396" fill="#EA1F29"/><path d="M122.99 140.081l-.369-.823-.836-.496-.617-.191c-1.895-.34-2.83.852-3.348 1.496 0 0 1.333-.56 2.681.291l.348.263 1.042.561 1.099-1.101zm-5.408 6.107l-.518.29c-1.596 1.085-1.434 2.575-1.341 3.391 0 0 .581-1.411 2.291-1.674l.263-.043 1.127-.333.008-1.561-.852-.319-.978.249zm5.996 5.422l-.887.234-.581.631-.348.659c-.674 1.803.326 2.951.858 3.539 0 0-.326-1.453.852-2.638l.248-.213.744-.915-.886-1.297zM73.995 131.737c3.631 1.263 4.007-2.588 4.121-3.319.553-3.908 3.291-4.007 3.787-4.405-1.284.149-3.837-.142-4.532-1.695-.9.404-2.376.553-4.028-.312l.83 1.66c.276 1.007-.135 2.127-.582 3.021-.447.823-2.894 3.9.404 5.05" fill="#EA1F29"/><path d="M132.637 132.381s-3.015 5 9.07 10.284c0 0-4.092-.674-6.361-.767-2.695-.142-5.554.383-5.554.383s-3.042-2.772-5.177-3.553c-.695-.241-1.83-.567-2.83.035l.83.496.383.823-1.107 1.1-1.042-.561-.348-.263c-.539 1.454.419 2.44 1.063 2.838-3.057.659-3.957 1.432-3.985 2.992l.979-.248.858.319-.014 1.56-1.135.327-.249.042c.638 1.1 2.015 1.667 3.943 1.015.887-.298 1.114-.446 1.114-.446s-1.674 1.9-.965 3.716l.588-.638.873-.221.894 1.291-.745.915-.24.22.787.27c1.688.482 3.092-.943 4.24-2.348 2.312-2.801 4.59-1.95 4.59-1.95-1.554 1.539-.114 3.397-.114 3.397s1.27-2.979 3.354-2.143c-.411 1.816 1.397 2.838 1.397 2.838s1.085-2.916 2.489-2.916c1.858 0 .916 2.809.916 2.809s1.006-.12 2.602-1.716c1.051-1.042 1.943-2.191 4.1-2.028-.063.333.277 2.361 2.156 3.262-.043-6.965 9.788-7.9 11.412-8.22 4.709-.922 4.22-4.539 4.22-4.539-26.34-.879-32.992-8.375-32.992-8.375zm-68.426-16.259c-.383 1.716-3.305-.631-3.305-.631.071 3.844 1.794 4.092 2.503 6.383.603 1.986-.645 3.319.369 6.369 1.035 3.156.276 4.312.276 4.312 2.149.05 3.532-1.504 3.532-1.504-.418 4.043 1.475 5.958 1.475 5.958s1.199-2.468 1.695-.823c1.354 4.391 3.56 5.958 3.56 5.958s1.986-.071 5.511-3.78c2.454-2.589 1.355.752 1.355.752s1.716.156 5.277-6.376c1.149-2.121 3.063-3.341 3.745.085 4.078-4.397 2.66-9.142 2.66-10.809 0-1.482.723-1.652.787-.979.418 4.05 4.667 2.674 4.667 2.674s-1.73-1.759.049-7.951c.88-3.092-.837-6.085-.837-6.085l.986-1.73c1.106-2.688-.241-7.589-.241-7.589s-2.199 3.482-4.064 1.61c-1.716-1.723.113-4.482.113-4.482-2.121-.688-3.894 2.213-6.525.773-1.837-1 .319-4.319.319-4.319s-2.39-.078-4.291.851c-1.851.901-2.681 1.646-3.965 1.61-1.759-.064-1.135-2.958-1.135-2.958s-2.092-.057-3.333 2.099c-1.234 2.128-2.596 2.688-2.596 2.688-.567-.922-1.816-.929-2.773-1.199-1.057-.305-1.787-.801-1.787-.801s-1.943 3.751-1.057 6.858c-1.468.397-1.873 2.036-2.106 2.851-1.702 6.192-4.255 3.426-4.234 3.625.491 5.46 3.647 5.29 3.37 6.56zm18.015-2.426c.759-1.809 2.497-1.61 2.497-1.61h.028l-.326.865c0 .809.667 1.454 1.454 1.454.823 0 1.476-.646 1.476-1.454l-.177-.638 2.617.191h.185l-.092.185-.085.149c-.128.27-1.305 2.411-3.567 2.482l-.149.007c-1.433 0-2.759-1.071-2.759-1.071s-.212-.106-.539 1.582c-.248 1.369-1.106 1.333-1.106 1.333s-.053-2.035.543-3.475zm-10.291-5.809l.007-.185.028-.191.149.092 2.327 1.199-.482.468c-.425.681-.213 1.588.482 2.021.674.412 1.574.206 2-.475l.185-.915.021.007s1.582.759 1.249 2.695c-.227 1.518-1.355 3.234-1.355 3.234s-.737-.418-.227-1.702c.61-1.603.362-1.646.362-1.646s-1.667.22-2.894-.539l-.128-.085c-1.88-1.24-1.752-3.687-1.724-3.978zm.879 14.703c-1.561-2.17-1.383-3.121-1.383-3.121s.412.674 1.49 1.354c.383.22 3.603 2.071 4.454-.454.227-.646-.227-1.057-.646-1.404l-.716-.625.007-1.291s.83 1.276 2.418 1.674c1.66.411 3.142-.213 3.142-.213s.291 1.191-1.064 1.262c-.745.029-1.815 0-2.021.873-.653 2.979 3.716 2.66 5.036 2.567 1.063-.085 1.56-.191 1.56-.191-.986 1.199-2.582 1.298-4.27 2.525-1.873 1.369-1.745 3.653-2.249 5.192-.624 1.858-2.404 2.638-4.276 2.106-1.631-.397-3.106-1.511-3.1-3.256.015-1.991 3.512-4.353 1.618-6.998zm123.992 15.277s.241-3.752-2.489-4.73c-3.561-1.298-8.171.383-17.32-.468-22.234-2.085-19.496-10.107-19.496-10.107s13.979 6.199 19.894 3.305c3.263-1.603 3.042-4.426 3.042-4.426.916 1.071-.077 3.199-.077 3.199s5.737-4.213-1.078-10.788c-2.476-2.369-7.001-4.128-10.391-4.567-9.78-1.27-13.519-.745-20.412-1.695-5.767-.809-7.071-2.844-6.772-4.461.879-4.773 11.639 2.014 17.539-.61 1.574-.716 2.879-1.794 4.248-2.142 1.434-.326 2.865.121 2.865.121s-1.39-2.511-5.95-1.546c-3.752.794-4.036-.468-4.036-.468s1.76.149 4.036-1.185c1.461-.844 1.865-2.709 3.461-3.404 1.965-.844 3.943-.05 3.943-.05s-2.56-4.362-7.497-1.809c-3.361 2.185-4.574.575-4.574.575l4.035-2.858c1.242-2.497 2.838-2.886 2.838-2.886s-2.525-1.206-4.66.886c-1.383 1.348-3.396 1.745-6.852 1.688-4.375-.057-6.135 5.149-6.135 5.149s-1.737.106-3.234.872c-1.318.66-2.83 2.135-2.83 2.135l.561-1.688s-3.255 1.61-3.34 6.603c-.156 8.412 8.979 9.1 11.972 9.334 4.446.347 12.923.567 19.419 1.461 8.795 1.213 9.035 5.263 7.873 7.149-1.277 2.106-4.908 1.028-11.008-1.113-6.106-2.135-11.27-5.688-23.632-5.291-19.505.624-40.143 14.525-46.115 10.972.298 2.262-.234 6.922-5.362 11.071-.191-3.476-1.255-3.015-2.433-.923-3.262 5.881-6.667 6.469-6.667 6.469s.625-2-1.567-.078c-2.22 1.965-4.766 2.277-4.766 2.277s-3.113-2.234-3.844-5.73l-.631 1.099c-2.603-1.255-3.206-5.39-3.206-5.39s-1.249.809-4.1.34c0 0 1.603-1.752-.206-6.341-3.575 0-17.717-2.461-19.49-9.766-.652-2.724-1.468-4.028-3.185-4.142l.362.518.064.979-1.525.695-.837-.965-.27-.397c-1.39 1.092-.958 3.362-.958 3.362-1.588-1.326-4.858-3.553-6.78-2.185l.922.56.44.965c0 .702-.575 1.263-1.284 1.248l-1.191-.638-.553-.383c-1.688 2.745 3.801 5.716 3.801 5.716-2.078-.121-5.05 1.525-4.986 3.404l.943-.305.915.284.114 1.66-1.177.468-.22.028c.539 1.142 1.504 1.88 4.199 1.142 6.49-1.844 10.916-.66 10.916-.66s-.199 2.163-3.149 1.589c-.142-.021 1.149 1.688 3.794 1.688 3.482 0 5.326-1.391 5.397-1.419 0 0 .17.815-.823 1.312-2.099 1.071-.737 3.369-.737 3.369 1.142-2.561 3.234-1.567 3.234-1.567-.369.511-.858 2.007.383 3.142 0 0 .135-1.475 2.454-2.063 1.596-.404 2.972.171 2.972.171s-1.348 1.893.269 4.042c0 0 .681-3.093 2.823-2.177.894.375.78 1.361.524 1.766l-1.383.787c3.34 1.596 4.185-1.035 6.766 1.354-3.312 1.504-7.454 1.815-11.277 1.61-8.036-.695-9.709-2.27-11.596-4-2.575-2.469-4.617-2.724-5.844-2.348l.418.298.433.957c0 .71-.56 1.263-1.255 1.263l-1.212-.652-.291-.206c-.709 1.228.603 2.319.993 2.858l-1.49-.291c-1.702-.369-3.135.248-3.553 1.525l1.354.092.802.674-.603 1.682-1.354-.072-.475-.077c.503 2.177 3.021 2.446 4.936 2.524-.922.561-1.894 1.383-1.688 2.682l.922-.561.915.063.454 1.524-1.021.653-.319.149c1.553 1.666 5.369-.512 6.425-1.121 3.043-1.717 5.667-1.426 7.17-.674 2.844 1.404-.993 2.574-.993 2.574.943.76 2.454.404 3.383 0 .858-.383 1.674-1.028 2.085-.447.227.362.106 1.008-.539 1.582l-1.22.574c3.546 1.362 6.837-1.9 6.837-1.9s.27.447-.05 1.291c-.532 1.383-1.851 1.879-1.851 1.879 3.844 1.164 5.809-3.411 5.809-3.411s1.83 1.404-.433 3.411c3.156.093 3.561-2.488 5.121-1.496.908.589.425 1.88-.894 2.143 3.646 1.24 3.333-2.008 7.568-1.299 6.177 1.071 13.291 1.979 24.157-2.227 16.688-6.397 18.398-21.107 36.674-23.15 0 0 1.539 3.207 14.058 6.582 13.256 3.568 33.64.823 32.725 7.129-.468 3.213-9.54-1.404-10.688 1.794l-.043.17 1.021-.021.752.503-.369 1.524-1.184.064-.143-.021c.369.695 1.093 1.07 1.859 1.213-1.1.574-1.738 1.007-1.816 2.447l.008.411.652-.362.907.057.468 1.482-.985.667-.135.057c.681.646 1.632.937 2.511.646.979-.326 1.418-.666 1.609-.872-.305.511-.907 1.709-.603 2.667l.504.851.39-1.015.78-.488 1.241.942-.411 1.106-.093.156c2.334.085 4.398-3.021 4.803-5.724.518-3.446 1.596-2.929 1.596-2.929l.645 1.318 1.383.66c-.099-2.341 1.639-3.064 2.391-2.412.738.653.127 2.071.127 2.071s1.186.411 2.59-1.972c.787-1.262.723-2.894 1.652-2.992 1.262-.043.759 1.531.759 1.531 2.929-1.574 1.099-6.248 2.241-6.78.9-.233.546 1.468.546 1.468s1.845-.992 1.312-3.007c-.802-2.969.652-.53.652-.53z" fill="#2B57AC"/><path d="M27.319 126.483l-.937.305-.646.39c-1.603 1.284-1.305 2.865-1.149 3.724 0 0 .518-1.575 2.362-1.972l.227-.042 1.177-.461-.113-1.652-.921-.292zm1.919-10.566l-.745-.22c-2.185-.397-3.255.958-3.837 1.695 0 0 1.404-.596 2.915.277l.546.383 1.199.638c.709.007 1.276-.546 1.276-1.248l-.433-.964-.921-.561zm10.3-1.486l-.361-.525-.844-.709c-1.787-1.063-3.163-.22-3.915.227 0 0 1.525-.057 2.553 1.319l.27.39.837.964 1.525-.695-.065-.971zM33.814 149.358l-.922.561-.376.397c-1.248 1.531-.646 2.929-.319 3.681 0 0 .149-1.468 1.645-2.248l.319-.149 1.021-.652-.461-1.525-.907-.065zm2.487-12.395l-.426-.305-1.248-.475c-2.177-.397-3.255.964-3.83 1.695 0 0 1.589-.66 3.17.439l.291.213 1.213.652c.695 0 1.255-.554 1.255-1.27l-.425-.949zm-4.225 6.211l-.802-.674-1.354-.086-.49.086c-2.142.581-2.525 2.262-2.724 3.191 0 0 1.092-1.234 2.937-.986l.468.086 1.362.07c.631-.304.907-1.049.603-1.687zM169.219 147.203l.143.014 1.191-.063.361-1.511-.752-.51-1.014.021-.582.149c-1.802.709-1.972 2.205-2.057 3.014.001-.001.923-1.298 2.71-1.114zm.71 3.704l-.659.361-.625.61c-1.198 1.524-.574 2.9-.24 3.639 0 0 .135-1.604 1.779-2.341l.128-.063.986-.66-.462-1.489-.907-.057zm5.442 4.049l-.772.489-.397 1.014-.063.519c-.093 1.922 1.212 2.688 1.9 3.093 0 0-.802-1.342.078-2.901l.085-.163.412-1.106-1.243-.945zM121.231 73.118l.985.638 1.199-1.014-.312-.851-.162-.142-1.234-.652c-1.865-.497-2.895.61-3.44 1.213 0 0 1.276-.426 2.524.454l.44.354zm-5.492 5.34c-1.823.617-2.063 2.1-2.185 2.908 0 0 .759-.993 2.185-1.028l.724.057h1.178l.432-1.518-.723-.532-1.611.113zm5.026 6.814l-.241.546-.177 1.007c0 1.922 1.333 2.638 2.05 3.007 0 0-.631-.971-.299-2.255l.32-.822.383-1.106-1.291-.901-.745.524zM73.25 66.58c3.66 1.199 3.972-2.66 4.057-3.376.497-3.922 3.234-4.071 3.724-4.475-1.284.17-3.83-.071-4.561-1.617-.865.425-2.362.596-4.042-.255l.872 1.646c.291 1.014-.099 2.142-.546 3.036-.426.835-2.823 3.942.496 5.041" fill="#EA1F29"/><path d="M29.625 48.67l-1.17-.794c-2.021-.908-3.39.17-4.121.745 0 0 1.908-.312 3.22 1.454l.042.063.972.844c.674.163 1.369-.263 1.539-.929l-.199-1.028-.283-.355zm-2.433 10.301l-1.348.532-.241.156c-1.603 1.277-1.305 2.873-1.156 3.716 0 0 .468-1.397 2.078-1.886l.511-.128 1.177-.433-.092-1.674-.929-.283zm12.298-12.63l-.858-1.135c-1.596-1.333-3.085-.745-3.908-.433 0 0 1.645.22 2.39 1.951l.099.22.667 1.085 1.631-.425.085-.979-.106-.284zM36.494 68.924l-.561-.603c-1.588-1.362-3.078-.759-3.9-.439 0 0 1.787.212 2.496 2.163l.071.213.596.872 1.61-.433.106-.972-.418-.801zm-6.382 5.969l-1.56-.198-.27.035c-2.178.369-2.738 2.014-3.021 2.901 0 0 1.135-1.042 2.837-.73l.646.163 1.348.199c.659-.241 1-.965.759-1.625l-.739-.745zm4.022 7.557l-1.234.539-.397.319c-1.638 1.496-1.206 3.177-.972 4.078 0 0 .475-1.865 2.624-2.362l.05-.007 1.191-.546-.234-1.78-1.028-.241z" fill="#EA1F29"/><path d="M133.53 66.694s-3.872 5.894 5.653 9.752c0 0-1.773-.497-4.036-.681-2.681-.227-3.851-.248-3.851-.248s-2.021-3.071-5.582-3.674c-.972-.163-1.937-.213-2.773-.092l.163.149.312.844-1.198 1.007-.985-.631-.439-.361-.121.121c-.574.681-.83 1.645-.326 2.78-3.27.439-4.341 1.468-4.604 2.801l1.604-.113.73.532-.433 1.518h-1.185l-.717-.057c.32 1.731 2.391 2.972 5.682 1.596.809-.333-2.021.993-.908 3.886l.248-.553.745-.524 1.291.908-.376 1.106-.319.823.007.007c2.795 1.22 5.73-2.142 6.093-3.716 0 0 .276 2.021 1.497 2.879.021.007.177-.858.836-1.56 1.213-1.319 1.086.255 1.086.255-.008 2.411 1.524 2.809 1.524 2.809s-.233-2.773 1.915-3.22c.872 2.979 4.148-1.575 3.815-.206-.745 3.014.589 3.929.589 3.929s.276-3.617 7.518-4.029c-.078.348.185 2.376 2.036 3.333.511-6.972 10.397-7.036 12.028-7.305 4.73-.759 3.029-5.057 3.029-5.057-22.959-.682-30.548-9.008-30.548-9.008zm-75.093-14.279c1.439 5.518 4.759 3.213 4.759 3.213-2.354 4.05-.574 7.164.688 10.277 1.326 2.88 1.284 5.312 1.284 5.312s1.582-.837 2.44-.83c1.199.021.815 1.312.844 2.951.057 2.305.986 2.986.986 2.986l.525-1.021c.61-.943.951-.823.951-.823s-.319 2.894 1.574 4.327c0 0 2.66-3.865 4.128-3.589.972.177 1.567 2.532 1.567 2.532 7.674-4.858 8.709-15.476 10.149-11.703.39.922.433 1.815.433 1.815s4.681-2.787 4.185-13.121c0 0 .837.837 2.291 1.234 1.44.404 2.263-.05 2.263-.05s-2.057-2.773-.688-9.028c.801-3.752-2.149-3.83-2.149-3.83s1.262-.844 1.752-2.433c.837-2.794-.688-6.518-.688-6.518s-1 2.766-4.071 1.433c0 0 1.518-1.794.319-5.106-.234.787-.865 1.553-1.766 2.078-1.567.915-3.369.716-4.042-.425-.582-1.007-.1-2.397 1.071-3.348-.44-.121-2.376-.603-4.149-.092-1.887.553-4.752 2.454-4.752 2.454s-1.951-1.524-.979-3.745c0 0-2.943-.305-3.936 3.1-.433 1.482-1.681 1.624-1.681 1.624s-.227-2.369-2.362-3.028c-.035-.021-3.964 2.787-3.936 8.085-1.44.44-2.029 2.114-2.17 2.965-1.809 10.809-4.603 5.681-4.567 5.865.603 5.447 4.312 4.667 4.312 4.667-.655 3.787-4.585 1.772-4.585 1.772zm22.76-4c.716-1.83 2.454-1.652 2.454-1.652h.014l-.291.865c.007.809.688 1.454 1.482 1.439.816-.014 1.447-.688 1.433-1.489l-.163-.638 2.617.156h.17l-.078.17-.085.163c-.128.27-1.284 2.426-3.525 2.532l-.156.021c-1.433.021-2.78-1.035-2.78-1.035s-.206-.106-.511 1.603c-.212 1.354-1.078 1.333-1.078 1.333s-.092-2.042.497-3.468zm-10.312-5.802l.007-.198.014-.185.156.099 2.348 1.156-.482.475c-.404.688-.177 1.582.511 2 .688.412 1.588.178 2-.511l.184-.9h.015s1.588.73 1.305 2.674c-.22 1.525-1.305 3.263-1.305 3.263s-.766-.412-.263-1.709c.582-1.617.34-1.638.34-1.638s-1.681.241-2.915-.497l-.113-.085c-1.916-1.22-1.838-3.667-1.802-3.944zm1.028 14.838c-1.497-2.298-1.341-3.255-1.341-3.255s.412.667 1.497 1.319c.412.234 3.653 2.014 4.468-.518.213-.639-.248-1.057-.652-1.39l-.745-.617-.021-1.291s.858 1.27 2.447 1.639c1.667.375 3.128-.277 3.128-.277s.312 1.199-1.042 1.298c-.73.036-1.802.021-2 .908-.603 2.979 3.773 2.596 5.092 2.468 1.042-.099 1.532-.213 1.532-.213-.95 1.213-2.532 1.341-4.206 2.589l-.085.163c-1.866 1.397-1.688 3.688-2.17 5.22-.589 1.879-2.376 2.709-4.255 2.191-1.631-.383-3.106-1.468-3.142-3.199-.023-1.992 3.438-4.411 1.495-7.035zm121.251 10.317c-1.596-.766-4.163-.439-7.234-.113-2.411.248-5.142.511-7.9.227-18.561-1.858-20.058-8.681-19.312-8.22 0 0 3.992 2.028 10.063 3.213 16.54 3.22 16.675-5.844 16.675-5.844s.553.404.716 1.404c.171 1.163-.616 2.745-.616 2.745s2.07-1.539 2.07-3.837c0-3.44-2.248-4.646-2.248-4.646s.461-.05 1.283.667c.83.709 1.305 2.461 1.305 2.461s.873-2.866-2.312-5.525c-8.88-7.426-28.079-5.965-35.47-7.021-6.482-.929-8.177-3.596-7.701-6.348.787-4.518 6.844-4.631 6.844-4.631-.326 4.922 5.795 8.149 11.61 6.858 3.248-.723 5.213-1.83 7.518-3.688 1.737-1.39 3.114-2.036 3.114-2.036-2.994-.574-4.901.61-6.1 1.114-1.291.539-2.625.943-4.021 1.057-3.617.305-3.965-2.106-3.965-2.106s2.688 1.284 6.185.468c10.071-2.348 6.787-11.752 6.787-11.752s-.886 3.554-4.042 4.88c-2.979 1.234-5.447-.716-5.447-.716s4.872.496 5.915-3.319c.589-2.163-1.468-3.291-1.468-3.291s.446 4.852-11.192 4.135c-5.085-.319-5.071 4.029-5.071 4.029s-.822.014-2.894.624c-1.887.546-3.185 1.454-3.185 1.454.518-1.404 2.568-2.078 2.568-2.078-2.695 0-4.938 2.078-4.938 2.078l.391-1.277c-.085.156-3 2.575-3.652 7.738-.341 2.589.439 5.255 2.135 7.242 2.794 3.284 8.135 3.702 11.369 3.958 4.794.369 12.695.794 19.674 1.751 9.455 1.298 10.021 4.454 8.773 6.468-1.376 2.263-5.589 2.312-12.135 0-6.568-2.298-19.731-7.057-29.199-7.021-25.008.106-36.222 10.71-43.69 8.738.213 9.575-6.646 13.398-6.646 13.398-1.036-5.277-.312 4.326-10.482 9.319 0 0-.078-2.383-1.128-2.589-1.369-.284-3.34 3.447-3.34 3.447-2.177-1.439-2.858-3.688-2.858-3.688l-.525 1.071s-1.695-1.064-2.064-2.873c-.369-1.844.185-3.227-.631-3.263-.937-.042-2.929 1.312-2.929 1.312s.347-3.164-1.106-6.447c-.802-2.106-1.972-4.028-2.156-6.312-8.057-1.511-17.873-4.738-18.085-7.837-.213-2.908.305-5.865-2.922-6.809l.1.291-.078.979-1.631.425-.667-1.085-.1-.227c-1.858 1.092-1.099 4.433-1.099 4.433-1.461-1.489-4.532-4.22-6.39-2.482l.284.354.198 1.028c-.17.667-.865 1.099-1.546.929l-.965-.844c-1.972 2.773 2.085 6.079 2.085 6.079-.603.305-3.83.95-3.844 3.284l1.348-.525.929.276.092 1.681-1.17.44-.511.113c1.142 1.617 2.908 1.603 4.014 1.127 5.17-2.199 6.482-.958 8.738-.461 1.603.34 3.042-.042 3.071.901.014.773-.738 1.348-3.142 1.05 0 0 .582 1.525 3.206 1.815 3.958.433 5.199-.539 5.724.149.957 1.263-2.852 1.745-2.852 1.745 3.106 2.369 7.213.546 7.213.546.212 1.383-2.731 1.674-2.731 1.674s1.17 1.305 3.49.73c.872-.22 1.638-.631 1.638-.631s-.695 2.291 1.333 3.461c0 0 1.156-3.908 2.773-2.9.802.482.908 1.305.546 1.773-.511.667-1.27.56-1.27.56.468 1.192 2.553 1.192 2.553 1.192s-2.525 1.56-9.561 1.454c-9.334-.766-8.795-1.809-11.064-4.56-1.823-2.404-2.879-2.546-3.709-2.185l.404.801-.092.972-1.617.433-.589-.872c-1.149 1.142-.936 2.17-.404 3.121-.461-.078-4.865-.709-5.646 1.319l1.561.192.737.751c.234.66-.099 1.383-.766 1.617l-1.348-.191-.646-.17-.028.213c-.05 3.014 4.348 3.092 6.518 3.185-.922.553-1.915 1.376-1.681 2.695l1.227-.539 1.028.234.241 1.787-1.199.546c2.88 1.901 5.029-.738 6.071-1.333 3.036-1.73 7.695-1.532 8.88-.255.879.951-1.064 2.042-1.064 2.042 2.149.277 3.724-1.042 3.724-1.042s-.418.475-.582 1.475c-.249 1.44.723 2.206.723 2.206 1.78-3.426 3.142-3.199 3.823-2.553.825.769-.835 1.94-.835 1.94 2.064 1.042 4.731-1.078 4.731-1.078s-.192 1.759.809 2.716c1.354-2.468 4.326-2.241 6.291-2 0 0-2.815 1.922-1.723 4.333 1.766-1.709 3.972-2.333 6.965-1.965 6.22.752 17.993 4.284 38.2-14.468 13.66-12.667 22.781-11.043 22.781-11.043 12.135 9.851 35.447 10.028 41.42 10.476 2.879.206 2.922 2 1.659 3.539-.794.943-1.837 1.177-1.9 1.191 0 0-5.737-2.376-7.858.815l1.113.015.717.524-.419 1.461-1.155.015-.49-.057c.256 1.057 1.078 1.376 1.646 1.518l.171.177c-1.221 1.163-1.199 2.369-1.149 2.766l.858-.412.857.142.299 1.489-1.008.546-.312.099c.61.958 1.695 1.539 3.362.894 1.284-.475 1.632-.752 1.716-.879-.135.262-.566 1.206-.105 1.95l.198.263.688-1.255.814-.326 1.029 1.113-.596.986-.263.34h1.461c1.788-.354 3.178-1.879 3.575-5.66.148-1.276.426-1.979.744-2.333.596-.681 1.957-1.177 1.957-1.177s.568 1.497-.41 2.603c3.531.574 4.006-4.979 4.006-4.979s.369 1.071 1.164 1.794c.779.724 1.887.879 1.887.879-.646-3.958.922-5.312 1.666-5.497 1.49-.369 1.439 1.433 1.439 1.433s1.299-.865 1.021-2.631c-.148-1.007-.68-1.972-.68-1.972s1.248-.617 1.914 1.064c0 0 1.334-2.149.113-3.34l.66-.071.596.496c-.001.001.609-2.85-2.235-4.226z" fill="#2B57AC"/><path d="M166.566 82.022l1.156-.007.419-1.454-.716-.532-1.114-.007-.439.127c-1.773.61-2.007 2.05-2.135 2.837 0 0 .829-1.064 2.341-1.015l.488.051zm1.032 4.008l-.852.404-.482.404c-1.305 1.354-.851 2.73-.596 3.497 0 0 .263-1.426 1.773-2.028l.312-.106 1.007-.546-.298-1.497-.864-.128zm6.509 2.919l-.809.326-.688 1.255-.028.127c-.426 1.837.694 2.78 1.298 3.291 0 0-.49-1.284.404-2.561l.262-.348.596-.979-1.035-1.111z" fill="#EA1F29"/><use xlink:href="#a" x="26" y="23"/><use xlink:href="#a" x="100" y="23"/><use xlink:href="#a" x="175" y="23"/><use xlink:href="#a" x="26" y="91"/><use xlink:href="#a" x="100" y="91"/><use xlink:href="#a" x="175" y="91"/><use xlink:href="#a" x="27" y="159"/><use xlink:href="#a" x="100" y="159"/><use xlink:href="#a" x="174" y="159"/><use xlink:href="#a" x="100" y="217"/></svg>