<svg width="142" height="47" viewBox="0 0 142 47" xmlns="http://www.w3.org/2000/svg"><path d="M104 31v15.764h5.602v-15.764h-5.602zm0-6v3.557h5.602v-3.557h-5.602zm-19.034 17.301v-3.438c-2.312.889-2.664 1.033-2.664 2.281 0 .59 0 1.567.058 1.774.145.653.617.862 1.184.862 1.422.001 1.422-.944 1.422-1.479m5.596-7.113l-.004 11.262h-5.593v-1.396c-.92.743-2.166 1.775-4.414 1.775-1.101 0-1.926-.289-2.485-.648-1.311-.889-1.367-2.104-1.367-3.645 0-3.672 1.127-4.352 5.219-5.334 1.92-.44 2.128-.502 3.048-.914 0-1.603 0-1.748-.291-2.075-.271-.265-.629-.296-.956-.296-1.183 0-1.183.799-1.183 2.222h-5.183c0-2.399 0-3.771 1.889-4.86 1.164-.686 2.789-.976 4.804-.976.712 0 2.077 0 3.412.41 3.104.98 3.104 3.234 3.104 4.475zm-90.215-9.659v20.92h5.864v-8.649h4.977v-3.999h-4.977v-4.242h5.393v-4.03h-11.257zm12.612 16.144c0 1.547.12 3.235 2.014 4.241.951.535 2.314.889 5.335.889.945 0 3.168 0 4.679-.919 1.895-1.126 1.895-2.935 1.895-4.476v-6.045c0-2.065 0-5.125-7.168-5.125-1.332 0-2.638.151-3.585.422-3.17.856-3.17 3.287-3.17 4.652v6.361zm8.385-.171c0 .705 0 1.718-1.391 1.718-1.457 0-1.457-1.069-1.457-1.655v-6.201c0-.504.034-1.447 1.428-1.447 1.361 0 1.42.976 1.42 1.541v6.044zm15.753-10.842v11.464c0 .587-.059 1.563-1.215 1.563-1.183 0-1.183-1.008-1.183-1.563v-11.464h-5.572v11.137c0 1.271 0 5.006 4 5.006 2.368 0 3.319-1.184 3.97-1.953v1.601h5.597v-15.79h-5.597v-.001zm21.59 5.031c0-1.424-.025-2.758-.799-3.79-.8-1.101-2.103-1.573-3.464-1.573-2.227 0-3.26 1.303-3.735 1.9v-1.568h-5.598v15.789h5.598v-11.293c0-.441 0-1.48 1.243-1.48 1.127 0 1.127 1.008 1.127 1.48v11.293h5.628v-10.758zm10.364-10.162v6.838c-.447-.818-1.334-2.008-4.003-2.008-3.614 0-4.148 2.342-4.148 4.766v6.641c0 1.953 0 5.006 4.387 5.006 2.575 0 3.317-1.329 3.764-2.16v1.838h5.629v-20.92h-5.629v-.001zm0 16.709c0 .416 0 1.335-1.215 1.335-1.303 0-1.303-.774-1.303-1.272v-7.258c0-.447 0-1.273 1.246-1.273 1.272 0 1.272.857 1.272 1.273v7.195zm25.224-16.74v5.162h-2.338v3.016h2.338v8.858c0 1.101.062 2.28 1.1 3.147.889.768 1.953.768 2.93.768h4.086v-3.203c-1.858-.058-1.984-.058-2.274-.297-.353-.295-.353-.742-.353-1.095v-8.179h2.486v-3.016h-2.486v-5.162h-5.489v.001zm18.002 16.175c0 1.547.124 3.235 2.014 4.241.956.535 2.316.889 5.338.889.95 0 3.172 0 4.682-.919 1.892-1.126 1.892-2.935 1.892-4.476v-6.045c0-2.065 0-5.125-7.165-5.125-1.335 0-2.638.151-3.588.422-3.172.856-3.172 3.287-3.172 4.652v6.361h-.001zm8.385-.171c0 .705 0 1.718-1.391 1.718-1.454 0-1.454-1.069-1.454-1.655v-6.201c0-.504.032-1.447 1.427-1.447 1.361 0 1.418.976 1.418 1.541v6.044zm21.294-5.811c0-1.424-.026-2.758-.795-3.79-.804-1.101-2.103-1.573-3.47-1.573-2.221 0-3.254 1.303-3.731 1.9v-1.568h-5.597v15.789h5.597v-11.293c0-.441 0-1.48 1.245-1.48 1.122 0 1.122 1.008 1.122 1.48v11.293h5.629v-10.758z" fill="#12365B"/><path d="M80.427 17.57v-3.442c-2.31.893-2.668 1.039-2.668 2.285 0 .596 0 1.573.056 1.775.151.654.629.862 1.186.862 1.426 0 1.426-.95 1.426-1.48m5.598-7.113l.004 11.256h-5.603v-1.391c-.924.743-2.164 1.781-4.418 1.781-1.091 0-1.921-.295-2.487-.653-1.304-.889-1.366-2.104-1.366-3.646 0-3.676 1.132-4.351 5.217-5.332 1.922-.442 2.13-.504 3.054-.919 0-1.6 0-1.75-.302-2.072-.264-.265-.622-.296-.943-.296-1.189 0-1.189.8-1.189 2.222h-5.183c0-2.399 0-3.764 1.896-4.865 1.158-.68 2.783-.976 4.797-.976.717 0 2.077 0 3.417.415 3.106.98 3.106 3.235 3.106 4.476zm-85.678-9.658v20.915h5.866v-8.65h4.977v-3.999h-4.977v-4.237h5.391v-4.029h-11.257zm12.612 16.149c0 1.541.12 3.224 2.014 4.231.951.535 2.314.894 5.333.894.95 0 3.17 0 4.683-.918 1.896-1.123 1.896-2.935 1.896-4.473v-6.048c0-2.072 0-5.125-7.171-5.125-1.332 0-2.638.15-3.585.42-3.17.852-3.17 3.287-3.17 4.647v6.372zm8.385-.177c0 .706 0 1.718-1.394 1.718-1.454 0-1.454-1.069-1.454-1.661v-6.194c0-.504.034-1.449 1.425-1.449 1.364 0 1.423.976 1.423 1.542v6.044zm7.607.177c0 1.541.117 3.224 2.014 4.231.948.535 2.312.894 5.333.894.95 0 3.173 0 4.681-.918 1.898-1.123 1.898-2.935 1.898-4.473v-6.048c0-2.072 0-5.125-7.171-5.125-1.334 0-2.637.15-3.588.42-3.167.852-3.167 3.287-3.167 4.647v6.372zm8.383-.177c0 .706 0 1.718-1.391 1.718-1.454 0-1.454-1.069-1.454-1.661v-6.194c0-.504.033-1.449 1.422-1.449 1.363 0 1.423.976 1.423 1.542v6.044zm9.237-16.003v5.161h-2.342v3.016h2.342v8.859c0 1.095.059 2.284 1.096 3.141.887.769 1.957.769 2.93.769h4.092v-3.199c-1.864-.057-1.983-.057-2.284-.296-.354-.296-.354-.742-.354-1.095v-8.179h2.488v-3.016h-2.488v-5.161h-5.48zm10.07 20.947h5.603v-1.866c.529.8 1.454 2.192 4.086 2.192 1.776 0 3.38-.8 3.915-2.576.234-.862.234-2.284.234-2.726v-5.691c0-2.103 0-5.54-4.326-5.54-2.606 0-3.437 1.454-3.909 2.279v-6.988h-5.603v20.916zm8.209-4.322c0 .737 0 1.594-1.334 1.594-1.246 0-1.272-.914-1.272-1.511v-7.404c0-.561 0-1.485 1.303-1.485 1.121 0 1.303.711 1.303 1.454v7.352zm23.15-16.393v20.915h5.572v-20.915h-5.572zm8 0v20.915h5.571v-20.915h-5.571z" fill="#0CB25A"/><path d="M122.646 21.335l.014.06.535 2.19.127.53.064.226.02.022.248.137.647.314 1.083.436 1.163.338 1.175.238 1.147.123.67.004.198-.191.385-.398 1.449-1.524.051-.084-.051-.062-2.773-2.195-.77-.604-.373-.287-5.009.727zm13.766-4.157l-.857 5.01 2.354.178.505.039.236.008.154-.135.379-.381.808-.933.713-1.008.628-1.084.529-1.173.127-.314.09-.318-.141-.311-.179-.318-1.12-2.078-4.226 2.818zm-9.141-8.076l-.506.3-.424.408-.318.493-.15.501-.027.507.055.544.142.559.483 1.101.643 1.051.686.924.58.699.353.38.202-.052 1.716-.628 1.004-.483 1.004-.61.45-.356.404-.389.341-.432.258-.474.117-.389.043-.403-.142-.817-.168-.371-.22-.337-.278-.286-.318-.215-.249-.113-.253-.061-.15-.033-.083-.014-.071-.01-.394-.023-.623.056-.597.151-.314.112-.183-.192-.366-.386-.652-.492-.783-.333-.141-.018-.084-.005-.417-.014-.57.15zm-10.44 1.327l-.071.352-.141 1.361-.014 1.336.142 1.407.291 1.388.163.508.613.295 2.131 1.041h.004l1.304-3.518.295-.793.155-.445-.014-.052-1.586-3.227-.469-.934-.183-.356-2.62 1.637zm17.653-7.508v.013l.033.104.973 3.452.252.919.126.389.229.141.633.333 3.627 1.903.914-2.236.146-.324.103-.319-.14-.328-.188-.342-.629-1.018-.685-.929-.745-.853-.812-.798-.571-.474-.267-.178-2.999.545zm-6.894-2.97l-.572.103-.967.24-.947.319-1.078.455-1.051.562-.858.559-.407 3.029-.006.015 4.01.169.766.022h.295l.264-.238.697-.685 2.675-2.608-2.38-2.013-.441.071z" fill="#333"/></svg>