<svg width="160" height="140" viewBox="0 0 160 140" xmlns="http://www.w3.org/2000/svg"><path d="M45.526 20.055l1.136 3.599s.38.761-.943 1.328l-5.842 2.465-.566 3.029s-.189 1.898-1.888 2.659l-3.58 2.842s-3.015 1.326-.566 4.361l3.395 3.787 1.697-.188s6.034-3.794 8.865-.571c0 0 2.831 2.841-2.074 4.17 0 0-3.767 1.328-5.464.571 0 0-2.074 4.927 3.771 8.145 0 0 0-4.927 6.412-3.982 0 0-7.544 7.396-1.881 17.057 0 0 1.32-6.635 3.958-6.822 0 0-8.296 12.89 1.89 21.792 0 0-2.078-11.367 3.77-13.644 0 0-6.597 12.317 2.268 18.002 0 0-.948-11.75 3.014-14.783 0 0-2.821 24.257-3.39 26.155 0 0 0 2.086-1.506 2.465 0 0-7.542-1.137-9.614 6.827l18.29-.007s-.566-1.898 2.451-5.686c0 0-2.265-3.6 7.161-16.299 0 0 .183-10.615 3.011-13.267 0 0 2.265 6.443-.749 14.023l10.748-1.331-.754 3.033s10.562-4.361 15.083-9.673c0 0 5.28-5.686 10.558-6.067 0 0-7.539 4.361-8.672 7.585 0 0 3.962 9.284 10.565 14.587l-3.393 5.688s-11.315-2.459-11.312 7.396l15.653-.195s2.448-7.393 9.614-10.049c0 0-1.32-5.872.75-10.425 0 0-9.431-4.73-8.678-12.88 0 0 3.962 9.281 18.11 14.208 0 0 5.845 2.459 7.358 6.252 0 0-1.697 2.462-.94 4.735 0 0-9.808.385-10.371 7.964l16.781-.006s.189-6.064 5.278-9.857c0 0-2.457-8.526-1.326-10.991 0 0-9.431-6.252-8.111-11.558 0 0-.191-9.094-3.777-14.593 0 0 13.949-7.772 7.72-23.314 0 0-5.471-9.472-21.501-7.57 0 0-8.859 0-22.815 4.364 0 0-12.066 1.522-9.618-7.008 0 0 2.258-5.874 16.783-5.691 0 0 14.707-1.331 17.727.182 0 0 4.714 8.148 15.273 3.977 0 0 5.471-2.277 6.22-4.364 0 0-1.691.761-3.201.003 0 0 8.296-4.93 8.101-11.565 0 0-7.539 5.88-12.063 4.935 0 0 2.828-1.708 2.073-4.363 0 0-3.771 2.087-6.034 2.09 0 0-6.034-.188-9.993 4.549 0 0-18.483-3.402-28.665.58 0 0-18.854 5.125-12.818 17.251 0 0 5.285 11.179 29.23 3.969 0 0 21.497-5.502 22.631 5.678 0 0 .191 5.306-5.091 7.204 0 0-6.037-7.765-18.481-6.625 0 0-9.239 1.326-17.16 4.744 0 0-9.802 4.361-15.464-3.405 0 0 5.094-.385 7.544 3.026 0 0-.003-6.064-7.168-9.281 0 0-4.337-.378-5.847-3.599 0 0 3.584-.759 5.281 1.894 0 0-.568-7.011-9.248-11.934 0 0-8.485-2.083-6.411-3.223 0 0 2.64-1.136 4.337.758 0 0 .374-4.166-10.562-5.112l-16.971-.004zm-.737 40.13s-2.071 6.635 2.835 11.752c0 0-3.962 3.414-3.394 6.253 0 0-8.111-4.358-17.726.008 0 0-9.999-7.577-19.801 1.331l-.943-.376s-1.134-6.064 2.071-9.857l7.164-3.414s6.038 3.029 14.145.373l15.649-6.071z" fill="#134B8F"/><path d="M45.909 30.263v3.599s1.131-1.898 5.28-1.14c.001 0 .001-2.462-5.28-2.459" fill="#fff"/><path d="M4.441 83.72h2.641l1.32 6.251-4.521 4.743-2.455-1.705c.001 0-.376-5.307 3.015-9.288zm.571 19.331l1.32-2.463 4.715 1.513 3.773 3.979-.373 1.894s3.581.755 5.468 0l4.334-6.825 4.902-.571 1.884-5.495-3.771-4.548.187-5.686.751-1.134s-3.021-3.411-4.905-4.358l-.566 1.516-5.468 2.277-5.471-2.086 1.131-3.221s16.781-5.309 20.561 14.585c0 0 1.134 7.772-6.027 13.839l15.464 3.214-42.055.017 8.486-2.089-1.134-1.137-3.208-3.22zm6.411-12.132l6.032-4.739 6.604 4.733-2.263 7.583-7.919.003-2.454-7.58z" fill="#E24F3B"/><path d="M160 114.184v-2.979h-160v2.979h160M160 140v-2.979h-160v2.979h160" fill="#058449"/><path d="M160 116.17h-160v18.865h160v-18.865z" fill="#058449"/><path d="M7.798 130.879c-.321-.027-.64-.065-.965-.065-.319 0-.637.038-.957.065l-.003-7.925c-.909 0-1.718.092-2.389.18.027-.177.065-.359.065-.55 0-.182-.038-.365-.065-.544h6.605c-.027.177-.065.359-.065.542 0 .191.038.373.065.553-.757-.088-1.511-.18-2.295-.18l.004 7.925zm3.661-8.844c.321.027.64.065.965.065.319 0 .64-.038.96-.065v3.492c.656.027 1.313.065 1.963.065.654 0 1.307-.038 1.963-.065l-.003-3.492c.322.027.64.061.964.061.321 0 .64-.038.961-.061l.003 8.837c-.321-.025-.64-.062-.961-.062-.322 0-.644.037-.96.065l-.003-4.319c-.656-.024-1.309-.065-1.963-.065-.65.003-1.307.042-1.963.065l.003 4.319c-.319-.024-.64-.065-.96-.065-.324 0-.644.042-.965.065l-.004-8.84zm14.758-.003c-.027.18-.065.376-.065.556 0 .18.038.373.065.553-.784-.102-1.655-.206-2.961-.18v2.769h1.333c.578 0 1.105-.052 1.577-.117-.024.18-.059.373-.059.556 0 .18.037.373.059.556-.473-.065-.998-.117-1.577-.117h-1.333v3.274c1.309-.01 2.181-.075 2.961-.182-.024.182-.061.373-.061.556 0 .181.038.372.061.554h-4.879l-.007-8.772 4.886-.004zm7.015 8.837c-.317-.025-.64-.065-.961-.065-.319.003-.642.04-.96.065l-.003-8.837 4.883-.003c-.025.181-.062.373-.062.556 0 .177.037.373.062.55-.781-.088-1.613-.177-2.961-.177l.003 2.77h1.359c.498 0 1.012-.052 1.551-.117-.023.181-.065.376-.065.556 0 .18.042.373.065.556-.539-.052-1.053-.117-1.563-.117h-1.347v4.264h-.001zm2.809-1.038c0-.564.469-1.055 1.034-1.055.566 0 1.062.477 1.062 1.055 0 .594-.474 1.059-1.062 1.059-.576-.001-1.034-.491-1.034-1.059zm7.805-2.444l-1.145-3.004-1.203 3.004h2.349zm-2.696.878c-.331.983-.652 1.78-.896 2.671-.205-.016-.397-.038-.604-.038-.204 0-.411.023-.612.038l3.661-8.933c.167.028.321.038.487.038.167 0 .321-.01.487-.038l3.581 8.954c-.373-.024-.733-.065-1.105-.065-.367.003-.729.041-1.105.065-.293-.95-.56-1.828-.909-2.691h-2.986v-.001zm7 1.563c0-.566.477-1.055 1.04-1.059.566 0 1.067.479 1.067 1.059 0 .591-.474 1.058-1.062 1.058-.58 0-1.041-.491-1.044-1.058m8.491-3.458c.28-.018.573-.028.846-.093.833-.232 1.138-.964 1.138-1.752 0-1.031-.526-1.711-1.189-1.711h-.799l.004 3.557zm-.096 4.515c-.319-.027-.642-.065-.961-.065-.321 0-.64.038-.961.065l-.003-8.84h3.156c1.781 0 2.741.718 2.741 2.174 0 2.298-1.665 2.789-3.972 2.789v3.878zm7.072-4.907c1.347.127 2.014-.516 2.014-1.845 0-.18-.014-.373-.063-.643-.208-1.068-1.169-.964-1.953-.964l.003 3.453zm-1.925-3.865h2.728c.604 0 1.539-.03 2.08.256.732.385 1.116.966 1.116 1.843 0 1.264-.806 2.062-2 2.322.705 1.236 1.503 2.421 2.27 3.62l.5.798c-.381-.03-.77-.062-1.164-.065-.386.003-.77.04-1.155.065l-1.527-2.705-.836-1.431h-.087v4.139c-.319-.028-.64-.065-.96-.065-.321 0-.64.037-.961.065l-.004-8.841zm12.567-.003c-.027.177-.065.373-.065.552 0 .18.038.376.065.557-.784-.106-1.655-.206-2.963-.181v2.77h1.335c.58 0 1.105-.052 1.577-.117-.024.182-.065.373-.065.556 0 .18.041.373.065.552-.471-.062-.998-.115-1.577-.115h-1.335l.003 3.272c1.309-.013 2.181-.078 2.963-.181-.027.181-.065.375-.065.554 0 .182.038.373.065.556h-4.886l-.003-8.775h4.886m9.457-.004c.182.024.362.065.539.065.179 0 .371-.041.553-.065.401 3.463.694 6.273 1.131 8.837-.357-.025-.705-.062-1.062-.062-.357 0-.678.037-1.04.062-.101-2.048-.362-4.018-.553-6.002-.972 1.971-1.935 3.941-2.844 5.939-.166-.024-.322-.038-.488 0-.82-1.776-1.833-3.773-2.81-5.797-.297 2.265-.498 4.057-.535 5.862-.205-.025-.398-.062-.606-.062-.201 0-.383.037-.587.062.46-2.591.87-5.577 1.306-8.84.176.027.345.065.525.065.182 0 .357-.038.539-.065.923 2.026 1.938 4.033 2.949 6.057.923-1.833 2.011-3.852 2.983-6.057m3.632-.003c.324.027.644.065.965.065.321 0 .64-.038.961-.065l.003 8.84c-.321-.028-.64-.062-.961-.062-.319 0-.644.037-.964.062l-.004-8.84m8.987-.004c-.027.181-.065.373-.065.554 0 .181.041.375.065.554-.784-.102-1.652-.205-2.961-.177v2.77l1.333-.003c.578 0 1.105-.052 1.577-.115-.024.178-.059.373-.059.556 0 .177.037.369.063.55-.476-.059-1.002-.112-1.577-.112h-1.337l.003 3.274c1.31-.014 2.178-.079 2.961-.182-.027.182-.065.375-.065.556 0 .177.038.373.065.552l-4.883.003-.003-8.779h4.883m3.888 4.077c1.347.13 2.009-.513 2.009-1.845 0-.177-.014-.369-.065-.641-.205-1.072-1.168-.969-1.949-.969l.004 3.455zm-1.928-4.146l2.731-.003c.604 0 1.537-.025 2.078.256.73.387 1.114.966 1.114 1.843.003 1.264-.808 2.065-2 2.322.705 1.239 1.503 2.421 2.273 3.619l.501.802c-.384-.028-.77-.065-1.168-.065-.383 0-.767.037-1.157.065l-1.523-2.705c-.194-.349-.553-.943-.834-1.431h-.089v4.136c-.324-.025-.64-.065-.965-.065-.317.003-.637.04-.96.065l-.003-8.838zm13.293 7.912c1.114 0 2.064-.093 2.932-.182-.024.178-.062.373-.062.556 0 .177.038.373.062.552l-4.857.003v-8.776c.317.024.64.065.96.065.321-.003.64-.042.961-.065l.004 7.848m9.155-7.85c-.024.177-.062.372-.065.55.003.182.042.378.068.559-.78-.106-1.655-.209-2.963-.181l.003 2.769h1.333c.58 0 1.102-.051 1.577-.116-.027.18-.065.372-.065.554 0 .177.038.373.065.554-.476-.064-.998-.116-1.577-.116h-1.333v3.272c1.309-.016 2.181-.079 2.961-.182-.023.182-.061.373-.061.556 0 .181.038.373.061.556h-4.881l-.003-8.775h4.881m5.318 5.357l-1.144-3.002-1.202 3.002h2.346zm-2.695.789c-.335.977-.65 1.776-.896 2.666-.205-.013-.398-.037-.602-.037-.204 0-.409.024-.614.037l3.663-8.932c.166.027.319.042.488.042.166 0 .317-.016.487-.042l3.58 8.956c-.371-.027-.732-.064-1.105-.064-.371 0-.733.037-1.1.064-.295-.955-.566-1.827-.909-2.69h-2.992zm15.63 2.035c-1.151.324-2.292.584-3.421.584-2.705 0-5.118-1.367-5.118-4.392-.003-3.209 2.33-4.845 5.294-4.845 1.102 0 2.126.229 3.091.785-.182.412-.307.863-.362 1.3h-.177c-.588-.863-1.515-1.314-2.523-1.314-2.143 0-3.196 1.947-3.196 4.111 0 2.243 1.131 3.582 3.079 3.582.64 0 1.105-.181 1.41-.359v-3.018c.322.025.64.065.962.065.319 0 .644-.04.96-.065v3.566m1.566-8.285c.322.03.637.065.962.065.319 0 .64-.04.96-.065v3.656c0 .713-.024 1.771.093 2.439.115.634.218 1.029.681 1.482.409.386.896.554 1.462.554 1.189 0 1.833-.441 2.28-1.561.231-.568.231-2.035.231-2.666l-.003-3.904c.172.025.348.038.514.038.169 0 .348-.013.516-.038l.003 4.586c-.042 1.468-.028 2.81-1.359 3.735-.695.503-1.579.686-2.424.686-1.552.003-3.232-.486-3.706-2.165-.144-.501-.208-1.068-.208-1.582v-5.259m14.153.089c-.028.182-.065.378-.065.556 0 .181.037.375.065.554-.784-.102-1.656-.205-2.963-.18l.003 2.772h1.333c.576-.003 1.103-.054 1.577-.116-.024.177-.065.373-.065.55 0 .181.041.378.065.559-.474-.065-1-.119-1.577-.119l-1.333.003v3.271c1.307-.013 2.181-.078 2.963-.18-.028.177-.065.373-.065.556 0 .177.037.373.065.552l-4.89.003-.003-8.776 4.89-.004" fill="#fff"/><path d="M41.357 6.196c.881 0 1.597-.718 1.597-1.609 0-.885-.719-1.608-1.6-1.608-.884 0-1.603.723-1.603 1.612.003.885.719 1.605 1.606 1.605zm8.671-2.659c.885 0 1.6-.718 1.6-1.608 0-.887-.715-1.605-1.6-1.605-.884 0-1.603.718-1.603 1.608.004.887.719 1.605 1.603 1.605zm9.808-.189c.881 0 1.599-.723 1.599-1.611 0-.889-.72-1.608-1.601-1.608-.881.003-1.599.723-1.599 1.608-.001.891.716 1.611 1.601 1.611zm9.431 2.838c.881 0 1.597-.718 1.597-1.611 0-.885-.719-1.606-1.6-1.606-.882 0-1.599.72-1.599 1.609-.001.889.715 1.608 1.601 1.608zm-26.782.673l2.834 11.752 19.048-.007 3.765-11.562-6.031 5.118-2.454-7.011-4.148 7.204-5.094-7.389-2.448 7.392-5.472-5.495z" fill="#E24F3B"/></svg>