<svg width="320" height="48" viewBox="0 0 320 48" xmlns="http://www.w3.org/2000/svg"><path d="M120.928 40.902h-1.729l-.633 2.783c-.051.223-.076.408-.076.557 0 .43.242.645.727.645.215 0 .566-.102 1.055-.305v1.318c-.422.145-.996.217-1.723.217-.477 0-.859-.148-1.148-.445-.289-.297-.434-.684-.434-1.16 0-.156.018-.311.053-.463l.709-3.146h-.727l.252-1.178h.727l.246-1.283 1.676-.609-.439 1.893h1.717l-.252 1.178zm6.456 1.26l-.721 3.838h-1.506l.738-3.896c.023-.125.035-.252.035-.381 0-.586-.293-.879-.879-.879-.527 0-1.002.223-1.424.668l-.832 4.488h-1.494l1.594-8.848h1.459l-.48 2.953c.52-.332 1.068-.498 1.646-.498.602 0 1.073.168 1.415.504.342.336.513.805.513 1.406 0 .199-.021.414-.064.645zm2.226 1.113l-.012.264c0 .438.13.773.39 1.008.26.234.62.352 1.081.352.246 0 .529-.067.85-.202.32-.135.572-.286.756-.454l-.17 1.541c-.496.223-1.102.334-1.816.334-.773 0-1.4-.244-1.881-.732-.48-.488-.721-1.158-.721-2.01 0-1.078.347-1.976 1.04-2.692.693-.717 1.601-1.075 2.722-1.075.66 0 1.195.14 1.605.419.41.279.615.679.615 1.198 0 .707-.306 1.262-.917 1.664-.611.402-1.364.604-2.259.604-.438 0-.865-.072-1.283-.217zm.281-1.107c.254.074.529.111.826.111.531 0 .98-.081 1.348-.243.367-.162.551-.396.551-.7 0-.34-.371-.51-1.113-.51-.293 0-.592.128-.896.384-.305.256-.543.575-.715.958zm12.18-.727c-.469-.41-.898-.615-1.289-.615-.242 0-.452.056-.63.167-.178.111-.267.261-.267.448 0 .23.212.453.636.668.424.215.749.386.976.513.227.127.412.299.557.516.145.217.217.466.217.747 0 .691-.259 1.236-.776 1.635-.518.398-1.179.598-1.983.598-.688 0-1.359-.193-2.016-.58l.773-1.33c.488.461.967.691 1.436.691.297 0 .542-.074.735-.223.193-.148.29-.35.29-.604 0-.211-.184-.412-.551-.604-.367-.191-.691-.366-.973-.524-.281-.158-.495-.352-.642-.58-.146-.229-.22-.481-.22-.759 0-.609.243-1.095.729-1.456s1.083-.542 1.79-.542c.484 0 1.113.164 1.887.492l-.68 1.342zm6.111 4.564h-1.465l.088-.457c-.523.379-1.18.568-1.969.568-.539 0-.962-.154-1.269-.463-.307-.309-.46-.736-.46-1.283 0-.172.021-.373.064-.604l.756-4.043h1.488l-.744 3.984c-.031.168-.047.311-.047.428 0 .508.285.762.855.762.465 0 .854-.151 1.169-.454.314-.303.511-.667.589-1.093l.645-3.627h1.471l-1.172 6.281zm2.835-.176l-.469 2.631h-1.465l1.266-6.797c.047-.25.07-.502.07-.756 0-.344-.035-.689-.105-1.037l1.43-.258c.055.148.1.348.135.598.543-.402 1.082-.604 1.617-.604 1.676 0 2.514.812 2.514 2.438 0 1.191-.344 2.168-1.031 2.93-.688.762-1.596 1.143-2.725 1.143-.449 0-.861-.096-1.236-.287zm.229-1.248c.191.199.475.299.85.299.77 0 1.358-.233 1.767-.7.408-.467.612-1.13.612-1.989 0-.398-.123-.718-.369-.958s-.584-.36-1.014-.36c-.191 0-.417.063-.677.19-.26.127-.454.267-.583.419l-.586 3.1zm6.755 1.248l-.469 2.631h-1.465l1.266-6.797c.047-.25.07-.502.07-.756 0-.344-.035-.689-.105-1.037l1.43-.258c.055.148.1.348.135.598.543-.402 1.082-.604 1.617-.604 1.676 0 2.514.812 2.514 2.438 0 1.191-.344 2.168-1.031 2.93-.688.762-1.596 1.143-2.725 1.143-.449 0-.861-.096-1.236-.287zm.229-1.248c.191.199.475.299.85.299.77 0 1.358-.233 1.767-.7.408-.467.612-1.13.612-1.989 0-.398-.123-.718-.369-.958s-.584-.36-1.014-.36c-.191 0-.417.063-.677.19-.26.127-.454.267-.583.419l-.586 3.1zm5.39-.932c0-1.133.346-2.09 1.037-2.871.691-.781 1.566-1.172 2.625-1.172.809 0 1.432.21 1.869.63.438.42.656 1.017.656 1.79 0 1.156-.342 2.127-1.025 2.912-.684.785-1.566 1.178-2.648 1.178-.793 0-1.41-.212-1.852-.636-.441-.424-.662-1.034-.662-1.831zm1.523-.07c0 .895.385 1.342 1.154 1.342.609 0 1.092-.282 1.447-.847.355-.564.533-1.233.533-2.007 0-.844-.385-1.266-1.154-1.266-.598 0-1.077.278-1.438.835-.361.557-.542 1.204-.542 1.942zm9.784-2.367c-.348-.258-.654-.387-.92-.387-.379 0-.726.165-1.04.495-.314.33-.513.708-.595 1.134l-.662 3.545h-1.471l1.172-6.275h1.471l-.1.545c.52-.441 1.094-.662 1.723-.662.16 0 .447.037.861.111l-.439 1.494zm4.997-.311h-1.729l-.633 2.783c-.051.223-.076.408-.076.557 0 .43.242.645.727.645.215 0 .566-.102 1.055-.305v1.318c-.422.145-.996.217-1.723.217-.477 0-.859-.148-1.148-.445-.289-.297-.434-.684-.434-1.16 0-.156.018-.311.053-.463l.709-3.146h-.727l.252-1.178h.727l.246-1.283 1.676-.609-.439 1.893h1.717l-.252 1.178zm2.138 2.373l-.012.264c0 .438.13.773.39 1.008.26.234.62.352 1.081.352.246 0 .529-.067.85-.202.32-.135.572-.286.756-.454l-.17 1.541c-.496.223-1.102.334-1.816.334-.773 0-1.4-.244-1.881-.732-.48-.488-.721-1.158-.721-2.01 0-1.078.347-1.976 1.04-2.692.693-.717 1.601-1.075 2.722-1.075.66 0 1.195.14 1.605.419.41.279.615.679.615 1.198 0 .707-.306 1.262-.917 1.664-.611.402-1.364.604-2.259.604-.438 0-.865-.072-1.283-.217zm.281-1.107c.254.074.529.111.826.111.531 0 .98-.081 1.348-.243.367-.162.551-.396.551-.7 0-.34-.371-.51-1.113-.51-.293 0-.592.128-.896.384-.305.256-.543.575-.715.958zm9.222-.955c-.348-.258-.654-.387-.92-.387-.379 0-.726.165-1.04.495-.314.33-.513.708-.595 1.134l-.662 3.545h-1.471l1.172-6.275h1.471l-.1.545c.52-.441 1.094-.662 1.723-.662.16 0 .447.037.861.111l-.439 1.494zm4.704.229c-.469-.41-.898-.615-1.289-.615-.242 0-.452.056-.63.167-.178.111-.267.261-.267.448 0 .23.212.453.636.668.424.215.749.386.976.513.227.127.412.299.557.516.145.217.217.466.217.747 0 .691-.259 1.236-.776 1.635-.518.398-1.179.598-1.983.598-.688 0-1.359-.193-2.016-.58l.773-1.33c.488.461.967.691 1.436.691.297 0 .542-.074.735-.223.193-.148.29-.35.29-.604 0-.211-.184-.412-.551-.604-.367-.191-.691-.366-.973-.524-.281-.158-.495-.352-.642-.58-.146-.229-.22-.481-.22-.759 0-.609.243-1.095.729-1.456s1.083-.542 1.79-.542c.484 0 1.113.164 1.887.492l-.68 1.342zm4.634-3.164c-.094 1.078-.725 1.961-1.893 2.648l-.428-.65c.285-.207.471-.352.557-.434.195-.191.303-.393.322-.604.012-.133-.068-.307-.24-.521-.172-.215-.25-.42-.234-.615.055-.633.395-.949 1.02-.949.605 0 .908.32.908.961l-.012.164zm8.143 2.625h-1.729l-.633 2.783c-.051.223-.076.408-.076.557 0 .43.242.645.727.645.215 0 .566-.102 1.055-.305v1.318c-.422.145-.996.217-1.723.217-.477 0-.859-.148-1.148-.445-.289-.297-.434-.684-.434-1.16 0-.156.018-.311.053-.463l.709-3.146h-.727l.252-1.178h.727l.246-1.283 1.676-.609-.439 1.893h1.717l-.252 1.178zm5.22.311c-.348-.258-.654-.387-.92-.387-.379 0-.726.165-1.04.495-.314.33-.513.708-.595 1.134l-.662 3.545h-1.471l1.172-6.275h1.471l-.1.545c.52-.441 1.094-.662 1.723-.662.16 0 .447.037.861.111l-.439 1.494zm5.507 4.793h-1.465l.088-.457c-.523.379-1.18.568-1.969.568-.539 0-.962-.154-1.269-.463-.307-.309-.46-.736-.46-1.283 0-.172.021-.373.064-.604l.756-4.043h1.488l-.744 3.984c-.031.168-.047.311-.047.428 0 .508.285.762.855.762.465 0 .854-.151 1.169-.454.314-.303.511-.667.589-1.093l.645-3.627h1.471l-1.172 6.281zm5.683-4.564c-.469-.41-.898-.615-1.289-.615-.242 0-.452.056-.63.167-.178.111-.267.261-.267.448 0 .23.212.453.636.668.424.215.749.386.976.513.227.127.412.299.557.516.145.217.217.466.217.747 0 .691-.259 1.236-.776 1.635-.518.398-1.179.598-1.983.598-.688 0-1.359-.193-2.016-.58l.773-1.33c.488.461.967.691 1.436.691.297 0 .542-.074.735-.223.193-.148.29-.35.29-.604 0-.211-.184-.412-.551-.604-.367-.191-.691-.366-.973-.524-.281-.158-.495-.352-.642-.58-.146-.229-.22-.481-.22-.759 0-.609.243-1.095.729-1.456s1.083-.542 1.79-.542c.484 0 1.113.164 1.887.492l-.68 1.342zm5.601-.539h-1.729l-.633 2.783c-.051.223-.076.408-.076.557 0 .43.242.645.727.645.215 0 .566-.102 1.055-.305v1.318c-.422.145-.996.217-1.723.217-.477 0-.859-.148-1.148-.445-.289-.297-.434-.684-.434-1.16 0-.156.018-.311.053-.463l.709-3.146h-.727l.252-1.178h.727l.246-1.283 1.676-.609-.439 1.893h1.717l-.252 1.178zm4.763.539c-.469-.41-.898-.615-1.289-.615-.242 0-.452.056-.63.167-.178.111-.267.261-.267.448 0 .23.212.453.636.668.424.215.749.386.976.513.227.127.412.299.557.516.145.217.217.466.217.747 0 .691-.259 1.236-.776 1.635-.518.398-1.179.598-1.983.598-.688 0-1.359-.193-2.016-.58l.773-1.33c.488.461.967.691 1.436.691.297 0 .542-.074.735-.223.193-.148.29-.35.29-.604 0-.211-.184-.412-.551-.604-.367-.191-.691-.366-.973-.524-.281-.158-.495-.352-.642-.58-.146-.229-.22-.481-.22-.759 0-.609.243-1.095.729-1.456s1.083-.542 1.79-.542c.484 0 1.113.164 1.887.492l-.68 1.342zm5.981-3.732c0-.262.093-.479.278-.653.186-.174.411-.261.677-.261.262 0 .486.087.674.261.188.174.281.392.281.653 0 .258-.094.475-.281.65-.188.176-.412.264-.674.264-.262 0-.486-.087-.674-.261-.188-.174-.281-.392-.281-.653zm.434 8.291h-1.488l.949-5.098h-.803l.246-1.178h2.268l-1.172 6.275zm6.943 0h-1.518l.686-3.656c.055-.293.082-.539.082-.738 0-.52-.307-.779-.92-.779-.523 0-.994.221-1.412.662l-.838 4.512h-1.471l.885-4.705.023-.34c0-.348-.057-.719-.17-1.113l1.436-.264.135.703c.516-.449 1.162-.674 1.939-.674 1.289 0 1.934.604 1.934 1.811 0 .215-.027.469-.082.762l-.709 3.82zm2.888-8.291c0-.262.093-.479.278-.653.186-.174.411-.261.677-.261.262 0 .486.087.674.261.188.174.281.392.281.653 0 .258-.094.475-.281.65-.188.176-.412.264-.674.264-.262 0-.486-.087-.674-.261-.188-.174-.281-.392-.281-.653zm.434 8.291h-1.488l.949-5.098h-.803l.246-1.178h2.268l-1.172 6.275zm6.321-5.098h-1.729l-.633 2.783c-.051.223-.076.408-.076.557 0 .43.242.645.727.645.215 0 .566-.102 1.055-.305v1.318c-.422.145-.996.217-1.723.217-.477 0-.859-.148-1.148-.445-.289-.297-.434-.684-.434-1.16 0-.156.018-.311.053-.463l.709-3.146h-.727l.252-1.178h.727l.246-1.283 1.676-.609-.439 1.893h1.717l-.252 1.178zm2.021-3.193c0-.262.093-.479.278-.653.186-.174.411-.261.677-.261.262 0 .486.087.674.261.188.174.281.392.281.653 0 .258-.094.475-.281.65-.188.176-.412.264-.674.264-.262 0-.486-.087-.674-.261-.188-.174-.281-.392-.281-.653zm.434 8.291h-1.488l.949-5.098h-.803l.246-1.178h2.268l-1.172 6.275zm7.183-2.25c-.027.145-.041.305-.041.48 0 .859.066 1.449.199 1.77h-.914c-.273 0-.477-.209-.609-.627-.5.496-1.123.744-1.869.744-.68 0-1.206-.191-1.579-.574-.373-.383-.56-.916-.56-1.6 0-1.191.36-2.212 1.081-3.062.721-.85 1.63-1.274 2.728-1.274 1.059 0 1.822.098 2.291.293l-.727 3.85zm-1.693-2.947c-.656 0-1.18.313-1.57.94-.391.627-.586 1.349-.586 2.165 0 .676.332 1.014.996 1.014.422 0 .79-.26 1.104-.779.314-.52.595-1.594.841-3.223-.277-.078-.539-.117-.785-.117zm7.745.1h-1.729l-.633 2.783c-.051.223-.076.408-.076.557 0 .43.242.645.727.645.215 0 .566-.102 1.055-.305v1.318c-.422.145-.996.217-1.723.217-.477 0-.859-.148-1.148-.445-.289-.297-.434-.684-.434-1.16 0-.156.018-.311.053-.463l.709-3.146h-.727l.252-1.178h.727l.246-1.283 1.676-.609-.439 1.893h1.717l-.252 1.178zm2.021-3.193c0-.262.093-.479.278-.653.186-.174.411-.261.677-.261.262 0 .486.087.674.261.188.174.281.392.281.653 0 .258-.094.475-.281.65-.188.176-.412.264-.674.264-.262 0-.486-.087-.674-.261-.188-.174-.281-.392-.281-.653zm.434 8.291h-1.488l.949-5.098h-.803l.246-1.178h2.268l-1.172 6.275zm4.388.117h-.527l-1.922-6.393h1.529l1.055 3.803 2.209-3.803h1.699l-4.043 6.393zm5.443-2.842l-.012.264c0 .438.13.773.39 1.008.26.234.62.352 1.081.352.246 0 .529-.067.85-.202.32-.135.572-.286.756-.454l-.17 1.541c-.496.223-1.102.334-1.816.334-.773 0-1.4-.244-1.881-.732-.48-.488-.721-1.158-.721-2.01 0-1.078.347-1.976 1.04-2.692.693-.717 1.601-1.075 2.722-1.075.66 0 1.195.14 1.605.419.41.279.615.679.615 1.198 0 .707-.306 1.262-.917 1.664-.611.402-1.364.604-2.259.604-.438 0-.865-.072-1.283-.217zm.281-1.107c.254.074.529.111.826.111.531 0 .98-.081 1.348-.243.367-.162.551-.396.551-.7 0-.34-.371-.51-1.113-.51-.293 0-.592.128-.896.384-.305.256-.543.575-.715.958z" fill="#666"/><path d="M216.723 31h-6.914l5.215-28.555c1.901-.339 3.685-.508 5.352-.508 4.362 0 7.734.996 10.117 2.988 2.383 1.992 3.574 4.876 3.574 8.652 0 5.3-1.576 9.528-4.727 12.686-3.151 3.158-7.357 4.736-12.617 4.736zm2.539-24.434l-3.477 19.883c.573.052 1.094.078 1.563.078 3.49 0 6.263-1.23 8.32-3.691 2.057-2.461 3.086-5.618 3.086-9.473 0-2.109-.71-3.802-2.129-5.078-1.419-1.276-3.242-1.914-5.469-1.914-.625 0-1.257.065-1.895.195zm20.509-3.203c0-.872.309-1.598.928-2.178.618-.579 1.37-.869 2.256-.869.872 0 1.621.29 2.246.869s.938 1.305.938 2.178c0 .859-.312 1.582-.938 2.168-.625.586-1.374.879-2.246.879-.872 0-1.621-.29-2.246-.869s-.938-1.305-.938-2.178zm1.445 27.637h-4.961l3.164-16.992h-2.676l.82-3.926h7.559l-3.906 20.918zm21.485-15.957c-1.159-.859-2.181-1.289-3.066-1.289-1.263 0-2.419.55-3.467 1.65-1.048 1.1-1.709 2.36-1.982 3.779l-2.207 11.816h-4.902l3.906-20.918h4.902l-.332 1.816c1.732-1.471 3.646-2.207 5.742-2.207.534 0 1.491.124 2.871.371l-1.465 4.98zm6.798 6.875c-.026.339-.039.632-.039.879 0 1.458.433 2.578 1.299 3.359.866.781 2.067 1.172 3.604 1.172.82 0 1.764-.225 2.832-.674 1.068-.449 1.908-.954 2.52-1.514l-.566 5.137c-1.654.742-3.672 1.113-6.055 1.113-2.578 0-4.668-.814-6.27-2.441-1.602-1.628-2.402-3.861-2.402-6.699 0-3.594 1.156-6.585 3.467-8.975 2.311-2.389 5.335-3.584 9.072-3.584 2.201 0 3.984.465 5.352 1.396 1.367.931 2.051 2.262 2.051 3.994 0 2.357-1.019 4.206-3.057 5.547-2.038 1.341-4.548 2.012-7.529 2.012-1.458 0-2.884-.241-4.277-.723zm.938-3.691c.846.247 1.764.371 2.754.371 1.771 0 3.268-.27 4.492-.811 1.224-.54 1.836-1.318 1.836-2.334 0-1.133-1.237-1.699-3.711-1.699-.977 0-1.973.426-2.988 1.279-1.016.853-1.81 1.917-2.383 3.193zm31.739-2.969c-1.367-1.003-2.747-1.504-4.141-1.504-2.24 0-4.04.837-5.4 2.51-1.361 1.673-2.041 3.766-2.041 6.279 0 1.302.384 2.415 1.152 3.34.768.924 1.758 1.387 2.969 1.387 1.745 0 3.796-.742 6.152-2.227l-.586 5.098c-1.992.833-4.043 1.25-6.152 1.25-2.643 0-4.736-.732-6.279-2.197-1.543-1.465-2.314-3.48-2.314-6.045 0-3.893 1.126-7.109 3.379-9.648 2.253-2.539 5.202-3.809 8.848-3.809 2.083 0 3.887.43 5.41 1.289l-.996 4.277zm17.227-1.25h-5.762l-2.109 9.277c-.169.742-.254 1.361-.254 1.855 0 1.432.807 2.148 2.422 2.148.716 0 1.888-.339 3.516-1.016v4.395c-1.406.482-3.32.723-5.742.723-1.589 0-2.865-.495-3.828-1.484-.964-.99-1.445-2.279-1.445-3.867 0-.521.059-1.035.176-1.543l2.363-10.488h-2.422l.84-3.926h2.422l.82-4.277 5.586-2.031-1.465 6.309h5.723l-.84 3.926z" fill="#f11"/><path d="M17.359 8.031c-1.51-1.107-3.047-1.66-4.609-1.66-3.138 0-4.707 1.185-4.707 3.555 0 1.003.833 2.201 2.5 3.594l2.949 2.5c.911.781 1.543 1.351 1.895 1.709.352.358.723.856 1.113 1.494.391.638.684 1.283.879 1.934.195.651.293 1.315.293 1.992 0 2.617-.98 4.661-2.939 6.133-1.96 1.471-4.502 2.207-7.627 2.207-2.565 0-4.987-.553-7.266-1.66l1.641-5.02c1.745 1.315 3.77 1.973 6.074 1.973 1.393 0 2.549-.296 3.467-.889.918-.592 1.377-1.436 1.377-2.529 0-1.081-.833-2.272-2.5-3.574l-3.066-2.441c-.938-.755-1.572-1.302-1.904-1.641-.332-.339-.68-.811-1.045-1.416-.365-.605-.638-1.227-.82-1.865-.182-.638-.273-1.296-.273-1.973 0-2.63.872-4.714 2.617-6.25 1.745-1.536 4.03-2.305 6.855-2.305.938 0 2.135.107 3.594.322 1.458.215 2.48.459 3.066.732l-1.563 5.078zm19.024 22.988h-4.883l.293-1.523c-1.745 1.263-3.932 1.895-6.563 1.895-1.797 0-3.206-.514-4.229-1.543-1.022-1.029-1.533-2.454-1.533-4.277 0-.573.072-1.243.215-2.012l2.52-13.477h4.961l-2.48 13.281c-.104.56-.156 1.035-.156 1.426 0 1.693.951 2.539 2.852 2.539 1.549 0 2.848-.505 3.896-1.514s1.702-2.223 1.963-3.643l2.148-12.09h4.902l-3.906 20.938zm9.317-.586l-1.563 8.77h-4.883l4.219-22.656c.156-.833.234-1.673.234-2.52 0-1.146-.117-2.298-.352-3.457l4.766-.859c.182.495.332 1.159.449 1.992 1.81-1.341 3.607-2.012 5.391-2.012 5.586 0 8.379 2.708 8.379 8.125 0 3.971-1.146 7.227-3.438 9.766-2.292 2.539-5.319 3.809-9.082 3.809-1.497 0-2.871-.319-4.121-.957zm.762-4.16c.638.664 1.582.996 2.832.996 2.565 0 4.528-.778 5.889-2.334 1.361-1.556 2.041-3.766 2.041-6.631 0-1.328-.41-2.393-1.23-3.193-.82-.801-1.947-1.201-3.379-1.201-.638 0-1.39.212-2.256.635-.866.423-1.514.889-1.943 1.396l-1.953 10.332zm22.384 4.16l-1.563 8.77h-4.883l4.219-22.656c.156-.833.234-1.673.234-2.52 0-1.146-.117-2.298-.352-3.457l4.766-.859c.182.495.332 1.159.449 1.992 1.81-1.341 3.607-2.012 5.391-2.012 5.586 0 8.379 2.708 8.379 8.125 0 3.971-1.146 7.227-3.438 9.766-2.292 2.539-5.319 3.809-9.082 3.809-1.497 0-2.871-.319-4.121-.957zm.762-4.16c.638.664 1.582.996 2.832.996 2.565 0 4.528-.778 5.889-2.334 1.361-1.556 2.041-3.766 2.041-6.631 0-1.328-.41-2.393-1.23-3.193-.82-.801-1.947-1.201-3.379-1.201-.638 0-1.39.212-2.256.635-.866.423-1.514.889-1.943 1.396l-1.953 10.332zm17.833-3.105c0-3.776 1.152-6.966 3.457-9.57 2.305-2.604 5.221-3.906 8.75-3.906 2.695 0 4.772.7 6.23 2.1 1.458 1.4 2.188 3.389 2.188 5.967 0 3.854-1.139 7.09-3.418 9.707-2.279 2.617-5.221 3.926-8.828 3.926-2.643 0-4.701-.706-6.172-2.119-1.471-1.413-2.207-3.447-2.207-6.104zm5.078-.234c0 2.982 1.283 4.473 3.848 4.473 2.031 0 3.639-.941 4.824-2.822 1.185-1.882 1.777-4.111 1.777-6.689 0-2.813-1.283-4.219-3.848-4.219-1.992 0-3.59.928-4.795 2.783-1.204 1.855-1.807 4.014-1.807 6.475zm32.481-7.891c-1.159-.859-2.181-1.289-3.066-1.289-1.263 0-2.419.55-3.467 1.65-1.048 1.1-1.709 2.36-1.982 3.779l-2.207 11.816h-4.902l3.906-20.918h4.902l-.332 1.816c1.732-1.471 3.646-2.207 5.742-2.207.534 0 1.491.124 2.871.371l-1.465 4.98zm16.524-1.035h-5.762l-2.109 9.277c-.169.742-.254 1.361-.254 1.855 0 1.432.807 2.148 2.422 2.148.716 0 1.888-.339 3.516-1.016v4.395c-1.406.482-3.32.723-5.742.723-1.589 0-2.865-.495-3.828-1.484-.964-.99-1.445-2.279-1.445-3.867 0-.521.059-1.035.176-1.543l2.363-10.488h-2.422l.84-3.926h2.422l.82-4.277 5.586-2.031-1.465 6.309h5.723l-.84 3.926zm6.993 7.91c-.026.339-.039.632-.039.879 0 1.458.433 2.578 1.299 3.359.866.781 2.067 1.172 3.604 1.172.82 0 1.764-.225 2.832-.674 1.068-.449 1.908-.954 2.52-1.514l-.566 5.137c-1.654.742-3.672 1.113-6.055 1.113-2.578 0-4.668-.814-6.27-2.441-1.602-1.628-2.402-3.861-2.402-6.699 0-3.594 1.156-6.585 3.467-8.975 2.311-2.389 5.335-3.584 9.072-3.584 2.201 0 3.984.465 5.352 1.396 1.367.931 2.051 2.262 2.051 3.994 0 2.357-1.019 4.206-3.057 5.547-2.038 1.341-4.548 2.012-7.529 2.012-1.458 0-2.884-.241-4.277-.723zm.938-3.691c.846.247 1.764.371 2.754.371 1.771 0 3.268-.27 4.492-.811 1.224-.54 1.836-1.318 1.836-2.334 0-1.133-1.237-1.699-3.711-1.699-.977 0-1.973.426-2.988 1.279-1.016.853-1.81 1.917-2.383 3.193zm30.606-3.184c-1.159-.859-2.181-1.289-3.066-1.289-1.263 0-2.419.55-3.467 1.65-1.048 1.1-1.709 2.36-1.982 3.779l-2.207 11.816h-4.902l3.906-20.918h4.902l-.332 1.816c1.732-1.471 3.646-2.207 5.742-2.207.534 0 1.491.124 2.871.371l-1.465 4.98zm15.548.762c-1.563-1.367-2.995-2.051-4.297-2.051-.807 0-1.507.186-2.1.557-.592.371-.889.869-.889 1.494 0 .768.706 1.51 2.119 2.227 1.413.716 2.497 1.286 3.252 1.709.755.423 1.374.996 1.855 1.719.482.723.723 1.553.723 2.49 0 2.305-.863 4.121-2.588 5.449-1.725 1.328-3.929 1.992-6.611 1.992-2.292 0-4.531-.645-6.719-1.934l2.578-4.434c1.628 1.536 3.223 2.305 4.785 2.305.99 0 1.807-.247 2.451-.742.645-.495.967-1.165.967-2.012 0-.703-.612-1.374-1.836-2.012-1.224-.638-2.305-1.221-3.242-1.748-.938-.527-1.65-1.172-2.139-1.934-.488-.762-.732-1.605-.732-2.529 0-2.031.811-3.649 2.432-4.854 1.621-1.204 3.61-1.807 5.967-1.807 1.615 0 3.711.547 6.289 1.641l-2.266 4.473z"/></svg>