<svg xmlns="http://www.w3.org/2000/svg" width="100%" height="100%" viewBox="0 0 1440 810">
  <style>
    path,
    polygon,
    rect {
      fill: #cc53cc;
    }
    text {
      fill: #464046;
      font-family: Calibre, 'Helvetica Neue', sans-serif;
      font-size: 40px;
    }
  </style>
  <text x="500" y="755">Slices</text>
  <path d="M500 640L500 700 580 700 580 640 500 640zM585 640L585 700 665 700 665 640 585 640zM670 640L670 700 750 700 750 640 670 640zM755 640L755 700 835 700 835 640 755 640zM500 530L500 610 608 610 608 530 500 530zM613 530L613 610 721 610 721 530 613 530zM727 530L727 610 835 610 835 530 727 530zM500 380L500 500 665 500 665 380 500 380zM670 380L670 500 835 500 835 380 670 380zM500 230L500 350 750 350 750 230 500 230zM755 230L755 350 835 350 835 230 755 230z"/>
  <rect width="335" height="120" x="500" y="80"/>
  <text x="1105" y="755">Containers</text>
  <path d="M1105 555L1105 635 1213 635 1213 555 1105 555zM1218 555L1218 635 1326 635 1326 555 1218 555zM1332 555L1332 635 1440 635 1440 555 1332 555zM1105 640L1105 700 1185 700 1185 640 1105 640zM1190 640L1190 700 1270 700 1270 640 1190 640zM1275 640L1275 700 1355 700 1355 640 1275 640zM1360 640L1360 700 1440 700 1440 640 1360 640zM1105 340L1105 460 1355 460 1355 340 1105 340zM1360 340L1360 460 1440 460 1440 340 1360 340zM1105 465L1105 525 1185 525 1185 465 1105 465zM1190 465L1190 525 1270 525 1270 465 1190 465zM1275 465L1275 525 1355 525 1355 465 1275 465zM1360 465L1360 525 1440 525 1440 465 1360 465zM1105 125L1105 245 1440 245 1440 125 1105 125zM1105 250L1105 310 1185 310 1185 250 1105 250zM1190 250L1190 310 1270 310 1270 250 1190 250zM1275 250L1275 310 1355 310 1355 250 1275 250zM1360 250L1360 310 1440 310 1440 250 1360 250z"/>
  <text x="0" y="755">Items</text>
  <rect width="165" height="120" y="580"/>
  <rect width="108" height="80" y="470"/>
  <rect width="80" height="60" y="380"/>
</svg>
