<svg xmlns="http://www.w3.org/2000/svg" width="100%" height="100%" viewBox="0 0 1920 608">
  <style>
    rect {
      fill: none;
      stroke: #cc53cc;
    }
    text {
      fill: #cc53cc;
      font-family: Calibre, 'Helvetica Neue', sans-serif;
      font-size: 32px;
    }
  </style>
  <g>
    <rect x="8" y="104" rx="12" width="272" height="176" stroke-width="16"/>
    <rect x="304" y="100" rx="12" width="140" height="312" stroke-width="8"/>
    <rect x="2" y="302" rx="12" width="284" height="208" stroke-width="4"/>
    <rect x="10" y="310" rx="6" width="268" height="192" stroke-width="4"/>
    <text x="135" y="200">1</text>
    <text x="365" y="268">2</text>
    <text x="135" y="420">3</text>
  </g>
  <g>
    <rect x="745" y="254" rx="12" width="100" height="144" stroke-width="16"/>
    <rect x="924" y="176" rx="8" width="56" height="52" stroke-width="8"/>
    <rect x="866" y="174" rx="8" width="40" height="56" stroke-width="4"/>
    <rect x="998" y="174" rx="8" width="44" height="56" stroke-width="4"/>
    <rect x="866" y="246" rx="4" width="48" height="92" stroke-width="4" stroke-dasharray="4"/>
    <rect x="866" y="354" rx="8" width="76" height="80" stroke-width="4"/>
    <rect x="930" y="246" rx="8" width="44" height="92" stroke-width="4"/>
    <rect x="958" y="354" rx="8" width="84" height="80" stroke-width="4"/>
    <rect x="990" y="246" rx="8" width="52" height="92" stroke-width="4"/>
    <rect x="1062" y="102" rx="12" width="116" height="212" stroke-width="12" stroke-dasharray="12 6"/>
    <rect x="868" y="100" rx="8" width="172" height="56" stroke-width="8" stroke-dasharray="6"/>
    <rect x="866" y="450" rx="12" width="136" height="92" stroke-width="4"/>
    <rect x="874" y="458" rx="6" width="120" height="76" stroke-width="4"/>
    <text x="790" y="335">1</text>
    <text x="945" y="140">2</text>
    <text x="880" y="213">3</text>
    <text x="945" y="213">4</text>
    <text x="1012" y="213">5</text>
    <text x="882" y="305">6</text>
    <text x="945" y="305">7</text>
    <text x="1010" y="305">8</text>
    <text x="1110" y="220">9</text>
    <text x="890" y="405">10</text>
    <text x="990" y="405">11</text>
    <text x="920" y="505">12</text>
  </g>
  <g>
    <rect x="1476" y="232" rx="12" width="320" height="208" stroke-width="16"/>
    <rect x="1536" y="164" rx="12" width="184" height="376" stroke-width="8"/>
    <rect x="1630" y="98" rx="12" width="284" height="252" stroke-width="4"/>
    <rect x="1638" y="106" rx="6" width="268" height="236" stroke-width="4"/>
    <text x="1502" y="300">1</text>
    <text x="1582" y="300">2</text>
    <text x="1622" y="405">3</text>
    <text x="1622" y="505">4</text>
    <text x="1582" y="205">5</text>
    <text x="1668" y="205">6</text>
    <text x="1668" y="300">7</text>
    <text x="1750" y="300">8</text>
    <text x="1668" y="145">9</text>
    <text x="1838" y="280">10</text>
    <text x="1838" y="185">11</text>
    <text x="1742" y="405">12</text>
  </g>
</svg>
