<svg class="c-item__logo c-item__logo--channel-4-news" xmlns="http://www.w3.org/2000/svg" width="48" height="48" viewBox="0 0 960 960">
    <title>Channel 4 News</title>
    <path d="M178 899v-83h84l27 21V677h161l1-82H78v82L0 617v-83l57-1-34-29 239-305 27 21v-56l84-106 27 20 1-56 18-22 77 60-17 23v134l62-78 20 16-82 109v585h82l1-33h25l77 61H479l-1 83-28-22V705h-82l-1 255-27-21v-62h-83l-1 83-78-61zm147-366l-36-27v-47l51-65-1-133-238 305h105l25-32 94-1zm43-309v342h83V119l-83 105zm194 310h81l76 59 1 2H590l-1 83-27-21V534z"/>
</svg>
