<svg class="c-item__logo" version="1.1" width="48" height="48" viewBox="0 0 960 960" role="img" aria-labelledby="title">
  <title>Bradshaw&#8217;s Guide</title>
  <path d="M458 40c73 0 136 4.4 186 15 48.3 8.5 89.3 23 119 44 29 17.3 49.5 40.7 63 70 11.5 26.5 18.8 58.7 19 95-.2 22.4-4.6 43-10 65-9.3 20.5-19.5 39.5-33 57-14.4 16.3-32 31-51 44-22 12-45.5 20.7-70 27 61 11.3 111 37.7 146 76 35.4 36.5 53 85 53 144 0 34.7-7.3 67-19 98-13.3 29-33.8 54-62 76-29 20.6-68.6 38.2-116 51-48 10.7-108 18-178 18H0V800h35c15-.3 26.6-1.7 35-5 9.2-2.6 15-7 19-11 5-6.3 7.8-13.6 9-21 .3-8.7.3-17.5 2-28V239c-1.7-8.3-1.7-17-2-26-1.2-10.2-4-17.5-7-25-4.5-8.7-10.3-16-18-20-8.5-6.3-20.2-7.7-33-8-3.3.3-38.5-1.2-40 0V40h458zM317 418h138c109.8 0 167-44 167-129 0-22-4.4-39.5-10-54-7.6-16.3-18-29.5-31-40-14.7-10-32.3-18.8-53-23-23.3-7.5-49.7-9-80-9H317v255zm0 379h141c61.4 0 108.3-11.7 141-32 32-23.7 48-57.4 48-103 0-24.8-4.4-46.7-12-63-8.5-19-21.7-33.6-39-45-19.4-12-43-20.8-71-25-29-7.5-64.3-9-104-9H317v277z"/>
</svg>
