<svg class="c-item__logo" version="1.1" width="54" height="48" viewBox="0 0 1080 960" role="img" aria-labelledby="title">
  <title>UNICEF UK</title>
  <path d="M761 665c-49.4-27.6-50.5-65.8-48-80 2.8-14 12.5-8 19-8 32.2 0 66.4-9.7 109-53 47-49.5 62-159-11-230-78.8-77-162.6-63.6-217 6-10.6 13.6-37.6 24-61 23-34.6-1-12.8 26.5-13 32 .2 6-5 10-8 9-12-3.2-7.2 14.5-7 20-.2 5-5 8-8 8-14.3 0-10.3 13.2-10 17 .6 3.4-.6 9.5-6 12-4 3-9.6 14.5-10 23 .4 16.4 15 27.6 39 46 24.2 18 27.3 35.5 28 48 .2 12.4 1.3 32.5 7 46 6.4 16 5.5 45.3-28 47-40.7 1.3-113.2 34.4-119 37-23.4 8-53.8 11-78 5-12.4-9.4-24.6-19.4-36-30-5-16.7 3.4-34.6 12-47 13.3 14 33.5 13.2 45 14 11.3 0 67.2-8.8 75-11 8-3.2 11.5-2.3 16 0 21.6 7.4 51 9.7 63-32 11.5-41-16.5-29.5-20-28-3.6 2-8.4 1.6-7-2 5.5-10.5-2.3-9.3-7-10-11-1-26 11.4-31 16-4.8 4.4-9.5 4-11 3-15.5-7.7-60.5 3.4-75-21 1.8-7-11-107.7-18-125-1-3.8-2.3-10 2-17 11.7-17 43.2 1.8 60 1 21-.2 24.2-9 30-16 5.2-6.8 9.2-3 12-5 4-2.3.3-7.2 2-10 1-2.6 2.5-1.2 6-4 3.6-3.4-.5-10 1-13 5.4-7.6 19.2-1.3 11-22-4.7-10.8 1.6-22.8 8-31 9.8-12.8 48-67.6-19-125-65.2-53.8-130.6-49.5-173-3-42 46.3-20.8 114-16 132 4 17.6-8.7 33.7-23 41-11.8 5.2-38 23-58 41 3-145.8 90-273.5 224-328 5.2 7.3 11.6 14 18 20-14.4 11.4-47 41-47 41s4.6.5 9 2c2.5.2 8.6 2.2 9 2-.4.2 28-24.5 42-34 10 7.7 21.4 14.4 34 20-7 11-23.3 42-23 42-.3 0 3.6 2.2 7 4 3.2 2.8 5.4 4.8 5 5 .4-.2 18-34 25-45 14.8 4.6 30.4 7.5 46 8 .2 4.7.2 57.3 0 62-8.7 0-31-.8-40-2h-6l3 5c2.7 3 4.5 6.6 6 10l1 1h1c7 1 27.4 1.7 35 2 .2 5 .2 113 0 113h16c-.4 0-.4-21.8 0-26 22.3-1 41.2-2.6 64-5h1l20-18-11 1c-24 3.4-45 5-64 6-.5 0-7 .4-10 1-.4-5.6-.4-67.5 0-72 27.6-.8 55.7-4.7 83-12 7.6 18.6 21.7 64 22 64l14-5c.2.3-13.8-44.7-21-63 23-7.6 45.3-17.3 67-29 16.7 21.2 31.5 44.4 44 69-11.3 5.4-31.4 12.6-31 13 15.7 1.3 28 5.2 28 5 0 .2 5.5-2.3 9-4 1.6 3.3 4.4 10 4 10l20 9-2-6c0 .3-6.5-15.8-8-20 21-10 42-22.3 62-36 38 59 58 127.3 58 198 0 117.3-55.3 221.7-141 288zM506 18c-21.8 9.7-43 21.4-63 35-5.6-5.3-11-11-16-17 25.4-9 52-15 79-18zm-21 61c-9.6-4.4-19-10-28-16 20-14 41.5-25.6 64-35-12.7 16.3-24.7 33.3-36 51zm53-47v60c-13-.6-25.6-3-38-7 11.5-18.2 24.2-36 38-53zm15 75c16-1 31.6-3.8 47-9 11 19.2 21 39.4 30 60-25.2 6.7-51 10.4-77 11v-62zm0-76c13.5 16.7 26.2 34.5 38 53-12.4 4-25 6.4-38 7V31zm83 32c-9 6.2-18.7 11.7-29 16-10.7-17.4-22.8-34.5-36-51 22.7 9.4 44.6 21 65 35zm28-27c-5 6-10.6 11.7-16 17-20.2-13.6-41.2-25.3-63-35 27.2 3 53.6 9 79 18zm45 91c-20 11.3-41.2 20.3-63 27-9-21-19.4-42-31-62 12-5.2 23.4-12 34-20 22 16.2 42 34.8 60 55zm-29-85c29.5 12.2 57.4 28.5 83 49-12.8 10.3-26.5 20.2-41 29-18-21.3-38.6-40.7-61-58 6.8-6 13-12.7 19-20zm157 125c-19.2 12.8-39.5 24.6-60 35-12.6-25-27.6-48.6-45-71 15.4-9 30-19.5 44-31 22.8 19.6 43.4 42 61 67zM524.4 843.3c-20.5-9.5-41.7-16-63.4-18.3-12.6 12.8-23.2 22.4-40 28-46.4 16-125.7 8.2-189-18l-15-6 16-4c138-38.3 246.3-20.3 313.5 7.6 67.3-28 175.4-46 313.5-7.6l16 4-15 6c-63.3 26.2-142.6 34-189 18-17-5.6-27.3-15.2-40-28-21.7 2.3-43 8.8-63.4 18.2C587 853.8 645 888.8 684 941l3 3-3 4c-3.4 3.2-11 9.2-16 11l-3 1-3-3c-28-35-68.7-75.4-115.5-102.3C499.7 881.7 459 922 431 957l-3 3-3-1c-5-1.8-12.6-7.8-16-11l-3-4 3-3c39-52 97-87.2 115.4-97.7zM545 0C340 0 173 169.3 173 377c0 208.6 167 378 372 378 205.8 0 373-169.4 373-378C918 169.3 750.8 0 545 0zM139 100l-6 5c-21.2 20.2-71 72-63 129-.2 0 .5 3.8 1 4-.5 0 2 11 2 11l7-6c30.3-29 53-77 62-132l3-16-6 5zM38 199l-3 7c-3.3 9.2-9.6 29-13 56-4.6 37-3.6 90 28 130 .3-.5 4 4.2 4 4l4 5 4-24c5.5-42.6-1.4-131.6-17-171l-5-14-2 7zM1 352v7c-3 38-1 132.2 74 182 .2 0 9 6 9 6v-11c-1.7-35.4-42.8-142-74-180l-8-11-1 7zm13 168l2 7c10.6 54 61.3 142 139 167l11 4-4-11c-14.4-40.3-89.7-134.8-138-166l-11-7 1 6zm157-338l-6 4c-58.6 35.5-86 79-84 133 0-.2.6 12 1 12l8-7c31.7-26.5 71.2-94 83-132-.2 0 4-14 4-14l-6 4zm-34 117l-4 4c-15.4 14.8-64 67-60 131 1 10 3 20.6 7 32l3 10 7-9c23-32.7 53.5-119.4 52-160l-1-12-4 4zm2 112l-3 5c-24.4 36.4-36.7 74-36 109 .8 25 8.7 49.6 24 72l5 8 4-8c10.8-20 19-85 18-136-.5-18.4-2.3-33.4-5-44l-3-11-4 5zm29 120l-2 5c-7 24-10.5 47.4-10 69 1.4 50.3 23.2 89.4 65 117l7 4 1-10c.4.2 1-7.3 1-7-1-41-31-143.2-54-174l-7-9-1 5zM85 689l3 5c31.3 53.3 84.5 121.7 184 104l8-1-5-7c-18.3-28.3-138.7-97-181-104l-12-2 3 5zm151-36l1 6c9 60 33.2 139 134 130h6l-2-7c-6.4-27-98.3-106.5-130-129l-10-5 1 5zM947 95l3 16c9 55 31.7 103 62 132l7 6s2.5-11 2-11c.5-.2 1.2-4 1-4 8-57-41.8-108.8-63-129l-6-5-6-5zm105 97l-5 14c-15.6 39.4-22.6 128.4-17 171l4 24 4-5c.2.2 3.8-4.5 4-4 31.5-40 32.7-93 28-130-3.4-27-9.6-46.8-13-56l-3-7-2-7zm28 322l-11 7c-48.2 31.2-123.5 125.7-138 166l-4 11 11-4c77.8-25 128.5-113 139-167l2-7 1-6zM918 176l4 14c10.8 38.6 48.8 106.7 80 134l8 7 1-12c3-54-23.5-98-81-135l-6-4-6-4zm34 119l-1 12c-1.5 40.6 29.2 127.3 52 160l7 9 3-10c4-11.4 6.2-22 7-32 4-64-44.6-116.2-60-131l-4-4-4-4zm-1 111l-4 11c-2.6 10.6-4.5 25.6-5 44-1 51 7.3 116 18 136l4 8 5-8c15.4-22.4 23.3-47 24-72 .8-35-11.6-72.6-36-109l-3-5-3-5zm-27 120l-7 9c-23 30.8-52.8 133-54 174 0-.3.6 7.2 1 7l1 10 7-4c41.8-27.6 63.5-66.7 65-117 .5-21.6-3-45-10-69l-2-5-1-5zm86 158l-12 2c-42.2 7-162.8 75.7-181 104l-5 7 8 1c99.6 17.7 152.7-50.7 184-104l3-5 3-5zm-153-36l-10 5c-31.7 22.5-123.6 102-130 129l-2 7h6c100.7 9 125-70 134-130l1-6 1-5z"/>
</svg>
