<svg class="c-social--twitter__logo" version="1.1" width="24" height="24" viewBox="0 0 960 960" role="img" aria-labelledby="title">
    <title>Twitter</title>
    <path d="M959 183c-35.2 15.7-73 26.3-113 31 40.8-24.3 72-62.8 87-109-38.4 23-80.4 39.2-125 48-36-38.2-87-62-143-62-109 0-196.8 88-197 196 .2 15.8 2 30.8 5 45-163-8-307.5-86.2-404-205-17.3 29-27 62.7-27 99 0 67.8 34.7 128 87 163-31.8-1-62-9.7-89-24 .4.4.4 1.2 0 2 .4 95.2 68 174.6 158 193-16.5 4.2-34 6.6-52 7-12.4-.4-24.7-1.7-37-4 25.3 78 97.8 134.8 184 136-67.5 53-152.2 84.5-244 85-16-.5-31.6-1.4-47-3 87 55.5 190 88 301 88 361 0 558.6-299.3 559-559l-1-25c38.4-28 71.7-62.5 98-102z"/>
</svg>
