<svg class="u-hidden" version="1.1">
    <symbol id="c-logo__prl" viewBox="0 0 80 80">
        <path d="M37 20L4 80H0l33-60h4zm16 0L31 60h-4l22-40h4zm8 0L50 40h-4l11-20h4zm-16 0L23 60h-4l22-40h4zM80 0L47 60h-4L76 0h4zM66 40L55 60h-4l11-20h4z"/>
    </symbol>
    <symbol id="c-logo__dribbble" viewBox="0 0 800 800">
        <path d="M40 400C40 202 202 40 400 40s360 162 360 360-162 360-360 360S40 598 40 400zm473 36c41 111 58 219 59 219-0 0 111-67 131-206 0-0-94-30-190-13zm-59 14c-179 60-243 192-243 192 0 0 131 113 309 41 0 0-20-122-66-233zM171 606c109-174 262-206 262-206s-16-37-26-53c-168 50-315 43-315 43 0-0-10 118 79 216zm213-306c-52-97-114-177-114-177C125 190 99 338 99 338s138 3 285-38zm59-17c114-42 160-113 160-113S500 64 328 101c0-0 68 88 115 182zm24 46c8 15 27 59 27 59 0 0 87-15 213 10 0-116-69-192-69-192-0 0-52 75-171 123z"/>
    </symbol>
    <symbol id="c-logo__flickr" viewBox="0 0 800 800">
        <path fill-rule="evenodd" d="M400,760 C600,760 760,600 760,400 C760,200 600,40 400,40 C200,40 40,200 40,400 C40,600 200,760 400,760 Z M250,520 C316,520 370,466 370,400 C370,334 316,280 250,280 C184,280 130,334 130,400 C130,466 184,520 250,520 Z M550,520 C616,520 670,466 670,400 C670,334 616,280 550,280 C484,280 430,334 430,400 C430,466 484,520 550,520 Z"/>
    </symbol>
    <symbol id="c-logo__github" viewBox="0 0 800 800">
        <path d="M400 48c200 0 360 160 360 360 0 160-104 296-246 343-13 4-24-3-24-18v-99c0-48-25-66-25-66 79-9 165-39 165-178-0-61-38-97-38-97 0-0 20-40-2-95-0-0-30-10-100 37-58-17-122-17-180 0-69-47-100-37-100-37-22 55-3 95-2 95-0-0-38 36-38 97 0 139 86 170 165 178 0-0-20 14-24 48-20 10-73 25-105-30 0 0-18-35-54-38 0-0-36-0-3 23 0-0 24 11 41 52-0-0 22 71 121 49v61c0 15-12 22-25 18C144 708 40 568 40 408 40 209 200 48 400 48z"/>
    </symbol>
    <symbol id="c-logo__twitter" viewBox="0 0 800 800">
        <path d="M718 236C729 468 559 725 251 725 98 725 0 651 0 651S120 676 242 584C119 576 89 469 89 469s34 9 74-3c-138-34-132-163-132-163S65 324 106 324C-19 227 55 104 55 104s113 159 339 172c-33-180 174-263 280-150 55-9 106-40 106-40s-18 61-73 90.5c45-3 94-26 94-26S769 202 718 236z"/>
    </symbol>
</svg>
