<svg class="c-social--dribbble__logo" version="1.1" width="24" height="24" viewBox="0 0 960 960" role="img" aria-labelledby="title">
    <title>Dribbble</title>
    <path d="M845 234c-16-23.4-34-45.2-54-65-19.8-20-41.7-38-65-54-23.5-15.7-48.7-29.4-75-40-26.3-11.7-54-20.3-82-26-29.4-6-59.2-9-89-9-29.8 0-59.7 3-89 9-28 5.7-55.7 14.3-82 26-26.4 10.6-51.6 24.3-75 40-23.3 16-45.3 34-65 54-20 19.8-38 41.6-54 65-15.7 23.4-29.4 48.6-40 75-11.7 26.3-20.3 54-26 82-6 29.4-9 59.2-9 89 0 29.8 3 59.6 9 89 5.7 28 14.3 55.7 26 82 10.6 26.4 24.3 51.5 40 75 16 23.3 34 45.2 54 65 19.7 20 41.7 38 65 54 23.4 15.7 48.6 29.3 75 40 26.3 11.6 54 20.2 82 26 29.3 6 59.2 9 89 9 29.8 0 59.6-3 89-9 28-5.8 55.7-14.4 82-26 26.3-10.7 51.5-24.3 75-40 23.3-16 45.2-34 65-54 20-19.8 38-41.7 54-65 15.7-23.5 29.4-48.6 40-75 11.6-26.3 20.2-54 26-82 6-29.4 9-59.2 9-89 0-29.8-3-59.6-9-89-5.8-28-14.4-55.7-26-82-10.6-26.4-24.3-51.6-40-75zM480 104c94.8 0 181.8 35.4 248 94-1 1.2-54.5 82.8-196 136-64.7-118-135.4-212-141-219 28.4-7.3 58-11 89-11zm-90 11h-1 1zm-71 25c5.4 6.7 75 100.8 140 216-180.5 48-337 46-347 46 24.4-116.2 102.6-212.6 207-262zM200 732c-59.5-66.6-96-154.8-96-251 0-4.5.2-8.4 0-12 7-.2 192.8 4 386-54 11.3 21 21.6 42.6 31 64-5 1.4-10 2.8-15 4-202.8 66-305.8 248.8-306 249 .2-.2.3 0 0 0zm280 124c-86.8 0-166.8-30-231-80 .4.5-3-2-8-6 2.7 2.2 5.7 4.2 8 6 1.2-1 73.5-157 295-234 1-.5 2-.7 3-1 52.6 137.4 74.4 252.4 80 285-45 19.4-94.7 30-147 30zm210-65c-3.7-22.6-23.7-132.7-73-268 121.2-19.4 226.3 14 234 16-16.7 105-76.6 195.2-161 252zm-96-327c-2.5-6.7-5.2-13-8-20-7.8-18-16.3-36.3-25-54 148.5-60.8 208.8-148 209-149 53.3 64 85 146 86 235-5.4-1-132.7-28.5-262-12zM390 115h-1 1zM241 770c2.6 2.5 5.4 4.5 8 7 0 0-3.3-2.7-8-7z"/>
</svg>
