<svg class="c-social--flickr__logo" version="1.1" width="24" height="24" viewBox="0 0 960 960" role="img" aria-labelledby="title">
    <title>Flickr</title>
    <path fill-rule="evenodd" d="M480 920c243 0 440-197 440-440S723 40 480 40 40 237 40 480s197 440 440 440zM296.7 626.7c81 0 146.6-65.7 146.6-146.7 0-81-65.6-146.7-146.6-146.7S150 399 150 480c0 81 65.7 146.7 146.7 146.7zm366.6 0c81 0 146.7-65.7 146.7-146.7 0-81-65.7-146.7-146.7-146.7-81 0-146.6 65.7-146.6 146.7 0 81 65.6 146.7 146.6 146.7z"/>
</svg>