<svg class="c-social--github__logo" version="1.1" width="24" height="24" viewBox="0 0 960 960" role="img" aria-labelledby="title">
    <title>GitHub</title>
    <path d="M480 51C237 51 40 248 40 491c0 194.2 126 359 300.7 417 22.2 4.3 30.2-9.3 30.2-21 0-10.4-.6-38-1-75.2-122 27-148-58.5-147.8-58.6-20.3-50.8-49-64.3-49.5-64.2-39.7-27.4 3.3-26.8 3.6-26.6 44 3 67 45 67 45 39.3 67.3 103 48 128.2 36.6 4-28.4 15.3-47.7 27.5-58.7-97.2-11-200-49-199.7-217.2-.2-48 17-87.2 45-118-4.5-11-19.6-56 4.5-116.4 0 0 36.8-11.8 121 45 35-9.7 72.6-14.5 110-14.7 37.4 0 75 5 110 14.5 84.2-56.7 121-45 121-45 24 60.7 9 105.4 4.6 116.5 28 30.7 45 70 45 118.2 0 168.8-102.8 206-201 217.3 16 13.2 30 40 30.4 80.7-.4 59.2-1 106.6-1 121 0 11.8 8 25.5 30.3 21C794 850 920 685.2 920 491c0-243-197-440-440-440"/>
</svg>
