<svg class="c-logos" hidden>
    <symbol id="c-logos__prl" viewBox="0 0 160 160">
        <path d="M74 40L8 160H0L66 40h8zm32 0l-44 80h-8l44-80h8zm16 0l-22 40h-8l22-40h8zm-32 0l-44 80h-8l44-80h8zm70-40L94 120h-8L152 0h8zm-28 80l-22 40h-8l22-40h8z"/>
    </symbol>
    <symbol id="c-logos__dribbble" viewBox="0 0 960 960">
        <path d="M845 234c-16-23.4-34-45.2-54-65-19.8-20-41.7-38-65-54-23.5-15.7-48.7-29.4-75-40-26.3-11.7-54-20.3-82-26-29.4-6-59.2-9-89-9-29.8 0-59.7 3-89 9-28 5.7-55.7 14.3-82 26-26.4 10.6-51.6 24.3-75 40-23.3 16-45.3 34-65 54-20 19.8-38 41.6-54 65-15.7 23.4-29.4 48.6-40 75-11.7 26.3-20.3 54-26 82-6 29.4-9 59.2-9 89 0 29.8 3 59.6 9 89 5.7 28 14.3 55.7 26 82 10.6 26.4 24.3 51.5 40 75 16 23.3 34 45.2 54 65 19.7 20 41.7 38 65 54 23.4 15.7 48.6 29.3 75 40 26.3 11.6 54 20.2 82 26 29.3 6 59.2 9 89 9 29.8 0 59.6-3 89-9 28-5.8 55.7-14.4 82-26 26.3-10.7 51.5-24.3 75-40 23.3-16 45.2-34 65-54 20-19.8 38-41.7 54-65 15.7-23.5 29.4-48.6 40-75 11.6-26.3 20.2-54 26-82 6-29.4 9-59.2 9-89 0-29.8-3-59.6-9-89-5.8-28-14.4-55.7-26-82-10.6-26.4-24.3-51.6-40-75zM480 104c94.8 0 181.8 35.4 248 94-1 1.2-54.5 82.8-196 136-64.7-118-135.4-212-141-219 28.4-7.3 58-11 89-11zm-90 11h-1 1zm-71 25c5.4 6.7 75 100.8 140 216-180.5 48-337 46-347 46 24.4-116.2 102.6-212.6 207-262zM200 732c-59.5-66.6-96-154.8-96-251 0-4.5.2-8.4 0-12 7-.2 192.8 4 386-54 11.3 21 21.6 42.6 31 64-5 1.4-10 2.8-15 4-202.8 66-305.8 248.8-306 249 .2-.2.3 0 0 0zm280 124c-86.8 0-166.8-30-231-80 .4.5-3-2-8-6 2.7 2.2 5.7 4.2 8 6 1.2-1 73.5-157 295-234 1-.5 2-.7 3-1 52.6 137.4 74.4 252.4 80 285-45 19.4-94.7 30-147 30zm210-65c-3.7-22.6-23.7-132.7-73-268 121.2-19.4 226.3 14 234 16-16.7 105-76.6 195.2-161 252zm-96-327c-2.5-6.7-5.2-13-8-20-7.8-18-16.3-36.3-25-54 148.5-60.8 208.8-148 209-149 53.3 64 85 146 86 235-5.4-1-132.7-28.5-262-12zM390 115h-1 1zM241 770c2.6 2.5 5.4 4.5 8 7 0 0-3.3-2.7-8-7z"/>
    </symbol>
    <symbol id="c-logos__flickr" viewBox="0 0 960 960">
        <path fill-rule="evenodd" d="M480 920c243 0 440-197 440-440S723 40 480 40 40 237 40 480s197 440 440 440zM296.7 626.7c81 0 146.6-65.7 146.6-146.7 0-81-65.6-146.7-146.6-146.7S150 399 150 480c0 81 65.7 146.7 146.7 146.7zm366.6 0c81 0 146.7-65.7 146.7-146.7 0-81-65.7-146.7-146.7-146.7-81 0-146.6 65.7-146.6 146.7 0 81 65.6 146.7 146.6 146.7z"/>
    </symbol>
    <symbol id="c-logos__github" viewBox="0 0 960 960">
        <path d="M480 51C237 51 40 248 40 491c0 194.2 126 359 300.7 417 22.2 4.3 30.2-9.3 30.2-21 0-10.4-.6-38-1-75.2-122 27-148-58.5-147.8-58.6-20.3-50.8-49-64.3-49.5-64.2-39.7-27.4 3.3-26.8 3.6-26.6 44 3 67 45 67 45 39.3 67.3 103 48 128.2 36.6 4-28.4 15.3-47.7 27.5-58.7-97.2-11-200-49-199.7-217.2-.2-48 17-87.2 45-118-4.5-11-19.6-56 4.5-116.4 0 0 36.8-11.8 121 45 35-9.7 72.6-14.5 110-14.7 37.4 0 75 5 110 14.5 84.2-56.7 121-45 121-45 24 60.7 9 105.4 4.6 116.5 28 30.7 45 70 45 118.2 0 168.8-102.8 206-201 217.3 16 13.2 30 40 30.4 80.7-.4 59.2-1 106.6-1 121 0 11.8 8 25.5 30.3 21C794 850 920 685.2 920 491c0-243-197-440-440-440"/>
    </symbol>
    <symbol id="c-logos__twitter" viewBox="0 0 960 960">
        <path d="M959 183c-35.2 15.7-73 26.3-113 31 40.8-24.3 72-62.8 87-109-38.4 23-80.4 39.2-125 48-36-38.2-87-62-143-62-109 0-196.8 88-197 196 .2 15.8 2 30.8 5 45-163-8-307.5-86.2-404-205-17.3 29-27 62.7-27 99 0 67.8 34.7 128 87 163-31.8-1-62-9.7-89-24 .4.4.4 1.2 0 2 .4 95.2 68 174.6 158 193-16.5 4.2-34 6.6-52 7-12.4-.4-24.7-1.7-37-4 25.3 78 97.8 134.8 184 136-67.5 53-152.2 84.5-244 85-16-.5-31.6-1.4-47-3 87 55.5 190 88 301 88 361 0 558.6-299.3 559-559l-1-25c38.4-28 71.7-62.5 98-102z"/>
    </symbol>
</svg>
