<svg xmlns="http://www.w3.org/2000/svg" width="50" height="15" viewBox="0 0 800 240" role="img" aria-labelledby="title">
  <title>BY-NC-SA</title>
  <path fill-rule="evenodd" d="M120 240c66 0 120-54 120-120S186 0 120 0 0 54 0 120s54 120 120 120zm0-24c53 0 96-43 96-96s-43-96-96-96-96 43-96 96 43 96 96 96zm36-76h-12v52H96v-52H84V84c0-2 2-4 4-4h64c2 0 4 2 4 4v56zm-36-64c9 0 16-7 16-16s-7-16-16-16-16 7-16 16 7 16 16 16zm400 44C520 54 466 0 400 0S280 54 280 120s54 120 120 120 120-54 120-120zM306 99c-2 7-2 14-2 21 0 53 43 96 96 96 37 0 70-21 85-52l-47-17c-2 15-14 26-31 29v16h-20v-16c-18-3-31-14-34-32h22c4 10 11 14 22 14s18-5 18-14c0-2-0-4-1-6L306 99zm8-23c16-31 48-52 85-52 53 0 96 43 96 96 0 7-1 14-2 21l-113-41c-0-1-0-3-0-4 0-9 7-14 18-14s18 4 22 14h22c-3-18-16-29-34-32V48h-20v16c-16 3-28 13-30 28l-43-16zM680 240c66 0 120-54 120-120S746 0 680 0 560 54 560 120s54 120 120 120zm96-120c0-53-43-96-96-96s-96 43-96 96 43 96 96 96 96-43 96-96zm-93 64c-30 0-51-16-53-44h26c2 13 9 23 27 23s32-19 32-43-14-43-32-43-25 10-27 23h-26c2-28 23-44 53-44s58 26 58 64-28 64-58 64zm-65-84l26 25 26-25h-51z"/>
</svg>
