<svg xmlns="http://www.w3.org/2000/svg" width="50" height="15" viewBox="0 0 800 240">
  <path fill-rule="evenodd" d="M120 240c66 0 120-54 120-120S186 0 120 0 0 54 0 120s54 120 120 120zm0-24c53 0 96-43 96-96s-43-96-96-96-96 43-96 96 43 96 96 96zm36-76h-12v52H96v-52H84V84c0-2 2-4 4-4h64c2 0 4 2 4 4v56zm-36-64c9 0 16-7 16-16s-7-16-16-16-16 7-16 16 7 16 16 16zm366 88c-16 31-48 52-86 52-53 0-96-43-96-96 0-7 1-14 2-21l110 40c1 1 1 3 1 5 0 8-6 12-17 12-10 0-18-4-21-15h-22c3 20 15 30 33 33v18h19v-18c17-3 28-12 30-27l47 17zm8-24c1-6 2-13 2-20 0-53-43-96-96-96-37 0-69 21-85 50l44 17c3-14 13-24 30-26V48h20v18c16 3 25 14 28 30h-21c-3-7-9-13-19-13-11-0-17 4-17 12 0 1-3 3 1 4l113 41zm-94 100c66 0 120-54 120-120S466 0 400 0 280 54 280 120s54 120 120 120zm280 0c66 0 120-54 120-120S746 0 680 0 560 54 560 120s54 120 120 120zm96-120c0-53-43-96-96-96s-96 43-96 96 43 96 96 96 96-43 96-96zM614 96l26 26 26-26h-12c4-11 12-18 26-18 21 0 33 18 33 42s-12 42-33 42c-15 0-25-10-28-22h-26c2 28 24 46 54 46 36 0 60-26 60-66s-24-66-60-66c-30 0-48 14-54 42h-12z"/>
</svg>
