<svg class="c-social--dribbble__logo" version="1.1" width="24" height="24" viewBox="0 0 800 800" role="img" aria-labelledby="title">
    <title>Dribbble</title>
    <path d="M40 400C40 202 202 40 400 40s360 162 360 360-162 360-360 360S40 598 40 400zm473 36c41 111 58 219 59 219-0 0 111-67 131-206 0-0-94-30-190-13zm-59 14c-179 60-243 192-243 192 0 0 131 113 309 41 0 0-20-122-66-233zM171 606c109-174 262-206 262-206s-16-37-26-53c-168 50-315 43-315 43 0-0-10 118 79 216zm213-306c-52-97-114-177-114-177C125 190 99 338 99 338s138 3 285-38zm59-17c114-42 160-113 160-113S500 64 328 101c0-0 68 88 115 182zm24 46c8 15 27 59 27 59 0 0 87-15 213 10 0-116-69-192-69-192-0 0-52 75-171 123z"/>
</svg>
