<svg class="c-social--flickr__logo" version="1.1" width="24" height="24" viewBox="0 0 800 800" role="img" aria-labelledby="title">
    <title>Flickr</title>
    <path fill-rule="evenodd" d="M400,760 C600,760 760,600 760,400 C760,200 600,40 400,40 C200,40 40,200 40,400 C40,600 200,760 400,760 Z M250,520 C316,520 370,466 370,400 C370,334 316,280 250,280 C184,280 130,334 130,400 C130,466 184,520 250,520 Z M550,520 C616,520 670,466 670,400 C670,334 616,280 550,280 C484,280 430,334 430,400 C430,466 484,520 550,520 Z"/>
</svg>
