<svg xmlns="http://www.w3.org/2000/svg" width="320" height="640">
  <path fill="#282B2D" stroke="#fff" stroke-opacity=".2" stroke-width="2" d="M2 604.7c0 14.5 10 21.6 14 23.4 8.6 4 19.5 5 38.8 6.7 15.7 1 61.2 5.5 104 5.5h2c44 0 87.8-3.5 103.5-5.2 17.3-1.8 31.6-4 40.2-8 4-1.8 13.5-8 13.5-21.4V30c0-8.7-7.8-15.6-11.7-17.4-8.7-4-19-7-38.4-8.4-16-1-59-4.2-103-4.2h-9.5C112.8 0 67.5 3 52 4.2c-19 1.3-27.7 3.4-36.3 7.4C11.7 13.4 2 19.6 2 30v574.6z"/>
  <path stroke="#fff" stroke-width="3" d="M168 31c0-4.3-3.4-7.7-7.7-7.7-4.3 0-7.8 3.4-7.8 7.7 0 4.3 3.5 7.8 7.8 7.8s7.7-3.5 7.7-7.8" opacity=".1"/>
  <path fill="#fff" d="M57 33.6c0-2-2-4-4-4s-4 2-4 4c0 2.2 2 4 4 4s4-1.8 4-4" opacity=".1"/>
  <path fill="#282b2d" d="M0 120h2v100H0V120zm318-40h2v40h-2V80z"/>
  <path fill="#fff" d="M20 60h280v520H20V60z" opacity=".1"/>
</svg>
