<svg class="logo" xmlns="http://www.w3.org/2000/svg" width="150" height="36" viewBox="0 0 1500 360">
    <path d="M1371 250c-19-11-20-25-18-30 0-6 4-4 6-3 13-1 26-4 42-20 18-19 24-60-3-86-31-30-63-24-83 2-5 5-15 9-23 9-14-1-6 9-6 11s-2 4-3 5c-5-3-3 4-3 7l-2 3c-6-1-5 4-4 6 0 1-1 3-2 4-2 1-5 5-4 9-1 6 5 10 14 17s11 13 11 18c0 4 0 12 3 18 2 5 2 16-11 17-16 0-43 13-45 14-9 2-21 4-30 2-5-4-10-8-14-11-2-7 1-14 5-18 5 5 12 4 17 5l29-4c2-2 4-1 6 0 8 2 19 3 24-12 4-16-7-11-8-10-2 0-3 0-2-1 1-5-2-4-4-4-4-1-9 4-11 6-2 1-4 1-4 1-6-3-24 1-29-8 1-3-4-40-7-47 0-1-1-4 0-6 5-7 17 0 24 1 8-1 9-4 11-6 2-3 4-2 5-2 1-2 0-3 0-4 1-2 1-1 3-2 1-1 0-4 0-5 2-3 7 0 4-7-1-5 1-10 3-13 4-5 19-25-7-46-25-21-50-19-65-1-17 17-9 42-7 49 2 6-3 12-9 15-4 2-14 9-22 16 1-55 34-103 85-123l8 7c-6 4-18 15-18 16 0-1 1 0 3 1 1-1 3 0 3 1 0-1 11-10 16-14 4 3 9 6 13 8-2 4-9 15-8 16-1-1 1 0 2 1l2 2s7-13 10-17c5 2 11 3 17 4v23c-3-1-12-1-15-1h-2l1.3 2c1 0 1.7 2 2.7 3l.3 1c2.7 0 9.7 0 12.7 1l.3 42h7l-.3-10c8-1 15-1 24-2h1l7-6h-4c-10 1-18 1-25 2h-3V70c10-1 21-3 31-5 3 7 8 24 8 24l6-1c0-1-6-18-8-24 8-4 17-7 25-12 7 8 12 17 18 26-5 2-13 5-13 6 6-1 11 1 11 2 0-1 2-2 4-2l1 4 8 3-1-2-3-8 24-13c14 21 21 47 21 74 0 43-21 83-53 108zM1273 6c-8 3-16 8-24 14-2-3-4-5-6-6 9-5 20-7 30-8zm-8 23c-4-2-8-4-11-6 8-6 16-10 25-13-5 6-10 12-14 19zm21-18v22c-5-1-10-2-15-2 4-8 9-14 15-20zm6 28c6 0 12-2 18-3 4 7 7 14 11 23-10 2-19 3-29 4V39zm0-28c5 6 10 13 15 21-5 0-10 1-15 2V11zm31 12c-4 2-8 4-11 6-5-7-9-13-14-19 8 3 17 7 25 13zm10-9c-2 1-4 3-6 6-8-6-16-11-24-14 10 1 20 3 30 8zm17 34l-24 9c-3-8-7-16-11-23l12-7c8 5 16 12 23 21zm-11-32c11 4 22 10 32 18l-16 11c-7-8-15-16-23-22l7-7zm60 46l-23 13c-5-10-11-19-17-27 5-3 11-7 17-11 8 7 16 15 23 25zm-118 254c-8-4-16-7-24-7-5 5-9 8-16 11-17 5-47 2-72-7l-5-3 6-1c53-15 94-8 120 3 25-11 66-18 119-3l6 1-5 3c-25 9-55 12-73 7-6-3-10-6-15-11-9 0-17 3-24 7 6 3 29 17 44 37l1 1-1 2c-2 0-5 2-6 4h-1l-1-1c-11-14-27-29-45-39-18 10-33 25-44 39l-1 1h-1c-2-2-5-4-6-4l-1-2 1-1c15-20 37-33 44-37zm8-316c-79 0-143 63-143 141 0 79 64 143 143 143 77 0 140-64 140-143 0-78-63-141-140-141zm-158 39c-8 7-27 26-25 48 1 0 2 6 1 6l3-2c12-12 21-30 24-50l1-6-4 4zm-36 36c-2 3-4 13-5 23-2 13-2 33 10 49 0-1 3 3 3 3l1-9c3-16 0-50-6-64l-2-5-1 3zm-15 59c-1 14 0 50 29 69l3 2v-4c0-14-16-54-28-68l-3-4-1 5zm7 63c4 20 23 53 53 63l4 1-1-4c-6-16-34-51-53-62l-4-3 1 5zm57-127c-22 13-33 29-32 50v4l3-3c12-10 27-35 31-49l2-5-4 3zm-12 43c-6 5-24 25-23 49 1 3 1 7 3 12l1 4 2-3c9-13 21-46 20-61v-4l-3 3zm1 43c-9 13-14 27-14 41 0 9 4 18 9 27l3 3 1-3c4-8 8-33 7-51 0-8-1-13-2-17l-1-4-3 4zm11 45c-3 8-4 17-4 26 1 18 9 33 25 43l2 2 1-3v-3c0-16-12-55-21-66l-2-3-1 4zm-30 59c12 19 33 45 71 39l3-1-2-2c-7-11-53-37-70-39l-4-1 2 4zm57-13c3 22 12 52 51 49h2l-1-3c-2-11-37-40-49-48l-4-2 1 4zm272-206c4 20 13 38 24 50l3 2 1-6c3-22-16-41-25-48l-4-4 1 6zm36 36c-5 14-8 48-6 64l1 9 2-2 1-1c13-16 13-36 11-49-1-10-3-18-4-21l-2-5-3 5zm14 56c-11 14-27 54-28 68v4l3-2c29-19 30-55 29-69l-1-5-3 4zm-6 62c-18 11-46 46-53 62l-1 4 4-1c30-10 49-43 53-63l1-5-4 3zm-56-124c5 14 19 40 31 50l3 3v-4c1-21-8-38-31-51l-4-3 1 5zm12 43c0 15 11 48 20 61l2 3 1-4c2-5 3-9 3-12 2-24-16-44-23-49l-3-3v4zm-1 42c-1 4-1 9-2 17 0 18 3 43 7 51l1 3 3-3c6-9 9-18 9-27 1-14-4-28-14-41l-3-4-1 4zm-12 44c-9 11-20 50-20 66 0-1 1 6 1 6l2-2c16-10 24-25 24-43 1-9-1-18-4-26l-1-4-2 3zm32 57c-16 2-63 28-69 39l-2 2 3 1c38 6 58-20 70-39l2-4-4 1zm-59-12c-12 8-47 37-49 48l-1 3h2c38 3 47-27 51-49l1-4-4 2zM142 107h41v214h-40v-32h-1c-15 26-42 38-72 38-44 0-70-35-70-77V107h41v126c0 37 8 64 46 65 17-1 39-9 48-31 8-20 8-46 7-51V107zm121 32h2c13-27 42-38 64-38 14 0 80 3 80 72v148h-41V186c1-35-14-54-48-54 0 0-22-2-39 16-6 5-17 15-16 57v116h-41V107h39v32zm185-32h40v212h-40V107zm-5-93h47v44h-47V14zm211 161c-2-27-14-45-43-45-38 0-53 33-53 84 0 48 15 81 53 82 27-1 43-18 45-48h40c-3 47-39 77-85 77-68 0-95-48-95-110 0-63 31-114 98-114 45 0 78 28 80 74h-40zm208 17c1-35-15-62-54-62-33 0-53 27-53 62h107zm-104 29c-4 36 11 74 53 75 30-1 46-13 50-43h43c-7 48-44 72-95 72-67 0-94-48-94-110 0-63 31-114 98-114 63 1 93 41 93 100v20H758zm192 98V136h-35v-28h35V62c2-46 37-58 66-58 10 0 20 2 29 4v33c-6 0-13-1-20-1-23 0-36 6-35 29v39h49v28h-49v183h-40z"/>
</svg>
