<svg xmlns="http://www.w3.org/2000/svg" width="494" height="549" viewBox="0 0 494 549"><g fill="none"><path fill="#61BB46" stroke="#61BB46" stroke-width="3" d="M310.2 89C328 66 341.5 33.6 336.6.5c-29 2-63 20.6-83 44.8-18 22-33 54.6-27 86.3 31.6 1 64.5-18 83.6-42.6zM25 197.7l.5-.8c28-44 72.4-69 114-69 42.4 0 69 23 104 23 34 0 55-23.4 104-23.4 37 0 76.2 20.2 104.2 55.3-7.8 4.2-14.7 9-21 14.4H25z"/><path fill="#FDB827" d="M23.5 197C11.5 216 3 243.5 1 267.4h392c4.4-26.4 18.5-51.4 41-70.4H23.5z"/><path fill="#F5821F" stroke="#F5821F" stroke-width="3" d="M4.4 337c-3.8-24.6-4.4-48-2-69.7h389.2c-3.8 23.4-.6 47.8 9 69.6H4.4z"/><path fill="#E03A3E" stroke="#E03A3E" stroke-width="3" d="M23.4 406.4C14.4 383 8 359.6 4.4 337h396.2c12.3 27.6 35 51.2 67 63.4-1 2-2 4-2.8 6H23.4z"/><path fill="#963D97" stroke="#963D97" stroke-width="3" d="M464.8 406.5c-11 24.2-17.4 36.7-32.6 60-2 3-4 6.3-6.3 9.5H60l-3.5-5.2c-13.6-21-24.7-42.6-33.3-64.4h441.4z"/><path fill="#009DDC" stroke="#009DDC" stroke-width="3" d="M426 476c-22.5 33-52.5 69-89 69.4-35.5.4-44.6-23.2-93-23-48 .3-58.2 23.5-93.7 23-38-.2-67.6-35.8-90-69.4H426z"/><path stroke="#000" stroke-width="3.9" d="M466.3 544.8c13.4 0 24.3-11 24.3-24.4 0-13.5-11-24.4-24.3-24.4-13.4 0-24.3 11-24.3 24.4 0 13.4 11 24.4 24.3 24.4m-7-9.6V508h11m6.5 27l-6.5-14m-11 0h11m0 0c2.7 0 5.4-3 5.4-6.5 0-3.8-2.8-6.5-5.4-6.5"/></g></svg>