<svg class="c-item__logo" version="1.1" width="48" height="48" viewBox="0 0 960 960" role="img" aria-labelledby="title">
  <title>24 ways</title>
  <path d="M0 480L480 0l480 480-480 480L0 480zm369.2-155c-50.5 0-88.5 30.3-95.4 83.3l10.4 1.8 2.2.4c4.4 0 7.2-2.6 8.7-7.7 6.5-34.8 34-60 73-60 36 0 68.7 20.6 68.7 66.2 0 39.7-26.4 69.6-61 105L270.3 620.3c-2.4 2.4-4.2 6-4.2 9.2v7.4h199.3v-12.2c0-4.4-3-7.4-7.7-7.4H324.3c-10.2 0-20.2 1-29.6 3.5l96.6-98.8c35.5-36.2 66.4-67.5 66.4-114.2 0-55.7-41.4-83-88.5-83zm270 3h-18.6l-155 205 2 10.3c.8 3.2 3 5.2 7.4 5.2h145.4V637H639v-88.5h50.7c4.2 0 6-2 6-5.2V532H639V328zm-18.8 204h-132l133-178c-.8 6-1 11.4-1 16.4V532z"/>
</svg>
