<svg class="c-social--github__logo" version="1.1" width="24" height="24" viewBox="0 0 800 800" role="img" aria-labelledby="title">
  <title>GitHub</title>
  <path d="M400 48c200 0 360 160 360 360 0 160-104 296-246 343-13 4-24-3-24-18v-99c0-48-25-66-25-66 79-9 165-39 165-178-0-61-38-97-38-97 0-0 20-40-2-95-0-0-30-10-100 37-58-17-122-17-180 0-69-47-100-37-100-37-22 55-3 95-2 95-0-0-38 36-38 97 0 139 86 170 165 178 0-0-20 14-24 48-20 10-73 25-105-30 0 0-18-35-54-38 0-0-36-0-3 23 0-0 24 11 41 52-0-0 22 71 121 49v61c0 15-12 22-25 18C144 708 40 568 40 408 40 209 200 48 400 48z"/>
</svg>
