<svg xmlns="http://www.w3.org/2000/svg" width="600" height="92" viewBox="-145.5 445.333 600 92" enable-background="new -145.5 445.333 600 92">
    <path fill="#00054C" d="M-123.324 514.74c4.023-.758 7.742-4.125 7.742-8.395 0-8.045-6.941-10.959-14.027-10.959h-15.891c1.309.705 1.867 2.262 1.867 3.672v33.381c0 1.361-.555 2.969-1.867 3.623h17.246c6.738 0 16.292-2.311 16.292-11.459-.003-6.393-5.581-9.914-11.362-9.863zm-11.914-15.688c1.359-.148 1.859-.148 2.613-.148 4.828 0 8.597 1.609 8.597 7.238 0 5.633-4.726 7.141-9.605 7.141h-1.605v-14.231zm5.43 33.487c-1.762 0-3.668-.1-5.43-.455v-15.035c1.406-.098 2.461-.098 3.621-.098 5.125 0 10.054 1.406 10.054 7.543-.004 6.234-4.172 8.045-8.245 8.045zm79.084-37.159l-2.816 5.984c1.809-1.055 4.273-1.305 6.335-1.305h9v32.379c0 1.406-.656 3.016-2.012 3.621h12.418c-1.305-.602-2.008-2.211-2.008-3.621v-32.48c3.367 0 7.289.148 9.648.203 1.961 0 5.332-2.262 6.484-5.328-2.363.504-4.828.547-7.242.547h-29.807zm51.027 0h-12.52c1.008.504 2.059 1.809 2.059 3.672v33.387c0 1.805-1.051 3.164-2.059 3.621h12.52c-1.055-.457-2.059-1.809-2.059-3.621v-33.387c0-1.859 1.004-3.168 2.059-3.672zm-91.049 19.912c5.933 0 11.261-3.316 11.261-9.754 0-7.689-7.992-10.156-14.378-10.156h-14.73c1.305.709 1.91 2.266 1.91 3.672v33.385c0 1.406-.602 2.965-1.91 3.623h12.219c-1.309-.602-1.91-2.262-1.91-3.623v-15.539c5.281.051 7.34 5.535 9.703 9.504 1.504 2.465 5.332 8.695 8.094 9.5 1.504.457 3.215.402 4.777.402 2.613 0 5.227-.301 7.738-1.055-9.349-.05-14.326-19.906-22.774-19.959zm-5.629-2.009c-.656 0-1.258-.049-1.91-.102v-14.082c.707-.098 1.355-.203 2.059-.203 4.473 0 7.792 1.809 7.792 6.887 0 4.988-3.367 7.502-7.941 7.502v-.002zm41.527-17.903h-12.516c1 .504 2.059 1.809 2.059 3.672v33.387c0 1.805-1.055 3.164-2.059 3.621h12.516c-1.055-.457-2.059-1.809-2.059-3.621v-33.387c0-1.859 1.004-3.168 2.059-3.672zm130.67 0h-12.07c.906.457 1.863 1.809 1.863 3.672v13.68c-2.211.203-5.23.352-8.648.352-3.52 0-6.543-.102-8.75-.352v-13.68c0-1.859.906-3.215 1.812-3.672h-12.07c.906.457 1.863 1.809 1.863 3.672v33.387c0 1.805-.957 3.213-1.863 3.621h12.07c-.906-.457-1.812-1.809-1.812-3.621v-15.137c2.215-.25 5.281-.352 8.75-.352 3.414 0 6.433.102 8.648.352v15.137c0 1.805-.957 3.213-1.863 3.621h12.07c-.91-.457-1.812-1.809-1.812-3.621v-33.387c-.001-1.859.905-3.215 1.812-3.672zm-61.039 7.696c0-3.371 3.07-4.824 6.035-4.824 3.722 0 7.742 2.41 9.351 5.787l-.453-7.596c-2.613-1.207-6.738-1.605-9.605-1.605-6.387 0-13.676 2.512-13.676 10.148 0 12.371 18.25 14.129 18.25 21.871 0 4.432-3.015 6.189-7.089 6.189-5.328 0-9.605-3.672-11.664-8.393-.254 1.658-.398 3.314-.398 4.975 0 1.41.098 2.814.297 4.176 3.316 2.264 8.648 3.018 12.566 3.018 7.492 0 14.933-3.525 14.933-12.018.008-11.721-18.547-13.683-18.547-21.728zm280.758-7.696c.605.402.859.754.859 1.363 0 .453-.5 1.355-1.258 2.664 0 0-6.133 10.656-6.789 11.863l-7.742-12.27c-2.414-3.77-4.375-4.121-8.293-4.121-2.363 0-5.883.652-7.043 1.109 4.219 0 7.746 5.832 8.5 7.086l8.348 13.426v15.938c0 1.258-.555 2.969-1.762 3.623h11.961c-1.258-.602-1.805-2.311-1.805-3.623v-15.885l9.652-16.893c.902-1.611 2.312-3.469 4.023-4.275h-8.652v-.005h.001zm-54.495 0h-7.949c.5.402.707.707.707 1.211 0 .402-.102.652-.301 1.303l-7.996 23.936-10.555-26.451-9.604 27.455-9-24.332c-.148-.459-.352-1.008-.352-1.41 0-.857.352-1.305.855-1.709h-12.016c1.512.803 2.512 2.311 3.121 3.877l13.824 36.799h3.816l8.042-22.779 5.582 14.129c.707 1.805 2.613 6.734 3.875 7.891.547.402 1.551.754 2.562.754l12.371-36.703c.503-1.502 1.557-3.217 3.018-3.971zm71.741 7.696c0-3.371 3.07-4.824 6.039-4.824 3.715 0 7.742 2.41 9.348 5.787l-.453-7.596c-2.613-1.207-6.738-1.605-9.602-1.605-6.383 0-13.68 2.512-13.68 10.148 0 12.371 18.254 14.129 18.254 21.871 0 4.432-3.02 6.189-7.09 6.189-5.332 0-9.605-3.672-11.668-8.393-.25 1.658-.402 3.314-.402 4.975 0 1.41.102 2.814.301 4.176 3.316 2.264 8.645 3.018 12.57 3.018 7.543 0 14.93-3.525 14.93-12.018.008-11.721-18.547-13.683-18.547-21.728zm-40.472 29.812l-13.68-37.508h-10.554c.854.457 1.507 1.363 1.507 2.316 0 .203-.047.348-.098.5l-13.472 34.742c-.5 1.258-1.555 2.516-2.766 3.121h8.199c-.457-.203-.957-.504-.957-1.109 0-.25.148-.707.652-1.91l3.926-9.953c2.41-.254 4.874-.305 7.288-.305 2.559 0 5.18 0 7.691.305.398 1.049 3.719 10.156 3.719 10.156.254.75.402 1.15.402 1.4 0 .709-.355 1.004-.754 1.41h11.664c-1.009-.548-2.217-1.653-2.767-3.165zm-20.063-13.672c-1.859 0-3.769-.051-5.628-.254l6.187-15.836 5.73 15.836c-2.07.254-4.176.254-6.289.254zm-122.872 13.672l-13.68-37.508h-10.555c.855.457 1.508 1.363 1.508 2.316l-.102.5-13.476 34.742c-.504 1.258-1.559 2.516-2.766 3.121h8.195c-.453-.203-.957-.504-.957-1.109 0-.25.152-.707.656-1.91 0 0 3.57-9.047 3.921-9.953 2.414-.254 4.875-.305 7.289-.305 2.562 0 5.18 0 7.695.305.398 1.049 3.723 10.156 3.723 10.156.297.75.398 1.15.398 1.4 0 .709-.352 1.004-.754 1.41h11.668c-1.006-.548-2.213-1.653-2.763-3.165zm-20.063-13.672c-1.863 0-3.773-.051-5.629-.254l6.184-15.836 5.73 15.836c-2.062.254-4.172.254-6.285.254zm37.406-23.836h-12.519c1.004.504 2.062 1.809 2.062 3.672v33.387c0 1.805-1.058 3.164-2.062 3.621h12.519c-1.055-.457-2.059-1.809-2.059-3.621v-33.387c-.004-1.859 1.004-3.168 2.059-3.672zm25.543 19.912c4.426 0 10.258-3.316 10.258-9.754 0-7.689-7.996-10.156-14.383-10.156h-14.727c1.309.709 1.91 2.266 1.91 3.672v33.385c0 1.406-.602 2.965-1.91 3.623h12.219c-1.305-.602-1.914-2.262-1.914-3.623v-15.539c5.281 0 8.348 5.535 10.707 9.504 1.512 2.465 5.332 8.695 8.098 9.5 1.508.457 3.215.402 4.773.402 2.617 0 5.23-.301 7.746-1.055-8.703 0-13.984-19.455-22.777-19.959zm-6.637-2.009c-.656 0-1.262-.049-1.914-.102v-14.082c.707-.098 1.359-.203 2.062-.203 4.473 0 7.793 1.809 7.793 6.887 0 4.988-3.367 7.502-7.941 7.502v-.002z"/>
    <linearGradient id="a" x1="1482" y1="-1425" x2="1412" y2="-1465" gradientTransform="matrix(1 0 0 -1 -1027 -958)">
        <stop offset="0" stop-color="#11266F"/>
        <stop offset="1" stop-color="#4266AE"/>
    </linearGradient>
    <path fill="url(#a)" d="M437.791 467.895c-5.043 4.777-11.669 7.959-17.941 10.779-6.551 2.945-13.317 5.381-20.079 7.792-10.122 3.608-20.426 6.644-30.65 9.947 12.805 3.84 25.847 7.019 39.036 9.224 1.799.301 4.148 1.075 5.99.899 2.619-.25 5.725-2.086 8.089-3.099 6.665-2.855 13.183-6.17 19.521-9.687 4.097-2.274 9.279-5.346 11.555-9.638 2.315-4.366 1.147-8.701-2.611-11.723-1.504-1.206-12.431-6.912-12.91-4.494z"/>
    <linearGradient id="b" gradientUnits="userSpaceOnUse" x1="1314" y1="-1440" x2="1475" y2="-1381" gradientTransform="matrix(1 0 0 -1 -1027 -958)">
        <stop offset="0" stop-color="#E0162B"/>
        <stop offset=".57" stop-color="#FF0108"/>
        <stop offset=".75" stop-color="#FFB8BB"/>
        <stop offset=".80" stop-color="#FFB0B3"/>
        <stop offset=".85" stop-color="#FF010A"/>
        <stop offset="1" stop-color="#f00"/>
    </linearGradient>
    <path fill="url(#b)" d="M454.5 479.153c-3.089-12.469-22.601-12-32.667-12.004-10.067.003-20.112.396-30.175.54-27.745.396-55.545.5-83.282-.294-17.385-.498-34.782-1.531-51.959-4.373-15.757-2.607-31.766-5.781-46.933-10.876 35.307-1.26 70.602-2.885 105.903-4.283 17.26-.685 34.521-1.391 51.787-1.907 9.558-.287 19.127-.619 28.688-.622 6.299-.001 12.831.063 19.076.873 7.359.954 15.35 2.447 21.896 6.096 5.624 3.135 8.981 8.506 12.184 13.908 2.306 3.888 5.072 8.48 5.482 12.942z"/>
</svg>