<svg width="400" height="472" viewBox="0 0 400 472" xmlns="http://www.w3.org/2000/svg"><g fill="#00729C"><path d="M202.788 126.813c.096.579.096.965.096 1.689 0 .627-.048 2.027-.096 3.088l-1.205 21.812-.241 3.329c-.096 1.013-.145 1.495-.385 2.267h5.203c-.145-1.014-.145-1.447-.145-3.281 0-.386 0-1.062.049-1.496l.818-21.182 7.757 25.959h4.529l7.66-26.009.819 21.039v1.352c.048.819.048 1.833.048 2.074 0 .772 0 .966-.096 1.544h5.684c-.144-.676-.192-1.014-.288-1.592-.097-.579-.048-.386-.289-3.33v-.482l-1.157-21.617c-.096-1.544-.144-2.702-.144-3.619 0-.627 0-.965.096-1.545h-6.696l-7.662 26.25-7.709-26.25h-6.648M259.72 128.966c-.109 1.367-.372 2.957-.846 5.012l-5.259 22.815c-.463 2.007-.922 3.551-1.422 4.827l6.013 1.39c.015-.512.071-.755.101-1.11.129-1.002.486-2.776.734-3.852l5.259-22.815c.192-.832.579-2.29.831-3.16.241-.82.345-1.055.601-1.717l-6.012-1.39M294.809 138.26c-.434 1.415-1.082 3.028-2.038 5.035l-10.887 22.857c-.956 2.006-1.799 3.527-2.625 4.755l17.154 8.195 2.028-4.259c-.802-.202-2.048-.738-4.54-1.928l-6.988-3.339 11.282-23.69c.373-.783 1.121-2.229 1.59-3.085.445-.81.61-1.031 1.035-1.67l-6.01-2.871M338.922 161.908c-.916 1.296-2.117 2.724-3.763 4.449l-18.753 19.654c-1.647 1.726-3.015 2.992-4.267 3.967l14.749 14.117 3.494-3.662c-.751-.477-1.842-1.44-3.985-3.491l-6.01-5.751 19.436-20.369c.642-.674 1.889-1.896 2.653-2.614.725-.674.967-.845 1.614-1.354l-5.168-4.947M377.148 202.711c-1.373.995-3.079 2.025-5.392 3.232l-25.668 13.38c-2.259 1.179-4.079 1.986-5.68 2.542l10.895 20.964 4.848-2.527c-.481-.522-.624-.797-1.11-1.596-.571-.964-1.059-1.903-1.518-2.785l-5.19-9.986 12.504-6.518 5.076 9.766c.26.635.518 1.131.603 1.296.26.636.461 1.022.666 1.686l4.792-2.499c-.655-.991-.684-1.045-1.285-2.203-.658-1.131-.858-1.516-.915-1.627l-4.531-8.717 10.852-5.658 4.731 9.102c.316.608.832 1.601 1.436 2.899.376.856.518 1.133.725 1.797l4.626-2.412-10.465-20.137M399.437 265.995c-1.785.265-3.899.398-6.676.398l-30.797-.001c-2.709 0-4.824-.132-6.609-.398v7.017c2.048-.331 4.296-.464 6.609-.464l28.484.001-35.093 18.334-.001 7.944h37.407c2.842 0 5.221.132 6.675.399v-7.017c-2.048.33-4.362.463-6.675.463l-27.824-.001 34.5-17.936v-8.738M395.046 338.704c-1.855-.466-3.98-1.194-6.699-2.323l-30.165-12.513c-2.655-1.102-4.671-2.09-6.312-3.075l-2.842 6.872c2.14.509 4.394 1.293 6.66 2.231l27.899 11.575-41.8 3.699-3.217 7.779 36.637 15.2c2.784 1.155 5.061 2.252 6.377 3.102l2.842-6.872c-2.14-.51-4.46-1.32-6.725-2.26l-27.253-11.305 41.057-3.552 3.54-8.558M357.007 406.665c-1.655-1.162-3.475-2.689-5.731-4.832l-25.028-23.788c-2.203-2.093-3.82-3.834-5.066-5.428l-6.269 6.616c.639.403.907.658 1.334.963 1.176.913 3.161 2.695 4.342 3.82l25.029 23.789c.913.867 2.473 2.452 3.388 3.425.864.922 1.081 1.231 1.73 2.053l6.27-6.618M321.602 439.258c-1.271-1.712-2.588-3.842-4.136-6.733l-11.834-22.105c-3.834-7.162-6.567-9.95-11.04-11.361-4.329-1.309-9.716-.455-15.148 2.46-5.707 3.066-9.36 7.156-10.922 12.339-1.563 5.183-.779 9.46 3.129 16.76l10.95 20.453c1.474 2.754 2.701 5.376 3.384 7.314l8.045-4.319c-.506-.615-.69-.959-1.017-1.405-.875-1.304-2.271-3.746-3.12-5.329l-10.949-20.454c-2.802-5.232-3.547-8.113-3.082-11.377.46-3.439 2.68-6.404 6.186-8.286 2.749-1.478 6.165-1.715 8.635-.737 2.72 1.11 4.919 3.565 7.573 8.523l11.576 21.623c.628 1.17 1.665 3.274 2.259 4.549.558 1.207.674 1.589 1.053 2.627l8.457-4.542M242.643 469.813c-.176-.948-.186-1.584-.208-2.772-.018-1.031.022-3.33.071-5.076l1.354-35.866.3-5.475c.129-1.668.194-2.463.569-3.738l-8.549.15c.267 1.661.279 2.375.331 5.385.012.636.031 1.745-.036 2.46l-.738 34.823-13.487-42.426-7.44.13-11.841 42.949-1.948-34.541-.039-2.218c-.102-1.347-.131-3.012-.138-3.407-.022-1.27-.027-1.586.113-2.54l-9.339.164c.257 1.105.346 1.659.521 2.607.174.948.09.632.57 5.462l.014.792 2.519 35.481c.201 2.535.314 4.435.34 5.943.018 1.03.028 1.585-.115 2.538l11.003-.192 11.834-43.344 13.415 42.901 10.924-.19"/><path d="M146.361 462.998c.498-2.241 1.305-4.815 2.54-8.035l14.027-36.6c1.264-3.299 2.384-5.752 3.511-7.751l-9.646-3.709c-.145.846-.294 1.239-.427 1.819-.445 1.632-1.451 4.489-2.143 6.296l-5.839 15.236-3.763-1.447c-6.118-2.351-10.026-2.953-13.885-2.274-4.963.977-8.923 4.501-11.03 9.999-2.017 5.261-1.586 10.473 1.227 14.168 2.112 2.705 4.568 4.28 10.293 6.48l15.134 5.819zm-.354-26.539l-6.443 16.806c-1.206-.374-1.911-.644-2.853-1.006-8.704-3.346-10.902-6.533-8.554-12.66 1.174-3.063 3.205-5.076 5.785-5.705 2.394-.612 4.614-.3 8.614 1.239l3.451 1.326zM82.766 431.692c1.397-1.957 3.165-4.045 5.733-6.706l28.484-29.542c2.566-2.661 4.649-4.568 6.553-6.035l-7.722-7.468c-1.275 1.829-3.287 4.17-5.794 6.769l-12.53 12.996-2.785-2.694c-4.747-4.59-4.848-6.77-.514-15.197l4.576-8.806c.299-.69 1.264-2.452 2.047-3.9.606-1.008.848-1.386 1.518-2.208l-7.785-7.529c-.653 1.819-.773 2.07-2.273 5.274-.602 1.132-.122.128-1.563 3.145l-4.991 9.997c-3.426 6.977-3.549 10.532-.547 15.03-7.224-3.926-13.376-3.382-18.266 1.69-3.484 3.613-4.765 8.621-3.319 13.083 1.059 3.596 3.354 6.797 7.594 10.899l11.583 11.203zm9.895-24.978l-12.53 12.996-2.658-2.572c-6.457-6.243-7.336-10.28-3.118-14.654 4.401-4.564 9.572-4.218 14.889.925l3.418 3.305zM18.152 354.517c7.846 14.472 24.734 17.817 42.238 8.296 18.248-9.923 24.266-23.474 16.599-37.614-7.935-14.638-24.561-17.695-42.809-7.773-9.248 5.03-16.183 12.548-18.372 19.95-1.585 5.359-.704 11.519 2.344 17.141zm7.347-2.817c-4.573-8.435.498-17.616 13.709-24.803 8.588-4.669 14.8-6.227 20.931-5.172 4.146.746 7.59 3.154 9.518 6.711 4.573 8.435-.671 17.497-14.626 25.085-8.091 4.4-15.48 5.956-21.163 4.549-3.476-.894-6.756-3.393-8.37-6.37zM.308 288.524c2.742-.393 5.876-.588 9.891-.588l45.641-.001c4.113 0 7.149.197 9.794.588l-.001-19.225c0-10.103-1.86-17.068-5.974-22.169-5.583-6.767-16.062-11.083-27.326-11.083-9.697 0-18.021 2.551-23.898 7.455-6.269 5.297-8.129 10.691-8.128 23.934v21.09zm57.197-11.477h-49.46v-7.063c0-8.142 1.371-12.948 4.603-16.381 3.819-4.022 11.361-6.375 20.274-6.376 7.247 0 13.809 1.668 17.922 4.61 4.898 3.531 6.661 8.239 6.661 18.048v7.161zM1.705 195.231c2.757.368 5.949 1.072 10.063 2.254l31.45 9.031c10.189 2.926 15.286 2.904 20.678-.009 5.168-2.87 9.276-8.698 11.496-16.45 2.331-8.144 1.834-15.295-1.59-21.482-3.424-6.187-8.139-9.345-18.525-12.327l-29.097-8.357c-3.92-1.124-7.489-2.362-9.925-3.486l-3.286 11.481c1.036.084 1.526.226 2.24.324 2.015.366 5.57 1.282 7.824 1.929l29.099 8.356c7.444 2.139 10.818 4.061 13.447 7.47 2.797 3.565 3.547 8.348 2.116 13.351-1.125 3.924-4.012 7.344-7.177 8.77-3.516 1.539-7.813 1.366-14.868-.658l-30.763-8.835c-1.666-.478-4.577-1.419-6.312-2.025-1.638-.577-2.099-.814-3.415-1.405l-3.455 12.068M69.402 62.098c-6.172 3.853-9.77 6.746-14.163 11.633-14.03 15.606-11.83 33.29 6.193 49.541 7.082 6.388 15.403 10.607 23.037 11.783 9.068 1.325 16.428-1.313 22.451-8.012 6.165-6.858 9.307-15.584 10.263-28.852l-8.603-1.051c.008 3.005-.325 5.274-.97 8.689-1.402 6.157-3.15 10.003-6.126 13.313-7.158 7.961-20.326 5.649-33.076-5.848-5.588-5.04-10.057-11.638-11.52-16.668-1.597-6.149-.171-11.858 4.365-16.901 3.826-4.256 8.597-7.662 13.516-9.647l-5.366-7.979M125.642 32.372l20.477 49.51c.757 1.83 1.875 4.819 2.489 6.59.613 1.77.722 2.32 1.107 3.827l12.486-5.178c-1.373-2.17-3.048-5.644-4.813-9.913l-20.478-49.51 10.151-4.211c3.451-1.433 5.929-2.341 9.058-3.402l-3.49-8.437-49.433 20.508 3.49 8.436c1.176-.606 1.845-1.003 3.367-1.634 1.684-.819 3.714-1.66 5.338-2.333l10.253-4.254M193.478 76.168c7.172 2.395 13.093 3.421 20.152 3.421 15.485 0 26.189-9.579 26.189-23.606 0-9.464-4.783-15.394-18.332-22.692-5.123-2.736-8.425-4.789-9.906-5.93-3.074-2.508-4.554-5.017-4.554-7.982 0-6.157 5.352-10.378 12.98-10.378 3.871 0 7.059.799 12.296 3.079l2.392-9.692c-5.465-1.711-10.589-2.508-16.055-2.508-14.345 0-24.138 8.666-24.138 21.438 0 8.896 4.556 14.254 18.331 21.667 11.273 6.044 14.46 9.464 14.46 15.281 0 3.193-1.48 6.157-4.098 8.438-2.846 2.395-6.149 3.423-11.273 3.423-5.579 0-9.792-1.027-15.94-3.992l-2.504 10.035"/></g></svg>