<svg xmlns="http://www.w3.org/2000/svg" xmlns:xlink="http://www.w3.org/1999/xlink" width="960" height="280" viewBox="0 0 3840 1120">
    <mask id="m" fill="#fff">
        <circle cx="1960" cy="360" r="360"/>
    </mask>
    <path fill="#09f" d="M2643.43 172.85V280.8H2600V20.6h89.53c28.95 0 51.35 6.54 67.2 19.64 15.84 13.1 23.77 31.8 23.77 56.12 0 13.46-3.5 25.05-10.46 34.76-6.97 9.7-17.12 17.48-30.47 23.32 14.66 4.65 25.23 12.2 31.72 22.7 6.5 10.48 9.7 23.47 9.7 38.95v21.6c0 7.6.9 15 2.8 22.3 1.9 7.2 5 12.8 9.4 16.6v4.1h-44.7c-4.8-4-7.8-10.1-9.2-18.4-1.3-8.4-2-16.7-2-25v-20.9c0-13.4-3.9-24-11.5-31.8-7.7-7.9-18.2-11.8-31.4-11.8h-51.3zm0-34.85h43.78c17.4 0 30.1-3.34 38.1-10 8-6.68 12-16.87 12-30.57 0-13.1-3.9-23.38-11.8-30.83-7.8-7.44-19.8-11.17-35.9-11.17h-46.1V138zm161.92 44.32c0-28.83 7.9-52.45 23.68-70.86 15.78-18.4 37.38-27.6 64.78-27.6 27.8 0 49.6 9.2 65.4 27.6 15.8 18.4 23.7 42.03 23.7 70.86v3.75c0 29.07-7.9 52.75-23.6 71.04-15.8 18.3-37.4 27.5-64.9 27.5-27.6 0-49.3-9.1-65.1-27.5-15.8-18.3-23.7-42-23.7-70.9v-3.7zm43.42 3.75c0 18.94 3.7 34.3 11.08 46.1 7.4 11.8 18.83 17.7 34.32 17.7 15.13 0 26.48-5.93 34.04-17.78 7.6-11.9 11.4-27.2 11.4-46.1v-3.8c0-18.5-3.8-33.7-11.3-45.7-7.5-12-19-18-34.4-18-15.1 0-26.4 5.9-33.8 17.9-7.4 11.9-11.1 27.2-11.1 45.6v3.8zm326.7 4.47c0 28.23-6.6 50.96-19.75 68.18-13.17 17.2-31.72 25.82-55.67 25.82-12.15 0-22.7-2.5-31.63-7.5-8.94-5-16.38-12.28-22.34-21.8l-5.18 25.55h-35.2V2h43.42v107.4c5.96-8.22 13.1-14.53 21.44-18.94 8.34-4.4 18.05-6.6 29.13-6.6 24.1 0 42.8 9.4 56 28.22 13.1 18.83 19.7 43.73 19.7 74.7v3.76zm-43.43-3.76c0-20.13-3.46-36.4-10.37-48.78-6.9-12.4-17.87-18.6-32.88-18.6-9.7 0-17.8 2.16-24.3 6.45-6.5 4.28-11.7 10.24-15.5 17.87v81.13c3.7 7.74 8.8 13.73 15.3 17.96 6.5 4.3 14.7 6.4 24.6 6.4 15 0 25.9-5.2 32.7-15.8 6.8-10.5 10.2-24.8 10.2-42.8v-3.7zm57.9-4.46c0-28.83 7.9-52.45 23.7-70.86 15.78-18.4 37.37-27.6 64.77-27.6 27.8 0 49.6 9.2 65.4 27.6 15.8 18.4 23.7 42.03 23.7 70.86v3.75c0 29.07-7.9 52.75-23.6 71.04-15.8 18.3-37.4 27.5-64.9 27.5-27.6 0-49.3-9.1-65.1-27.5-15.8-18.3-23.7-42-23.7-70.9v-3.7zm43.44 3.75c0 18.94 3.7 34.3 11.08 46.1 7.4 11.8 18.82 17.7 34.3 17.7 15.14 0 26.5-5.93 34.06-17.78 7.56-11.9 11.34-27.2 11.34-46.1v-3.8c0-18.5-3.78-33.7-11.34-45.7-7.57-12-19.04-18-34.4-18-15.14 0-26.43 5.9-33.87 17.9-7.45 11.9-11.17 27.2-11.17 45.6v3.8zm212.5-145.65v47h34.67v32.17h-34.67v106.8c0 7.9 1.72 13.6 5.18 17 3.45 3.4 8.04 5.1 13.76 5.1 2.38 0 4.7-.2 6.97-.7 2.2-.4 4.4-1 6.4-1.7l4.6 31.8c-3.7 2-8.1 3.6-13.2 4.7s-10.4 1.7-15.8 1.7c-16 0-28.5-4.7-37.7-14-9.1-9.4-13.7-24.1-13.7-44.1V119.6H3373V87.4h29.5v-47h43.24zm46.65 141.9c0-28.83 7.9-52.45 23.68-70.86 15.8-18.4 37.4-27.6 64.8-27.6 27.8 0 49.6 9.2 65.3 27.6 15.8 18.4 23.7 42.03 23.7 70.86v3.75c0 29.07-7.9 52.75-23.7 71.04-15.7 18.3-37.4 27.5-64.9 27.5-27.6 0-49.3-9.1-65.1-27.5-15.8-18.3-23.6-42-23.6-70.9v-3.7zm43.43 3.75c0 18.94 3.7 34.3 11.08 46.1 7.38 11.8 18.82 17.7 34.3 17.7 15.14 0 26.5-5.93 34.05-17.78 7.5-11.9 11.3-27.2 11.3-46.1v-3.8c0-18.5-3.8-33.7-11.4-45.7-7.6-12-19.1-18-34.4-18-15.2 0-26.5 5.9-33.9 17.9-7.5 11.9-11.2 27.2-11.2 45.6v3.8zm-869.5 292.6c0 9.8-3.1 17.9-9.26 24.25-6.16 6.36-14.18 9.54-24.06 9.54-9.84 0-17.83-3.2-23.95-9.57-6.2-6.4-9.2-14.5-9.2-24.3v-14.3c0-9.8 3-17.8 9.1-24.2 6.1-6.4 14-9.6 23.8-9.6 9.9 0 17.9 3.2 24.1 9.6 6.2 6.4 9.3 14.4 9.3 24.2v14.3zm-15.93-14.44c0-6.2-1.55-11.3-4.65-15.26-3.1-3.98-7.38-5.96-12.85-5.96-5.4 0-9.6 2-12.6 6s-4.52 9.1-4.52 15.3v14.5c0 6.3 1.6 11.5 4.6 15.5 3.1 4 7.3 6 12.7 6 5.5 0 9.7-2 12.8-5.9 3.1-4 4.6-9.1 4.6-15.4v-14.5zm61.1 38.33c-1.82 3.17-4.14 5.62-6.94 7.33-2.9 1.7-6.1 2.5-9.8 2.5-6.3 0-11.1-2.1-14.7-6.4-3.5-4.3-5.3-10.8-5.3-19.7v-34.2h15.9v34.4c0 5.1.7 8.7 2.1 10.6 1.4 1.9 3.6 2.8 6.5 2.8 2.5 0 4.7-.4 6.5-1.2 1.8-.8 3.3-2 4.5-3.6v-43h15.9v59.1H2713l-1.7-8.7zm55.58-36.7l-5.8-.16c-2.3 0-4.3.5-5.8 1.48s-2.7 2.37-3.5 4.16v39.97h-15.9v-59.1h14.8l.7 8.8c1.4-3.1 3.2-5.5 5.4-7.2 2.2-1.7 4.8-2.6 7.6-2.6.8 0 1.6.1 2.2.2.7.2 1.4.3 2.1.5l-1.7 14.2zm46.1-13.72l.7 7.82c1.9-2.84 4.3-5.04 7.2-6.6 2.9-1.54 6.2-2.3 9.9-2.3 3.8 0 7.1.83 9.8 2.5 2.7 1.68 4.7 4.2 6.1 7.6 1.9-3.17 4.2-5.65 7.1-7.43 3-1.8 6.4-2.68 10.3-2.68 5.9 0 10.5 2.07 13.8 6.2 3.4 4.14 5.1 10.46 5.1 18.95v35.1h-16v-35.15c0-4.74-.7-8.04-2.2-9.9-1.4-1.86-3.6-2.8-6.5-2.8-2.2 0-4.2.5-5.9 1.5-1.6 1.02-2.9 2.4-3.9 4.2 0 .7.1 1.28.1 1.78.1.5.1 1 .1 1.5v38.88h-16v-35.1c0-4.6-.7-7.9-2.2-9.8-1.5-1.9-3.7-2.8-6.6-2.8-2.1 0-4 .4-5.6 1.3-1.6.8-2.9 2-4 3.5v43.2h-15.9v-59.2h14.9zm96.4 59.17h-15.9v-59.1h16v59.2zm0-73.3h-15.9v-12h16v12zm42.6 57c0-1.7-.8-3.2-2.5-4.5-1.7-1.2-4.8-2.3-9.4-3.3-6.9-1.4-12.2-3.5-15.7-6.3-3.6-2.8-5.4-6.6-5.4-11.4 0-5 2.2-9.4 6.5-12.9s10.1-5.3 17.2-5.3c7.5 0 13.5 1.8 18 5.4 4.5 3.6 6.7 8.1 6.5 13.4l-.1.3H2952c0-2.3-.75-4.3-2.3-5.8-1.5-1.5-3.72-2.2-6.6-2.2-2.54 0-4.56.7-6.06 1.9-1.5 1.3-2.25 2.9-2.25 4.8 0 1.8.8 3.3 2.3 4.5 1.6 1.2 4.7 2.2 9.4 3.1 7.2 1.5 12.6 3.6 16.2 6.4 3.5 2.8 5.3 6.7 5.3 11.7 0 5.3-2.3 9.7-6.9 13.1-4.6 3.4-10.6 5.1-18.1 5.1-7.9 0-14.1-2-18.7-6s-6.8-8.5-6.6-13.6l.1-.3h14.6c.1 3.2 1.1 5.5 3.1 6.9 2 1.4 4.5 2.2 7.7 2.2 2.9 0 5.2-.6 6.7-1.8 1.5-1.2 2.3-2.8 2.3-4.9zm55.3 0c0-1.7-.8-3.2-2.5-4.5-1.7-1.2-4.8-2.3-9.4-3.3-6.9-1.4-12.2-3.5-15.7-6.3-3.6-2.8-5.4-6.6-5.4-11.4 0-5 2.2-9.4 6.5-12.9s10.1-5.3 17.2-5.3c7.5 0 13.5 1.8 18 5.4s6.7 8.1 6.5 13.4l-.1.3H3007c0-2.3-.77-4.3-2.3-5.8-1.53-1.5-3.74-2.2-6.6-2.2-2.57 0-4.6.7-6.1 1.9-1.5 1.3-2.24 2.9-2.24 4.8 0 1.8.77 3.3 2.3 4.5 1.56 1.2 4.7 2.2 9.45 3.1 7.3 1.5 12.7 3.6 16.2 6.4 3.6 2.8 5.4 6.7 5.4 11.7 0 5.3-2.3 9.7-6.8 13.1-4.5 3.4-10.6 5.1-18 5.1-7.8 0-14.1-2-18.7-6s-6.7-8.5-6.5-13.6l.1-.3h14.6c.2 3.2 1.2 5.5 3.2 6.9 2 1.4 4.6 2.2 7.7 2.2 3 0 5.2-.6 6.8-1.8 1.6-1.2 2.4-2.8 2.4-4.9zm40.1 16.4h-16v-59.2h16v59.2zm0-73.3h-16v-12h16v12zm8.2 43.2c0-8.8 2.5-16 7.4-21.6 5-5.6 11.8-8.4 20.5-8.4 8.8 0 15.6 2.8 20.6 8.5 5 5.6 7.4 12.9 7.4 21.7v1.2c0 8.9-2.4 16.2-7.4 21.8-4.9 5.6-11.7 8.4-20.5 8.4-8.7 0-15.5-2.8-20.5-8.4-4.9-5.6-7.4-12.8-7.4-21.7v-1.1zm15.9 1.2c0 5.4 1 9.7 2.9 13 1.9 3.3 5 4.9 9.2 4.9 4.1 0 7.2-1.6 9.1-4.9 1.9-3.3 2.9-7.6 2.9-12.9v-1.1c0-5.2-.9-9.5-2.9-12.8-1.9-3.3-5-4.9-9.1-4.9s-7.1 1.7-9 5c-1.9 3.4-2.9 7.6-2.9 12.8v1.2zm61.9-30.2l.7 8.5c2-3 4.4-5.4 7.3-7s6.1-2.5 9.7-2.5c6 0 10.7 1.9 14 5.8 3.4 3.9 5.1 9.9 5.1 18.3v36.3h-16v-36.2c0-4.2-.7-7.2-2.2-9-1.5-1.8-3.7-2.6-6.6-2.6-2.3 0-4.4.5-6.2 1.3-1.8.9-3.3 2.1-4.4 3.7v42.8h-16v-59.2h14.9zm63.9 59.2h-15.9v-14h16v14zm0-47.9h-15.9v-14h16v14z"/>
    <path fill="#444" d="M2648.7 582.58h-21.56v58.44h-8.85v-58.44H2597v-6.96h51.7v6.96zm-.92 33.7c0-7.2 1.94-13.12 5.84-17.78 3.9-4.65 9.18-6.98 15.85-6.98 6.74 0 12.07 2.32 15.97 6.96 3.9 4.64 5.87 10.57 5.87 17.8v.98c0 7.25-1.9 13.17-5.8 17.8-3.9 4.6-9.2 6.9-15.9 6.9-6.7 0-12-2.3-15.9-6.94-3.9-4.62-5.8-10.54-5.8-17.76v-1zm8.85.98c0 5.15 1.08 9.4 3.25 12.76 2.18 3.35 5.4 5.03 9.68 5.03 4.23 0 7.43-1.68 9.62-5.03 2.18-3.36 3.28-7.6 3.28-12.76v-1c0-5.08-1.1-9.32-3.3-12.7-2.2-3.4-5.43-5.08-9.7-5.08-4.2 0-7.4 1.7-9.58 5.08-2.17 3.38-3.25 7.62-3.25 12.7v1zm87.54-13.57l-4.8-.2c-1.96 0-3.56.4-4.82 1.2-1.26.8-2.2 1.9-2.87 3.4V641h-13.07v-48.6h12.2l.6 7.2c1.2-2.55 2.6-4.54 4.5-5.96 1.8-1.42 3.9-2.13 6.3-2.13.7 0 1.3.1 1.8.2.6.1 1.2.3 1.7.4l-1.4 11.6zm32.98 37.3c-.47-1.1-.9-2.3-1.23-3.5-.35-1.3-.6-2.5-.74-3.8-1.35 2.3-3.13 4.3-5.35 5.9-2.2 1.5-4.85 2.3-7.9 2.3-5.1 0-9.02-1.3-11.77-4-2.76-2.6-4.14-6.2-4.14-10.7 0-4.8 1.84-8.5 5.5-11.1 3.68-2.7 9.03-4 16.07-4h7.3v-3.9c0-2.4-.6-4.2-1.9-5.5-1.3-1.3-3.1-1.9-5.5-1.9-2.2 0-3.8.5-5 1.5-1.2 1-1.7 2.4-1.7 4.2h-12.7l-.1-.3c-.2-4.1 1.6-7.6 5.4-10.6 3.8-3 8.7-4.5 14.8-4.5 5.8 0 10.5 1.5 14.1 4.4 3.6 2.9 5.4 7.2 5.4 12.6v20c0 2.3.1 4.4.5 6.4.3 2 .9 4 1.6 6h-13zm-12-8.8c2.3 0 4.32-.6 6.12-1.7 1.8-1.2 3.02-2.5 3.68-4v-6.9h-7.36c-2.8 0-4.9.7-6.4 2-1.4 1.3-2.2 3-2.2 5 0 1.6.5 2.9 1.6 3.9 1 .9 2.5 1.4 4.4 1.4zm44.05 8.7h-13.12v-48.6h13.12V641zm0-60.3h-13.12v-9.9h13.12v9.8zm34.56 46.7c0-1.5-.7-2.7-2.1-3.7-1.38-1.1-3.96-2-7.74-2.8-5.7-1.1-10-2.9-12.96-5.2-2.95-2.3-4.42-5.5-4.42-9.4 0-4.2 1.76-7.7 5.3-10.7 3.53-3 8.23-4.4 14.1-4.4 6.14 0 11.06 1.4 14.76 4.4 3.7 2.9 5.47 6.6 5.32 10.9l-.1.2h-12.65c0-2-.63-3.5-1.9-4.8-1.25-1.3-3.06-1.9-5.43-1.9-2.1 0-3.76.5-4.98 1.6-1.23 1-1.84 2.3-1.84 3.8s.63 2.7 1.9 3.6c1.28.9 3.86 1.8 7.75 2.5 5.96 1.2 10.4 2.9 13.32 5.2 2.9 2.3 4.3 5.5 4.3 9.6 0 4.3-1.9 7.9-5.6 10.7-3.8 2.7-8.7 4.1-14.9 4.1-6.5 0-11.6-1.6-15.4-4.9-3.8-3.3-5.6-7-5.4-11.2l.1-.3h12c0 2.6.9 4.5 2.5 5.7s3.7 1.8 6.3 1.8c2.4 0 4.3-.5 5.5-1.5 1.2-1 1.9-2.3 1.9-4zm39.73 14.4c-7.3 0-13-2.2-17-6.7-4.1-4.5-6.1-10.2-6.1-17.2V616c0-7.23 1.9-13.2 5.9-17.83 3.9-4.63 9.4-6.93 16.3-6.9 6.5 0 11.5 2 15 6s5.2 9.4 5.2 16.14v6.8h-29l-.2.3c.2 3.3 1.2 6 3 8.1 1.8 2.1 4.5 3.1 8 3.1 2.9 0 5.4-.3 7.5-.9 2-.6 4.1-1.5 6.3-2.7l3.5 8.1c-2 1.6-4.6 2.9-7.9 4-3.4 1.1-7 1.6-10.9 1.6zm-.9-40.4c-2.7 0-4.7.9-6.1 2.7-1.5 1.8-2.3 4.2-2.6 7.2l.1.2h16v-1c0-2.9-.6-5.1-1.8-6.7-1.2-1.7-3.1-2.5-5.7-2.5zm58-9.2l.5 6.4c1.5-2.4 3.5-4.2 5.8-5.4 2.3-1.3 5.1-1.9 8.1-1.9 3.1 0 5.8.7 8 2s3.9 3.4 5 6.2c1.5-2.6 3.4-4.7 5.8-6.1 2.4-1.5 5.2-2.2 8.4-2.2 4.8 0 8.6 1.7 11.3 5.1 2.7 3.4 4.1 8.5 4.1 15.5v29h-13.2V612c0-3.9-.6-6.6-1.8-8.13-1.2-1.53-3-2.3-5.4-2.3-1.9 0-3.5.42-4.8 1.24-1.4.9-2.5 2-3.3 3.5v34.6H2956V612c0-3.8-.6-6.5-1.8-8.1-1.2-1.6-3-2.4-5.4-2.4-1.75 0-3.3.35-4.64 1.03-1.3.67-2.4 1.6-3.3 2.85V641h-13v-48.6H2940zm62.9 23.8c0-7.3 2-13.2 6-17.8 4-4.6 9.6-7 16.8-7 7.2 0 12.8 2.3 16.9 6.9 4 4.6 6.1 10.5 6.1 17.8v.9c0 7.3-2 13.2-6.1 17.8s-9.7 6.9-16.9 6.9-12.8-2.3-16.9-6.9c-4.1-4.6-6.1-10.6-6.1-17.9v-.9zm13 .9c0 4.5.7 8 2.3 10.7 1.5 2.7 4 4 7.5 4 3.4 0 5.8-1.3 7.4-4 1.6-2.7 2.3-6.3 2.3-10.7v-.9c0-4.3-.8-7.8-2.4-10.6-1.6-2.7-4.1-4.1-7.6-4.1-3.4 0-5.9 1.4-7.4 4.1-1.6 2.7-2.4 6.3-2.4 10.5v1zm50.3-24.8l.6 6.9c1.6-2.5 3.6-4.5 5.9-5.8 2.3-1.4 5-2.1 7.9-2.1 4.9 0 8.7 1.5 11.5 4.7 2.7 3.1 4.1 8.1 4.1 15v30h-13.2V611c0-3.5-.6-5.95-1.8-7.4-1.3-1.46-3.1-2.2-5.5-2.2-2 0-3.7.4-5.2 1.14-1.5.74-2.7 1.75-3.6 3.04V641h-13.1v-48.6h12.2zm58.5 49.5c-7.3 0-12.9-2.3-17-6.7s-6.1-10.2-6.1-17.2V616c0-7.23 2-13.2 5.9-17.83 3.9-4.67 9.4-6.97 16.3-6.9 6.5 0 11.5 2 15 6s5.2 9.4 5.2 16.12v6.8h-29l-.2.2c.2 3.3 1.2 6 3 8.1 1.8 2 4.5 3.1 8 3.1 2.9 0 5.4-.3 7.5-.9 2-.6 4.1-1.5 6.3-2.8l3.5 8.1c-2 1.5-4.6 2.9-7.9 4-3.3 1-7 1.6-10.9 1.6zm-.9-40.4c-2.7 0-4.7.9-6.1 2.7-1.4 1.8-2.3 4.2-2.6 7.2l.1.2h16v-1c0-2.9-.6-5.1-1.8-6.7-1.2-1.7-3.1-2.5-5.7-2.5zm42.3 19l.5 2.7h.2l9.3-30.9h14.1l-19.7 55.9c-1.4 3.5-3.2 6.4-5.6 8.8-2.4 2.4-5.9 3.6-10.6 3.6-1.1 0-2.2-.1-3.1-.3-1-.2-2.1-.5-3.5-.8l1.5-9.6 1.2.2c.4 0 .8.1 1.2.1 2.2 0 3.8-.6 5-1.6 1.2-1.1 2.1-2.4 2.7-4l1.5-3.8-17.2-48.6h14.1l8.2 28.2zm52.4 20.4v-42h-7.6V592h7.6v-6c0-5.2 1.3-9.2 4-12 2.7-2.84 6.5-4.26 11.3-4.26 1 0 2 .1 3 .25 1 .1 2.2.4 3.4.7l-1.1 6.7c-.6-.1-1.2-.2-2-.3-.8-.1-1.6-.1-2.4-.1-2.6 0-4.5.7-5.8 2.3-1.3 1.5-1.9 3.7-1.9 6.7v6.1h8.8v6.7h-8.8V641h-8.8zm22-24.7c0-7.2 1.9-13.1 5.8-17.8 3.9-4.6 9.2-7 15.8-7 6.7 0 12.1 2.3 16 7 3.9 4.6 5.9 10.5 5.9 17.8v.9c0 7.2-2 13.1-5.9 17.8-3.9 4.6-9.2 6.9-15.9 6.9-6.7 0-12-2.3-15.9-7-3.9-4.6-5.9-10.5-5.9-17.8v-1zm8.8 1c0 5.1 1.1 9.4 3.2 12.7s5.4 5 9.7 5c4.2 0 7.4-1.7 9.6-5 2.1-3.4 3.2-7.6 3.2-12.8v-1c0-5.1-1.1-9.3-3.3-12.7-2.2-3.4-5.5-5.1-9.7-5.1-4.2 0-7.4 1.7-9.6 5.1-2.2 3.4-3.3 7.6-3.3 12.7v1zm66-17.1l-4.6-.3c-2.4 0-4.3.5-5.9 1.6-1.6 1.1-2.9 2.6-3.7 4.7v35h-8.8v-48.6h7.9l.8 7.1c1.3-2.5 3-4.5 5.1-5.9 2-1.4 4.3-2.1 6.9-2.1.6 0 1.3 0 1.9.1.6.1 1.1.2 1.4.3l-1.2 8.2zm76.5-24.6V619c0 7.2-2.4 12.8-7 16.86-4.7 4.04-10.7 6.06-18.1 6.06-7.1 0-12.9-2.03-17.4-6.1-4.5-4.06-6.8-9.67-6.8-16.83v-43.4h8.8V619c0 5 1.4 8.92 4.3 11.75s6.5 4.2 11.1 4.2c4.8 0 8.7-1.4 11.7-4.24 3-2.8 4.5-6.7 4.5-11.7v-43.4h8.8zm61 65.4h-8.9l-31.5-49.9-.3.1v50h-8.8v-65.4h8.8l31.5 49.9.2-.1v-49.8h8.8V641zm22.6 0h-8.9v-65.4h8.9V641zm60.4-20.9l.1.2c.1 6.1-2.1 11.3-6.5 15.4s-10.3 6.2-17.6 6.2c-7.4 0-13.4-2.6-18.1-7.9-4.7-5.3-7-11.9-7-20V602c0-8.02 2.3-14.7 7-19.93 4.6-5.3 10.7-7.9 18.1-7.9s13.3 2 17.6 5.9c4.3 3.9 6.5 9.1 6.4 15.6l-.1.26h-8.4c0-4.6-1.4-8.2-4.1-10.9-2.7-2.7-6.5-4-11.4-4-5 0-8.9 2-11.8 6-3 4-4.4 8.9-4.4 14.8v12c0 6 1.4 10.95 4.4 14.9 2.9 4 6.8 6 11.8 6 4.9 0 8.7-1.3 11.4-4 2.7-2.6 4-6.3 4-10.95h8.5zm44.8-9.4h-26.9V634h31.5v6.9h-40.3v-65.4h39.8v6.98h-31v21.15h26.8v6.97zm49 1.4h-27.6v29h-8.8v-65.4h41v6.9h-32.2V605h27.6v7zm20.3-27.8l-4.6 15.5h-4.4v-24.2h8.8v8.7zm37.4 43.6c0-1.9-.8-3.5-2.3-4.8-1.5-1.3-4.3-2.3-8.5-3.3-5.7-1.2-10.1-3-13.2-5.2-3.1-2.3-4.6-5.2-4.6-8.9 0-4 1.7-7.4 5-10.2 3.4-2.8 7.7-4.2 13.1-4.2 5.5 0 10 1.5 13.4 4.5 3.4 3 5 6.4 4.9 10.4l-.1.2h-8.4c0-2.1-.9-4-2.8-5.7-1.9-1.7-4.2-2.6-7-2.6-3.1 0-5.4.7-7 2.1-1.6 1.4-2.4 3.1-2.4 5s.7 3.4 2 4.4c1.4 1 4.1 2 8.3 2.9 6 1.2 10.5 3 13.6 5.3 3.1 2.3 4.6 5.3 4.6 9 0 4.3-1.8 7.8-5.3 10.5s-8 4.1-13.7 4.1c-6.2 0-11.1-1.6-14.6-4.7-3.6-3.2-5.3-6.9-5.1-11.1l.1-.3h8.4c.2 3.1 1.3 5.4 3.5 6.9 2.2 1.4 4.8 2.2 7.7 2.2 3.1 0 5.6-.7 7.4-2 1.8-1.3 2.7-3 2.7-5.1zm-1088 104.7c0-7.8 1.6-14.1 5-18.9 3.3-4.8 8-7.2 14-7.2 3 0 5.8.6 8.1 1.9 2.3 1.2 4.3 3 5.9 5.3l1-6.4h7v49c0 6.2-1.8 11-5.4 14.3s-8.9 5-15.7 5c-2.3 0-4.9-.3-7.6-1-2.7-.6-5.1-1.5-7.2-2.6l1.3-6.9c1.7.8 3.7 1.6 6.1 2.1 2.4.5 4.8.8 7.1.8 4.3 0 7.5-1 9.4-3 1.9-2 2.9-5 2.9-9V750c-1.6 2.05-3.5 3.6-5.7 4.64-2.2 1-4.8 1.52-7.7 1.52-6 0-10.6-2.1-13.9-6.4s-5-10-5-17v-.9zm8.8.9c0 4.9 1 8.8 3 11.8 2 2.9 5.1 4.4 9.3 4.4 2.6 0 4.9-.6 6.7-1.9 1.8-1.2 3.3-3 4.4-5.2V720c-1.2-2.06-2.7-3.7-4.5-4.9-1.8-1.2-4-1.8-6.6-1.8-4.2 0-7.3 1.72-9.4 5.22-2 3.5-3.1 8-3.1 13.6v.94zm52.1 22.4h-8.8v-70h8.8V756zm9-24.7c0-7.2 1.9-13.1 5.8-17.8 3.9-4.7 9.1-7 15.8-7 6.7 0 12 2.3 15.9 6.9 3.9 4.7 5.9 10.6 5.9 17.8v1c0 7.2-1.9 13.2-5.8 17.8-3.9 4.6-9.2 6.9-15.9 6.9-6.7 0-12.1-2.3-16-6.9-3.9-4.6-5.9-10.6-5.9-17.8v-1zm8.8 1c0 5.1 1.1 9.4 3.3 12.7 2.2 3.4 5.4 5.1 9.7 5.1 4.2 0 7.4-1.7 9.6-5.1 2.2-3.4 3.3-7.6 3.3-12.8v-1c0-5.1-1.1-9.3-3.3-12.7-2.2-3.4-5.5-5.1-9.7-5.1-4.2 0-7.4 1.7-9.6 5.1-2.2 3.4-3.3 7.6-3.3 12.7v1zm84.6 1.3c0 7-1.7 12.6-5.1 16.9-3.4 4.3-8 6.5-13.9 6.5-3.3 0-6.1-.7-8.5-1.9-2.4-1.3-4.3-3.2-5.9-5.7l-1.4 6.6h-6.8v-70h8.8V713c1.5-2.17 3.4-3.8 5.7-4.96 2.3-1.18 4.9-1.7 7.9-1.7 6 0 10.6 2.4 14 7.2 3.3 4.8 5 11.1 5 18.9v.9zm-8.9-1c0-5.5-1.1-10.1-3.1-13.6s-5.2-5.3-9.4-5.3c-2.7 0-5 .6-6.9 2-1.9 1.3-3.4 3.1-4.5 5.3V742c1.1 2.4 2.6 4.25 4.4 5.6 1.9 1.33 4.2 2 7 2 4.2 0 7.3-1.5 9.3-4.44 2.1-2.94 3.1-6.9 3.1-11.75v-.9zm47 23.4c-.3-1.4-.6-2.7-.7-3.9-.2-1.1-.3-2.3-.3-3.4-1.7 2.3-3.8 4.3-6.5 5.9-2.7 1.6-5.5 2.4-8.6 2.4-5.1 0-9-1.3-11.6-3.9-2.7-2.6-4-6.2-4-10.7 0-4.7 1.9-8.3 5.6-10.9 3.7-2.6 8.8-4 15.3-4h9.6v-4.8c0-2.9-.9-5.1-2.6-6.8-1.8-1.7-4.2-2.5-7.4-2.5-2.9 0-5.2.7-7 2.2-1.8 1.4-2.7 3.1-2.7 5.1l-8.4.1-.1-.3c-.2-3.6 1.4-6.8 4.9-9.7 3.5-3 8-4.4 13.6-4.4 5.5 0 9.9 1.4 13.3 4.2 3.3 2.8 5 6.8 5 12.1V746c0 1.75.1 3.42.2 5.04.2 1.6.6 3.2 1 4.76h-9.1zm-14.7-6.4c3.2 0 6.1-.9 8.6-2.5 2.6-1.7 4.2-3.6 5-5.7V733h-10c-3.6 0-6.4.9-8.6 2.7-2.2 1.8-3.2 3.9-3.2 6.3 0 2.14.6 3.85 2 5.1 1.3 1.24 3.3 1.87 6 1.87zm42.4 6.4h-8.9v-70h8.9v70zm43.9-17.7l1.1 6.3h.3l1.1-6.3 9.7-30.9h7.1l9.7 30.9 1.2 6.9h.3l1.5-6.9 7.2-30.9h9.3l-14.1 48.6h-7.2l-9.6-29.6-1.9-7.7h-.3l-1.7 7.7-9.5 29.6h-7.2l-14.1-48.6h9.2l7.7 31zm52.6-7c0-7.2 1.9-13.1 5.8-17.8 3.9-4.7 9.2-7 15.8-7 6.7 0 12 2.3 15.9 6.9 3.9 4.6 5.8 10.5 5.8 17.8v.9c0 7.3-2 13.2-5.9 17.8-3.9 4.6-9.2 6.9-15.9 6.9-6.8 0-12.1-2.3-16-6.9-3.9-4.6-5.9-10.5-5.9-17.8v-1zm8.8 1c0 5.1 1.1 9.4 3.2 12.7 2.2 3.3 5.4 5 9.7 5 4.2 0 7.4-1.7 9.6-5.1 2.2-3.3 3.3-7.6 3.3-12.7v-1c0-5-1.1-9.3-3.3-12.7-2.2-3.4-5.5-5-9.7-5-4.3 0-7.4 1.7-9.6 5.1-2.2 3.4-3.3 7.7-3.3 12.7v1zm66-17.1l-4.5-.3c-2.3 0-4.3.5-5.9 1.6-1.6 1.1-2.8 2.7-3.7 4.7v35h-8.9V707h7.9l.8 7.1c1.4-2.5 3.1-4.44 5.1-5.9 2-1.4 4.4-2.1 7-2.1.7 0 1.3.1 1.9.2.6.1 1.1.2 1.5.34l-1.2 8.22zm20.2 18.4h-4.5v22.4h-8.9v-70h8.9V726h4.5l14.6-19.16h10.6l-17.7 22.4 19.2 26.2H3037l-16.16-22.4zm55.3 22.4v-42h-7.6V707h7.6v-6c0-5.2 1.3-9.2 4-12 2.7-2.85 6.5-4.27 11.3-4.27 1 0 2 .1 3 .26 1 .1 2.2.4 3.4.7l-1.1 6.7c-.6-.1-1.2-.2-2-.3-.7-.1-1.5-.2-2.4-.2-2.5 0-4.5.7-5.7 2.3-1.3 1.5-1.9 3.8-1.9 6.7v6.2h8.8v6.5h-8.8v42h-8.8zm22-24.8c0-7.2 2-13.1 5.9-17.8 3.9-4.7 9.2-7 15.9-7 6.7 0 12 2.3 15.9 6.9 3.9 4.6 5.9 10.6 5.9 17.8v1c0 7.2-1.9 13.1-5.8 17.8-3.9 4.6-9.2 6.9-15.9 6.9-6.7 0-12-2.3-15.9-7-3.9-4.6-5.8-10.5-5.8-17.8v-1zm8.9 1c0 5.1 1.1 9.4 3.3 12.7 2.1 3.4 5.4 5.1 9.7 5.1 4.2 0 7.4-1.7 9.6-5.1 2.2-3.4 3.3-7.6 3.3-12.8v-1c0-5.1-1.1-9.3-3.4-12.7-2.2-3.4-5.4-5.1-9.7-5.1-4.2 0-7.4 1.7-9.6 5.1s-3.2 7.6-3.2 12.7v1zm66-17.1l-4.5-.3c-2.4 0-4.3.5-5.9 1.6-1.6 1.1-2.9 2.7-3.7 4.7v34.7h-8.8V707h7.9l.9 7.1c1.4-2.52 3.1-4.5 5.1-5.9 2-1.4 4.3-2.1 7-2.1.6 0 1.2.05 1.8.15.6.1 1.1.2 1.5.3l-1.2 8.3zm46.4 34.8c2.7 0 5.1-.9 7.2-2.7 2-1.8 3-4.1 3-6.7h8l.1.2c.1 4.2-1.7 7.9-5.4 11.1-3.7 3.2-8 4.8-13 4.8-6.9 0-12.1-2.3-15.8-7-3.8-4.7-5.6-10.4-5.6-17.4V730c0-6.86 1.8-12.6 5.6-17.3 3.7-4.64 8.9-7 15.7-7 5.4 0 9.8 1.7 13.3 5.06 3.4 3.35 5.1 7.5 5 12.35l-.1.3h-8.1c0-2.9-1-5.5-2.9-7.5-2-2.1-4.4-3.1-7.3-3.1-4.4 0-7.5 1.7-9.5 5.1s-3 7.5-3 12.3v1.9c0 4.9 1 9 2.9 12.4 2 3.3 5.2 5 9.6 5zm35.2-36.1c1.7-2.4 3.7-4.2 6.2-5.5 2.4-1.3 5.1-2 8.1-2 5.2 0 9.2 1.5 12.1 4.7 2.9 3.1 4.3 7.9 4.3 14.3v31h-8.9v-30.5c0-4-.9-7-2.6-8.9-1.7-1.9-4.3-2.9-7.7-2.9-2.6 0-4.9.5-6.9 1.5-1.9 1-3.5 2.4-4.7 4.3V756h-8.8v-70.08h8.8v28zm50.5 42.1h-8.8V707h8.8v49zm0-61.1h-8.8v-9h8.8v9zm20.7 61h-8.8v-70h8.9V756zm9.1-23.4c0-7.8 1.6-14.1 5-18.9 3.3-4.8 8-7.2 14-7.2 2.8 0 5.4.5 7.6 1.6 2.2 1 4.1 2.5 5.6 4.5v-26.7h8.8V756h-6.8l-1.3-6.14c-1.6 2.33-3.6 4.1-5.9 5.3-2.3 1.2-5.1 1.8-8.1 1.8-6 0-10.6-2.15-14-6.45-3.4-4.3-5-9.9-5-16.9v-.9zm8.8.9c0 4.9 1 8.8 3 11.8 2 2.9 5.1 4.4 9.3 4.4 2.6 0 4.9-.6 6.7-1.8 1.8-1.2 3.3-2.9 4.4-5.1v-22c-1.1-2-2.6-3.6-4.4-4.8-1.8-1.2-4-1.8-6.6-1.8-4.2 0-7.4 1.8-9.4 5.3s-3 8.1-3 13.7v.9zm66-18.4l-4.6-.3c-2.3 0-4.3.5-5.9 1.6-1.6 1.1-2.9 2.7-3.7 4.7v34.8h-8.9V707h7.9l.8 7.1c1.3-2.52 3-4.5 5.1-5.9 2-1.4 4.3-2.1 6.9-2.1.7 0 1.3.05 1.9.15.6.1 1.1.2 1.5.3l-1.2 8.3zm26 41.7c-7 0-12.4-2.2-16.3-6.7-3.9-4.5-5.9-10.3-5.9-17.6V730c0-7 2-12.8 6.1-17.4 4-4.6 8.9-6.9 14.7-6.9 6.5 0 11.4 2 14.6 6 3.2 4.1 4.9 9.4 4.9 16.1v4.7h-31l-.2.3c0 4.9 1 8.9 3.2 11.9 2.1 3.1 5.4 4.6 9.8 4.6 3 0 5.6-.4 7.9-1.26 2.2-.9 4.2-2.1 5.8-3.6l3.4 5.8c-1.8 1.64-4.1 3.1-6.9 4.2-2.9 1.2-6.3 1.8-10.3 1.8zm-1.4-43.5c-3.1 0-5.7 1.2-7.7 3.5-2 2.4-3.3 5.4-3.7 9.1l.1.2h21.9v-.7c0-3.6-.9-6.5-2.6-8.8-1.8-2.3-4.5-3.5-8.1-3.5zm34.8-6.1l.6 7.2c1.6-2.6 3.6-4.6 6.1-6s5.2-2.1 8.3-2.1c5.2 0 9.3 1.5 12.1 4.6 2.9 3.1 4.3 7.8 4.3 14.2V755h-8.8v-30c0-4.26-.9-7.3-2.5-9.1-1.7-1.8-4.3-2.7-7.7-2.7-2.7 0-5 .57-6.9 1.66-1.9 1.1-3.4 2.6-4.5 4.6v36.06h-8.8V707h7.9zm92.1 48.6c-.3-1.5-.5-2.8-.7-3.9-.2-1.1-.3-2.3-.3-3.4-1.6 2.3-3.8 4.3-6.4 5.9-2.7 1.6-5.5 2.4-8.6 2.4-5.1 0-8.9-1.3-11.6-3.9-2.6-2.6-4-6.1-4-10.7s1.9-8.3 5.7-10.9c3.8-2.6 8.9-3.9 15.3-3.9h9.6V722c0-2.85-.8-5.1-2.6-6.8-1.7-1.7-4.2-2.5-7.3-2.5-2.9 0-5.2.7-7 2.1-1.8 1.4-2.7 3.2-2.7 5.2l-8.4.1-.1-.26c-.2-3.57 1.4-6.8 5-9.7 3.5-2.97 8-4.4 13.6-4.4 5.5 0 9.9 1.4 13.3 4.2 3.3 2.8 5 6.8 5 12.1V746c0 1.72.1 3.4.2 5 .2 1.64.5 3.2 1 4.8h-9.1zm-14.7-6.5c3.2 0 6.1-.8 8.7-2.4 2.6-1.7 4.2-3.6 5-5.7V733h-9.9c-3.5 0-6.4.9-8.5 2.7-2.2 1.8-3.2 3.9-3.2 6.3 0 2.17.7 3.88 2 5.1 1.3 1.28 3.3 1.9 6 1.9zm40.8-42.1l.6 7.2c1.7-2.5 3.7-4.5 6.1-6 2.5-1.4 5.2-2.1 8.4-2.1 5.2 0 9.3 1.5 12.2 4.6 2.9 3.1 4.3 7.8 4.3 14.2V755h-8.9v-30c0-4.3-.9-7.3-2.5-9.1-1.7-1.8-4.3-2.7-7.8-2.7-2.7 0-5 .56-6.9 1.65-1.9 1.1-3.4 2.6-4.5 4.6v36.1h-8.9V707h7.9zm40 25.3c0-7.8 1.6-14.1 5-18.9 3.3-4.8 8-7.2 14-7.2 2.8 0 5.4.5 7.6 1.5 2.2 1 4 2.5 5.6 4.5V685h8.8v71h-6.8l-1.4-6.14c-1.6 2.33-3.5 4.1-5.9 5.3-2.3 1.2-5 1.8-8.1 1.8-5.9 0-10.5-2.15-13.9-6.45-3.4-4.3-5-9.9-5-16.9v-.9zm8.8.9c0 4.9 1 8.9 3 11.8 2 3 5.1 4.4 9.3 4.4 2.6 0 4.8-.6 6.6-1.8 1.8-1.2 3.3-2.8 4.4-5v-22c-1.1-2-2.6-3.6-4.4-4.8-1.8-1.2-4-1.8-6.5-1.8-4.3 0-7.4 1.8-9.4 5.3-2.1 3.5-3.1 8.1-3.1 13.7v.9zM2614 810.4v11.73h9.2v6.54h-9.2v29.54c0 2.2.43 3.8 1.4 4.8.9.9 2.1 1.4 3.7 1.4.5 0 1.03-.1 1.7-.2.6-.2 1.1-.3 1.6-.5l1.2 6.1c-.7.6-1.6 1-2.9 1.4-1.3.4-2.6.5-3.9.5-3.6 0-6.43-1-8.6-3.2-2.1-2.2-3.15-5.6-3.15-10.2v-29.4h-7.75v-6.5h7.7v-11.7h8.86zm25 18.24c1.7-2.36 3.8-4.18 6.2-5.48 2.47-1.3 5.2-2 8.1-2 5.2 0 9.26 1.6 12.1 4.7 2.9 3.1 4.4 7.9 4.4 14.3V871h-8.9v-30.54c0-4-.9-6.97-2.6-8.9-1.7-1.9-4.3-2.86-7.7-2.86-2.64 0-4.93.52-6.9 1.55-1.92 1.04-3.5 2.48-4.7 4.34V871h-8.84v-70.08h8.84v28zm61.1 43c-7 0-12.4-2.23-16.3-6.7-3.9-4.45-5.87-10.32-5.87-17.6v-1.97c0-7 2-12.8 6.02-17.4s9-6.9 14.8-6.9c6.5 0 11.4 2 14.6 6.05 3.3 4.07 4.9 9.4 4.9 16.15v4.7h-31.1l-.1.24c0 4.9 1.08 8.9 3.2 11.9 2.18 3.1 5.47 4.6 9.9 4.6 3 0 5.6-.4 7.9-1.2 2.24-.9 4.2-2 5.8-3.5l3.45 5.8c-1.74 1.7-4.04 3.1-6.88 4.3-2.87 1.2-6.3 1.8-10.3 1.8zm-1.4-43.5c-3.1 0-5.6 1.2-7.63 3.6-2 2.4-3.2 5.43-3.7 9.14l.1.2h22v-.7c0-3.6-.9-6.5-2.6-8.8-1.76-2.3-4.44-3.5-8.06-3.5zm36.5 42.56h-8.83v-48.6h8.9v48.6zm0-61.05h-8.83v-9.08h8.9v9.04zm34.1 20.2l-4.5-.3c-2.34 0-4.3.57-5.9 1.67-1.6 1.1-2.85 2.68-3.7 4.7v34.72h-8.87v-48.6h7.9l.84 7.1c1.34-2.5 3.04-4.4 5.1-5.9 2-1.4 4.3-2.1 7-2.1.6 0 1.23.1 1.83.2.6.1 1.1.2 1.5.33l-1.3 8.3zm50.1 0l-4.53-.3c-2.3 0-4.3.57-5.9 1.67-1.6 1.1-2.8 2.68-3.7 4.7v34.72h-8.8v-48.6h7.9l.9 7.1c1.36-2.5 3.06-4.4 5.1-5.9 2-1.4 4.34-2.1 7-2.1.64 0 1.3.1 1.9.2.6.1 1.1.2 1.45.33l-1.2 8.3zm16.3 40.8h-8.87v-48.6h8.83V871zm0-61.1h-8.87v-9h8.83v9zm9.5 37.67c0-7.8 1.7-14.1 5-18.9 3.37-4.8 8-7.2 14-7.2 3.1 0 5.8.63 8.16 1.87 2.33 1.2 4.3 3 5.9 5.3l1.06-6.3h7.03v48.9c0 6.2-1.8 11-5.4 14.3-3.6 3.3-8.8 5-15.7 5-2.3 0-4.8-.3-7.5-1s-5.1-1.6-7.16-2.7l1.3-6.9c1.7.9 3.7 1.6 6.1 2.2 2.4.5 4.8.8 7.1.8 4.3 0 7.4-1 9.4-2.9 1.9-1.9 2.9-4.9 2.9-8.9v-5.5c-1.5 2-3.5 3.5-5.7 4.6-2.2 1-4.7 1.6-7.6 1.6-6 0-10.6-2.2-14-6.5s-5-9.9-5-17v-.9zm8.87.95c0 4.9 1 8.8 3 11.77 2.1 3 5.2 4.5 9.3 4.5 2.7 0 4.9-.6 6.7-1.8 1.8-1.2 3.3-2.97 4.5-5.2v-22.3c-1.13-2-2.6-3.7-4.44-4.9-1.8-1.2-4-1.8-6.6-1.8-4.2 0-7.34 1.77-9.36 5.27-2.03 3.5-3.04 8.1-3.04 13.7v1zm51.4-19.63c1.7-2.3 3.8-4.1 6.2-5.4 2.47-1.3 5.17-1.98 8.1-1.98 5.2 0 9.26 1.55 12.15 4.67 2.9 3.1 4.3 7.9 4.3 14.3V871h-8.85v-30.54c0-4-.83-6.97-2.6-8.9-1.7-1.9-4.3-2.86-7.7-2.86-2.6 0-4.9.52-6.9 1.55-1.9 1.04-3.5 2.48-4.7 4.34V871h-8.8v-70.08h8.9v28zm53.3-18.2v11.7h9.2v6.5h-9.2v29.5c0 2.24.46 3.9 1.4 4.8.95.9 2.2 1.4 3.76 1.4.5 0 1.1-.1 1.7-.2.66-.17 1.2-.3 1.6-.46l1.2 6.1c-.64.53-1.6.97-2.9 1.32-1.3.3-2.56.5-3.8.5-3.6 0-6.48-1.1-8.6-3.28s-3.2-5.6-3.2-10.2v-29.5h-7.7v-6.56h7.7v-11.7h8.82zm44.44 47.2c0-2-.8-3.6-2.2-4.8-1.5-1.26-4.3-2.3-8.4-3.27-5.7-1.2-10.1-2.96-13.2-5.17-3-2.24-4.6-5.2-4.6-8.9 0-3.97 1.7-7.35 5.1-10.17 3.4-2.8 7.7-4.2 13.1-4.2 5.5 0 10 1.5 13.4 4.5 3.4 2.94 5 6.43 4.9 10.42l-.1.3h-8.4c0-2.1-.9-4-2.7-5.7-1.8-1.7-4.1-2.58-7-2.58-3.1 0-5.4.7-7 2.1-1.5 1.4-2.3 3.1-2.3 5s.7 3.4 2 4.48c1.3 1.05 4.1 2 8.3 2.9 6 1.24 10.5 3 13.6 5.3 3.1 2.3 4.6 5.3 4.6 9.05 0 4.3-1.7 7.8-5.2 10.55-3.5 2.7-8 4.05-13.7 4.05-6.2 0-11-1.56-14.6-4.7-3.6-3.15-5.3-6.8-5.1-11l.1-.3h8.5c.2 3.17 1.3 5.47 3.5 6.9 2.2 1.47 4.8 2.2 7.7 2.2 3.2 0 5.7-.64 7.4-2 1.8-1.3 2.7-3 2.7-5.1zm67.6 13c-.3-1.47-.6-2.76-.7-3.9-.2-1.1-.3-2.2-.3-3.4-1.7 2.4-3.8 4.3-6.5 5.9-2.6 1.6-5.5 2.34-8.5 2.34-5 0-8.9-1.3-11.5-3.87-2.6-2.6-4-6.2-4-10.7 0-4.7 1.9-8.3 5.7-10.9 3.8-2.6 8.9-3.9 15.3-3.9h9.6v-4.8c0-2.8-.8-5.1-2.6-6.8-1.7-1.6-4.2-2.5-7.3-2.5-2.8 0-5.2.8-6.9 2.2-1.7 1.5-2.6 3.2-2.6 5.2l-8.4.1-.1-.3c-.2-3.5 1.5-6.7 5-9.7 3.5-2.9 8-4.4 13.6-4.4 5.5 0 10 1.4 13.3 4.2 3.4 2.8 5 6.9 5 12.1V861c0 1.74.1 3.4.3 5.03.2 1.65.5 3.2 1 4.8h-9.2zm-14.7-6.47c3.2 0 6.1-.8 8.7-2.47 2.6-1.67 4.3-3.55 5.1-5.68v-7.9h-9.9c-3.5 0-6.4.9-8.5 2.7-2.1 1.8-3.2 3.9-3.2 6.34 0 2.16.7 3.87 2 5.13 1.4 1.2 3.4 1.8 6 1.8zm40.8-42.1l.6 7.2c1.6-2.6 3.7-4.6 6.1-6 2.5-1.45 5.2-2.16 8.3-2.16 5.3 0 9.3 1.6 12.2 4.6 2.9 3.1 4.4 7.8 4.4 14.2V871h-8.8v-30.5c0-4.27-.8-7.3-2.5-9.1-1.7-1.8-4.3-2.7-7.7-2.7-2.7 0-5 .54-6.9 1.63-1.9 1.1-3.4 2.63-4.5 4.6V871h-8.9v-48.6h7.9zm39.9 25.2c0-7.8 1.7-14.1 5-18.9 3.4-4.8 8-7.2 14.1-7.2 2.9 0 5.4.5 7.6 1.6 2.2 1 4.1 2.53 5.6 4.53v-26.7h8.9V871h-6.7l-1.3-6.15c-1.6 2.33-3.5 4.1-5.9 5.3-2.3 1.2-5 1.8-8.1 1.8-5.9 0-10.6-2.15-13.9-6.45-3.4-4.3-5-9.95-5-16.96v-.94zm8.9.93c0 4.9 1 8.82 3 11.8 2 2.92 5.2 4.4 9.4 4.4 2.7 0 4.9-.6 6.7-1.8 1.8-1.2 3.3-2.87 4.4-5.03V835c-1.1-2-2.6-3.6-4.4-4.77-1.8-1.2-4-1.8-6.5-1.8-4.2 0-7.4 1.8-9.4 5.3s-3 8.05-3 13.65v.95zm75.7-37.9v11.7h9.2v6.54h-9.2V858c0 2.27.5 3.88 1.4 4.8 1 .93 2.2 1.4 3.8 1.4.5 0 1.1-.07 1.7-.2.7-.14 1.2-.3 1.6-.43l1.2 6.07c-.6.5-1.6.96-2.9 1.3-1.3.35-2.6.5-3.8.5-3.6 0-6.5-1.06-8.6-3.23-2.2-2.1-3.2-5.5-3.2-10.2v-29.5h-7.8V822h7.8v-11.7h8.8zm14.1 35.54c0-7.2 2-13.1 5.9-17.8 3.9-4.65 9.2-7 15.9-7 6.8 0 12.1 2.34 16 6.98 3.9 4.7 5.9 10.6 5.9 17.8v1c0 7.28-1.9 13.2-5.8 17.8-3.9 4.6-9.2 6.9-15.9 6.9-6.7 0-12-2.3-15.9-6.9-3.9-4.6-5.8-10.56-5.8-17.78v-1zm8.9 1c0 5.13 1.1 9.4 3.3 12.74 2.2 3.37 5.4 5.05 9.7 5.05 4.2 0 7.5-1.68 9.6-5 2.2-3.37 3.3-7.6 3.3-12.77v-1c0-5.1-1.1-9.35-3.3-12.7-2.2-3.4-5.4-5.1-9.7-5.1-4.2 0-7.4 1.7-9.6 5.1-2.2 3.35-3.2 7.6-3.2 12.7v1zm90.7 23.7c-.5-1.1-.9-2.25-1.3-3.5-.3-1.2-.6-2.5-.7-3.76-1.3 2.38-3.1 4.3-5.3 5.9-2.2 1.56-4.8 2.3-7.9 2.3-5.1 0-9-1.3-11.8-3.9-2.7-2.6-4.1-6.2-4.1-10.7 0-4.8 1.9-8.47 5.5-11.1 3.7-2.6 9.1-3.9 16.1-3.9h7.4V838c0-2.33-.6-4.14-1.9-5.43-1.2-1.3-3-1.98-5.4-1.98-2.1 0-3.8.5-4.9 1.5-1.2 1-1.7 2.4-1.7 4.2h-13l-.1-.3c-.2-4.1 1.6-7.6 5.4-10.6 3.8-3 8.7-4.5 14.9-4.5 5.8 0 10.6 1.4 14.2 4.4 3.6 2.9 5.4 7.1 5.4 12.6V858c0 2.3.1 4.4.5 6.44.3 2 .9 4 1.6 5.97h-13zm-12-8.74c2.3 0 4.3-.6 6.1-1.7 1.8-1.15 3-2.47 3.7-3.97v-6.9h-7.4c-2.8 0-4.9.7-6.3 2.1-1.4 1.32-2.1 3-2.1 5.02 0 1.63.6 2.94 1.6 3.9 1.1 1 2.6 1.46 4.4 1.46zm28.2-15.15c0-7.6 1.7-13.8 5-18.5 3.3-4.7 8-7.04 14-7.04 2.4 0 4.6.5 6.6 1.6s3.7 2.6 5.1 4.5v-26.6h13.2V871H3384l-1.2-5.98c-1.5 2.24-3.3 3.96-5.4 5.14-2.1 1.17-4.5 1.76-7.2 1.76-5.93 0-10.6-2.18-13.9-6.55-3.3-4.37-4.94-10.15-4.94-17.33v-.95zm13.1 1c0 4.26.7 7.6 2.2 10.05 1.5 2.45 3.8 3.67 7 3.67 1.9 0 3.6-.4 5-1.15 1.4-.72 2.6-1.84 3.5-3.3v-20.7c-.9-1.54-2-2.73-3.4-3.6-1.4-.85-3-1.3-4.9-1.3-3.2 0-5.5 1.45-7 4.3-1.5 2.87-2.2 6.6-2.2 11.16v1zm56 4.86l.9 4.5h.3l.9-4.5 8-30.5h13.7l-16.5 48.6H3415l-16.55-48.6h13.7l8.2 30.5zm24.3-6.6c0-7.2 2.1-13.2 6.1-17.8 4-4.6 9.6-6.9 16.8-6.9 7.2 0 12.8 2.3 16.9 7 4 4.6 6.1 10.6 6.1 17.9v.9c0 7.3-2.1 13.3-6.1 17.9-4.1 4.6-9.7 6.9-16.8 6.9-7.2 0-12.8-2.3-16.9-6.9-4.1-4.6-6.1-10.5-6.1-17.8v-.8zm13.1.9c0 4.4.8 8 2.3 10.7 1.6 2.7 4.1 4 7.6 4 3.4 0 5.9-1.3 7.5-4 1.6-2.7 2.4-6.2 2.4-10.7v-.9c0-4.3-.8-7.8-2.3-10.5s-4-4-7.5-4c-3.3 0-5.8 1.3-7.4 4.1-1.5 2.7-2.3 6.2-2.3 10.5v.9zm58.7 14.7c2.3 0 4.1-.7 5.5-2 1.4-1.3 2-3.2 2-5.4h12l.1.3c.1 4.9-1.7 9-5.5 12.4-3.8 3.3-8.5 5-14 5-7.2 0-12.8-2.3-16.7-6.9-3.9-4.6-5.9-10.5-5.9-17.6v-1c0-7.1 1.9-13 5.8-17.6 3.9-4.6 9.4-6.9 16.6-6.9 5.9 0 10.7 1.7 14.3 5.1 3.7 3.4 5.4 7.9 5.3 13.5l-.1.3h-12c0-2.5-.7-4.6-2-6.2-1.3-1.6-3.2-2.5-5.5-2.5-3.4 0-5.8 1.4-7.2 4.1-1.4 2.7-2.1 6.1-2.1 10.4v1.3c0 4.3.7 7.8 2.2 10.4 1.4 2.6 3.9 4 7.3 4zm53.3 9.1c-.5-1.1-.9-2.3-1.2-3.5-.3-1.2-.6-2.5-.7-3.8-1.4 2.4-3.2 4.4-5.4 5.9-2.2 1.6-4.8 2.4-7.9 2.4-5.1 0-9-1.3-11.8-3.9-2.8-2.6-4.2-6.2-4.2-10.7 0-4.8 1.9-8.5 5.5-11.1 3.7-2.6 9.1-3.9 16.1-3.9h7.4V838c0-2.3-.6-4.1-1.8-5.4-1.2-1.3-3-1.93-5.5-1.93-2.1 0-3.7.5-4.9 1.55-1.2 1.03-1.7 2.44-1.7 4.24H3541l-.1-.27c-.2-4.1 1.6-7.7 5.4-10.6 3.8-3 8.75-4.5 14.9-4.5 5.8 0 10.5 1.5 14.2 4.4 3.6 2.9 5.4 7.1 5.4 12.6v20c0 2.3.1 4.4.5 6.4.3 2 .9 4 1.6 5.9h-13.1zm-12-8.7c2.3 0 4.3-.5 6.1-1.7 1.8-1.1 3.1-2.4 3.7-3.9v-6.9h-7.4c-2.8 0-4.9.7-6.3 2.1-1.5 1.4-2.2 3.1-2.2 5.1 0 1.7.5 3 1.6 4s2.5 1.5 4.4 1.5zm46-51.7v12h8.2v9.2h-8.2V856c0 1.9.4 3.23 1.2 4.04.8.8 1.9 1.2 3.1 1.2.7 0 1.3 0 1.8-.1.6 0 1.1-.2 1.8-.3l1.1 9.5c-1.3.4-2.6.8-3.8 1-1.2.2-2.6.3-4 .3-4.5 0-8-1.22-10.4-3.7-2.4-2.5-3.6-6.4-3.6-11.8v-24.8h-7.1v-9.2h7.1v-11.9h13.1zm34.9 61.5c-7.2 0-12.9-2.2-17-6.6-4.1-4.4-6.1-10.2-6.1-17.2V846c0-7.3 2-13.25 5.9-17.9 3.9-4.64 9.4-6.94 16.3-6.9 6.5 0 11.5 2 15 6s5.2 9.4 5.2 16.15v6.8h-29l-.1.23c.2 3.36 1.2 6.06 3 8.1 1.8 2.1 4.5 3.1 8.1 3.1 2.9 0 5.4-.3 7.5-.9 2-.6 4.1-1.5 6.3-2.72l3.5 8.1c-1.9 1.6-4.6 2.9-7.9 4-3.3 1.1-7 1.6-10.9 1.6zm-.8-40.3c-2.6 0-4.7.9-6.1 2.8-1.4 1.8-2.3 4.2-2.6 7.2l.1.3h16v-1c0-2.8-.6-5-1.8-6.7-1.1-1.6-3-2.4-5.6-2.4zm50.8 39.4v-42h-7.6V822h7.6v-6.14c0-5.2 1.4-9.2 4.1-12 2.7-2.85 6.5-4.27 11.3-4.27 1.1 0 2.1.1 3.1.2 1.1.1 2.2.4 3.5.7l-1.1 6.7c-.6-.1-1.2-.2-2-.3-.8-.1-1.6-.1-2.4-.1-2.6 0-4.5.8-5.7 2.3-1.3 1.5-1.9 3.8-1.9 6.7v6.2h8.8v6.6h-8.8v42h-8.9zm22.1-24.7c0-7.2 2-13.1 5.8-17.8 3.9-4.6 9.2-7 15.9-7 6.8 0 12.1 2.4 16 7 3.9 4.7 5.9 10.6 5.9 17.8v1c0 7.3-2 13.2-5.9 17.8-3.9 4.6-9.2 6.9-15.9 6.9-6.7 0-12-2.3-15.9-6.9-3.9-4.6-5.9-10.5-5.9-17.7v-1zm8.9 1c0 5.2 1.1 9.4 3.2 12.8 2.2 3.4 5.4 5.1 9.7 5.1 4.2 0 7.4-1.7 9.6-5 2.2-3.3 3.3-7.6 3.3-12.7v-1c0-5-1.1-9.3-3.3-12.7-2.2-3.4-5.4-5-9.6-5s-7.4 1.7-9.6 5.1c-2.2 3.4-3.2 7.6-3.2 12.7v1zm66-17l-4.5-.3c-2.3 0-4.3.6-5.9 1.7-1.6 1.1-2.8 2.7-3.7 4.7v35h-8.8v-48.6h7.9l.9 7.1c1.4-2.5 3.1-4.4 5.1-5.9 2-1.4 4.4-2.1 7-2.1.7 0 1.3.1 1.9.2.6.1 1.1.2 1.5.4l-1.2 8.2zm-1171 95.4V937h9.2v6.6h-9.2V973c0 2.3.4 3.9 1.4 4.8.9.95 2.2 1.4 3.7 1.4.5 0 1.1-.05 1.7-.2.6-.12 1.2-.3 1.6-.4l1.2 6.05c-.6.5-1.6.95-2.9 1.3-1.3.3-2.5.5-3.8.5-3.6 0-6.5-1.1-8.6-3.27s-3.2-5.57-3.2-10.2v-29.5h-7.7v-6.53h7.8v-11.7h8.8zm25 18.2c1.7-2.3 3.8-4.1 6.2-5.4 2.5-1.3 5.2-1.9 8.1-1.9 5.2 0 9.3 1.6 12.1 4.7 2.9 3.1 4.4 7.9 4.4 14.4V986h-8.9v-30.55c0-4-.9-6.97-2.6-8.9-1.7-1.9-4.3-2.86-7.7-2.86-2.7 0-4.9.5-6.9 1.5-1.9 1-3.5 2.5-4.7 4.3V986h-8.9v-70.08h8.8v28zm38.9 17.4c0-7.2 2-13.1 5.9-17.7 3.9-4.7 9.2-7 15.9-7 6.7 0 12 2.3 15.9 6.9 3.9 4.7 5.9 10.6 5.9 17.8v1c0 7.3-1.9 13.2-5.8 17.8-3.9 4.6-9.2 6.9-15.9 6.9-6.7 0-12-2.3-15.9-6.9-3.9-4.6-5.8-10.5-5.8-17.7v-1zm8.9 1c0 5.2 1.1 9.4 3.2 12.8 2.2 3.4 5.4 5.1 9.7 5.1 4.2 0 7.4-1.7 9.6-5 2.2-3.3 3.3-7.6 3.3-12.7v-1c0-5-1.1-9.3-3.3-12.7-2.2-3.4-5.4-5-9.7-5-4.2 0-7.4 1.7-9.6 5.1-2.2 3.3-3.2 7.6-3.2 12.7v1zm71.2 10.7c0-1.9-.7-3.5-2.2-4.8-1.5-1.2-4.3-2.3-8.4-3.2-5.7-1.2-10.1-2.9-13.2-5.2-3.1-2.2-4.6-5.2-4.6-8.9 0-3.9 1.7-7.3 5-10.1 3.4-2.8 7.7-4.2 13.1-4.2 5.5 0 10 1.5 13.4 4.5 3.4 3 5 6.5 4.9 10.5l-.1.3h-8.5c0-2.1-.9-4-2.7-5.7-1.8-1.7-4.2-2.6-7-2.6-3.1 0-5.4.7-7 2.1-1.5 1.4-2.3 3.1-2.3 5.1 0 1.9.7 3.4 2 4.4 1.4 1.1 4.1 2 8.3 2.9 6 1.3 10.5 3.1 13.6 5.4 3.1 2.3 4.7 5.3 4.7 9 0 4.3-1.7 7.9-5.2 10.6-3.4 2.7-8 4.1-13.6 4.1-6.2 0-11.1-1.6-14.7-4.7-3.6-3.1-5.3-6.8-5.1-11l.1-.3h8.5c.1 3.2 1.3 5.5 3.5 6.9 2.2 1.5 4.7 2.2 7.7 2.2 3.1 0 5.6-.6 7.3-2 1.8-1.3 2.7-3 2.7-5.1zm37.5 14c-7 0-12.4-2.2-16.3-6.7-3.9-4.4-5.9-10.3-5.9-17.6v-2c0-7 2-12.7 6-17.3 4.1-4.5 9-6.8 14.8-6.8 6.5 0 11.4 2 14.6 6.1 3.2 4.1 4.8 9.4 4.8 16.2v4.6H2783l-.1.3c0 4.9 1 8.9 3.2 11.9 2.1 3.1 5.4 4.6 9.8 4.6 3 0 5.6-.4 7.9-1.3 2.2-.8 4.2-2 5.8-3.5l3.4 5.8c-1.7 1.7-4 3.1-6.8 4.3-2.87 1.2-6.3 1.7-10.3 1.7zm-1.4-43.5c-3.1 0-5.6 1.2-7.6 3.6-2 2.4-3.2 5.4-3.7 9.2l.1.2h21.9v-.7c0-3.5-.9-6.4-2.6-8.7-1.7-2.3-4.4-3.5-8-3.5zm70.3 1.8l-4.5-.3c-2.3 0-4.3.6-5.9 1.7-1.6 1.1-2.8 2.7-3.7 4.7v35h-8.9v-48.6h7.9l.9 7.1c1.4-2.5 3.1-4.4 5.1-5.9 2-1.4 4.4-2.1 7-2.1.7 0 1.3.1 1.9.2.6.1 1.1.2 1.5.3l-1.2 8.2zm16.3 40.8h-8.9V937h8.8v49zm0-61.1h-8.9v-9.1h8.8v9.1zm9.5 37.6c0-7.8 1.7-14.1 5-18.9 3.4-4.8 8-7.2 14-7.2 3.1 0 5.8.6 8.1 1.9 2.3 1.3 4.3 3 5.8 5.4l1.1-6.3h7v49c0 6.2-1.8 11-5.5 14.3s-8.8 5-15.7 5c-2.3 0-4.8-.3-7.5-.9-2.7-.7-5.1-1.5-7.1-2.6l1.3-6.9c1.7.9 3.8 1.6 6.2 2.2 2.4.6 4.8.9 7.1.9 4.3 0 7.5-1 9.4-2.9 2-2 3-5 3-9v-5.5c-1.6 2-3.5 3.6-5.7 4.6-2.2 1.1-4.8 1.6-7.7 1.6-5.9 0-10.6-2.1-13.9-6.4-3.3-4.3-5-9.9-5-16.9v-.9zm8.9 1c0 4.9 1 8.8 3 11.8s5.1 4.5 9.3 4.5c2.7 0 4.9-.6 6.7-1.8 1.8-1.2 3.3-2.9 4.5-5.1v-22.2c-1.1-2-2.6-3.7-4.4-4.9-1.8-1.2-4-1.8-6.6-1.8-4.2 0-7.3 1.8-9.4 5.3-2 3.5-3 8.1-3 13.7v.9zm51.4-19.6c1.7-2.3 3.7-4.1 6.2-5.4 2.5-1.3 5.2-1.9 8.1-1.9 5.2 0 9.3 1.6 12.1 4.7 2.9 3.1 4.4 7.9 4.4 14.3v31h-8.9v-30.5c0-4-.8-6.9-2.6-8.9-1.7-1.9-4.3-2.8-7.7-2.8-2.6 0-4.9.5-6.9 1.5-1.9 1-3.5 2.5-4.7 4.3v36h-8.8v-70h8.8v28zm53.2-18.2V937h9.2v6.56h-9.2v29.5c0 2.23.5 3.84 1.4 4.8 1 .9 2.2 1.4 3.8 1.4.5 0 1.1-.1 1.7-.2.6-.18 1.2-.3 1.6-.47l1.2 6c-.7.5-1.6.9-2.9 1.3-1.3.3-2.6.5-3.8.5-3.6 0-6.4-1.1-8.6-3.3s-3.2-5.6-3.2-10.2v-29.3h-7.7v-6.5h7.7v-11.7h8.9zm44.5 47.3c0-1.9-.7-3.5-2.2-4.8-1.5-1.2-4.3-2.3-8.5-3.2-5.7-1.2-10.1-2.9-13.2-5.1-3.1-2.2-4.6-5.2-4.6-8.9 0-3.9 1.7-7.3 5.1-10.1s7.7-4.2 13.1-4.2c5.5 0 10 1.5 13.4 4.5 3.4 3 5 6.5 4.9 10.5l-.1.3h-8.5c0-2.1-.9-4-2.7-5.7-1.8-1.7-4.2-2.5-7-2.5-3.1 0-5.4.7-7 2.1-1.5 1.4-2.3 3.1-2.3 5s.7 3.4 2 4.4c1.3 1.1 4.1 2 8.2 2.9 6 1.3 10.5 3 13.6 5.3 3.1 2.3 4.7 5.3 4.7 9 0 4.3-1.7 7.8-5.2 10.6s-8 4.1-13.7 4.1c-6.2 0-11-1.5-14.6-4.7-3.6-3.1-5.3-6.8-5.1-11l.1-.3h8.4c.2 3.2 1.3 5.5 3.5 6.9 2.2 1.5 4.8 2.2 7.7 2.2 3.2 0 5.6-.7 7.4-2 1.8-1.3 2.7-3 2.7-5.1zm50-47.3V937h9.2v6.55h-9.2v29.53c0 2.27.5 3.88 1.4 4.8 1 .9 2.2 1.4 3.8 1.4.5 0 1.1-.1 1.7-.2.6-.14 1.1-.3 1.6-.43l1.2 6c-.6.5-1.6.96-2.9 1.3-1.3.36-2.5.5-3.8.5-3.6 0-6.4-1.05-8.6-3.2-2.1-2.2-3.2-5.6-3.2-10.2v-29.3h-7.7v-6.56h7.8v-11.7h8.8zm14.1 35.6c0-7.2 2-13.1 5.9-17.7s9.2-7 15.8-7c6.7 0 12.1 2.3 16 7 3.9 4.7 5.9 10.6 5.9 17.8v1c0 7.3-1.9 13.2-5.8 17.8-3.9 4.6-9.2 6.9-15.9 6.9-6.7 0-12-2.3-15.9-6.9-3.9-4.6-5.9-10.6-5.9-17.8v-1zm8.9 1c0 5.2 1 9.4 3.2 12.8 2.1 3.4 5.4 5 9.6 5s7.4-1.6 9.6-5c2.2-3.3 3.3-7.6 3.3-12.7v-1c0-5.1-1.1-9.3-3.3-12.7-2.2-3.4-5.5-5.1-9.7-5.1-4.2 0-7.4 1.7-9.6 5.1-2.2 3.4-3.3 7.7-3.3 12.7v1zm104.8 1.3c0 7-1.7 12.7-5 17-3.3 4.3-8 6.5-13.9 6.5-3.2 0-6-.6-8.4-1.9-2.4-1.2-4.3-3.1-5.9-5.6l-1.5 6.6h-6.8v-70.1h8.8V943c1.5-2.15 3.4-3.8 5.7-4.94 2.3-1.13 4.9-1.7 7.9-1.7 6 0 10.7 2.4 14 7.2 3.4 4.78 5 11.08 5 18.9v.94zm-8.8-.9c0-5.6-1-10.1-3.1-13.6-2-3.5-5.2-5.2-9.4-5.2-2.7 0-5 .7-6.9 2-1.8 1.4-3.3 3.1-4.4 5.4v21c1.2 2.4 2.7 4.3 4.5 5.7 1.9 1.4 4.2 2 7 2 4.2 0 7.3-1.5 9.3-4.4 2.1-2.9 3.1-6.9 3.1-11.7v-.9zm37.3 24.4c-7 0-12.4-2.2-16.4-6.7-3.9-4.4-5.9-10.3-5.9-17.6v-1.9c0-7 2.1-12.8 6.1-17.4 4.1-4.5 9-6.8 14.8-6.8 6.5 0 11.4 2 14.6 6.1s4.9 9.5 4.9 16.2v4.7H3242l-.1.2c0 4.9 1 8.9 3.2 11.9 2.1 3 5.4 4.6 9.8 4.6 3 0 5.7-.4 7.9-1.3 2.3-.8 4.2-2 5.8-3.5l3.5 5.8c-1.7 1.7-4 3.1-6.83 4.2-2.88 1.2-6.3 1.7-10.3 1.7zm-1.4-43.4c-3.1 0-5.7 1.2-7.7 3.6-2 2.4-3.3 5.5-3.7 9.2l.1.3h22v-.8c0-3.5-.9-6.4-2.6-8.7-1.8-2.3-4.4-3.5-8.1-3.5zm70.3 1.8l-4.6-.3c-2.3 0-4.3.6-5.9 1.7-1.6 1.1-2.8 2.7-3.7 4.7v35h-8.9v-48.6h7.9l.9 7.1c1.4-2.5 3.1-4.5 5.1-5.9 2-1.4 4.3-2.1 7-2.1.7 0 1.3 0 1.9.1.6.1 1.1.2 1.5.4l-1.2 8.2zm26 41.7c-7 0-12.4-2.2-16.4-6.7-3.9-4.4-5.8-10.3-5.8-17.6v-1.9c0-7 2-12.8 6-17.3 4.1-4.6 9-6.9 14.8-6.9 6.5 0 11.4 2 14.7 6.1 3.2 4.1 4.8 9.5 4.8 16.2v4.7H3337l-.1.2c0 4.9 1.1 8.9 3.3 11.9 2.2 3 5.5 4.6 9.9 4.6 3 0 5.7-.4 7.9-1.3 2.3-.8 4.2-2 5.8-3.5l3.5 5.8c-1.7 1.7-4 3.1-6.88 4.3-2.8 1.2-6.2 1.8-10.3 1.8zm-1.4-43.4c-3.1 0-5.7 1.2-7.7 3.6-2 2.4-3.3 5.4-3.7 9.1l.1.2h21.9v-.7c0-3.5-.9-6.4-2.6-8.7-1.8-2.3-4.4-3.5-8.1-3.5zm56.8 42.5c-.3-1.4-.6-2.7-.7-3.9-.2-1.1-.3-2.2-.3-3.4-1.7 2.4-3.8 4.3-6.5 5.9-2.6 1.6-5.5 2.4-8.5 2.4-5.1 0-8.9-1.3-11.6-3.8-2.6-2.6-3.9-6.2-3.9-10.7 0-4.7 1.9-8.3 5.6-10.9 3.8-2.6 8.9-3.9 15.3-3.9h9.6V953c0-2.9-.8-5.1-2.6-6.8-1.7-1.65-4.2-2.5-7.3-2.5-2.8 0-5.2.74-6.9 2.2-1.8 1.4-2.6 3.14-2.6 5.14l-8.4.1-.1-.3c-.2-3.5 1.4-6.8 5-9.7 3.5-2.9 8-4.4 13.6-4.4 5.5 0 10 1.4 13.3 4.2 3.4 2.8 5.1 6.8 5.1 12.1v23c0 1.76.1 3.43.3 5.05.2 1.6.5 3.2 1 4.7h-9.1zm-14.7-6.4c3.2 0 6.1-.8 8.7-2.5 2.5-1.6 4.2-3.5 5-5.6v-7.9h-9.9c-3.6 0-6.4.9-8.6 2.7-2.1 1.8-3.2 3.9-3.2 6.3 0 2.2.7 3.9 2 5.1 1.4 1.3 3.3 1.9 6 1.9zm42.5 6.4h-8.9V916h8.8v70zm20.6 0h-8.9v-49h8.9v49zm0-61.1h-8.9v-9h8.9v9zm39.4 48c0-1.9-.7-3.5-2.2-4.7-1.4-1.2-4.3-2.3-8.4-3.2-5.7-1.2-10.1-3-13.2-5.2-3-2.2-4.6-5.2-4.6-8.9 0-3.9 1.7-7.3 5.1-10.1 3.4-2.8 7.7-4.3 13.1-4.3 5.5 0 10 1.5 13.4 4.5 3.4 3 5.1 6.5 4.9 10.5l-.1.3h-8.5c0-2.1-.9-4-2.7-5.7-1.8-1.7-4.1-2.5-7-2.5-3.1 0-5.4.7-6.9 2.1-1.53 1.4-2.3 3.1-2.3 5s.67 3.4 2 4.4c1.3 1 4.1 2 8.2 2.9 6 1.2 10.5 3 13.6 5.3 3.1 2.3 4.67 5.3 4.67 9.1 0 4.3-1.7 7.9-5.2 10.6-3.5 2.7-8.1 4.1-13.7 4.1-6.2 0-11.1-1.5-14.7-4.7-3.6-3.1-5.3-6.8-5.1-11l.1-.3h8.4c.2 3.2 1.3 5.5 3.5 6.9 2.2 1.5 4.8 2.2 7.7 2.2 3.2 0 5.6-.7 7.4-2 1.8-1.3 2.7-3 2.7-5.1zm37.5 14c-6.9 0-12.4-2.2-16.3-6.7-3.9-4.4-5.9-10.3-5.9-17.6v-1.9c0-7 2-12.7 6-17.3s9-6.8 14.8-6.8c6.5 0 11.4 2 14.6 6.1 3.2 4.1 4.9 9.5 4.9 16.2v4.7H3517l-.15.2c0 4.9 1.1 8.8 3.26 11.9 2.2 3 5.5 4.5 9.9 4.5 3 0 5.6-.4 7.9-1.3 2.3-.8 4.2-2 5.9-3.5l3.4 5.8c-1.7 1.7-4 3.1-6.8 4.3-2.8 1.2-6.2 1.7-10.3 1.7zm-1.4-43.5c-3 0-5.6 1.2-7.6 3.6-2 2.4-3.3 5.4-3.7 9.1l.1.3h21.9v-.7c0-3.5-.9-6.4-2.6-8.7-1.7-2.3-4.4-3.4-8-3.4zm24.9 19.2c0-7.8 1.7-14.1 5.1-18.9 3.3-4.8 8-7.2 14-7.2 2.8 0 5.4.5 7.6 1.6 2.2 1 4.1 2.6 5.6 4.6V916h8.8v70h-6.8l-1.4-6.16c-1.6 2.3-3.5 4.1-5.9 5.3-2.3 1.2-5 1.8-8.1 1.8-5.92 0-10.6-2.2-13.92-6.5-3.32-4.3-5-9.9-5-17v-.9zm8.9 1c0 4.9 1 8.8 3 11.8 2 2.9 5.1 4.4 9.3 4.4 2.7 0 4.9-.6 6.7-1.8 1.8-1.2 3.3-2.9 4.4-5v-23c-1.1-2-2.6-3.6-4.4-4.7-1.8-1.1-4-1.7-6.5-1.7-4.3 0-7.4 1.8-9.4 5.3s-3 8.1-3 13.7v.9zm67 22.4v-42h-7.6v-7h7.6v-6c0-5.1 1.3-9.1 4.1-12 2.7-2.8 6.5-4.2 11.4-4.2 1 0 2 .1 3 .3 1 .2 2.2.4 3.4.7l-1.1 6.7c-.5-.1-1.2-.2-1.9-.3-.8-.1-1.6-.1-2.4-.1-2.6 0-4.5.8-5.8 2.4-1.2 1.5-1.8 3.8-1.8 6.7v6.2h8.8v6.6h-8.8v42h-8.9zm22-24.7c0-7.2 2-13.1 5.8-17.8 3.9-4.6 9.2-6.9 15.9-6.9 6.7 0 12.1 2.3 16 7 3.9 4.7 5.9 10.6 5.9 17.8v1c0 7.3-1.9 13.2-5.8 17.8-3.9 4.6-9.2 6.9-15.9 6.9-6.7 0-12-2.3-15.9-6.9-3.9-4.6-5.8-10.6-5.8-17.8v-1zm8.9 1c0 5.1 1.1 9.4 3.3 12.8 2.1 3.4 5.4 5.1 9.6 5.1 4.2 0 7.4-1.7 9.6-5 2.2-3.3 3.3-7.6 3.3-12.7v-1c0-5-1.1-9.3-3.3-12.7-2.2-3.4-5.4-5-9.7-5-4.2 0-7.4 1.7-9.6 5.1-2.1 3.4-3.2 7.6-3.2 12.7v1zm66-17l-4.5-.2c-2.3 0-4.3.6-5.9 1.7-1.6 1.1-2.8 2.7-3.7 4.7v35h-8.8V938h7.9l.9 7.1c1.4-2.5 3.1-4.5 5.1-5.9 2-1.4 4.3-2.1 7-2.1.6 0 1.3.1 1.9.2.6.1 1 .2 1.4.35l-1.2 8.3zm-1094.9 156c-.3-1.4-.5-2.7-.7-3.9-.2-1.1-.3-2.2-.3-3.4-1.7 2.4-3.8 4.3-6.5 5.9-2.6 1.6-5.5 2.4-8.5 2.4-5 0-8.9-1.3-11.5-3.9-2.6-2.6-4-6.1-4-10.7s1.9-8.3 5.7-10.9c3.8-2.6 8.9-3.9 15.3-3.9h9.6v-4.8c0-2.8-.8-5.1-2.6-6.8-1.7-1.6-4.2-2.5-7.3-2.5-2.8 0-5.2.8-6.9 2.2-1.7 1.4-2.6 3.2-2.6 5.2l-8.4.1-.1-.3c-.2-3.5 1.5-6.7 5-9.7 3.6-2.9 8.1-4.4 13.7-4.4 5.5 0 10 1.4 13.3 4.2 3.4 2.8 5 6.9 5 12.1v23.4c0 1.8.1 3.4.3 5.1.2 1.6.5 3.2 1 4.8h-9.1zm-14.7-6.4c3.2 0 6.1-.8 8.6-2.4 2.5-1.6 4.2-3.5 5-5.6v-7.9h-10c-3.6 0-6.5.9-8.6 2.7-2.2 1.8-3.2 3.9-3.2 6.3 0 2.1.6 3.8 2 5.1 1.3 1.2 3.3 1.9 6 1.9zm42.4 6.5h-8.9V1031h8.8v70.1zm20.7 0h-8.9V1031h8.9v70.1zm50.8-6c2.7 0 5.1-.9 7.18-2.7 2.1-1.8 3.1-4.1 3.1-6.7h8l.2.2c.2 4.2-1.6 7.9-5.4 11.1-3.7 3.2-8 4.8-12.9 4.8-6.8 0-12.1-2.3-15.8-7-3.7-4.6-5.5-10.4-5.5-17.3v-1.9c0-6.9 1.9-12.6 5.6-17.3 3.7-4.7 9-7 15.8-7 5.5 0 9.9 1.6 13.3 5 3.5 3.3 5.2 7.4 5 12.3l-.1.2h-8c0-2.9-.9-5.5-2.9-7.5-1.9-2.1-4.3-3.2-7.3-3.2-4.3 0-7.5 1.7-9.5 5s-3 7.4-3 12.2v1.9c0 4.9 1 9 3 12.3s5.2 5 9.6 5zm35.2-36.1c1.7-2.4 3.7-4.2 6.2-5.5 2.43-1.3 5.13-2 8.1-2 5.2 0 9.2 1.5 12.1 4.6 2.9 3.1 4.34 7.9 4.34 14.3v30.4h-8.9v-30.6c0-4-.9-7-2.6-8.9-1.7-1.9-4.3-2.9-7.7-2.9-2.7 0-5 .5-6.9 1.5-2 1-3.5 2.5-4.7 4.3v36.5h-8.9V1031h8.8v28zm50.5 42.1h-8.9v-48.6h8.9v48.6zm0-61.1h-8.9v-9.1h8.9v9zm20.7 61h-8.83V1031h8.8v70.1zm9.1-23.4c0-7.9 1.68-14.2 5-18.9 3.3-4.8 8-7.2 14-7.2 2.9 0 5.4.5 7.6 1.5s4.1 2.5 5.68 4.5V1031h8.8v70.1h-6.8l-1.4-6.2c-1.6 2.3-3.6 4.1-5.9 5.3-2.4 1.2-5.1 1.8-8.2 1.8-6 0-10.6-2.1-14-6.4-3.4-4.3-5.1-10-5.1-17v-1zm8.8.9c0 4.9 1 8.8 3 11.8 2 2.9 5.1 4.4 9.4 4.4 2.6 0 4.8-.6 6.6-1.8 1.8-1.2 3.3-2.9 4.4-5.1v-23c-1.1-2-2.6-3.6-4.4-4.7-1.8-1.2-4-1.8-6.54-1.8-4.2 0-7.4 1.8-9.4 5.3s-3 8.1-3 13.7v1zm66-18.4l-4.5-.3c-2.3 0-4.3.6-5.9 1.7-1.6 1.1-2.8 2.6-3.7 4.6v34.8h-8.8v-48.6h7.9l.9 7.1c1.4-2.6 3.1-4.5 5.1-5.9 2.1-1.4 4.4-2.1 7-2.1.7 0 1.3 0 1.9.1.6.1 1.1.2 1.5.3l-1.2 8.2zm26 41.7c-6.95 0-12.4-2.2-16.3-6.7-3.9-4.5-5.9-10.3-5.9-17.6v-2c0-7 2-12.8 6-17.4s8.9-6.9 14.7-6.9c6.5 0 11.3 2 14.6 6 3.2 4 4.8 9.4 4.8 16.1v4.6h-31l-.1.2c0 4.9 1.1 8.8 3.2 11.9 2.1 3 5.4 4.5 9.9 4.5 3 0 5.6-.4 7.9-1.3 2.2-.9 4.2-2.1 5.8-3.6l3.4 5.8c-1.8 1.6-4.1 3-6.9 4.2-2.8 1.2-6.3 1.7-10.3 1.7zm-1.4-43.5c-3.04 0-5.6 1.2-7.62 3.5-2 2.4-3.25 5.4-3.7 9.1l.1.2h21.9v-.7c0-3.6-.85-6.5-2.6-8.8-1.7-2.3-4.4-3.5-8-3.5zm34.87-6.1l.6 7.2c1.6-2.6 3.6-4.6 6.1-6 2.4-1.4 5.2-2.2 8.3-2.2 5.2 0 9.3 1.5 12.1 4.6 2.8 3 4.3 7.8 4.3 14.2v30.7h-8.9v-30.5c0-4.3-.9-7.4-2.6-9.2-1.7-1.8-4.3-2.7-7.8-2.7-2.7 0-5 .5-6.9 1.6-1.9 1.1-3.4 2.7-4.5 4.6v36.1h-8.9v-49h7.9zm74.7 30.9l1.1 6.2h.27l1.1-6.3 9.7-30.9h7.1l9.8 30.9 1.3 6.9h.3l1.5-7 7.2-30.9h9.3l-14.1 48.6h-7.1l-9.6-29.6-1.8-7.8h-.3l-1.7 7.7-9.4 29.6h-7.1l-14.1-48.6h9.2l7.7 30.9zm52.6-7.1c0-7.2 1.95-13.1 5.84-17.8 3.9-4.7 9.2-7 15.9-7 6.8 0 12.1 2.3 16 6.9 3.9 4.6 5.9 10.6 5.9 17.8v1c0 7.2-1.9 13.2-5.8 17.8-3.9 4.6-9.2 6.9-15.9 6.9-6.7 0-12-2.3-15.9-7-3.9-4.6-5.8-10.6-5.8-17.8v-1zm8.85 1c0 5.1 1.1 9.4 3.26 12.7 2.2 3.3 5.4 5 9.7 5 4.2 0 7.4-1.7 9.6-5 2.2-3.4 3.3-7.6 3.3-12.8v-1c0-5.1-1.1-9.3-3.3-12.7-2.2-3.4-5.45-5.1-9.7-5.1-4.2 0-7.4 1.7-9.6 5-2.17 3.4-3.26 7.6-3.26 12.7v1zm66-17.1l-4.53-.3c-2.4 0-4.3.6-5.9 1.7-1.6 1.1-2.9 2.6-3.7 4.6v34.8h-8.9v-49h7.9l.8 7.1c1.3-2.5 3-4.5 5.1-5.9 2-1.4 4.3-2.1 7-2.1.6 0 1.2.1 1.8.2.6.1 1.1.2 1.5.3l-1.2 8.2zm16.3 41h-8.85V1031h8.8v70.1zm9.1-23.4c0-7.9 1.66-14.2 5-19 3.34-4.8 8-7.2 14.04-7.2 2.8 0 5.4.5 7.6 1.5s4.1 2.5 5.7 4.5V1031h8.9v70.1h-6.8l-1.3-6.1c-1.6 2.4-3.5 4.1-5.9 5.3-2.3 1.2-5 1.8-8.1 1.8-5.9 0-10.5-2.1-13.9-6.4-3.3-4.3-5-9.9-5-16.9v-1zm8.84.9c0 4.9 1 8.8 3 11.8 2 2.9 5.1 4.4 9.3 4.4 2.7 0 4.9-.6 6.7-1.8 1.8-1.2 3.3-2.9 4.4-5.1v-23c-1.1-2-2.6-3.6-4.4-4.7-1.8-1.1-4-1.7-6.5-1.7-4.3 0-7.4 1.8-9.4 5.3-2.1 3.5-3.1 8.1-3.1 13.7v1zm55.4 4.7l1.1 6.2h.3l1.2-6.3 9.7-30.9h7.1l9.75 30.9 1.26 6.9h.3l1.5-7 7.2-30.9h9.3l-14.1 48.6h-7.1l-9.6-29.6-1.8-7.8h-.2l-1.7 7.7-9.4 29.6h-7.1l-14.1-48.6h9.2l7.7 30.9zm64.2 17.7h-8.8v-48.6h8.88v48.6zm0-61.1h-8.8v-9.1h8.88v9zm9.1 37.6c0-7.9 1.7-14.2 5-18.9 3.4-4.8 8.1-7.2 14.1-7.2 2.88 0 5.4.5 7.6 1.5s4.1 2.5 5.7 4.5v-26.7h8.9v70.1h-6.8l-1.3-6.2c-1.6 2.4-3.5 4.1-5.9 5.3-2.3 1.2-5 1.8-8.1 1.8-5.9 0-10.5-2.1-13.9-6.4-3.3-4.3-5-10-5-17v-1zm8.9.9c0 4.9 1 8.8 3 11.8 2 2.9 5.17 4.4 9.4 4.4 2.6 0 4.8-.6 6.6-1.8 1.8-1.2 3.2-2.9 4.4-5.1V1065c-1.2-2-2.6-3.6-4.4-4.78-1.8-1.2-4-1.8-6.6-1.8-4.3 0-7.4 1.77-9.4 5.27-2.1 3.5-3.1 8.1-3.1 13.7v.9zm63.1 23.4c-7 0-12.4-2.3-16.3-6.7-3.9-4.5-5.8-10.3-5.8-17.6v-2c0-7 2-12.8 6-17.4 4.06-4.6 8.97-6.8 14.78-6.8 6.5 0 11.4 2 14.68 6s4.9 9.4 4.9 16.1v4.7H3405l-.1.2c0 4.9 1.1 8.9 3.3 11.9 2.2 3.1 5.5 4.6 9.9 4.6 3 0 5.6-.4 7.9-1.2 2.3-.8 4.2-2 5.9-3.5l3.5 5.7c-1.7 1.7-4 3.1-6.8 4.3s-6.2 1.8-10.3 1.8zm-1.4-43.5c-3.1 0-5.6 1.2-7.63 3.5-2 2.3-3.2 5.4-3.7 9.1l.1.2h21.9v-.7c0-3.6-.84-6.5-2.6-8.8-1.7-2.3-4.4-3.5-8-3.5zm36.6 42.5h-8.9v-9.1h8.87v9z"/>
    <circle fill="#f09" cx="160" cy="960" r="160"/>
    <circle fill="#0082d9" cx="360" cy="360" r="360"/>
    <circle fill="#c00" cx="560" cy="960" r="160"/>
    <circle fill="#f90" cx="960" cy="960" r="160"/>
    <circle fill="#fed100" cx="1360" cy="960" r="160"/>
    <circle fill="#6c0" cx="1760" cy="960" r="160"/>
    <circle fill="#090" cx="2160" cy="960" r="160"/>
    <circle fill="#09f" cx="360" cy="360" r="240"/>
    <circle fill="#262673" cx="1160" cy="360" r="360"/>
    <circle fill="#339" cx="1160" cy="360" r="240"/>
    <path fill="#444" d="M1600 0h360v360h-360z" mask="url(#m)"/>
    <path fill="#60696f" d="M1960 0h360v360h-360z" mask="url(#m)"/>
    <path fill="#e3e3e3" d="M1960 360h360v360h-360z" mask="url(#m)"/>
    <path fill="#f3f3f3" d="M1600 360h360v360h-360z" mask="url(#m)"/>
    <circle fill="#fff" cx="1960" cy="360" r="240" mask="url(#m)"/>
</svg>
