<svg xmlns="http://www.w3.org/2000/svg" xmlns:xlink="http://www.w3.org/1999/xlink" width="250" height="200"><path d="M193.184 77.171a56.556 59.86 0 1 1-113.112 0 56.556 59.86 0 1 1 113.112 0z" transform="matrix(1 0 0 .974 -9.329 2.782)" fill="#fff"/><g><linearGradient id="a" gradientUnits="userSpaceOnUse" x1="277.519" y1="-668.007" x2="277.519" y2="-548.688" gradientTransform="matrix(1 0 0 -1 -150 -530)"><stop offset="0" stop-color="#D14427"/><stop offset="1" stop-color="#E55225"/></linearGradient><path fill="url(#a)" d="M179.717 78.348c0 28.828-23.369 52.201-52.199 52.201s-52.199-23.373-52.199-52.201 23.369-52.199 52.199-52.199 52.199 23.371 52.199 52.199zm7.461 0c0 32.947-26.713 59.66-59.66 59.66-32.947 0-59.66-26.713-59.66-59.66 0-32.947 26.713-59.66 59.66-59.66 32.947 0 59.66 26.712 59.66 59.66zm-4.922 0c0-30.229-24.51-54.736-54.738-54.736-30.227 0-54.738 24.508-54.738 54.736s24.512 54.736 54.738 54.736c30.228 0 54.738-24.508 54.738-54.736z"/><g><g><defs><path id="b" d="M179.922 78.207c0 28.895-23.506 52.4-52.404 52.4-28.893 0-52.396-23.508-52.396-52.4 0-28.891 23.506-52.396 52.396-52.396 28.898-.001 52.404 23.505 52.404 52.396z"/></defs><clipPath id="c"><use xlink:href="#b" overflow="visible"/></clipPath><g clip-path="url(#c)"><path fill="#D5D7D8" d="M148.482 154.541c-1.801-8.285-12.262-27.039-16.229-34.969-3.965-7.93-7.939-19.11-6.129-26.322.327-1.312-3.436-11.307-2.354-12.014 8.415-5.49 10.633.598 14.002-1.863 1.738-1.273 4.09 1.047 4.693-1.059 2.158-7.568-3.006-20.76-8.768-26.527-1.885-1.879-4.773-3.059-8.031-3.686-1.254-1.713-3.275-3.361-6.138-4.879-3.188-1.697-10.121-3.938-13.717-4.535-2.492-.41-3.055.287-4.119.461.992.088 5.699 2.414 6.615 2.549-.916.619-3.607-.029-5.324.742-.865.391-1.512 1.877-1.506 2.58 4.91-.496 12.574-.016 17.1 2-3.602.41-9.08.867-11.436 2.105-6.848 3.609-9.873 12.035-8.07 22.133 1.804 10.075 9.738 46.849 12.262 59.129 2.525 12.263-5.408 20.189-10.455 22.354l5.408.363-1.801 3.967c6.484.719 13.695-1.441 13.695-1.441-1.438 3.965-11.176 5.412-11.176 5.412s4.691 1.438 12.258-1.447c7.575-2.883 12.261-4.688 12.261-4.688l3.605 9.373 6.854-6.846 2.884 7.211c.009-.001 5.419-1.808 3.616-10.103z"/><path fill="#fff" d="M150.66 152.859c-1.795-8.289-12.256-27.043-16.227-34.975-3.968-7.935-7.933-19.112-6.129-26.321.334-1.309.34-6.668 1.428-7.379 8.41-5.494 7.813-.184 11.186-2.645 1.74-1.27 3.133-2.805 3.738-4.912 2.164-7.572-3.006-20.76-8.773-26.529-1.879-1.879-4.768-3.062-8.025-3.686-1.252-1.717-3.271-3.361-6.132-4.881-5.391-2.863-12.074-4.006-18.266-2.883.99.09 3.256 2.137 4.168 2.273-1.381.936-5.053.816-5.029 2.896 4.916-.492 10.303.285 14.834 2.297-3.602.41-6.955 1.299-9.311 2.543-6.854 3.602-8.656 10.812-6.854 20.914 1.807 10.096 9.742 46.869 12.256 59.127 2.527 12.258-5.402 20.188-10.449 22.352l5.408.359-1.801 3.973c6.484.717 13.695-1.443 13.695-1.443-1.438 3.972-11.176 5.406-11.176 5.406s4.686 1.443 12.258-1.445c7.578-2.883 12.267-4.684 12.267-4.684l3.602 9.373 6.854-6.85 2.889 7.211c-.007.005 5.398-1.8 3.589-10.091z"/><path fill="#2D4F8E" d="M109.211 70.074c0-2.092 1.693-3.787 3.789-3.787 2.09 0 3.785 1.695 3.785 3.787 0 2.094-1.695 3.787-3.785 3.787-2.096 0-3.789-1.693-3.789-3.787z"/><path fill="#fff" d="M113.697 68.812c0-.545.441-.984.98-.984.543 0 .984.439.984.984 0 .543-.441.984-.984.984-.538.001-.98-.441-.98-.984z"/><path fill="#2D4F8E" d="M135.057 67.828c0-1.793 1.461-3.25 3.252-3.25 1.801 0 3.256 1.457 3.256 3.25 0 1.801-1.455 3.258-3.256 3.258-1.791 0-3.252-1.457-3.252-3.258z"/><path fill="#fff" d="M138.914 66.746c0-.463.379-.842.838-.842.477 0 .844.379.844.842 0 .469-.367.842-.844.842-.459 0-.838-.373-.838-.842z"/><linearGradient id="d" gradientUnits="userSpaceOnUse" x1="255.509" y1="-590.363" x2="264.076" y2="-590.363" gradientTransform="matrix(1 0 0 -1 -150 -530)"><stop offset=".006" stop-color="#6176B9"/><stop offset=".691" stop-color="#394A9F"/></linearGradient><path fill="url(#d)" d="M114.076 59.101s-2.854-1.291-5.629.453c-2.77 1.742-2.668 3.523-2.668 3.523s-1.473-3.283 2.453-4.891c3.93-1.61 5.844.915 5.844.915z"/><linearGradient id="e" gradientUnits="userSpaceOnUse" x1="282.463" y1="-587.754" x2="290.268" y2="-587.754" gradientTransform="matrix(1 0 0 -1 -150 -530)"><stop offset=".006" stop-color="#6176B9"/><stop offset=".691" stop-color="#394A9F"/></linearGradient><path fill="url(#e)" d="M140.268 58.841s-2.051-1.172-3.643-1.152c-3.268.043-4.162 1.488-4.162 1.488s.549-3.445 4.734-2.754c2.266.377 3.071 2.418 3.071 2.418z"/></g></g><path fill="#FDD20A" d="M124.59 84.678c.379-2.291 6.299-6.625 10.49-6.887 4.201-.264 5.51-.205 9.01-1.043 3.508-.838 12.535-3.088 15.033-4.242 2.504-1.156 13.102.572 5.631 4.738-3.234 1.809-11.945 5.131-18.172 6.988-6.219 1.861-9.99-1.777-12.059 1.281-1.646 2.432-.334 5.762 7.098 6.453 10.037.93 19.66-4.52 20.719-1.625 1.064 2.895-8.625 6.508-14.527 6.623-5.891.111-17.776-3.896-19.553-5.137-1.785-1.239-4.164-4.13-3.67-7.149z"/></g></g><g><path fill="#4C4C4C" d="M22.754 179.957v-24.598h8.914c8.487 0 12.352 6.236 12.352 12.033 0 6.254-3.819 12.562-12.352 12.562l-8.914.003zm2.834-2.834h6.08c6.575 0 9.518-4.904 9.518-9.766 0-4.465-2.979-9.271-9.518-9.271h-6.08v19.037z"/><path fill="#4C4C4C" d="M55.245 180.24c-4.554 0-7.497-3.137-7.497-7.992v-9.551h2.657v9.516c0 3.496 2.034 5.584 5.442 5.584 3.195-.035 5.513-2.488 5.513-5.832v-9.268h2.657v17.26h-2.414l-.152-3.002-.412.518c-1.432 1.8-3.381 2.732-5.794 2.767z"/><path fill="#4C4C4C" d="M76.976 180.275c-4.49 0-9.02-2.77-9.02-8.949 0-5.354 3.625-8.949 9.02-8.949 2.361 0 4.436.842 6.168 2.502l-1.67 1.734c-1.175-1.096-2.781-1.721-4.427-1.721-3.768 0-6.399 2.646-6.399 6.434 0 4.445 3.196 6.436 6.364 6.436 1.782 0 3.4-.636 4.573-1.791l1.736 1.736c-1.747 1.705-3.881 2.568-6.345 2.568z"/><polygon fill="#4C4C4C" points="97.873,179.957 89.438,171.521 89.438,179.957 86.816,179.957 86.816,155.395 89.438,155.395 89.438,170.252 96.811,162.697 100.248,162.697 92.114,170.831 101.241,179.922 101.241,179.957"/><path fill="#4C4C4C" d="M104.507 179.957v-24.598h8.913c8.487 0 12.354 6.236 12.354 12.033 0 6.254-3.817 12.562-12.354 12.562l-8.913.003zm2.833-2.834h6.08c6.575 0 9.519-4.904 9.519-9.766 0-4.465-2.979-9.271-9.519-9.271h-6.08v19.037z"/><path fill="#4C4C4C" d="M136.996 180.24c-4.555 0-7.496-3.137-7.496-7.992v-9.551h2.657v9.516c0 3.496 2.034 5.584 5.44 5.584 3.193-.035 5.514-2.488 5.514-5.832v-9.268h2.656v17.26h-2.416l-.149-3.002-.412.518c-1.433 1.8-3.381 2.732-5.794 2.767z"/><path fill="#4C4C4C" d="M158.729 180.275c-4.49 0-9.021-2.77-9.021-8.949 0-5.354 3.625-8.949 9.021-8.949 2.36 0 4.438.842 6.168 2.502l-1.67 1.734c-1.176-1.096-2.781-1.721-4.428-1.721-3.768 0-6.398 2.646-6.398 6.434 0 4.445 3.197 6.436 6.363 6.436 1.782 0 3.4-.636 4.573-1.792l1.685 1.688-.088.09.049.049c-1.73 1.644-3.833 2.478-6.254 2.478z"/><polygon fill="#4C4C4C" points="179.625,179.957 171.189,171.521 171.189,179.957 168.568,179.957 168.568,155.395 171.189,155.395 171.189,170.252 178.562,162.697 182.001,162.697 173.867,170.831 182.993,179.922 182.993,179.957"/><path fill="#4C4C4C" d="M196.908 180.418c-9.457 0-12.812-6.75-12.812-12.529-.019-3.765 1.256-7.125 3.584-9.467 2.293-2.305 5.473-3.523 9.193-3.523 3.367 0 6.537 1.279 8.938 3.604l-1.606 1.869c-1.886-1.763-4.681-2.853-7.329-2.853-6.854 0-9.979 5.375-9.979 10.369 0 4.912 3.105 9.873 10.049 9.873 2.529 0 4.885-.867 6.81-2.512l.088-.074v-6.064h-7.729v-2.479h10.277v9.646c-2.647 2.796-5.74 4.14-9.484 4.14z"/><path fill="#4C4C4C" d="M218.643 180.275c-5.187 0-8.949-3.748-8.949-8.914 0-5.246 3.766-9.055 8.949-9.055 5.289 0 8.983 3.723 8.983 9.055 0 5.166-3.778 8.914-8.983 8.914zm.034-15.56c-3.726 0-6.327 2.734-6.327 6.646 0 3.729 2.646 6.436 6.293 6.436 3.709 0 6.326-2.646 6.362-6.434 0-3.853-2.661-6.648-6.328-6.648z"/></g><g><path fill="#65BC46" d="M129.133 115.975s-14.1-7.521-14.33-4.47c-.238 3.056 0 15.509 1.643 16.451 1.646.938 13.395-6.108 13.395-6.108l-.708-5.873z"/><path fill="#65BC46" d="M134.535 115.501s9.635-7.285 11.754-6.815c2.111.478 2.582 15.51.701 16.224-1.881.696-12.908-3.816-12.908-3.816l.453-5.593z"/><path fill="#43A244" d="M125.719 116.771c0 4.931-.709 7.049 1.41 7.517 2.112.473 6.105 0 7.518-.938 1.41-.94.232-7.281-.235-8.465-.474-1.171-8.693-.228-8.693 1.886z"/><path fill="#65BC46" d="M126.615 115.675c0 4.933-.707 7.05 1.41 7.519 2.109.474 6.104 0 7.518-.938 1.41-.941.232-7.279-.238-8.466-.471-1.172-8.69-.228-8.69 1.885z"/></g><path fill="#fff" d="M140.029 128.698c-4.133 1.052-8.46 1.613-12.916 1.613-4.715 0-9.282-.637-13.631-1.811l.05.413c4.334 1.165 8.884 1.796 13.581 1.796 4.511 0 8.89-.573 13.068-1.649l-.152-.362z"/></svg>