<svg class="logo" xmlns="http://www.w3.org/2000/svg" width="156" height="24" viewBox="0 0 1560 240">
    <title>The Week logo</title>
    <path d="M191 0l19 56-8 4c-26-31-43-51-68-51-11 0-15 4-15 15v181c0 20 17 20 35 20v9h-98v-9c15 0 35 0 35-23v-179c0-14-14-14-16-14-24 0-44 21-67 51l-8-4 19-56h172zm100 0v9c-15 0-29 2-28 22v77h98v-76c0-23-16-23-29-23v-9h85v9c-14 0-28 1-28 22v172c0 21 15 21 28 22v9h-85v-9c12-1 29-1 29-22v-83h-98v85c-1 18 15 19 28 20v9h-84v-9c11-1 27-2 28-22v-172c-1-14-7-22-21-22h-7v-9h84zm301 0l19 56-8 3c-29-38-44-50-87-50-22 0-34 3-33 22v78h20c39 0 45-20 49-41h8v91h-8c-2-13-4-41-49-41h-20v88c-1 16 13 18 28 19 40-1 57-4 96-53l8 3-20 59h-170v-9c18-1 30-1 30-28v-167c0-21-16-21-30-21v-9h167zm168 0v9c-12 0-27 0-26 14-1 2 0 5 1 6l41 154h1l40-143c-8-23-16-31-37-31v-9h87v9c-9 0-27 0-27 15 0 1 0 3 1 5l42 155h1l36-137c1-5 3-13 3-21 0-17-16-17-24-17v-9h69v9c-21 1-29 6-39 46l-48 185h-9l-50-179-49 179h-9l-55-205c-8-25-27-26-33-26v-9h84zm386 0l19 56-8 3c-29-38-44-50-87-50-22 0-34 3-33 22v78h20c39 0 45-20 49-41h8v91h-8c-2-13-4-41-49-41h-20v88c-1 16 13 18 28 19 40-1 57-4 96-53l8 3-20 59h-170v-9c19-1 30-1 30-28v-167c0-21-16-21-30-21v-9h167zm185 0l19 56-8 3c-29-38-44-50-87-50-22 0-34 3-33 22v78h20c39 0 45-20 49-41h8v91h-8c-2-13-4-41-49-41h-20v88c-1 16 13 18 28 19 40-1 57-4 96-53l8 3-20 59h-170v-9c19-1 30-1 30-28v-167c0-21-16-21-30-21v-9h167zm103 0v9c-18 0-28 1-28 24v93l76-81c5-6 13-16 13-24 0-10-11-12-21-12v-9h77v9c-15 0-28 5-42 21l-55 58 72 115c11 18 19 21 34 22v9h-86v-9c8-1 24-1 24-10 0-4-2-8-2-8l-62-98-28 30v62c0 21 13 23 28 24v9h-84v-9c18-1 28-3 28-32v-159c0-24-12-25-27-25v-9h83z"/>
</svg>
