<svg class="logo" xmlns="http://www.w3.org/2000/svg" width="96" height="96" viewBox="0 0 960 960">
    <title>24 ways logo</title>
    <path d="M0 480l480-480 480 480-480 480-480-480zm457 138c1-1 3 0 5 2 1 0 2 2 2 5v12h-198v-7c0-2 0-4 1-5 0-2 2-4 3-4l105-106c8-10 16-18 24-26 7-9 13-17 19-25 5-9 9-17 13-26 3-9 4-18 5-28-1-12-3-21-6-29-4-9-9-16-15-21-7-5-14-9-22-12s-17-4-25-3c-10-1-19 1-27 4-9 2-16 7-22 12-7 5-12 11-15 19-5 7-8 15-9 24-1 3-3 5-4 6-2 1-4 1-7 1l-10-1c1-14 5-26 10-35 5-11 12-20 21-26 8.06-8 17-13 28-16 11.289-5 22-6 36-6 11.289 0 22 1 33 5 10.711 3 20 8 28 15 8.446 7 14 15 20 26 4.458 10 6 22 7 37-.157 11-2 21-5 32-4.012 9-9 19-15 28-5.964 9-14 18-21 27-8.06 8-17 17-25 26l-96 98c4.253-2 9-3 14-3 5.036-1 10-1 15 0h133zm238-85v11c0 1-1 2-1 4-1.352 0-3 1-5 1h-50v88h-18v-88h-146c-1.837 0-4-1-5-1-.816-2-2-3-2-4l-2-10 154-204h19v203h56zm-75-1v-160c-1-3 0-6 0-8 0-4 0-6 1-9l-133 177h132z" fill-rule="evenodd"/>
</svg>
