<svg class="logo" xmlns="http://www.w3.org/2000/svg" width="166" height="40" viewBox="0 0 1660 400">
    <title>nGenera logo</title>
    <path d="M1622 137h-7v-3h18v3h-7v20h-4v-20zm15-3h5l7 17 7-17h5v23h-3v-19l-8 19h-2l-8-19v19h-3v-23zm-1104 180h28v-75c-1-35 17-50 41-49 17-1 33 10 33 38v86h28v-94c0-40-25-56-53-56-23 0-42 10-49 26v-22h-28v146zm273-122v28h48v61c-13 7-33 11-53 11-49 0-86-38-85-87-1-48 31-88 82-87 22-1 42 5 61 23l21-23c-18-18-42-28-82-28-67 0-114 50-114 115 0 62 42 115 117 115 26 0 61-8 83-20v-108h-78zm250 59v-10c0-38-20-77-71-77-45 0-76 33-76 77 0 43 29 77 75 77 28 0 49-10 65-30l-21-16c-11 13-23 21-40 22-26-1-50-18-49-43h117zm-117-22c0-20 17-43 46-43 27 0 41 18 42 43h-88zm140 85h28v-75c-1-35 17-50 41-49 17-1 33 10 33 38v86h28v-94c0-40-25-56-53-56-23 0-42 10-49 26v-22h-28v146zm297-63v-10c0-38-20-77-71-77-45 0-76 33-76 77 0 43 29 77 75 77 28 0 49-10 65-30l-21-16c-11 13-23 21-40 22-26-1-50-18-49-43h117zm-117-22c0-20 17-43 46-43 27 0 41 18 42 43h-88zm140 85h28v-73c-1-33 14-48 42-47 4-1 9 0 14 2l1-30c-4-2-9-2-12-2-19 0-38 10-44 26h-1v-22h-28v146zm121-111c9-8 20-17 42-17 23 0 34 16 35 31v6h-21c-45 0-81 13-81 51 0 28 23 44 51 44 22 0 39-8 52-26 0 7 0 14 1 22h25c-1-8-2-17-1-26v-75c-1-26-19-49-62-49-21 0-43 7-58 22l17 17zm76 40v9c0 20-11 43-42 43-19 0-31-8-31-24 0-24 32-28 58-28h15zm-1367 157c-8 0-16-3-23-11l-195-194c-24-24-1-49 0-48l97-97c33-34 77-50 122-50 44 0 88 16 121 50l98 97c24 24 0 48 0 48l-24 25-122-122c-21-20-47-30-73-30-27 0-53 10-73 30l-73 73 146 146 49-49-98-97 25-24c7-9 16-12 23-11 14-1 24 10 25 10l122 122-122 121s-11 11-25 11z"/>
</svg>
