<svg class="logo" xmlns="http://www.w3.org/2000/svg" width="57" height="60" viewBox="0 0 570 600">
    <title>Fontdeck logo</title>
    <path d="M514 471c0 26 0 55 7 66 6 9 16 10 33 8 8-1 11 1 12 5l2 11c1 4-1 6-5 8l-109 27c-5 2-8 0-11-6l-11-36c-23 26-66 44-98 44-38 0-52-3-86-35-29-25-46-55-46-103 0-57 10-95 51-140 28-31 62-46 107-46 24 0 45 4 59 10l-1-135c0-71-47-97-127-97-83 0-142 57-142 145v87h66c5 0 6 5 5 8l-4 27c-1 3-3 4-9 4h-58c-1 78-1 197 0 217 1 16 9 22 21 22h26c7 0 8 2 8 6v15c0 4-1 7-5 7s-31-2-102-2c-47 0-84 2-90 2-4 0-6-2-6-7v-16c0-3 2-5 7-5h24c14 0 20-8 20-24l-2-216h-45c-4 0-5-2-5-7l3-26c0-4 2-5 8-5l39-2c0-7-1-282 318-282 46 0 97 11 120 22 19 9 25 14 26 25 1 17 0 424 0 424zm-93 30l-2-132c0-13-1-25-6-34-11-20-35-33-55-33-14 0-27 5-38 21-18 23-24 48-24 83 0 85 38 144 83 144 19 0 27-7 35-14 5-6 7-19 7-35z"/>
</svg>
