<svg class="logo" xmlns="http://www.w3.org/2000/svg" width="100%" height="100%" viewBox="0 0 1000 380" fill="#390">
  <title>Ning</title>
  <path d="M92 59h-1v181c0 10.4 6.3 17.3 17 17h32v32H0v-32h30c12.7.3 17-6.6 17-17V52c0-11-4.3-15.3-17-15H0V5h125l123 204h1V57c0-13-7-20.3-22-20h-26V5h138v32h-25c-15.2-.3-21 6-21 15v237h-63L92 59zm249 230v-28h19c12.3-.2 17.4-5 17-17V134c.4-12-4.7-16.8-17-17h-19V89h86v155c.3 12 5.4 16.8 17 17h21v28H341zM397 0c16 0 30 13.8 30 31s-14 31-30 31c-17 0-31-13.8-31-31s14-31 31-31zm159 126c17-27 40.4-44 73-44 37.6 0 60.4 22.7 60 69v93c.4 12 5.5 16.7 26 17h15v28H607v-28h10c17.4-.3 22.5-5 22-17v-90c.5-31.7-16.4-38.6-37-39-20 .4-47 22.3-47 50v79c0 12 5 16.7 17 17h16v28H465v-28h23c12-.3 17-5 17-17V140c0-18.6-5-23.3-27-23h-13V89h90v37h1zm337 131c46.5.4 69.7 20 70 57-.3 28.3-15.5 66-119 66-87.4 0-109-22.3-109-48 0-23.6 22-32.6 42-35v-1c-22.5-4-35.2-12.5-35-39-.2-22.4 16.7-39 39-40v-1c-23-11.8-32-32.4-32-58 0-52.4 45.7-76 92-76 28.2 0 56 8.6 72 21 11.2-14.6 26.5-21 44-21 24.8 0 43 17.6 43 42 0 18-8.5 30.5-27 30-14 .5-26-6.8-26-22 0-13.6 7.3-22 20-25 .4-1.8-2.6-6.6-15-7-11.7.4-21.8 10-28 19 7.4 14.5 11.7 24.7 12 39-.3 54.8-47 75-95 75-14 0-29.4-1.8-45-7-6 3.5-11 8.2-11 16 0 7.7 6.7 15.4 36 15h72zm-71 44c-28.8 0-44 11.5-44 29 0 15 16.5 26 64 26 46 0 71-9 71-30 0-14.3-11-25-27-25h-64zm20-92c24.8 0 37-17.2 37-49 0-36.8-12.2-54-37-54-23.8 0-36 17.2-36 52 0 33.8 12.2 51 36 51z"/>
</svg>
